<svg xmlns="http://www.w3.org/2000/svg" xml:space="preserve" fill-rule="evenodd" stroke-linecap="round" stroke-linejoin="round" stroke-miterlimit="1.5" clip-rule="evenodd" viewBox="0 0 250 250"><path fill="none" d="M0 0h1000v1000H0z"/><path fill="#e2e1bf" d="M153.7 608c-28.4-54-156-97-148.4-339.5 5-159 106-230.3 181.7-229.3 45.6.6 101.8 7.6 243 67.3 99 42 145.2 52.7 174 41.8 70.2-26.6 78.9-37.6 117.6-57.4 35.8-18.4 73-47 100.4-58 82.3-33 224.3 2.4 138 160-21.7 39.6-3 119.8-26.9 288.5-27 190-78.4 135.4-88.1 180-7 32.1 55.5 144.5 15 220-53 98.6-196.6 64.4-243 61.5-70-4.4-180.9 82-280 50-213.3-69-120.6-265.8-183.3-385Z"/><ellipse cx="29.9" cy="34.3" fill="#e2e1bf" rx="10.1" ry="8.3"/><path fill="#589765" d="M29.9 19.1c5.6 0 10 10.3 10 14.8 0 4.6-5.3 5-11 5-5.5 0-8.8-1.8-8.8-6.3C20 28 24.3 19 29.9 19Z"/><path fill="#3b7847" d="M28.7 19.3c.1 0-3.7 11-3.7 14.7 0 3.8 2 4.8 2 4.8-5.2-.6-7-2.3-7-6 0-3.8 2.5-12 8.7-13.5Z"/><ellipse cx="106" cy="44.2" fill="#e2e1bf" rx="7.6" ry="6.2"/><path fill="#589765" d="M106 32.9c4.2 0 7.6 7.6 7.6 11 0 3.5-4 3.7-8.2 3.7-4.2 0-6.7-1.3-6.7-4.7 0-3.4 3.2-10 7.4-10Z"/><path fill="#3b7847" d="M105.2 33s-2.8 8.2-2.8 11c0 2.8 1.5 3.6 1.5 3.6-4-.5-5.2-1.8-5.2-4.5 0-2.8 1.8-9 6.5-10.1Z"/><ellipse cx="53.9" cy="55.5" fill="#e2e1bf" rx="23.9" ry="19.5"/><path fill="#589765" d="M54 20c13 0 23.7 24 23.7 34.8 0 10.7-12.7 11.6-25.9 11.6S31 62.4 31 51.6 40.8 20 53.9 20Z"/><path fill="#3b7847" d="M51.2 20.3c.3 0-8.9 26-8.9 34.7 0 8.8 5 11.2 5 11.2-12.5-1.4-16.4-5.4-16.4-14.2 0-8.7 5.7-28 20.3-31.7Z"/><ellipse cx="18.3" cy="92.1" fill="#e2e1bf" rx="16.8" ry="13.7"/><path fill="#589765" d="M18.3 67.2C27.6 67.2 35 84 35 91.6c0 7.6-9 8.2-18.2 8.2S2.1 96.9 2.1 89.4c0-7.6 7-22.2 16.2-22.2Z"/><path fill="#3b7847" d="M16.4 67.4c.2 0-6.2 18.2-6.2 24.4 0 6.1 3.5 7.9 3.4 7.9-8.7-1-11.5-3.9-11.5-10 0-6.2 4-19.7 14.3-22.3Z"/><ellipse cx="59.4" cy="74.9" fill="#e2e1bf" rx="13" ry="10.9"/><path fill="#589765" d="M59.4 55c7.2 0 13 13.4 13 19.4 0 6-7 6.5-14.2 6.5-7.1 0-11.4-2.2-11.4-8.2 0-6 5.4-17.7 12.6-17.7Z"/><path fill="#3b7847" d="M58 55.2s-5 14.5-5 19.4c0 4.9 2.8 6.2 2.8 6.2-6.8-.7-9-3-9-8C46.8 68 50 57.4 58 55.3Z"/><path fill="#296034" d="m113.5 35 8.5 36h-17l8.5-36Z"/><path fill="#4db343" d="m113.5 35 8.5 36h-10.8l2.3-36Z"/><path fill="none" stroke="#4c4c4c" stroke-width="4" d="M113.5 66.3v11"/><path fill="#589765" d="M179 566.7C131 540.3 51.2 511.9 20 368-10.8 226 53.5 81 179 45.8c41.3-11.6 127.3 7.5 260.4 62.2 93.4 38.3 136.9 48.1 164 38.2C669.5 121.8 792.7 48.7 860 43c50.3-4.2 127.7 20.3 95 118.6-3.2 9.5-14.7 41.6-15 56.7-2 82.5-15.4 249.5-27.5 314.2C890.4 651 795 602 822.9 681.4c22.8 64.7 54.7 159 2.1 210-83.2 80.5-182 20.8-207.2 19.3-66-4-194.5 78.5-288 49.4-93.6-29-110-177.1-107.4-226.2 2.6-49-4.7-146-43.4-167.2Z"/><path fill="#8dcf86" d="M254 246.5c-30-42 7.8-199.4-117-134.3-77.7 40.6-129 175.6-105.1 257 69 234.4 197.6 136 200.8 242.3 5.4 179.2 2 301.1 120 329.6 50.4 12.1 141.6 1 178-63.4 19.3-34.1 97.8-106 172-28.2 22.5 23.5 58.9 32.5 84.5 10.5 28.2-24.3 22.6-64.8 7.2-85-22.4-29.6-46-64.7-36.7-108.3 21.2-98.3 79.8-62.6 100.5-107.9 44.4-97.2-160.1-135-230.5-74.1C535.8 564 339 365.7 254 246.5Z"/><path fill="#296034" d="m142.7 27.6 13.8 58.5h-27.6l13.8-58.5Z"/><path fill="#4db343" d="m142.7 27.6 13.8 58.5H139l3.7-58.5Z"/><path fill="none" stroke="#4c4c4c" stroke-width="4" d="M142.7 78.4v17.9"/><path fill="#296034" d="m166.9 35 8.8 37.7H158l8.9-37.7Z"/><path fill="#4db343" d="m166.9 35 8.8 37.7h-11.2l2.4-37.7Z"/><path fill="none" stroke="#4c4c4c" stroke-width="4" d="M166.9 67.7v11.5"/><path fill="#296034" d="m196.2 16.7 10.3 44.1h-20.7l10.4-44Z"/><path fill="#4db343" d="m196.2 16.7 10.3 44.1h-13l2.7-44Z"/><path fill="none" stroke="#4c4c4c" stroke-width="4" d="M196.2 55v13.5"/><path fill="#296034" d="m224.8 25 8.3 35h-16.5l8.2-35Z"/><path fill="#4db343" d="m224.8 25 8.3 35h-10.4l2.1-35Z"/><path fill="none" stroke="#4c4c4c" stroke-width="4" d="M224.8 55.3V66"/><path fill="#296034" d="m250.3 16 10.2 43.6H240L250.3 16Z"/><path fill="#4db343" d="m250.3 16 10.2 43.6h-13l2.8-43.6Z"/><path fill="none" stroke="#4c4c4c" stroke-width="4" d="M250.3 53.8v13.4"/><path fill="none" stroke="#2d5836" stroke-linecap="butt" stroke-width="4" d="M90.3 365C71 255.3 116.7 209.7 208.5 246.8c67.2 27.1 91.4 66.6 94.9 73.2 16.6 31.6 60.3 37.6 70.2 21.7M112.4 205.5C93.3 95.8 191.1 40.8 283 78c37.1 15 123.5 24.6 178.3 62.4 45.4 31.4 92.2 31.6 93.8 34.6"/><path fill="#296034" d="m258.4 75 8.4 35.6H250l8.4-35.6Z"/><path fill="none" stroke="#2d5836" stroke-width="18.7" d="M403 212.6c-6 9-21.2 35.9-127.6 25-73.7-7.6-104.5-46.4-161.6-32.4C39 223.5 11.8 346.6 95 456.4c30.3 40 138.3 113.6 195 115.9"/><path fill="#e2e1bf" d="M256.5 152.5c.3-23-11-17.2-55-17.5-40.1-.3-124.9-6.7-120 35 1.5 13.5 79.7 12 95 15 27.4 5.5 79.7-10.8 80-32.5Z"/><path fill="#d9d9d9" d="M175.8 114.4h.8l8.4 21h-33.8l8.5-21h1l7.5-6.3 7.6 6.3Z"/><path fill="#595959" d="m168.3 120 3.3 15.4H165l3.3-15.4Z"/><path fill="#8c8c8c" d="m166 113.6 1 .8-1.2.5-4.4 20.5h-10.6l8.4-21h1l8-6.3-2.1 5.5Z"/><path fill="#f88948" d="M159.7 105h8.6v3.1h-8.6z"/><path fill="#d9d9d9" d="M247.4 165.3h.7l8.4 21h-33.7l8.4-21h1l7.6-6.4 7.6 6.4Z"/><path fill="#8c8c8c" d="m237.6 164.5.9.8-1.2.5-4.4 20.4h-10.6l8.4-21h1l8-6.3-2 5.6Z"/><path fill="red" d="M231.2 155.9h8.6v3.1h-8.6z"/><path fill="#d9d9d9" d="M165.7 165.7h.7l8.4 21h-33.7l8.4-21h1l7.6-6.4 7.6 6.4Z"/><path fill="#8c8c8c" d="m156 165 .8.7-1.2.5-4.3 20.5h-10.7l8.5-21h.9l8-6.4-2 5.6Z"/><path fill="#065e7b" d="M149.5 156.3h8.6v3.1h-8.6z"/><path fill="#d9d9d9" d="M201.8 170.2h24.4V192h-24.4z"/><path fill="#8c8c8c" d="M190 170.3h12v21.6h-12z"/><path fill="#d9d9d9" d="M190 170h36.2v1.6H190z"/><path fill="#8c8c8c" d="M233.7 132h24.1v10.9h-24.1z"/><path fill="#595959" d="M233.7 121.2h24.1v10.9h-24.1z"/><path fill="#d9d9d9" d="M233.7 121.2H270v1.3h-36.3z"/><path fill="#8c8c8c" d="M193.8 125.9h24.1v10.9h-24.1z"/><path fill="#d9d9d9" d="M218 115.1h12.1v21.8H218z"/><path fill="#595959" d="M193.8 115.1h24.1V126h-24.1z"/><path fill="#d9d9d9" d="M193.8 115.1h36.3v1.3h-36.3z"/><path fill="red" d="m230.6 88-19.3 6 1 3 19.2-6-1-3Z"/><path fill="#595959" d="M212.8 78.6c0-4.8-5.7-4.8-5.6 0 .3 15.4.4 68.4 0 79.4-.2 4.8 5.5 4.8 5.6 0V78.6Z"/><path fill="#f88948" d="m198.6 84.8-20-2-.4 3.3 20.1 1.8.3-3.1Z"/><path fill="none" stroke="#4db343" stroke-linecap="butt" stroke-width="9.3" d="M212.8 85c12.4 0 16.8 4.2 16.8 10.3 0 6.2-10 11.2-22.5 11.2-12.4 0-25.8-5.2-25.8-11.4 0-6.1 12.2-10 24.6-10"/><path fill="none" stroke="#296034" stroke-linecap="butt" stroke-width="9.3" d="M212.8 85c11.7 0 20 4.4 20 9.3 0 5-9.6 9-21.4 9-11.8 0-21.3-4-21.3-9s5.3-9.3 17-9.3"/><path fill="#f7db6b" d="m190 91-19.3 6 1 3 19.2-6-1-3Zm42 6-17 11.2 1.8 2.6 16.9-11.1-1.8-2.7Z"/><path fill="#f88948" d="m199.5 103.2-17.7 9.9 1.6 2.8L201 106l-1.5-2.8Z"/><path fill="#065e7b" d="M237.8 171.4H267l19.5-22.6h-31.2l-17.5 22.6Z"/><path fill="#8c8c8c" d="M237.8 171.4H267v48.7h-29.2z"/><path fill="#595959" d="M247.5 200.6h9.7v9.7h-9.7zm0-19.5h9.7v9.7h-9.7z"/><path fill="#3b7847" d="M243.8 185c1.6 0 2.9-.1 4 .6 3.5 2.3 5.4 8.2 5.4 14.2 0 6.4-2.4 13.6-6.6 14.6-1.3.4-1.5 0-2.5 0-5 0-9.1-6.5-9.1-14.6 0-8 3.8-14.7 8.8-14.8Z"/><ellipse cx="246" cy="199.8" fill="#4db343" rx="7.1" ry="14.7"/><path fill="none" stroke="#4c4c4c" stroke-width="4" d="M244 206.8V225"/><path fill="#2d5836" d="m251.4 224.4-15-3.8-4.3 13.1 16.4 3.6 3-12.9Z"/><path fill="#8c8c8c" d="M128.7 228h18.6v32.5h-18.6z"/><path fill="#065e7b" d="M128.7 228h18.6l8.2-15.1h-18.3l-8.5 15.1Z"/><path fill="#d9d9d9" d="m172 212.9 8.2 15.7v31.9h-33V228l8.3-15.1H172Z"/><path fill="#595959" d="M134.3 247.7h6.5v12.8h-6.5zm32.5-13.1h6.5v6.5h-6.5zm0 13.3h6.5v6.5h-6.5zm-12.9-13.4h6.5v6.5h-6.5zm13.1-7.1c.4-.8.5-1.8.5-2.8 0-3-1.5-5.5-3.5-5.5s-3.5 2.5-3.5 5.5c0 1 .2 2 .5 2.8h6Zm-13.1 20.3h6.5v6.5h-6.5zm-19.5-13.1h6.5v6.5h-6.5z"/><path fill="red" d="m75.4 250 12.6.2 7 5.9H82.2l-6.8-6.1Z"/><path fill="#8c8c8c" d="m68.7 256 6.7-6 6.8 6v17.4H68.7v-17.3Z"/></svg>