<?xml version="1.0" encoding="UTF-8" standalone="no"?>
<!DOCTYPE svg PUBLIC "-//W3C//DTD SVG 1.1//EN" "http://www.w3.org/Graphics/SVG/1.1/DTD/svg11.dtd">
<svg width="250px" height="250px" version="1.1" xmlns="http://www.w3.org/2000/svg" xmlns:xlink="http://www.w3.org/1999/xlink" xml:space="preserve" xmlns:serif="http://www.serif.com/" style="fill-rule:evenodd;clip-rule:evenodd;stroke-linecap:round;stroke-linejoin:round;stroke-miterlimit:1.5;">
    <rect id="Artboard" x="0" y="0" width="999.991" height="1000" style="fill:none;"/>
    <g id="background">
    </g>
    <path id="OSTROV" d="M153.69,607.991C125.315,554.043 -2.239,510.97 5.323,268.462C10.278,109.557 111.31,38.171 186.957,39.195C232.625,39.814 288.838,46.813 429.96,106.533C529.062,148.47 575.23,159.18 603.907,148.321C674.243,121.686 682.87,110.67 721.578,90.862C757.384,72.539 794.527,43.846 821.957,32.863C904.286,-0.1 1046.28,35.344 960,192.955C938.336,232.527 957.089,312.674 933.144,481.357C906.159,671.461 854.682,616.792 845,661.357C838.009,693.537 900.472,805.911 860,881.357C807.077,980.013 663.418,945.756 616.957,942.863C547.037,938.51 436.097,1024.89 336.957,992.863C123.707,923.984 216.359,727.142 153.69,607.991Z" style="fill:#e2e1bf;"/>
    <g>
        <ellipse cx="29.851" cy="34.259" rx="10.149" ry="8.284" style="fill:#e2e1bf;"/>
        <path d="M29.897,19.141C35.499,19.141 39.993,29.368 39.993,33.94C39.993,38.512 34.582,38.889 28.981,38.889C23.379,38.889 20.083,37.147 20.083,32.575C20.083,28.003 24.296,19.141 29.897,19.141Z" style="fill:#589765;"/>
        <path d="M28.729,19.27C28.842,19.241 24.954,30.309 24.954,34.033C24.954,37.757 27.072,38.813 27.046,38.81C21.759,38.205 20.083,36.483 20.083,32.759C20.083,29.035 22.522,20.878 28.729,19.27Z" style="fill:#3b7847;"/>
    </g>
    <g>
        <ellipse cx="106.019" cy="44.185" rx="7.591" ry="6.196" style="fill:#e2e1bf;"/>
        <path d="M106.054,32.878C110.244,32.878 113.605,40.527 113.605,43.946C113.605,47.366 109.558,47.648 105.368,47.648C101.178,47.648 98.713,46.345 98.713,42.926C98.713,39.506 101.864,32.878 106.054,32.878Z" style="fill:#589765;"/>
        <path d="M105.18,32.974C105.265,32.952 102.356,41.23 102.356,44.016C102.356,46.802 103.94,47.591 103.921,47.589C99.966,47.137 98.713,45.849 98.713,43.063C98.713,40.277 100.537,34.177 105.18,32.974Z" style="fill:#3b7847;"/>
    </g>
    <g>
        <ellipse cx="53.854" cy="55.531" rx="23.854" ry="19.469" style="fill:#e2e1bf;"/>
        <path d="M53.964,20C67.129,20 77.691,44.036 77.691,54.781C77.691,65.527 64.975,66.412 51.809,66.412C38.644,66.412 30.896,62.319 30.896,51.574C30.896,40.829 40.799,20 53.964,20Z" style="fill:#589765;"/>
        <path d="M51.218,20.303C51.484,20.234 42.345,46.246 42.345,55C42.345,63.754 47.323,66.234 47.262,66.227C34.835,64.807 30.896,60.759 30.896,52.006C30.896,43.252 36.629,24.082 51.218,20.303Z" style="fill:#3b7847;"/>
    </g>
    <g>
        <ellipse cx="18.256" cy="92.141" rx="16.775" ry="13.691" style="fill:#e2e1bf;"/>
        <path d="M18.333,67.154C27.591,67.154 35.018,84.057 35.018,91.613C35.018,99.17 26.076,99.793 16.818,99.793C7.56,99.793 2.111,96.914 2.111,89.358C2.111,81.801 9.075,67.154 18.333,67.154Z" style="fill:#589765;"/>
        <path d="M16.402,67.367C16.589,67.319 10.162,85.611 10.162,91.767C10.162,97.923 13.663,99.667 13.62,99.662C4.881,98.663 2.111,95.817 2.111,89.662C2.111,83.506 6.142,70.025 16.402,67.367Z" style="fill:#3b7847;"/>
    </g>
    <g>
        <ellipse cx="59.351" cy="74.865" rx="12.995" ry="10.885" style="fill:#e2e1bf;"/>
        <path d="M59.411,55C66.583,55 72.336,68.438 72.336,74.446C72.336,80.454 65.409,80.949 58.237,80.949C51.065,80.949 46.844,78.66 46.844,72.653C46.844,66.645 52.239,55 59.411,55Z" style="fill:#589765;"/>
        <path d="M57.915,55.169C58.06,55.131 53.081,69.674 53.081,74.568C53.081,79.462 55.793,80.849 55.76,80.845C48.99,80.051 46.844,77.788 46.844,72.894C46.844,68 49.967,57.282 57.915,55.169Z" style="fill:#3b7847;"/>
    </g>
    <g>
        <path d="M113.495,34.931L121.991,71.036L105,71.036L113.495,34.931Z" style="fill:#296034;"/>
        <path d="M113.495,34.931L121.991,71.036L111.232,71.036L113.495,34.931Z" style="fill:#4db343;"/>
        <path d="M113.495,66.283L113.495,77.327" style="fill:none;stroke:#4c4c4c;stroke-width:4px;"/>
    </g>
    <path id="OSTROV1" serif:id="OSTROV" d="M178.951,566.685C130.927,540.278 51.194,511.876 20,368.071C-10.788,226.137 53.54,81.075 178.951,45.847C220.341,34.221 306.339,53.336 439.358,107.966C532.769,146.329 576.287,156.126 603.317,146.192C669.613,121.827 792.79,48.654 860.084,42.992C910.37,38.762 987.811,63.31 955.084,161.602C951.933,171.067 940.446,203.204 940.084,218.288C938.105,300.845 924.692,467.81 912.587,532.477C890.392,651.057 795.013,602.078 822.916,681.357C845.701,746.096 877.605,840.415 825,891.357C741.849,971.881 643.03,912.249 617.784,910.724C551.879,906.742 423.281,989.181 329.747,960.149C236.213,931.117 219.722,783.003 222.352,733.926C224.983,684.849 217.667,587.973 178.951,566.685Z" style="fill:#589765;"/>
    <path d="M253.905,246.528C223.925,204.578 261.804,47.053 137.092,112.161C59.159,152.848 7.877,287.801 31.832,369.234C100.777,603.603 229.442,505.153 232.635,611.528C238.015,790.746 234.657,912.637 352.635,941.087C402.996,953.231 494.242,942.058 530.608,877.748C549.945,843.552 628.434,771.669 702.635,849.46C725.115,873.028 761.478,882.035 787.055,860C815.287,835.677 809.653,795.206 794.345,775C771.902,745.375 748.234,710.258 757.635,666.659C778.818,568.426 837.367,604.15 858.066,558.83C902.476,461.597 697.953,423.8 627.635,484.659C535.801,564.139 339.049,365.669 253.905,246.528Z" style="fill:#8dcf86;"/>
    <g id="pole">
    </g>
    <g id="kere">
    </g>
    <g>
        <g>
            <path d="M142.699,27.598L156.458,86.072L128.941,86.072L142.699,27.598Z" style="fill:#296034;"/>
            <path d="M142.699,27.598L156.458,86.072L139.034,86.072L142.699,27.598Z" style="fill:#4db343;"/>
            <path d="M142.699,78.374L142.699,96.26" style="fill:none;stroke:#4c4c4c;stroke-width:4px;"/>
        </g>
        <g>
            <path d="M166.855,35L175.721,72.681L157.989,72.681L166.855,35Z" style="fill:#296034;"/>
            <path d="M166.855,35L175.721,72.681L164.493,72.681L166.855,35Z" style="fill:#4db343;"/>
            <path d="M166.855,67.721L166.855,79.247" style="fill:none;stroke:#4c4c4c;stroke-width:4px;"/>
        </g>
        <g>
            <path d="M196.172,16.718L206.547,60.813L185.797,60.813L196.172,16.718Z" style="fill:#296034;"/>
            <path d="M196.172,16.718L206.547,60.813L193.408,60.813L196.172,16.718Z" style="fill:#4db343;"/>
            <path d="M196.172,55.008L196.172,68.496" style="fill:none;stroke:#4c4c4c;stroke-width:4px;"/>
        </g>
        <g>
            <path d="M224.839,25L233.055,59.919L216.623,59.919L224.839,25Z" style="fill:#296034;"/>
            <path d="M224.839,25L233.055,59.919L222.65,59.919L224.839,25Z" style="fill:#4db343;"/>
            <path d="M224.839,55.322L224.839,66.003" style="fill:none;stroke:#4c4c4c;stroke-width:4px;"/>
        </g>
    </g>
    <g>
        <path d="M250.252,15.992L260.504,59.563L240,59.563L250.252,15.992Z" style="fill:#296034;"/>
        <path d="M250.252,15.992L260.504,59.563L247.521,59.563L250.252,15.992Z" style="fill:#4db343;"/>
        <path d="M250.252,53.827L250.252,67.154" style="fill:none;stroke:#4c4c4c;stroke-width:4px;"/>
    </g>
    <g id="male-cesty" serif:id="male cesty">
        <path d="M90.283,365C71.124,255.272 116.676,209.705 208.488,246.795C275.651,273.927 299.89,313.387 303.377,320C320.045,351.601 363.715,357.647 373.582,341.706" style="fill:none;stroke:#2d5836;stroke-width:4px;stroke-linecap:butt;"/>
        <path d="M112.435,205.533C93.276,95.805 191.106,40.829 282.919,77.919C320.027,92.91 406.372,102.502 461.177,140.311C506.63,171.667 553.439,171.931 555,174.89" style="fill:none;stroke:#2d5836;stroke-width:4px;stroke-linecap:butt;"/>
        <g id="les">
            <g>
                <g>
                    <path d="M258.375,75L266.75,110.595L250,110.595L258.375,75Z" style="fill:#296034;"/>
                </g>
            </g>
        </g>
    </g>
    <g id="hory">
    </g>
    <g id="ker">
    </g>
    <g id="ker1" serif:id="ker">
    </g>
    <g id="ker2" serif:id="ker">
    </g>
    <g id="strom">
    </g>
    <g id="strom1" serif:id="strom">
    </g>
    <g id="ker3" serif:id="ker">
    </g>
    <g id="cesty-velke" serif:id="cesty velke">
        <path d="M403.011,212.619C397.011,221.618 381.789,248.486 275.406,237.553C201.73,229.981 170.918,191.217 113.773,205.193C39.107,223.453 11.779,346.563 95,456.357C125.287,496.315 233.312,569.995 290,572.305" style="fill:none;stroke:#2d5836;stroke-width:18.67px;"/>
    </g>
    <g id="strom2" serif:id="strom">
    </g>
    <g id="strom3" serif:id="strom">
    </g>
    <g id="strom4" serif:id="strom">
    </g>
    <g id="strom5" serif:id="strom">
    </g>
    <g id="stromy">
    </g>
    <g id="namesti">
        <path id="namesti1" serif:id="namesti" d="M256.452,152.46C256.763,129.408 245.456,135.33 201.452,135C161.353,134.699 76.648,128.268 81.452,170C83.002,183.462 161.179,181.924 176.452,185C203.88,190.524 256.159,174.173 256.452,152.46Z" style="fill:#e2e1bf;"/>
        <g id="satn">
            <path d="M175.828,114.423L176.561,114.423L185,135.388L151.246,135.388L159.684,114.423L160.631,114.423L168.229,108.057L175.828,114.423Z" style="fill:#d9d9d9;"/>
            <path d="M168.299,120L171.598,135.388L165,135.388L168.299,120Z" style="fill:#595959;"/>
            <path d="M166.082,113.632L166.96,114.423L165.778,114.906L161.418,135.388L150.774,135.388L159.213,114.423L160.16,114.423L168.229,108.057L166.082,113.632Z" style="fill:#8c8c8c;"/>
            <rect x="159.655" y="105" width="8.575" height="3.057" style="fill:#f88948;"/>
        </g>
        <g id="satn1" serif:id="satn">
            <path d="M247.353,165.282L248.087,165.282L256.526,186.247L222.771,186.247L231.21,165.282L232.157,165.282L239.755,158.916L247.353,165.282Z" style="fill:#d9d9d9;"/>
            <path d="M237.607,164.491L238.486,165.282L237.304,165.764L232.943,186.247L222.3,186.247L230.739,165.282L231.685,165.282L239.755,158.916L237.607,164.491Z" style="fill:#8c8c8c;"/>
            <rect x="231.18" y="155.859" width="8.575" height="3.057" style="fill:#f00;"/>
        </g>
        <g id="satn2" serif:id="satn">
            <path d="M165.669,165.708L166.403,165.708L174.841,186.673L141.087,186.673L149.526,165.708L150.473,165.708L158.071,159.342L165.669,165.708Z" style="fill:#d9d9d9;"/>
            <path d="M155.923,164.917L156.801,165.708L155.62,166.191L151.259,186.673L140.616,186.673L149.054,165.708L150.001,165.708L158.071,159.342L155.923,164.917Z" style="fill:#8c8c8c;"/>
            <rect x="149.496" y="156.285" width="8.575" height="3.057" style="fill:#065e7b;"/>
        </g>
        <g>
            <rect x="201.776" y="170.249" width="24.395" height="21.756" style="fill:#d9d9d9;"/>
            <rect x="190" y="170.292" width="12.025" height="21.567" style="fill:#8c8c8c;"/>
            <rect x="190" y="170" width="36.172" height="1.608" style="fill:#d9d9d9;"/>
        </g>
        <g id="stanek">
            <rect x="233.733" y="132.022" width="24.146" height="10.921" style="fill:#8c8c8c;"/>
            <rect x="233.733" y="121.187" width="24.146" height="10.878" style="fill:#595959;"/>
            <rect x="233.685" y="121.187" width="36.267" height="1.281" style="fill:#d9d9d9;"/>
        </g>
        <g id="stanek1" serif:id="stanek">
            <rect x="193.837" y="125.912" width="24.146" height="10.921" style="fill:#8c8c8c;"/>
            <rect x="217.983" y="115.077" width="12.121" height="21.756" style="fill:#d9d9d9;"/>
            <rect x="193.837" y="115.077" width="24.146" height="10.878" style="fill:#595959;"/>
            <rect x="193.789" y="115.077" width="36.267" height="1.281" style="fill:#d9d9d9;"/>
        </g>
        <g id="majka">
            <path d="M230.585,87.935L211.315,94.004L212.269,97.035L231.54,90.966L230.585,87.935Z" style="fill:#f00;"/>
            <path d="M212.753,78.586C212.728,73.822 207.068,73.787 207.172,78.586C207.508,93.996 207.564,147.045 207.172,158.017C207.001,162.804 212.735,162.796 212.753,158.017C212.842,133.44 212.831,93.48 212.753,78.586Z" style="fill:#595959;"/>
            <path d="M198.642,84.772L178.527,82.887L178.23,86.051L198.346,87.935L198.642,84.772Z" style="fill:#f88948;"/>
            <path d="M212.816,85C225.239,85 229.624,89.156 229.624,95.315C229.624,101.475 219.537,106.475 207.114,106.475C194.69,106.475 181.325,101.303 181.325,95.144C181.325,88.985 193.505,85.122 205.928,85.122" style="fill:none;stroke:#4db343;stroke-width:9.33px;stroke-linecap:butt;"/>
            <path d="M212.764,85.01C224.537,85.01 232.752,89.382 232.752,94.328C232.752,99.274 223.193,103.29 211.42,103.29C199.646,103.29 190.088,99.274 190.088,94.328C190.088,89.382 195.395,85 207.169,85" style="fill:none;stroke:#296034;stroke-width:9.33px;stroke-linecap:butt;"/>
            <path d="M189.97,90.935L170.7,97.004L171.654,100.035L190.925,93.966L189.97,90.935Z" style="fill:#f7db6b;"/>
            <path d="M231.93,97.035L215.088,108.194L216.843,110.843L233.685,99.683L231.93,97.035Z" style="fill:#f7db6b;"/>
            <path d="M199.483,103.237L181.843,113.088L183.393,115.862L201.032,106.012L199.483,103.237Z" style="fill:#f88948;"/>
        </g>
    </g>
    <g id="smrky">
    </g>
    <g id="listnace">
    </g>
    <g id="lanoka">
        <g id="D9">
        </g>
        <g id="D8" opacity="0.99">
            <g id="dum-lanoka" serif:id="dum lanoka">
                <path d="M237.802,171.402L267.024,171.402L286.505,148.761L255.28,148.761L237.802,171.402Z" style="fill:#065e7b;"/>
                <rect x="237.802" y="171.402" width="29.222" height="48.704" style="fill:#8c8c8c;"/>
                <rect x="247.542" y="200.624" width="9.741" height="9.741" style="fill:#595959;"/>
                <rect x="247.542" y="181.143" width="9.741" height="9.741" style="fill:#595959;"/>
            </g>
        </g>
    </g>
    <g id="strom6" serif:id="strom">
        <g>
            <path d="M243.791,185.021C245.388,184.995 246.701,184.884 247.857,185.639C251.271,187.867 253.166,193.768 253.166,199.814C253.166,206.229 250.752,213.39 246.623,214.427C245.303,214.759 245.123,214.478 244.083,214.478C239.07,214.478 235,207.907 235,199.814C235,191.721 238.779,185.1 243.791,185.021Z" style="fill:#3b7847;"/>
            <ellipse cx="246.023" cy="199.814" rx="7.143" ry="14.664" style="fill:#4db343;"/>
        </g>
        <path d="M244.083,206.827L244.083,225" style="fill:none;stroke:#4c4c4c;stroke-width:4px;"/>
        <path d="M251.431,224.411L236.4,220.627L232.096,233.738L248.46,237.331L251.431,224.411Z" style="fill:#2d5836;"/>
    </g>
    <g id="satelit">
    </g>
    <g id="domky">
        <g id="D1">
            <rect x="128.724" y="228.023" width="18.568" height="32.453" style="fill:#8c8c8c;"/>
            <path d="M128.724,228.023L147.291,228.023L155.509,212.889L137.211,212.932L128.724,228.023Z" style="fill:#065e7b;"/>
            <path d="M171.943,212.889L180.16,228.607L180.16,260.476L147.291,260.476L147.291,228.023L155.509,212.889L171.943,212.889Z" style="fill:#d9d9d9;"/>
            <rect x="134.311" y="247.713" width="6.55" height="12.763" style="fill:#595959;"/>
            <rect x="166.839" y="234.623" width="6.55" height="6.55" style="fill:#595959;"/>
            <rect x="166.839" y="247.892" width="6.55" height="6.55" style="fill:#595959;"/>
            <rect x="153.909" y="234.454" width="6.55" height="6.55" style="fill:#595959;"/>
            <path d="M167.075,227.391C167.383,226.55 167.546,225.596 167.546,224.625C167.546,221.572 165.97,219.093 164.028,219.093C162.087,219.093 160.51,221.572 160.51,224.625C160.51,225.596 160.673,226.55 160.982,227.391L167.075,227.391Z" style="fill:#595959;"/>
            <rect x="153.909" y="247.723" width="6.55" height="6.55" style="fill:#595959;"/>
            <rect x="134.361" y="234.564" width="6.55" height="6.55" style="fill:#595959;"/>
        </g>
        <g id="D7">
        </g>
        <g id="D71" serif:id="D7">
        </g>
        <g id="D72" serif:id="D7">
        </g>
        <g id="D73" serif:id="D7">
        </g>
        <g id="D74" serif:id="D7">
        </g>
        <g id="D75" serif:id="D7">
        </g>
        <g id="D76" serif:id="D7">
        </g>
        <g id="D77" serif:id="D7">
        </g>
        <g id="D78" serif:id="D7">
        </g>
        <g id="D79" serif:id="D7">
        </g>
        <g id="D710" serif:id="D7">
        </g>
        <g id="D711" serif:id="D7">
        </g>
        <g id="D712" serif:id="D7">
        </g>
        <g id="D713" serif:id="D7">
        </g>
        <g id="D714" serif:id="D7">
        </g>
        <g id="D715" serif:id="D7">
            <path d="M75.351,250L88.028,250.214L95,256.087L82.156,256.087L75.351,250Z" style="fill:#f00;"/>
            <path d="M68.657,256.087L75.351,250L82.156,256.087L82.156,273.4L68.657,273.4L68.657,256.087Z" style="fill:#8c8c8c;"/>
        </g>
        <g id="D716" serif:id="D7">
        </g>
        <g id="D2">
        </g>
        <g id="D21" serif:id="D2">
        </g>
        <g id="D10">
        </g>
        <g id="D101" serif:id="D10">
        </g>
        <g id="D102" serif:id="D10">
        </g>
        <g id="D01">
        </g>
    </g>
    <g id="strom7" serif:id="strom">
    </g>
    <g id="strom8" serif:id="strom">
    </g>
    <g id="staba">
    </g>
    <g id="chladici-vez" serif:id="chladici vez">
    </g>
    <g id="D22" serif:id="D2">
    </g>
    <g id="D5">
    </g>
    <g id="TOVANA">
    </g>
    <g id="strom9" serif:id="strom">
    </g>
    <g id="strom10" serif:id="strom">
    </g>
    <g id="panelaky">
    </g>
    <g id="strom11" serif:id="strom">
    </g>
    <g id="strom12" serif:id="strom">
    </g>
    <g id="letiste">
    </g>
    <g id="strom13" serif:id="strom">
    </g>
    <g id="strom14" serif:id="strom">
    </g>
    <g id="tunel-s-vlakem" serif:id="tunel s vlakem">
    </g>
    <g id="strom15" serif:id="strom">
    </g>
    <g id="hrad">
    </g>
    <g id="auta">
    </g>
    <g id="majak">
    </g>
    <g id="vetrna-elektr" serif:id="vetrna elektr">
    </g>
    <g id="osrov-pokladu" serif:id="osrov pokladu">
    </g>
</svg>
