<svg xmlns="http://www.w3.org/2000/svg" xml:space="preserve" fill-rule="evenodd" stroke-linecap="round" stroke-linejoin="round" stroke-miterlimit="1.5" clip-rule="evenodd" viewBox="0 0 250 250"><path fill="none" d="M-250-500H750V500H-250z"/><path fill="#e2e1bf" d="M-96.3 108c-28.4-54-156-97-148.4-339.5 5-159 106-230.3 181.7-229.3 45.6.6 101.8 7.6 243 67.3 99 42 145.2 52.7 174 41.8 70.2-26.6 78.9-37.6 117.6-57.4 35.8-18.4 73-47 100.4-58 82.3-33 224.3 2.4 138 160-21.7 39.6-3 119.8-26.9 288.5-27 190-78.4 135.4-88.1 180-7 32.1 55.5 144.5 15 220-53 98.6-196.6 64.4-243 61.5-70-4.4-180.9 82-280 50-213.3-69-120.6-265.8-183.3-385Z"/><path fill="#589765" d="M-71 66.7C-119 40.3-198.8 11.9-230-132c-30.8-142 33.5-287 159-322.3 41.3-11.6 127.3 7.5 260.4 62.2 93.4 38.3 136.9 48.1 164 38.2C419.5-378.2 542.7-451.3 610-457c50.3-4.2 127.7 20.3 95 118.6-3.2 9.5-14.7 41.6-15 56.7-2 82.5-15.4 249.5-27.5 314.2C640.4 151 545 102 572.9 181.4c22.8 64.7 54.7 159 2.1 210-83.2 80.5-182 20.8-207.2 19.3-66-4-194.5 78.5-288 49.4-93.6-29-110-177.1-107.4-226.2C-25 185-32.3 88-71 66.7Z"/><path fill="#8dcf86" d="M3.9-253.5c-30-42 7.9-199.4-116.8-134.3-78 40.6-129.2 175.6-105.3 257 69 234.4 197.6 136 200.8 242.3 5.4 179.2 2 301.1 120 329.6 50.4 12.1 141.6 1 178-63.4 19.3-34.1 97.8-106 172-28.2 22.5 23.5 58.9 32.5 84.5 10.5 28.2-24.3 22.6-64.8 7.2-85-22.4-29.6-46-64.7-36.7-108.3 21.2-98.3 79.8-62.5 100.5-107.9 44.4-97.2-160.1-135-230.5-74.1C285.8 64 89-134.3 4-253.5Z"/><path fill="#f7db6b" d="m242 218-4.4.6-2.8 1.2s15.9 6.5 39.4 39.7a382.2 382.2 0 0 1 37 61.7l3.8-1.2 2.3-1c-4.8-9.9-16.5-32-38.1-62.6-17.4-24.6-31.6-35-37.3-38.4Zm12-1.8-6.3 1-2.7.8s16.6 5.8 40 39c22.6 31.8 33 52.6 36.6 60.4l5.9-2.4c-5.3-10.6-16.9-32-37.5-61.2a141.7 141.7 0 0 0-36-37.6Zm-24.2 3.6-3 1.3-3.8 1.9s16.8 5.8 40.3 39c12 17 20.6 31 26.6 41.4l8.2 7.6 5.7 5.4a488.9 488.9 0 0 0-35.5-57.5c-18.8-26.5-34-36.5-38.5-39.1Zm27.4-3.5v.1s15.2 4.8 38.7 38c21.6 30.5 32 50.9 36 59.4l6.2-1.7c-5.3-10.7-16.8-32-37.2-60.8a155.3 155.3 0 0 0-32-34.8l-11.7-.2Zm56.3 11.6c4.5 5 9.6 11.2 15 19 29.1 41 38 63.8 38 63.8l8 1.5s-11-26.1-41-68.5l-4.5-6.2a116 116 0 0 0-15.5-9.6Zm-40.2-11.2c6.4 4 18.3 13.6 33.5 35.2a407 407 0 0 1 36 59.4l2.2-.3 4.6-.2c-5-10.2-16.6-32-37.8-62a171.5 171.5 0 0 0-26.4-30.2c-5.3-1-10.2-1.7-12-2Zm18.5 3.1c6.6 5.6 15.4 14.8 25.9 29.6 23.4 33 33.7 54.2 36.9 61.2l7-.2a452 452 0 0 0-39-64.2 198.3 198.3 0 0 0-18.3-22.5 107.8 107.8 0 0 0-12.5-3.9Zm-71 3.7-7.2 3s15.3 4.8 38.8 38c5.7 8.1 10.6 15.5 14.9 22l5.5 3.3 6.5 5a532 532 0 0 0-22-33.4 140 140 0 0 0-36.4-37.9Zm120.4 23.3a467.2 467.2 0 0 1 28.2 44.9l-13.2-27.4s-8.3-12.6-14.2-17l-.8-.5ZM212 227.4l-6 3.3c5.7 3.2 18.5 12.3 35.5 36.4l6 8.5 11 6c-3.6-5.5-7.6-11.4-12-17.6a147.4 147.4 0 0 0-34.5-36.6Zm-8.2 4.5-5.7 3c6.5 4.4 17.9 14 32.3 34.4l9.3 3-4-5.8a156 156 0 0 0-31.9-34.6Z"/><path fill="#589765" d="m161 218.3 24 11.7c6 .8 12.1 1.4 18.6 2l10.5-6 4.4-1.5c-22.4-.9-42.8-3.7-57.6-6.2Zm77-.5 16-1.6-5.6-6.7a420.7 420.7 0 0 1-129.7-16.8s.3 2.7-.5 3.7c-.7.9 0 3 0 3l20.6 5.6a345 345 0 0 0 99.2 12.8Zm-100.6-36.3L129 186l13.2 4A345 345 0 0 0 243 203l-5-6.3-1.8-1.8c-44.8-.3-84.3-9.4-91.4-11-.3-.2-3.4-1-7.4-2.3Zm13.6-12-6.1 5.4.7.2a341 341 0 0 0 84 12.8l-8.2-8.6a441 441 0 0 1-70.4-9.9Zm11.3-13.8-4.7 6.9c12 3 32 7.3 56.8 9.3l-4.4-4.6-4-4.9-43.7-6.7ZM307.5 43l7.7.6-.5-3.4c-1.2-8.2-5.6-33.7-20-64l-7.5 4.7a295.6 295.6 0 0 1 20.3 62Zm17.2-.7 7.1-1.8-.3-2.5c-1.1-8-5.4-32.8-19.1-62.4l-9.6.3a296.3 296.3 0 0 1 21.9 66.4Zm-34.8-1 7.9.7c-1.1-7.8-5-30-16.9-57l-7.6 4.7a296.4 296.4 0 0 1 16.6 51.6Zm-19-6.7 9.1 4a233 233 0 0 0-13.3-45.3l-7.9 4.4c6 15 9.9 28.1 12.1 36.9Zm70.2 3.4 3.9-1 3.2-2a230 230 0 0 0-18-59.6l-1.7-.4-8.2.3A295.9 295.9 0 0 1 341.1 38Zm-92.3-15.9 6.7 5.5 5.4 2.5c-1.8-7.8-4.6-17.5-8.7-28.4l-8 6 4.6 14.4Zm108 8 7-4.4c-1.9-10.1-6-26.8-14-46.2L339-22.8A302 302 0 0 1 356.7 30ZM371 17.6l5.9-7.5-5-18.8-.7-2-5.1-5.6-6.6-1.8c4.6 11 8.7 25.2 11.5 35.7Z"/><path fill="#589765" d="M-19.2 256.5c4.1.4 12.3 1 22.3 1.4l11.9.2c4.8.1-16.9 3.3-16.9 3.3s-13.7 4.2-16.3 4l-1-9ZM36.4 244l-6.4 5.7c-3.8.8-7 1.3-9.6 1.4a302 302 0 0 1-38.6-.5l6.7-10.8c8 .6 19.5 1.1 32 .9 4.7-.1 11.7-1.5 20-3.3l-4.1 6.6Zm17-26.7L46 229c-11 2.5-20.2 4.6-25.9 5-10.7.6-20.9.4-28.6 0l4.7-10.8c7 .3 15.2.5 24 .3 7-.1 19-3 33.3-6Zm35.2-19.7L72 206.3c-22.4 4-42.3 9.9-52 10.4-7.5.5-14.8.5-21 .4l4.6-10.9c5.1.2 10.6.2 16.3.1 15-.3 52.3-13 86.9-13.7l-18 5.1ZM11 189.2l8.5-.1c16.4-.3 59.4-15.5 96.4-13.6a86 86 0 0 1 26.2 6l-.8 1.2-15 4.3a54 54 0 0 0-10.8-1.6c-37-1.8-80 13.2-96 14.1-4.5.3-9 .4-13.2.4l4.7-10.7Zm6.1-17.3h2.1c16.4-.4 59.4-15.6 96.4-13.6 13.3.6 26.2 5.5 35 9.7l-5.5 8.8c-8-4-18.7-8-29.9-8.6-37-1.8-80 13.2-96 14l-5.4.3 3.3-10.6Zm5.5-17.5c18.5-2 58.3-15.2 92.7-13.4a105 105 0 0 1 43.5 14.2l-5.7 9a86 86 0 0 0-38.2-13.3c-36.6-1.7-79.4 13-95.6 14.1l3.3-10.6Zm18.1-20.7c20.6-4.4 48.9-11.2 74.3-9.9 24 1.2 46.4 16 46.4 16l-4.6 9.8s-20.3-14.8-42.2-15.9c-30.9-1.5-66.1 8.8-86.2 12.7l12.3-12.7Zm227.8-3.7-.5-5.3a275 275 0 0 0-10.6 7.4 162.8 162.8 0 0 0-28 28.9l14.8-4.4c6.2-7 12.8-13.5 19.1-18l5.2-8.6Zm-4.5-20.4c-4.9 3-10 6.5-15.3 10.4-13 9.4-27.2 27.4-36.5 40.2l10 .7c9-12 21.2-26.4 32.5-34.4l12.5-8.4-3.2-8.5ZM262.8 95l.7-2.5c-7.4 4.3-15.2 9.3-23.4 15.3-14.6 10.7-30.9 32-39.8 44.7l4.7 2.5 2.3 2.3c9.1-12.9 24.6-33 38.7-43 5.8-4 11.2-7.6 16.4-10.8l.4-8.5Zm4.2-15 5-8.6a243.6 243.6 0 0 0-40.5 24.3c-16.6 12-35.3 38-43 49.2l3.8 3.4 3 1.6c8.3-12 26-36.4 42-47.7a305.3 305.3 0 0 1 28.5-17.9L267 80Zm16.7-28.8a219.7 219.7 0 0 0-60.9 32.3c-17.4 12.8-37.2 40.7-44 50.9l1.2 5.6 4.4 1.2c6.8-10.2 26.6-38.6 44.3-51.1a265 265 0 0 1 48.6-27.8l6.4-11.1ZM280 39.4l-2.6-1.1c-15 4.6-37.1 14-63.2 33.1-15.2 11-32.2 33.8-40.9 46.1l1.7 6.1.7 5.5c6.7-10 26.6-38.6 44.4-51.2 32-22.6 55.8-31.5 69.7-35l-.6-.7-9.2-2.8Zm-17.7-7.6-3.3-2.3a228.9 228.9 0 0 0-53.5 29.8c-13.1 9.6-27.7 28-37 40.7l3 10.5c8.9-12.7 25.2-34.3 40-44.7a244.4 244.4 0 0 1 57.3-31.2l-6.5-2.8ZM247 21.2l6 4a262 262 0 0 0-50 28.5c-12.8 9-26.6 26-35.9 38.8l-.5-2.5 18.6-20L208 39.4a225 225 0 0 1 36.6-19.7l2.3 1.5Zm-15.6-7L220.2 25a232 232 0 0 1 18-9.3l-6.9-1.6Z"/><path fill="#3b7847" d="M116.5 116v-2.4c0-5.1 2.3-9.3 5.5-9.4 1 0 1.9 0 2.6.4 2.1 1.4 3.3 5.2 3.3 9l-.1 2.5s-5 .5-6.7.4c-1.6 0-4.6-.4-4.6-.4Z"/><path fill="#4db343" d="m127.8 116 .1-2.4c0-4.7-1.7-8.7-4-9.3h-.5c-2.5 0-4.5 4.2-4.5 9.3 0 1 0 2 .2 2.8 0 0 2.5.3 4.6.1l4-.4Z"/><path fill="#3b7847" d="M-4.2 261.6a36 36 0 0 1-.3-4.7c0-8.6 4-15.7 9.3-15.8 1.7 0 3.1-.1 4.4.7 3.6 2.3 5.6 8.6 5.6 15 0 1.6 0 2.8-.3 4.3 0 0-8.4.7-11.3.7l-7.4-.2Z"/><path fill="#4db343" d="M14.6 260.6c.3-1.6.2-2.2.2-3.7 0-8-3-14.7-6.7-15.6h-.9c-4.2 0-7.6 7-7.6 15.6 0 1.5.2 3.4.4 4.8 0 0 4.1-1.1 7.6-1.2l7 .1Z"/><path fill="#3b7847" d="M1.2 124.7a30 30 0 0 1-.3-4.3c0-7.7 3.6-14 8.4-14 1.5-.1 2.7-.2 3.8.5 3.3 2.1 5.1 7.8 5.1 13.5 0 1.3 0 2.4-.3 3.7 0 0-7.5.7-10 .7l-6.7-.1Z"/><path fill="#4db343" d="M17.8 125.6c.3-1.5.4-3.8.4-5.2 0-7.1-2.6-13.1-6-14h-.8c-3.8 0-6.8 6.3-6.8 14 0 1.4.2 3 .4 4.4h6.8c2 0 6 .8 6 .8Z"/><path fill="#3b7847" d="M130.3 119c-.2-1.5-.3-3.2-.3-4.8 0-8.6 4-15.7 9.4-15.8 1.7 0 3-.1 4.3.7 3.6 2.4 5.7 8.7 5.7 15.1 0 1.5-.1 2.7-.3 4.2 0 0-8.5.7-11.3.7l-7.5-.1Z"/><path fill="#4db343" d="M149.4 123.6c.3-1.6 0-7.9 0-9.4 0-8-3-14.7-6.8-15.6h-.8c-4.3 0-7.7 7-7.7 15.6 0 1.5.3 3.4.5 4.9 0 0 4.2 2 7.6 2 2.3 0 7.2 2.5 7.2 2.5Z"/><path fill="none" stroke="#2d5836" stroke-width="4" d="M90 196.4c58.5 8.3 111 34.6 130 68.9"/><path fill="none" stroke="#2d5836" stroke-linecap="butt" stroke-width="4" d="M-37 125c5-1.3 62.9 5.5 101.2-4.4C174.2 92 227.6 194.7 255 216m-150 77.5c57.3-30.4 126.9-52.6 199 23.4 1.3 1.4 11.9 10 16.6 16.1"/><path fill="none" stroke="#2d5836" stroke-linecap="butt" stroke-width="4" d="M195.5 236.4C222 214.5 269.9 209.6 308 225c33.3 13.5 61.9 50 68.9 89.7"/><path fill="none" stroke="#2d5836" stroke-linecap="butt" stroke-width="4" d="M290.6 42.1c-77.7 98 26.6 97.3 52.7 114.3 46.5 30.2 22.5 92.2-.9 91.4M22 70C37.8 45.4 53 29.5 44.2 5.6 39.6-7 38-15 32-22.6-10.4-76.1 21.8-134.3 15-150"/><path fill="none" stroke="#2d5836" stroke-width="4" d="M265 113.6c17.2 41.3-61.7 71.6-87.7 22M0-15c-74.6 31.5-123.5-46-95.3-85M440-218.1a63.6 63.6 0 0 1 0 74.7c-23.1 32.1-70.5 26.1-85 18-26.6-14.7-86.7-42-91.2 9.6-2.8 32.6 74 39.3 91.2 52.6C386-39 380-6 380-5c4 52.8-149.2 98.4-184.5-65"/><path fill="#296034" d="m58 137.8 13.8 58.5H44.3l13.8-58.5Z"/><path fill="#4db343" d="m58 137.8 13.8 58.5H54.4l3.7-58.5Z"/><path fill="none" stroke="#4c4c4c" stroke-width="4" d="M58 188.6v17.9"/><path fill="#296034" d="m198 95.7 9.9 42h-19.8l10-42Z"/><path fill="#4db343" d="m198 95.7 9.9 42h-12.5l2.6-42Z"/><path fill="none" stroke="#4c4c4c" stroke-width="4" d="M198 132.2V145"/><path fill="none" stroke="#065e7b" stroke-width="27.5" d="M421.7-178.6c-36.4 52.7-47.9 23-105.6 7.8-41.7-11-89.5 12-109.9 46-19.7 33-39 68.2-59 103.8-15.5 27.6-23 60.1-42.5 81.9A208.6 208.6 0 0 1 58 96.6c-16.1 9-22 32.7-32 43.8-4.1 4.5-12.1 7-14.6 11.6-5 9.2-3.1 24.2-7.3 33.4-7 15.7-17 44.6-32 53-5.7 3.2-12.2 1.6-17.7 4.7"/><path fill="none" stroke="#73b3ce" stroke-width="9.3" d="M410-166.4a33.9 33.9 0 0 1-27.7 19.6c-21.8 2.2-69-35.3-110.7-25-30 7.3-51.5 28.2-65.8 50.9-20.3 32.3-37 67.6-57 103.3-15.5 27.6-26.4 60.9-46 82.6-11.7 13.2-35 28.6-48.6 36.2-16.1 9-17.8 30.2-27.8 41.3-4 4.5-11.4 5.8-13.9 10.4-5 9.2-4.8 27-9 36.2-7 15.7-17.6 43.1-32.7 51.6-5.6 3.1-13 2.1-18.5 5.2l-14.4 7.5"/><g fill="none" stroke="#2d5836" stroke-width="18.7"><path d="M120 75c5 0 12.5-1.7 17.4 0a56.4 56.4 0 0 1 34.9 49.6c.3 12.5-3.6 21-9.8 31.8-7.6 13-22.5 22.4-35.5 28.5-29 13.5-64.3 21.1-85.6 47.2C27.5 249 22 269.7 19.7 291c-4.4 40.7 3.8 86.9 40.1 111m.2 2c48.5 62.4 142.1 48.8 185 11 44.7-39.4 49.8-87.6 95-95 34.2-5.6 60 3.8 82.6 31.1 103.2 124 198.9-29.9 137.4-90.9-6.5-6.4-70.9-82.6 0-146 1.6-1.4 18.3-13 20-14.5"/><path d="M210 157.6c-8.6-3-40-11.2-40-11.2s4.4-12.6 2-25c-2.8-14.6-12.5-29.4-12-30 8-11.2 38.7-46.4 45-54.5 122.3-155.6 257.4 3.4 325 54.5 27.8 21 90.4 10.2 100-41.4 17.8-95.4-110.3-87.6-120-198.6-8.2-93.9 49.8-138.2 110-150 126.5-25 80.4-161.3-27.6-138-56 12-102.8 80.5-115.2 173.2-10.7 80.4-122 26-119.4-9m-204.8-15c-6 9-21.2 35.9-127.6 25-73.7-7.6-104.5-46.4-161.6-32.4-74.7 18.3-102 141.4-18.8 251.2C-124.7-3.6-16.7 70 40 72.4"/></g><path fill="#8c8c8c" d="M195.5 151.3h12.8v17.3h-12.8z"/><path fill="#73b3ce" d="m215.1 145.2-12.7.2-7 5.9h13l6.7-6Z"/><path fill="#d9d9d9" d="m221.8 151.3-6.7-6-6.8 6v17.3h13.5v-17.3Z"/><path fill="#595959" d="M211.8 155.8h6.5v6.5h-6.5z"/><path fill="#d9d9d9" d="M194 246.3h12.8v17.3H194z"/><path fill="#f88948" d="m187.2 240.2 12.6.2 7 5.9H194l-6.8-6Z"/><path fill="#8c8c8c" d="m180.5 246.3 6.7-6 6.8 6v17.3h-13.5v-17.3Z"/><path fill="#595959" d="M183.9 250.8h6.5v6.5h-6.5z"/><path fill="#8c8c8c" d="M14.2-48.5H-5.1L-13.7 3h27.9v-51.4Z"/><path fill="#d9d9d9" d="M22.8-48.5H5L3 3h27.9l-8-51.4Z"/><path fill="#b3b3b3" d="M12.9-48.5H1.6L-4.2 3h17.4l-.3-51.4Z"/><path fill="#d9d9d9" d="M33.2-31.9h20V2.8h-20zm27.1 0h20V2.8h-20z"/><path fill="#8c8c8c" d="M33.2-31.9h7.4V2.8h-7.4zm27.1 0h7.4V2.8h-7.4z"/><path fill="#d9d9d9" d="M-1.1-9.1h87.8v31.9H-1.1z"/><path fill="#595959" d="M3.2-2.2h5v9.5h-5zm9.3 0h5v9.5h-5zm9.3 0h5v9.5h-5zm9.3 0h5v9.5h-5zm9.4 0h5v9.5h-5zm9.3 0h5v9.5h-5zm9.3 0h5v9.5h-5zm9.3.1h5v9.5h-5zm9.3-.1h5v9.5h-5z"/><path fill="#3b7847" d="M146.8 35.5c1.4 0 2.6-.2 3.6.5 3.1 2 4.8 7.4 4.8 12.8 0 5.8-2.2 12.2-5.9 13.2-1.2.3-1.3 0-2.3 0-4.5 0-8.2-6-8.2-13.2 0-7.3 3.5-13.3 8-13.3Z"/><ellipse cx="148.8" cy="48.8" fill="#4db343" rx="6.4" ry="13.2"/><path fill="none" stroke="#4c4c4c" stroke-width="4" d="M147 55.1v16.4"/><path fill="#3b7847" d="M3.2 15c1.7 0 3.2-.1 4.4.7 3.8 2.4 5.8 9 5.8 15.5 0 7-2.6 15-7.1 16-1.5.4-1.7.1-2.8.1-5.5 0-10-7.2-10-16 0-9 4.2-16.2 9.7-16.3Z"/><ellipse cx="5.6" cy="31.2" fill="#4db343" rx="7.8" ry="16.1"/><path fill="none" stroke="#4c4c4c" stroke-width="4" d="M3.5 39v19.8"/><path fill="#2d5836" d="M9.8 58.2-.6 54l-2.5 7.2L7.5 65l2.3-6.8Zm141 13.7c-1.2-2-4.2-3-6.1-3.7-1.6-.6-4.4 5.2-4.4 5.2l8.4 1.6s2.7-2.2 2.1-3.1Z"/><path fill="#589765" d="m277.8 41.9 60.7 39.6h-31.2l-46-19c-3.1-2.6-7.7-5.6-5.5-8.4l3-14.7c2.3-2.9 15.8 0 19 2.5Z"/><path fill="#f88948" d="M167 75.9c4.3-5 8-8.8 11.6-5.5 4.2 3.8.1 7.3-4.3 12.2-4.4 4.9-7.5 9.1-11.7 5.5-4.4-3.8-.1-7.3 4.3-12.2Z"/><path fill="#f7db6b" d="M24.2 247.6c2.4-6.1 4.5-11 9-9.2 5.3 2.1 2.7 6.8.2 13-2.5 6-4 11-9.1 9-5.5-2-2.6-6.7-.1-12.8Z"/><path fill="#d9d9d9" d="M38.2 29.5h16.6v57.3H38.2z"/><path fill="#8c8c8c" d="M30 29.5h8.2v57.3H30z"/><path fill="#595959" d="M38.2 37.7h8.3v8.2h-8.3zm0 16.4h8.3v8.2h-8.3zm0 16.4h8.3v8.2h-8.3z"/><path fill="#f7db6b" d="m42.4-3.2 12.4 32.7H30L42.4-3.2Z"/><path fill="#f88948" d="m42.4-3.2-4.1 32.7H30L42.4-3.2Z"/><path fill="#d9d9d9" d="M118.2 29.5h16.6v57.3h-16.6z"/><path fill="#8c8c8c" d="M110 29.5h8.2v57.3H110z"/><circle cx="54" cy="84.5" r="5.9" fill="#f7db6b"/><circle cx="111.2" cy="84.5" r="5.9" fill="#f7db6b"/><path fill="#595959" d="M118.2 37.7h8.3v8.2h-8.3zm0 16.4h8.3v8.2h-8.3zm0 16.4h8.3v8.2h-8.3z"/><path fill="#f7db6b" d="m122.4-3.2 12.4 32.7H110l12.4-32.7Z"/><path fill="#f88948" d="m122.4-3.2-4.1 32.7H110l12.4-32.7Z"/></svg>