<?xml version="1.0" encoding="UTF-8" standalone="no"?>
<!DOCTYPE svg PUBLIC "-//W3C//DTD SVG 1.1//EN" "http://www.w3.org/Graphics/SVG/1.1/DTD/svg11.dtd">
<svg width="250px" height="250px" version="1.1" xmlns="http://www.w3.org/2000/svg" xmlns:xlink="http://www.w3.org/1999/xlink" xml:space="preserve" xmlns:serif="http://www.serif.com/" style="fill-rule:evenodd;clip-rule:evenodd;stroke-linecap:round;stroke-linejoin:round;stroke-miterlimit:1.5;">
    <rect id="Artboard" x="-250" y="-500" width="999.991" height="1000" style="fill:none;"/>
    <g id="background">
    </g>
    <path id="OSTROV" d="M-96.31,107.991C-124.685,54.043 -252.239,10.97 -244.677,-231.538C-239.722,-390.443 -138.69,-461.829 -63.043,-460.805C-17.375,-460.186 38.838,-453.187 179.96,-393.467C279.062,-351.53 325.23,-340.82 353.907,-351.679C424.243,-378.314 432.87,-389.33 471.578,-409.138C507.384,-427.461 544.527,-456.154 571.957,-467.137C654.286,-500.1 796.284,-464.656 710,-307.045C688.336,-267.473 707.089,-187.326 683.144,-18.643C656.159,171.461 604.682,116.792 595,161.357C588.009,193.537 650.472,305.911 610,381.357C557.077,480.013 413.418,445.756 366.957,442.863C297.037,438.51 186.097,524.886 86.957,492.863C-126.293,423.984 -33.641,227.142 -96.31,107.991Z" style="fill:#e2e1bf;"/>
    <path id="OSTROV1" serif:id="OSTROV" d="M-71.049,66.685C-119.073,40.278 -198.806,11.876 -230,-131.929C-260.788,-273.863 -196.46,-418.925 -71.049,-454.153C-29.659,-465.779 56.339,-446.664 189.358,-392.034C282.769,-353.671 326.287,-343.874 353.317,-353.808C419.613,-378.173 542.79,-451.346 610.084,-457.008C660.37,-461.238 737.811,-436.69 705.084,-338.398C701.933,-328.933 690.446,-296.796 690.084,-281.712C688.105,-199.155 674.692,-32.19 662.587,32.477C640.392,151.057 545.013,102.078 572.916,181.357C595.701,246.096 627.605,340.415 575,391.357C491.849,471.881 393.03,412.249 367.784,410.724C301.879,406.742 173.281,489.181 79.747,460.149C-13.787,431.117 -30.278,283.003 -27.648,233.926C-25.017,184.849 -32.333,87.973 -71.049,66.685Z" style="fill:#589765;"/>
    <path d="M3.905,-253.472C-26.075,-295.422 11.804,-452.947 -112.908,-387.839C-190.841,-347.152 -242.123,-212.199 -218.168,-130.766C-149.223,103.603 -20.558,5.153 -17.365,111.528C-11.985,290.746 -15.343,412.637 102.635,441.087C152.996,453.231 244.242,442.058 280.608,377.748C299.945,343.552 378.434,271.669 452.635,349.46C475.115,373.028 511.478,382.035 537.055,360C565.287,335.677 559.653,295.206 544.345,275C521.902,245.375 498.234,210.258 507.635,166.659C528.818,68.426 587.367,104.15 608.066,58.83C652.476,-38.403 447.953,-76.2 377.635,-15.341C285.801,64.139 89.049,-134.331 3.905,-253.472Z" style="fill:#8dcf86;"/>
    <g id="pole">
        <path d="M241.913,217.996L237.588,218.642L234.797,219.797C234.797,219.797 250.668,226.288 274.167,259.501C298.034,293.234 308.327,314.608 311.243,321.17L315,320L317.33,319.065C312.512,309.143 300.813,286.988 279.159,256.36C261.824,231.842 247.588,221.484 241.913,217.996ZM253.967,216.206L253.912,216.204L247.661,217.138L245,217.98C245,217.98 261.552,223.757 285.051,256.97C307.555,288.777 317.991,309.595 321.554,317.37L327.462,315C322.233,304.434 310.643,282.966 290.042,253.829C273.795,230.85 260.271,220.309 253.967,216.206ZM229.808,219.804L229.802,219.804L226.801,221.05L223,222.986C223,222.986 239.784,228.819 263.284,262.033C275.349,279.086 283.946,292.98 289.873,303.4L298.142,310.952L303.842,316.395C297.944,304.924 286.722,284.982 268.275,258.891C249.515,232.358 234.386,222.408 229.808,219.804ZM257.232,216.27L257.122,216.41C257.122,216.41 272.436,221.226 295.935,254.439C317.477,284.886 327.961,305.264 331.943,313.771L338.147,312.07C332.829,301.371 321.272,280.074 300.926,251.298C287.562,232.396 276.04,221.91 268.863,216.5L257.232,216.27ZM313.517,227.883C318.033,232.852 323.085,239.071 328.587,246.846C357.646,287.918 366.582,310.668 366.582,310.668L374.433,312.22C374.433,312.22 363.529,286.066 333.578,243.705C332.043,241.533 330.532,239.473 329.046,237.515C324.619,234.3 319.548,230.965 313.517,227.883ZM273.345,216.671C279.75,220.746 291.558,230.339 306.819,251.908C328.413,282.429 338.895,302.832 342.856,311.302L345,310.952L349.649,310.791C344.637,300.559 332.983,278.712 311.81,248.767C301.523,234.217 292.327,224.654 285.366,218.555C280.096,217.608 275.153,216.916 273.345,216.671ZM291.829,219.836C298.417,225.449 307.25,234.604 317.703,249.377C341.076,282.411 351.43,303.593 354.588,310.619L361.556,310.377C357.225,301.276 345.463,278.439 322.694,246.236C315.989,236.753 309.748,229.388 304.287,223.72C302.17,222.886 299.952,222.091 297.624,221.346C295.984,220.821 293.981,220.312 291.829,219.836ZM220.869,223.512L213.586,226.535C213.586,226.535 228.9,231.35 252.4,264.564C258.101,272.622 263.028,279.975 267.267,286.594L272.843,289.77L279.34,294.764C273.575,285.268 266.331,274.067 257.391,261.422C240.751,237.888 226.967,227.4 220.869,223.512ZM341.24,246.829C354.805,266.197 363.778,281.315 369.402,291.695L356.225,264.333C356.225,264.333 347.925,251.738 341.969,247.369C341.728,247.192 341.485,247.013 341.24,246.829ZM212.01,227.393L206.032,230.651C211.748,233.865 224.481,243.019 241.516,267.095C243.579,270.011 245.541,272.835 247.405,275.564L258.558,281.632C254.939,276.114 250.931,270.21 246.507,263.954C231.509,242.74 218.83,232.127 212.01,227.393ZM203.799,231.868L198.075,234.986L198.076,234.987C204.622,239.349 215.958,248.951 230.413,269.318L239.717,272.343C238.397,270.431 237.031,268.476 235.623,266.485C222.406,247.79 210.99,237.328 203.799,231.868Z" style="fill:#f7db6b;"/>
        <path d="M160.928,218.266L185.056,230.03C190.907,230.775 197.125,231.421 203.647,231.905L214.081,225.963L218.491,224.465C196.127,223.631 175.734,220.845 160.928,218.266ZM237.999,217.842L253.912,216.204L248.445,209.489C197.526,211.656 149.382,200.589 141.41,198.652C140.652,198.468 118.694,192.708 118.694,192.708C118.694,192.708 118.964,195.446 118.207,196.395C117.517,197.262 118.261,199.412 118.261,199.412C118.261,199.412 136.797,204.419 138.833,205.021C149.894,208.293 189.256,218.746 237.999,217.842ZM137.409,181.519L137.409,181.52L128.962,185.967C135.015,187.855 141.202,189.78 142.199,190.075C153.388,193.385 193.535,204.042 243.049,202.861L237.99,196.647L236.243,194.816C191.423,194.532 151.929,185.444 144.776,183.706C144.527,183.646 141.442,182.727 137.409,181.519ZM151.012,169.436L144.855,174.905C145.212,175.02 145.453,175.097 145.565,175.13C155.458,178.056 187.991,186.727 229.627,187.879L221.437,179.293C188.56,177.447 161.009,171.726 151.012,169.436ZM162.267,155.695L157.644,162.565C169.547,165.593 189.663,169.881 214.395,171.91L210,167.301L206.024,162.41C194.972,160.757 174.851,157.726 162.267,155.695Z" style="fill:#589765;"/>
        <path d="M307.483,42.924L315.209,43.63C314.924,41.907 314.713,40.6 314.652,40.16C313.527,32.004 309.104,6.537 294.774,-23.839L287.229,-19.073C300.389,9.86 305.921,34.986 306.986,40.202C307.015,40.346 307.205,41.388 307.483,42.924ZM324.693,42.314L331.809,40.46C331.768,40.069 331.673,39.225 331.5,37.972C330.394,29.957 326.104,5.229 312.362,-24.445L302.759,-24.114C316.869,6.006 322.734,32.627 323.834,38.013C323.947,38.57 324.529,41.487 324.693,42.314ZM289.914,41.319L297.76,42.036C296.655,34.181 292.723,11.98 280.909,-15.081L273.29,-10.269C283.689,14.207 288.546,34.896 289.914,41.319ZM270.943,34.563L280.009,38.627C278.311,29.195 274.557,12.812 266.685,-6.652L258.81,-2.34C264.821,12.671 268.694,25.849 270.943,34.563ZM341.124,38.035L345,37.025L348.249,35.085C347.028,26.607 342.777,3.334 330.118,-24.65L328.458,-25L320.343,-24.72C333.921,4.743 339.601,30.533 340.681,35.825C340.742,36.12 340.933,37.077 341.124,38.035ZM248.825,22.148L255.503,27.642L260.906,30.064C259.058,22.288 256.301,12.578 252.231,1.69L244.112,7.642C245.546,12.033 247.201,17.117 248.825,22.148ZM356.741,30.015L363.888,25.748C361.943,15.586 357.876,-1.064 349.721,-20.514L339.06,-22.763C349.402,0.659 354.721,21.18 356.741,30.015ZM371.075,17.734L376.954,10.162L376.959,10.152C374.464,0.543 371.998,-8.558 371.998,-8.558L371.295,-10.546L366.202,-16.177L359.642,-17.962C364.217,-7.054 368.343,7.231 371.075,17.734Z" style="fill:#589765;"/>
        <path d="M-19.23,256.47C-15.066,256.869 -6.918,257.549 3.128,257.876C3.847,257.899 14.263,258.066 15,258.086C19.833,258.214 -1.878,261.357 -1.878,261.357C-1.878,261.357 -15.613,265.568 -18.185,265.367L-19.23,256.47ZM36.365,244.064L29.958,249.823C26.197,250.552 22.982,251.05 20.448,251.193C3.924,252.127 -11.246,251.246 -18.212,250.705L-11.509,239.908C-3.524,240.475 8.01,241.031 20.448,240.773C25.185,240.675 32.153,239.334 40.558,237.524L36.365,244.064ZM53.453,217.413L46.001,229.035C34.949,231.537 25.831,233.647 20.146,233.968C9.384,234.576 -0.804,234.414 -8.526,234.078L-3.795,223.165C3.128,223.508 11.414,223.728 20.146,223.548C27.187,223.402 39.157,220.51 53.453,217.413ZM88.622,197.735L71.863,206.341C49.463,210.375 29.598,216.192 19.844,216.743C12.351,217.166 5.135,217.216 -1.163,217.094L3.543,206.24C8.615,206.387 14.134,206.441 19.844,206.322C34.83,206.012 72.142,193.262 106.698,192.568L88.622,197.735ZM10.951,189.154C13.741,189.173 16.616,189.158 19.542,189.097C35.916,188.758 78.946,173.567 115.907,175.479C125.272,175.964 134.419,178.514 142.083,181.437L141.291,182.68L126.324,186.958C122.833,186.14 119.212,185.574 115.547,185.395C78.594,183.594 35.514,198.615 19.542,199.517C14.971,199.775 10.504,199.895 6.283,199.921L10.951,189.154ZM17.147,171.907C17.841,171.898 18.539,171.886 19.239,171.872C35.614,171.533 78.644,156.342 115.604,158.254C128.946,158.944 141.845,163.825 150.641,168.006L145.054,176.774C137.19,172.856 126.415,168.714 115.245,168.17C78.292,166.369 35.212,181.389 19.239,182.292C17.413,182.395 15.603,182.476 13.82,182.537L17.147,171.907ZM22.632,154.381C41.127,152.323 80.851,139.246 115.302,141.028C134.078,142 151.977,151.272 158.796,155.208L153.082,164.175C146.081,159.857 130.916,151.723 114.943,150.945C78.263,149.157 35.547,163.943 19.295,165.044L22.632,154.381ZM40.739,133.74C61.261,129.27 89.567,122.487 115,123.803C138.91,125.04 161.397,139.737 161.397,139.737L156.83,149.613C156.83,149.613 136.491,134.784 114.641,133.719C83.7,132.211 48.464,142.496 28.441,146.412L40.739,133.74Z" style="fill:#589765;"/>
        <path d="M268.479,130L267.989,124.73C264.538,127.011 261.002,129.464 257.39,132.103C247.945,139.004 237.798,150.4 229.394,161.003L244.191,156.598C250.376,149.622 256.982,143.121 263.314,138.654L268.479,130ZM264.015,109.572C259.103,112.671 254.005,116.12 248.746,119.963C235.768,129.445 221.464,147.414 212.172,160.157L222.187,160.882C231.273,148.846 243.408,134.456 254.676,126.509C258.993,123.465 263.16,120.668 267.172,118.1L264.015,109.572ZM262.762,95L263.458,92.541C256.134,96.778 248.315,101.822 240.101,107.823C225.503,118.488 209.228,139.892 200.296,152.517L205,155L207.29,157.29C216.429,144.404 231.91,124.328 246.031,114.369C251.75,110.336 257.205,106.738 262.386,103.53L262.762,95ZM267.008,80L271.983,71.423C260.197,76.925 246.489,84.7 231.457,95.683C214.926,107.76 196.244,133.609 188.509,144.886L192.292,148.29L195.334,149.897C203.618,137.818 221.377,113.52 237.387,102.229C247.733,94.933 257.216,89.06 265.781,84.335L267.008,80ZM283.718,51.189L283.73,51.175C268.827,56.026 247.625,65.415 222.812,83.543C205.418,96.251 185.642,124.208 178.745,134.388L180,140L184.379,141.169C191.172,130.999 211.027,102.582 228.743,90.089C248.028,76.488 264.314,67.835 277.257,62.329L283.718,51.189ZM280,39.431L277.39,38.304C262.407,42.921 240.288,52.319 214.168,71.402C198.994,82.488 182.009,105.177 173.34,117.549L175,123.637L175.679,129.114C182.42,119.013 202.335,90.476 220.098,77.949C252.143,55.35 275.908,46.411 289.8,42.877L289.187,42.186L280,39.431ZM262.322,31.8L258.994,29.521C244.817,34.897 226.455,43.97 205.523,59.262C192.359,68.88 177.832,87.23 168.554,100L171.431,110.548C180.352,97.808 196.65,76.248 211.454,65.809C235.404,48.919 254.728,39.659 268.767,34.582L262.322,31.8ZM246.921,21.249L252.811,25.284C239.64,30.751 222.843,39.541 202.809,53.669C190.117,62.619 176.327,79.743 167.028,92.476L166.525,90L185.128,70L207.956,39.433C221.719,30.376 234.119,24.062 244.629,19.663L246.921,21.249ZM231.328,14.125L220.182,24.962C226.701,21.275 232.713,18.241 238.195,15.744L231.328,14.125Z" style="fill:#589765;"/>
    </g>
    <g id="kere">
        <g id="ker">
        </g>
        <g id="ker1" serif:id="ker">
            <path d="M116.529,116.071C116.372,115.225 116.446,114.539 116.446,113.611C116.446,108.486 118.839,104.294 122.013,104.244C123.024,104.228 123.855,104.157 124.587,104.635C126.749,106.046 127.949,109.782 127.949,113.611C127.949,114.493 127.906,115.203 127.766,116.086C127.766,116.086 122.768,116.571 121.052,116.523C119.533,116.48 116.529,116.071 116.529,116.071Z" style="fill:#3b7847;"/>
            <path d="M127.766,116.086C127.893,115.219 127.949,114.515 127.949,113.611C127.949,108.854 126.195,104.889 123.948,104.35C123.775,104.308 123.605,104.326 123.426,104.326C120.93,104.326 118.903,108.486 118.903,113.611C118.903,114.515 118.955,115.508 119.082,116.374C119.082,116.374 121.634,116.725 123.72,116.52C125.073,116.387 127.766,116.086 127.766,116.086Z" style="fill:#4db343;"/>
        </g>
        <g id="ker2" serif:id="ker">
        </g>
        <g id="ker3" serif:id="ker">
        </g>
        <g id="ker4" serif:id="ker">
        </g>
        <g id="ker5" serif:id="ker">
        </g>
        <g id="ker6" serif:id="ker">
        </g>
        <g id="ker7" serif:id="ker">
        </g>
        <g id="ker8" serif:id="ker">
        </g>
        <g id="ker9" serif:id="ker">
        </g>
        <g id="ker10" serif:id="ker">
        </g>
        <g id="ker11" serif:id="ker">
        </g>
        <g id="ker12" serif:id="ker">
            <path d="M-4.178,261.633C-4.443,260.209 -4.527,258.447 -4.527,256.884C-4.527,248.256 -0.498,241.198 4.846,241.113C6.548,241.086 7.948,240.968 9.18,241.772C12.82,244.148 14.84,250.438 14.84,256.884C14.84,258.37 14.768,259.565 14.533,261.051C14.533,261.051 6.119,261.773 3.227,261.787C0.775,261.799 -4.178,261.633 -4.178,261.633Z" style="fill:#3b7847;"/>
            <path d="M14.598,260.617C14.929,258.956 14.84,258.407 14.84,256.884C14.84,248.876 11.887,242.2 8.105,241.292C7.812,241.221 7.527,241.251 7.225,241.251C3.022,241.251 -0.39,248.256 -0.39,256.884C-0.39,258.407 -0.175,260.29 0.039,261.749C0.039,261.749 4.148,260.597 7.639,260.524C9.928,260.477 14.598,260.617 14.598,260.617Z" style="fill:#4db343;"/>
        </g>
        <g id="ker13" serif:id="ker">
        </g>
        <g id="ker14" serif:id="ker">
        </g>
        <g id="ker15" serif:id="ker">
        </g>
        <g id="ker16" serif:id="ker">
        </g>
        <g id="ker17" serif:id="ker">
            <path d="M1.193,124.661C0.956,123.388 0.881,121.811 0.881,120.414C0.881,112.698 4.484,106.386 9.262,106.311C10.784,106.286 12.037,106.181 13.139,106.9C16.393,109.025 18.2,114.65 18.2,120.414C18.2,121.743 18.136,122.812 17.925,124.141C17.925,124.141 10.401,124.786 7.815,124.799C5.622,124.81 1.193,124.661 1.193,124.661Z" style="fill:#3b7847;"/>
            <path d="M17.798,125.597C18.093,124.112 18.2,121.776 18.2,120.414C18.2,113.253 15.56,107.283 12.177,106.47C11.915,106.408 11.66,106.434 11.39,106.434C7.632,106.434 4.581,112.698 4.581,120.414C4.581,121.776 4.773,123.46 4.964,124.764C4.964,124.764 8.711,124.86 11.833,124.794C13.88,124.752 17.798,125.597 17.798,125.597Z" style="fill:#4db343;"/>
        </g>
        <g id="ker18" serif:id="ker">
            <path d="M130.348,118.953C130.083,117.529 130,115.766 130,114.204C130,105.576 134.029,98.517 139.372,98.433C141.074,98.406 142.474,98.287 143.707,99.092C147.346,101.467 149.366,107.758 149.366,114.204C149.366,115.69 149.295,116.885 149.059,118.371C149.059,118.371 140.646,119.092 137.754,119.107C135.301,119.119 130.348,118.953 130.348,118.953Z" style="fill:#3b7847;"/>
            <path d="M149.366,123.636C149.697,121.975 149.366,115.726 149.366,114.204C149.366,106.195 146.414,99.52 142.631,98.611C142.338,98.541 142.053,98.571 141.752,98.571C137.549,98.571 134.137,105.576 134.137,114.204C134.137,115.726 134.352,117.61 134.565,119.069C134.565,119.069 138.755,121.137 142.247,121.064C144.536,121.016 149.366,123.636 149.366,123.636Z" style="fill:#4db343;"/>
        </g>
    </g>
    <g>
        <g>
            <g id="strom">
            </g>
            <g id="strom1" serif:id="strom">
            </g>
            <g id="strom2" serif:id="strom">
            </g>
            <g id="strom3" serif:id="strom">
            </g>
            <g id="strom4" serif:id="strom">
            </g>
            <g id="strom5" serif:id="strom">
            </g>
            <g id="strom6" serif:id="strom">
            </g>
            <g id="strom7" serif:id="strom">
            </g>
            <g id="strom8" serif:id="strom">
            </g>
            <g id="strom9" serif:id="strom">
            </g>
            <g id="strom10" serif:id="strom">
            </g>
            <g id="strom11" serif:id="strom">
            </g>
            <g id="strom12" serif:id="strom">
            </g>
            <g id="strom13" serif:id="strom">
            </g>
            <g id="strom14" serif:id="strom">
            </g>
        </g>
    </g>
    <g id="male-cesty" serif:id="male cesty">
        <path d="M90,196.357C148.479,204.677 200.994,230.956 220,265.273" style="fill:none;stroke:#2d5836;stroke-width:4px;"/>
        <path d="M-37.051,125C-32.086,123.689 25.901,130.48 64.158,120.578C174.27,92.078 227.612,194.734 255,216.033" style="fill:none;stroke:#2d5836;stroke-width:4px;stroke-linecap:butt;"/>
        <path d="M105,293.479C162.252,263.091 231.871,240.857 303.948,316.869C305.267,318.261 315.876,326.805 320.592,333.024" style="fill:none;stroke:#2d5836;stroke-width:4px;stroke-linecap:butt;"/>
        <path d="M195.479,236.403C222.036,214.502 269.931,209.562 308.063,225C341.402,238.498 369.994,274.969 376.959,314.715" style="fill:none;stroke:#2d5836;stroke-width:4px;stroke-linecap:butt;"/>
        <path d="M290.593,42.135C212.883,140.066 317.223,139.356 343.325,156.357C389.785,186.618 365.814,248.592 342.444,247.844" style="fill:none;stroke:#2d5836;stroke-width:4px;stroke-linecap:butt;"/>
        <path d="M21.963,70C37.828,45.367 52.923,29.524 44.239,5.629C39.605,-7.124 38.036,-15.025 32.014,-22.628C-10.368,-76.137 21.783,-134.276 14.981,-150" style="fill:none;stroke:#2d5836;stroke-width:4px;stroke-linecap:butt;"/>
        <path d="M265,113.61C282.244,154.889 203.279,185.189 177.302,135.603" style="fill:none;stroke:#2d5836;stroke-width:4px;"/>
        <g id="les">
        </g>
        <path d="M0,-15C-74.585,16.515 -123.536,-60.907 -95.272,-100" style="fill:none;stroke:#2d5836;stroke-width:4px;"/>
        <path d="M440,-218.123C460.48,-186.585 451.148,-158.853 440,-143.371C416.902,-111.292 369.455,-117.281 355,-125.319C328.403,-140.109 268.287,-167.428 263.824,-115.814C261.006,-83.228 337.815,-76.529 355,-63.178C386.066,-39.042 379.917,-6.1 380,-5C383.976,47.767 230.755,93.416 195.479,-70" style="fill:none;stroke:#2d5836;stroke-width:4px;"/>
    </g>
    <g id="hory">
    </g>
    <g id="ker19" serif:id="ker">
    </g>
    <g id="ker20" serif:id="ker">
    </g>
    <g id="ker21" serif:id="ker">
    </g>
    <g id="strom15" serif:id="strom">
    </g>
    <g id="strom16" serif:id="strom">
    </g>
    <g>
        <path d="M58.083,137.816L71.841,196.29L44.324,196.29L58.083,137.816Z" style="fill:#296034;"/>
        <path d="M58.083,137.816L71.841,196.29L54.418,196.29L58.083,137.816Z" style="fill:#4db343;"/>
        <path d="M58.083,188.593L58.083,206.479" style="fill:none;stroke:#4c4c4c;stroke-width:4px;"/>
    </g>
    <g>
        <path d="M198.022,95.702L207.901,137.685L188.144,137.685L198.022,95.702Z" style="fill:#296034;"/>
        <path d="M198.022,95.702L207.901,137.685L195.391,137.685L198.022,95.702Z" style="fill:#4db343;"/>
        <path d="M198.022,132.158L198.022,145" style="fill:none;stroke:#4c4c4c;stroke-width:4px;"/>
    </g>
    <path d="M421.694,-178.643C385.296,-125.864 373.8,-155.525 316.051,-170.833C274.391,-181.877 226.63,-158.794 206.212,-124.718C186.529,-91.87 167.148,-56.563 147.147,-20.958C131.672,6.59 124.225,39.132 104.662,60.897C92.837,74.054 71.775,88.992 58.032,96.637C41.874,105.626 35.91,129.32 25.91,140.446C21.865,144.947 13.897,147.416 11.403,151.975C6.363,161.188 8.293,176.187 4.149,185.409C-2.914,201.125 -12.806,230.004 -27.974,238.442C-33.59,241.566 -40.109,240.005 -45.589,243.053C-49.539,245.251 -70.725,257.594 -74.605,257.594" style="fill:none;stroke:#065e7b;stroke-width:27.47px;"/>
    <path d="M409.98,-166.376C406.283,-156.851 395.302,-148.064 382.258,-146.767C360.518,-144.604 313.303,-182.081 271.65,-171.879C241.638,-164.528 220.123,-143.609 205.841,-120.936C185.467,-88.591 168.759,-53.265 148.773,-17.614C133.308,9.971 122.381,43.251 102.868,65.044C91.073,78.218 67.855,93.552 54.168,101.207C38.074,110.208 36.362,131.395 26.387,142.536C22.352,147.042 15.017,148.303 12.524,152.869C7.488,162.093 7.658,179.841 3.512,189.076C-3.555,204.812 -14.111,232.244 -29.217,240.693C-34.811,243.821 -42.219,242.806 -47.677,245.859C-51.611,248.059 -71.896,258.768 -80,261.357" style="fill:none;stroke:#73b3ce;stroke-width:9.33px;"/>
    <g id="ker22" serif:id="ker">
    </g>
    <g id="cesty-velke" serif:id="cesty velke">
        <path d="M120,75C125.023,75 132.503,73.278 137.409,75C157.071,81.9 171.666,103.908 172.255,124.554C172.611,137.06 168.732,145.618 162.483,156.357C154.903,169.387 140.047,178.817 126.992,184.904C98.022,198.413 62.731,206.005 41.363,232.085C27.537,248.96 22.085,269.691 19.743,290.986C15.27,331.672 23.509,377.903 59.807,402.08" style="fill:none;stroke:#2d5836;stroke-width:18.67px;"/>
        <path d="M60,403.931C108.517,466.404 202.125,452.83 245,415C289.679,375.578 294.751,327.389 340,320C374.229,314.41 399.917,323.836 422.639,351.143C525.776,475.088 621.472,321.244 559.996,260.213C553.488,253.752 489.113,177.575 560,114.259C561.597,112.833 578.263,101.125 580,99.713" style="fill:none;stroke:#2d5836;stroke-width:18.67px;"/>
        <path d="M210,157.586C201.352,154.653 170.017,146.357 170.017,146.357C170.017,146.357 174.435,133.815 172.024,121.357C169.213,106.833 159.54,92.034 160.017,91.357C167.914,80.163 198.681,44.992 205,36.948C327.268,-118.705 462.404,40.308 530.017,91.357C557.806,112.338 620.358,101.557 630,50C647.845,-45.425 519.733,-37.56 510.017,-148.643C501.808,-242.495 559.765,-286.785 620.017,-298.643C746.517,-323.538 700.386,-459.931 592.374,-436.691C536.476,-424.664 489.552,-356.123 477.192,-263.386C466.476,-182.978 355.294,-237.44 357.815,-272.312" style="fill:none;stroke:#2d5836;stroke-width:18.67px;"/>
        <path d="M153.011,-287.381C147.011,-278.382 131.789,-251.514 25.406,-262.447C-48.27,-270.019 -79.082,-308.783 -136.227,-294.807C-210.893,-276.547 -238.221,-153.437 -155,-43.643C-124.713,-3.685 -16.688,69.995 40,72.305" style="fill:none;stroke:#2d5836;stroke-width:18.67px;"/>
    </g>
    <g id="strom17" serif:id="strom">
    </g>
    <g id="strom18" serif:id="strom">
    </g>
    <g id="strom19" serif:id="strom">
    </g>
    <g id="strom20" serif:id="strom">
    </g>
    <g id="stromy">
    </g>
    <g id="namesti">
    </g>
    <g id="smrky">
    </g>
    <g id="listnace">
    </g>
    <g id="lanoka">
    </g>
    <g id="strom21" serif:id="strom">
    </g>
    <g id="satelit">
    </g>
    <g id="domky">
        <g id="D1">
        </g>
        <g id="D7">
        </g>
        <g id="D71" serif:id="D7">
        </g>
        <g id="D72" serif:id="D7">
        </g>
        <g id="D73" serif:id="D7">
        </g>
        <g id="D74" serif:id="D7">
        </g>
        <g id="D75" serif:id="D7">
        </g>
        <g id="D76" serif:id="D7">
        </g>
        <g id="D77" serif:id="D7">
        </g>
        <g id="D78" serif:id="D7">
            <rect x="195.474" y="151.294" width="12.844" height="17.313" style="fill:#8c8c8c;"/>
            <path d="M215.123,145.208L202.445,145.422L195.474,151.294L208.318,151.294L215.123,145.208Z" style="fill:#73b3ce;"/>
            <path d="M221.817,151.294L215.123,145.208L208.318,151.294L208.318,168.607L221.817,168.607L221.817,151.294Z" style="fill:#d9d9d9;"/>
            <rect x="211.792" y="155.804" width="6.55" height="6.55" style="fill:#595959;"/>
        </g>
        <g id="D79" serif:id="D7">
        </g>
        <g id="D710" serif:id="D7">
        </g>
        <g id="D711" serif:id="D7">
        </g>
        <g id="D712" serif:id="D7">
        </g>
        <g id="D713" serif:id="D7">
        </g>
        <g id="D714" serif:id="D7">
        </g>
        <g id="D715" serif:id="D7">
        </g>
        <g id="D716" serif:id="D7">
            <rect x="193.973" y="246.294" width="12.844" height="17.313" style="fill:#d9d9d9;"/>
            <path d="M187.168,240.208L199.845,240.422L206.817,246.294L193.973,246.294L187.168,240.208Z" style="fill:#f88948;"/>
            <path d="M180.474,246.294L187.168,240.208L193.973,246.294L193.973,263.607L180.474,263.607L180.474,246.294Z" style="fill:#8c8c8c;"/>
            <rect x="183.949" y="250.804" width="6.55" height="6.55" style="fill:#595959;"/>
        </g>
        <g id="D2">
        </g>
        <g id="D21" serif:id="D2">
        </g>
        <g id="D10">
        </g>
        <g id="D101" serif:id="D10">
        </g>
        <g id="D102" serif:id="D10">
        </g>
        <g id="D01">
        </g>
    </g>
    <g id="strom22" serif:id="strom">
    </g>
    <g id="strom23" serif:id="strom">
    </g>
    <g id="staba">
    </g>
    <g id="chladici-vez" serif:id="chladici vez">
    </g>
    <g id="D22" serif:id="D2">
    </g>
    <g id="D5">
    </g>
    <g id="TOVANA">
        <g>
            <path d="M14.191,-48.457L-5.126,-48.457L-13.741,2.854L14.191,2.854L14.191,-48.457Z" style="fill:#8c8c8c;"/>
            <path d="M22.806,-48.457L4.946,-48.457L2.854,2.854L30.786,2.854L22.806,-48.457Z" style="fill:#d9d9d9;"/>
            <path d="M12.903,-48.457L1.642,-48.457L-4.203,2.854L13.184,2.832L12.903,-48.457Z" style="fill:#b3b3b3;"/>
            <rect x="33.186" y="-31.881" width="19.951" height="34.735" style="fill:#d9d9d9;"/>
            <rect x="60.319" y="-31.881" width="19.951" height="34.735" style="fill:#d9d9d9;"/>
            <rect x="33.186" y="-31.881" width="7.448" height="34.735" style="fill:#8c8c8c;"/>
            <rect x="60.319" y="-31.881" width="7.448" height="34.735" style="fill:#8c8c8c;"/>
            <rect x="-1.136" y="-9.117" width="87.786" height="31.922" style="fill:#d9d9d9;"/>
            <rect x="3.184" y="-2.195" width="5" height="9.538" style="fill:#595959;"/>
            <rect x="12.504" y="-2.195" width="5" height="9.538" style="fill:#595959;"/>
            <rect x="21.825" y="-2.195" width="5" height="9.538" style="fill:#595959;"/>
            <rect x="31.145" y="-2.195" width="5" height="9.538" style="fill:#595959;"/>
            <rect x="40.465" y="-2.195" width="5" height="9.538" style="fill:#595959;"/>
            <rect x="49.785" y="-2.195" width="5" height="9.538" style="fill:#595959;"/>
            <rect x="59.105" y="-2.195" width="5" height="9.538" style="fill:#595959;"/>
            <rect x="68.426" y="-2.06" width="5" height="9.538" style="fill:#595959;"/>
            <rect x="77.746" y="-2.195" width="5" height="9.538" style="fill:#595959;"/>
        </g>
    </g>
    <g id="strom24" serif:id="strom">
        <g>
            <path d="M146.772,35.471C148.21,35.448 149.394,35.348 150.435,36.028C153.511,38.036 155.219,43.352 155.219,48.8C155.219,54.58 153.044,61.033 149.324,61.967C148.134,62.266 147.972,62.013 147.035,62.013C142.518,62.013 138.85,56.093 138.85,48.8C138.85,41.508 142.256,35.542 146.772,35.471Z" style="fill:#3b7847;"/>
            <ellipse cx="148.783" cy="48.8" rx="6.436" ry="13.213" style="fill:#4db343;"/>
        </g>
        <path d="M147.035,55.119L147.035,71.494" style="fill:none;stroke:#4c4c4c;stroke-width:4px;"/>
    </g>
    <g id="strom25" serif:id="strom">
        <g>
            <path d="M3.171,15.023C4.92,14.995 6.359,14.873 7.626,15.7C11.367,18.142 13.443,24.608 13.443,31.233C13.443,38.261 10.798,46.108 6.274,47.245C4.828,47.608 4.63,47.301 3.49,47.301C-2.003,47.301 -6.462,40.101 -6.462,31.233C-6.462,22.364 -2.321,15.11 3.171,15.023Z" style="fill:#3b7847;"/>
            <ellipse cx="5.616" cy="31.233" rx="7.827" ry="16.068" style="fill:#4db343;"/>
        </g>
        <path d="M3.49,38.917L3.49,58.83" style="fill:none;stroke:#4c4c4c;stroke-width:4px;"/>
    </g>
    <path d="M9.768,58.182L-0.628,53.973L-3.083,61.181L7.545,65L9.768,58.182Z" style="fill:#2d5836;"/>
    <path d="M150.8,71.901C149.558,69.973 146.558,68.907 144.682,68.167C143.133,67.557 140.297,73.376 140.297,73.376L148.683,75C148.683,75 151.4,72.833 150.8,71.901Z" style="fill:#2d5836;"/>
    <g id="panelaky">
        <g id="D6">
        </g>
        <g id="D3">
        </g>
        <g id="D9">
        </g>
        <g id="D91" serif:id="D9">
        </g>
        <g id="D92" serif:id="D9">
        </g>
        <g id="D93" serif:id="D9">
        </g>
        <g id="D717" serif:id="D7">
        </g>
    </g>
    <g id="strom26" serif:id="strom">
    </g>
    <g id="strom27" serif:id="strom">
    </g>
    <g id="letiste">
    </g>
    <g id="strom28" serif:id="strom">
    </g>
    <g id="strom29" serif:id="strom">
    </g>
    <g id="tunel-s-vlakem" serif:id="tunel s vlakem">
        <path d="M277.759,41.898L338.457,81.502L307.267,81.502L261.376,62.477C258.184,59.935 253.552,56.943 255.813,54.104L258.853,39.357C261.114,36.518 274.567,39.356 277.759,41.898Z" style="fill:#589765;"/>
    </g>
    <g id="strom30" serif:id="strom">
    </g>
    <g id="hrad">
    </g>
    <g id="auta">
        <path d="M166.912,75.869C171.327,70.989 174.979,67.087 178.62,70.381C182.792,74.155 178.743,77.698 174.328,82.578C169.913,87.458 166.785,91.696 162.62,88.067C158.159,84.307 162.497,80.75 166.912,75.869Z" style="fill:#f88948;"/>
        <path d="M24.153,247.564C26.628,241.466 28.721,236.549 33.27,238.395C38.483,240.51 35.894,245.226 33.419,251.324C30.944,257.422 29.459,262.475 24.302,260.493C18.822,258.49 21.678,253.662 24.153,247.564Z" style="fill:#f7db6b;"/>
    </g>
    <g id="majak">
    </g>
    <g>
        <g>
            <rect x="38.221" y="29.546" width="16.607" height="57.273" style="fill:#d9d9d9;"/>
            <rect x="30" y="29.546" width="8.221" height="57.273" style="fill:#8c8c8c;"/>
            <rect x="38.221" y="37.728" width="8.304" height="8.182" style="fill:#595959;"/>
            <rect x="38.221" y="54.091" width="8.304" height="8.182" style="fill:#595959;"/>
            <rect x="38.221" y="70.455" width="8.304" height="8.182" style="fill:#595959;"/>
            <path d="M42.414,-3.181L54.828,29.546L30,29.546L42.414,-3.181Z" style="fill:#f7db6b;"/>
            <path d="M42.414,-3.181L38.304,29.546L30,29.546L42.414,-3.181Z" style="fill:#f88948;"/>
        </g>
        <g>
            <rect x="118.221" y="29.546" width="16.607" height="57.273" style="fill:#d9d9d9;"/>
            <rect x="110" y="29.546" width="8.221" height="57.273" style="fill:#8c8c8c;"/>
            <circle cx="53.975" cy="84.49" r="5.853" style="fill:#f7db6b;"/>
            <circle cx="111.241" cy="84.49" r="5.853" style="fill:#f7db6b;"/>
            <rect x="118.221" y="37.728" width="8.304" height="8.182" style="fill:#595959;"/>
            <rect x="118.221" y="54.091" width="8.304" height="8.182" style="fill:#595959;"/>
            <rect x="118.221" y="70.455" width="8.304" height="8.182" style="fill:#595959;"/>
            <path d="M122.414,-3.181L134.828,29.546L110,29.546L122.414,-3.181Z" style="fill:#f7db6b;"/>
            <path d="M122.414,-3.181L118.304,29.546L110,29.546L122.414,-3.181Z" style="fill:#f88948;"/>
        </g>
    </g>
    <g id="vetrna-elektr" serif:id="vetrna elektr">
    </g>
    <g id="osrov-pokladu" serif:id="osrov pokladu">
    </g>
</svg>
