<?xml version="1.0" encoding="UTF-8" standalone="no"?>
<!DOCTYPE svg PUBLIC "-//W3C//DTD SVG 1.1//EN" "http://www.w3.org/Graphics/SVG/1.1/DTD/svg11.dtd">
<svg width="250px" height="250px" version="1.1" xmlns="http://www.w3.org/2000/svg" xmlns:xlink="http://www.w3.org/1999/xlink" xml:space="preserve" xmlns:serif="http://www.serif.com/" style="fill-rule:evenodd;clip-rule:evenodd;stroke-linecap:round;stroke-linejoin:round;stroke-miterlimit:1.5;">
    <rect id="Artboard" x="-500" y="-500" width="999.991" height="1000" style="fill:none;"/>
    <g id="background">
    </g>
    <path id="OSTROV" d="M-346.31,107.991C-374.685,54.043 -502.239,10.97 -494.677,-231.538C-489.722,-390.443 -388.69,-461.829 -313.043,-460.805C-267.375,-460.186 -211.162,-453.187 -70.04,-393.467C29.062,-351.53 75.23,-340.82 103.907,-351.679C174.243,-378.314 182.87,-389.33 221.578,-409.138C257.384,-427.461 294.527,-456.154 321.957,-467.137C404.286,-500.1 546.284,-464.656 460,-307.045C438.336,-267.473 457.089,-187.326 433.144,-18.643C406.159,171.461 354.682,116.792 345,161.357C338.009,193.537 400.472,305.911 360,381.357C307.077,480.013 163.418,445.756 116.957,442.863C47.037,438.51 -63.903,524.886 -163.043,492.863C-376.293,423.984 -283.641,227.142 -346.31,107.991Z" style="fill:#e2e1bf;"/>
    <path id="OSTROV1" serif:id="OSTROV" d="M-321.049,66.685C-369.073,40.278 -448.806,11.876 -480,-131.929C-510.788,-273.863 -446.46,-418.925 -321.049,-454.153C-279.659,-465.779 -193.661,-446.664 -60.642,-392.034C32.769,-353.671 76.287,-343.874 103.317,-353.808C169.613,-378.173 292.79,-451.346 360.084,-457.008C410.37,-461.238 487.811,-436.69 455.084,-338.398C451.933,-328.933 440.446,-296.796 440.084,-281.712C438.105,-199.155 424.692,-32.19 412.587,32.477C390.392,151.057 295.013,102.078 322.916,181.357C345.701,246.096 377.605,340.415 325,391.357C241.849,471.881 143.03,412.249 117.784,410.724C51.879,406.742 -76.719,489.181 -170.253,460.149C-263.787,431.117 -280.278,283.003 -277.648,233.926C-275.017,184.849 -282.333,87.973 -321.049,66.685Z" style="fill:#589765;"/>
    <path d="M-246.095,-253.472C-276.075,-295.422 -238.196,-452.947 -362.908,-387.839C-440.841,-347.152 -492.123,-212.199 -468.168,-130.766C-399.223,103.603 -270.558,5.153 -267.365,111.528C-261.985,290.746 -265.343,412.637 -147.365,441.087C-97.004,453.231 -5.758,442.058 30.608,377.748C49.945,343.552 128.434,271.669 202.635,349.46C225.115,373.028 261.478,382.035 287.055,360C315.287,335.677 309.653,295.206 294.345,275C271.902,245.375 248.234,210.258 257.635,166.659C278.818,68.426 337.367,104.15 358.066,58.83C402.476,-38.403 197.953,-76.2 127.635,-15.341C35.801,64.139 -160.951,-134.331 -246.095,-253.472Z" style="fill:#8dcf86;"/>
    <g id="pole">
        <path d="M-8.087,217.996L-12.412,218.642L-15.203,219.797C-15.203,219.797 0.668,226.288 24.167,259.501C48.034,293.234 58.327,314.608 61.243,321.17L65,320L67.33,319.065C62.512,309.143 50.813,286.988 29.159,256.36C11.824,231.842 -2.412,221.484 -8.087,217.996ZM3.967,216.206L3.912,216.204L-2.339,217.138L-5,217.98C-5,217.98 11.552,223.757 35.051,256.97C57.555,288.777 67.991,309.595 71.554,317.37L77.462,315C72.233,304.434 60.643,282.966 40.042,253.829C23.795,230.85 10.271,220.309 3.967,216.206ZM-20.192,219.804L-20.198,219.804L-23.199,221.05L-27,222.986C-27,222.986 -10.216,228.819 13.284,262.033C25.349,279.086 33.946,292.98 39.873,303.4L48.142,310.952L53.842,316.395C47.944,304.924 36.722,284.982 18.275,258.891C-0.485,232.358 -15.614,222.408 -20.192,219.804ZM7.232,216.27L7.122,216.41C7.122,216.41 22.436,221.226 45.935,254.439C67.477,284.886 77.961,305.264 81.943,313.771L88.147,312.07C82.829,301.371 71.272,280.074 50.926,251.298C37.562,232.396 26.04,221.91 18.863,216.5L7.232,216.27ZM63.517,227.883C68.033,232.852 73.085,239.071 78.587,246.846C107.646,287.918 116.582,310.668 116.582,310.668L124.433,312.22C124.433,312.22 113.529,286.066 83.578,243.705C82.043,241.533 80.532,239.473 79.046,237.515C74.619,234.3 69.548,230.965 63.517,227.883ZM23.345,216.671C29.75,220.746 41.558,230.339 56.819,251.908C78.413,282.429 88.895,302.832 92.856,311.302L95,310.952L99.649,310.791C94.637,300.559 82.983,278.712 61.81,248.767C51.523,234.217 42.327,224.654 35.366,218.555C30.096,217.608 25.153,216.916 23.345,216.671ZM41.829,219.836C48.417,225.449 57.25,234.604 67.703,249.377C91.076,282.411 101.43,303.593 104.588,310.619L111.556,310.377C107.225,301.276 95.463,278.439 72.694,246.236C65.989,236.753 59.748,229.388 54.287,223.72C52.17,222.886 49.952,222.091 47.624,221.346C45.984,220.821 43.981,220.312 41.829,219.836ZM-29.131,223.512L-36.414,226.535C-36.414,226.535 -21.1,231.35 2.4,264.564C8.101,272.622 13.028,279.975 17.267,286.594L22.843,289.77L29.34,294.764C23.575,285.268 16.331,274.067 7.391,261.422C-9.249,237.888 -23.033,227.4 -29.131,223.512ZM91.24,246.829C104.805,266.197 113.778,281.315 119.402,291.695L106.225,264.333C106.225,264.333 97.925,251.738 91.969,247.369C91.728,247.192 91.485,247.013 91.24,246.829ZM-37.99,227.393L-43.968,230.651C-38.252,233.865 -25.519,243.019 -8.484,267.095C-6.421,270.011 -4.459,272.835 -2.595,275.564L8.558,281.632C4.939,276.114 0.931,270.21 -3.493,263.954C-18.491,242.74 -31.17,232.127 -37.99,227.393ZM-46.201,231.868L-51.925,234.986L-51.924,234.987C-45.378,239.349 -34.042,248.951 -19.587,269.318L-10.283,272.343C-11.603,270.431 -12.969,268.476 -14.377,266.485C-27.594,247.79 -39.01,237.328 -46.201,231.868Z" style="fill:#f7db6b;"/>
        <path d="M173.744,325.887L166.436,329.838L161.849,327.351L176.286,319.545L173.744,325.887ZM152.593,322.331L184.022,305.339L178.873,313.091L157.18,324.819L152.593,322.331ZM203.154,284.972L141.245,318.443L146.869,320.37L191.476,296.253L195.885,291.357L203.144,285.266L203.154,284.972ZM130.18,314.401L202.714,275.186L203.313,279.83L135.521,316.481L130.367,314.715L130.18,314.401ZM202.105,270.46L127.902,310.577L125.663,306.819L201.507,265.815L202.105,270.46ZM200.455,261.328L123.884,302.726L122.337,298.594L199.332,256.967L200.455,261.328ZM198.189,252.53L120.762,294.39L119.215,290.259L195.889,248.805L198.189,252.53ZM192.819,243.834L193.549,245.015L117.64,286.054L116.093,281.923L190.993,241.429L192.819,243.834ZM188.271,237.845L113.884,278.061L111.713,274.267L185.596,234.323L188.271,237.845ZM182.692,230.837L109.504,270.406L107.333,266.612L179.467,227.613L182.692,230.837ZM175,223.146L176.185,224.331L105.123,262.75L105,262.534L102.63,259.131L172.115,221.564L175,223.146ZM167.472,219.018L100.071,255.458L97.558,251.849L162.91,216.517L167.472,219.018ZM113.027,233.462L150.487,213.21L156.749,214.792L104.396,243.096L112.492,235L113.027,233.462ZM143.749,211.797L115.196,227.234L117.326,221.114L134.915,211.605L143.749,211.797Z" style="fill:#589765;"/>
        <path d="M-89.072,218.266L-64.944,230.03C-59.093,230.775 -52.875,231.421 -46.353,231.905L-35.919,225.963L-31.509,224.465C-53.873,223.631 -74.266,220.845 -89.072,218.266ZM-12.001,217.842L3.912,216.204L-1.555,209.489C-52.474,211.656 -100.618,200.589 -108.59,198.652C-109.348,198.468 -131.306,192.708 -131.306,192.708C-131.306,192.708 -131.036,195.446 -131.793,196.395C-132.483,197.262 -131.739,199.412 -131.739,199.412C-131.739,199.412 -113.203,204.419 -111.167,205.021C-100.106,208.293 -60.744,218.746 -12.001,217.842ZM-112.591,181.519L-112.591,181.52L-121.038,185.967C-114.985,187.855 -108.798,189.78 -107.801,190.075C-96.612,193.385 -56.465,204.042 -6.951,202.861L-12.01,196.647L-13.757,194.816C-58.577,194.532 -98.071,185.444 -105.224,183.706C-105.473,183.646 -108.558,182.727 -112.591,181.519ZM-98.988,169.436L-105.145,174.905C-104.788,175.02 -104.547,175.097 -104.435,175.13C-94.542,178.056 -62.009,186.727 -20.373,187.879L-28.563,179.293C-61.44,177.447 -88.991,171.726 -98.988,169.436ZM-87.733,155.695L-92.356,162.565C-80.453,165.593 -60.337,169.881 -35.605,171.91L-40,167.301L-43.976,162.41C-55.028,160.757 -75.149,157.726 -87.733,155.695Z" style="fill:#589765;"/>
        <path d="M57.483,42.924L65.209,43.63C64.924,41.907 64.713,40.6 64.652,40.16C63.527,32.004 59.104,6.537 44.774,-23.839L37.229,-19.073C50.389,9.86 55.921,34.986 56.986,40.202C57.015,40.346 57.205,41.388 57.483,42.924ZM74.693,42.314L81.809,40.46C81.768,40.069 81.673,39.225 81.5,37.972C80.394,29.957 76.104,5.229 62.362,-24.445L52.759,-24.114C66.869,6.006 72.734,32.627 73.834,38.013C73.947,38.57 74.529,41.487 74.693,42.314ZM39.914,41.319L47.76,42.036C46.655,34.181 42.723,11.98 30.909,-15.081L23.29,-10.269C33.689,14.207 38.546,34.896 39.914,41.319ZM20.943,34.563L30.009,38.627C28.311,29.195 24.557,12.812 16.685,-6.652L8.81,-2.34C14.821,12.671 18.694,25.849 20.943,34.563ZM91.124,38.035L95,37.025L98.249,35.085C97.028,26.607 92.777,3.334 80.118,-24.65L78.458,-25L70.343,-24.72C83.921,4.743 89.601,30.533 90.681,35.825C90.742,36.12 90.933,37.077 91.124,38.035ZM-1.175,22.148L5.503,27.642L10.906,30.064C9.058,22.288 6.301,12.578 2.231,1.69L-5.888,7.642C-4.454,12.033 -2.799,17.117 -1.175,22.148ZM106.741,30.015L113.888,25.748C111.943,15.586 107.876,-1.064 99.721,-20.514L89.06,-22.763C99.402,0.659 104.721,21.18 106.741,30.015ZM121.075,17.734L126.954,10.162L126.959,10.152C124.464,0.543 121.998,-8.558 121.998,-8.558L121.295,-10.546L116.202,-16.177L109.642,-17.962C114.217,-7.054 118.343,7.231 121.075,17.734Z" style="fill:#589765;"/>
        <path d="M18.479,130L17.989,124.73C14.538,127.011 11.002,129.464 7.39,132.103C-2.055,139.004 -12.202,150.4 -20.606,161.003L-5.809,156.598C0.376,149.622 6.982,143.121 13.314,138.654L18.479,130ZM14.015,109.572C9.103,112.671 4.005,116.12 -1.254,119.963C-14.232,129.445 -28.536,147.414 -37.828,160.157L-27.813,160.882C-18.727,148.846 -6.592,134.456 4.676,126.509C8.993,123.465 13.16,120.668 17.172,118.1L14.015,109.572ZM12.762,95L13.458,92.541C6.134,96.778 -1.685,101.822 -9.899,107.823C-24.497,118.488 -40.772,139.892 -49.704,152.517L-45,155L-42.71,157.29C-33.571,144.404 -18.09,124.328 -3.969,114.369C1.75,110.336 7.205,106.738 12.386,103.53L12.762,95ZM17.008,80L21.983,71.423C10.197,76.925 -3.511,84.7 -18.543,95.683C-35.074,107.76 -53.756,133.609 -61.491,144.886L-57.708,148.29L-54.666,149.897C-46.382,137.818 -28.623,113.52 -12.613,102.229C-2.267,94.933 7.216,89.06 15.781,84.335L17.008,80ZM33.718,51.189L33.73,51.175C18.827,56.026 -2.375,65.415 -27.188,83.543C-44.582,96.251 -64.358,124.208 -71.255,134.388L-70,140L-65.621,141.169C-58.828,130.999 -38.973,102.582 -21.257,90.089C-1.972,76.488 14.314,67.835 27.257,62.329L33.718,51.189ZM30,39.431L27.39,38.304C12.407,42.921 -9.712,52.319 -35.832,71.402C-51.006,82.488 -67.991,105.177 -76.66,117.549L-75,123.637L-74.321,129.114C-67.58,119.013 -47.665,90.476 -29.902,77.949C2.143,55.35 25.908,46.411 39.8,42.877L39.187,42.186L30,39.431ZM12.322,31.8L8.994,29.521C-5.183,34.897 -23.545,43.97 -44.477,59.262C-57.641,68.88 -72.168,87.23 -81.446,100L-78.569,110.548C-69.648,97.808 -53.35,76.248 -38.546,65.809C-14.596,48.919 4.728,39.659 18.767,34.582L12.322,31.8ZM-3.079,21.249L2.811,25.284C-10.36,30.751 -27.157,39.541 -47.191,53.669C-59.883,62.619 -73.673,79.743 -82.972,92.476L-83.475,90L-64.872,70L-42.044,39.433C-28.281,30.376 -15.881,24.062 -5.371,19.663L-3.079,21.249ZM-18.672,14.125L-29.818,24.962C-23.299,21.275 -17.287,18.241 -11.805,15.744L-18.672,14.125Z" style="fill:#589765;"/>
        <path d="M209.108,57.197C197.081,65.685 177.241,78.535 161.77,82.897C158.921,83.7 156.148,84.441 153.449,85.124L162.144,85.392L176.615,83.039L190,78.014L200,71.274L208.565,60L209.108,57.197ZM211.217,46.319L210.253,40.313C199.452,48.225 175.844,64.502 158.03,69.525C142.638,73.865 129.463,76.389 118.404,77.752L120,78.579L136.97,83.103C144.416,81.675 152.49,79.732 161.155,77.131C177.526,72.217 198.898,58.075 210.541,49.804L211.217,46.319ZM199.981,31.608C187.845,40.066 169.072,51.985 154.289,56.153C129.946,63.017 111.149,65.339 97.499,65.71L100.184,68.307L109.064,72.911C122.069,72.031 138.304,69.495 157.414,63.759C173.822,58.834 195.252,44.64 206.88,36.376L199.981,31.608ZM188.349,23.57C176.84,31.103 162.41,39.436 150.549,42.781C119.301,51.592 97.193,52.919 83.372,52.241L88.125,56.642L91.495,59.902C106.008,60.158 127.049,58.379 153.674,50.387C166.884,46.422 183.35,36.448 195.335,28.398L188.349,23.57ZM176.448,15.345C166.73,21.231 155.998,26.818 146.808,29.409C121.293,36.603 101.871,38.808 88.079,39.006L82.631,40.743L81.555,46.285C95.961,47.186 119.237,46.229 149.934,37.015C160.382,33.879 172.866,26.984 183.556,20.258L176.448,15.345ZM168.714,10L163.91,7.034C156.794,10.894 149.548,14.21 143.068,16.037C133.888,18.626 125.496,20.568 117.872,22.003L114.636,25L106.741,30.015L101.964,32.468C114.226,31.358 129.053,28.788 146.193,23.643C154.019,21.294 162.988,16.836 171.49,11.919L168.714,10ZM150.247,-1.401C146.479,0.284 142.794,1.688 139.328,2.665C135.613,3.713 132.027,4.654 128.568,5.5L124.849,14.879C130.41,13.642 136.281,12.123 142.453,10.271C147.444,8.773 152.899,6.417 158.4,3.633L150.247,-1.401ZM131.516,-9.587L130.587,-9.339L130.332,-9.272L129.619,-0.55C132.574,-1.32 135.605,-2.168 138.712,-3.101C140.458,-3.625 142.261,-4.254 144.102,-4.97L131.516,-9.587Z" style="fill:#589765;"/>
    </g>
    <g id="kere">
        <g id="ker">
        </g>
        <g id="ker1" serif:id="ker">
        </g>
        <g id="ker2" serif:id="ker">
            <path d="M52.46,224.138C52.303,223.292 52.378,224.06 52.378,223.132C52.378,218.007 54.771,213.815 57.944,213.765C58.955,213.749 59.787,213.678 60.519,214.156C62.68,215.567 63.88,219.303 63.88,223.132C63.88,224.014 63.838,224.724 63.698,225.607C63.698,225.607 58.7,226.092 56.983,226.044C55.464,226.001 52.46,224.138 52.46,224.138Z" style="fill:#3b7847;"/>
            <path d="M63.698,225.607C63.824,224.741 63.88,224.036 63.88,223.132C63.88,218.375 62.127,214.41 59.88,213.871C59.706,213.829 59.537,213.847 59.357,213.847C56.861,213.847 54.835,218.007 54.835,223.132C54.835,224.036 54.887,225.029 55.013,225.895C55.013,225.895 57.565,226.246 59.651,226.041C61.005,225.908 63.698,225.607 63.698,225.607Z" style="fill:#4db343;"/>
        </g>
        <g id="ker3" serif:id="ker">
        </g>
        <g id="ker4" serif:id="ker">
        </g>
        <g id="ker5" serif:id="ker">
        </g>
        <g id="ker6" serif:id="ker">
        </g>
        <g id="ker7" serif:id="ker">
        </g>
        <g id="ker8" serif:id="ker">
        </g>
        <g id="ker9" serif:id="ker">
        </g>
        <g id="ker10" serif:id="ker">
            <path d="M6.18,214.982C5.956,213.78 5.886,212.291 5.886,210.971C5.886,203.684 9.288,197.723 13.801,197.651C15.239,197.629 16.421,197.529 17.462,198.208C20.536,200.214 22.242,205.527 22.242,210.971C22.242,212.226 22.182,213.236 21.983,214.491C21.983,214.491 14.877,215.1 12.434,215.112C10.363,215.123 6.18,214.982 6.18,214.982Z" style="fill:#3b7847;"/>
            <path d="M21.863,215.867C22.142,214.464 22.242,212.257 22.242,210.971C22.242,204.208 19.749,198.569 16.554,197.802C16.306,197.743 16.066,197.768 15.811,197.768C12.261,197.768 9.379,203.684 9.379,210.971C9.379,212.257 9.561,213.848 9.741,215.08C9.741,215.08 13.28,215.17 16.229,215.108C18.162,215.068 21.863,215.867 21.863,215.867Z" style="fill:#4db343;"/>
        </g>
        <g id="ker11" serif:id="ker">
        </g>
        <g id="ker12" serif:id="ker">
        </g>
        <g id="ker13" serif:id="ker">
            <path d="M32.602,218.108C32.337,216.684 32.611,217.356 32.611,215.793C32.611,207.165 36.64,200.107 41.983,200.022C43.685,199.995 45.086,199.877 46.318,200.681C49.957,203.057 51.978,209.347 51.978,215.793C51.978,217.279 51.906,218.474 51.671,219.96C51.671,219.96 42.892,219.986 40,220C37.547,220.012 32.602,218.108 32.602,218.108Z" style="fill:#3b7847;"/>
            <path d="M51.528,221.589C51.858,219.929 51.978,217.316 51.978,215.793C51.978,207.785 49.025,201.109 45.242,200.201C44.95,200.13 44.665,200.16 44.363,200.16C40.16,200.16 36.748,207.165 36.748,215.793C36.748,217.316 36.963,219.199 37.176,220.658C37.176,220.658 41.366,220.764 44.858,220.691C47.147,220.644 51.528,221.589 51.528,221.589Z" style="fill:#4db343;"/>
        </g>
        <g id="ker14" serif:id="ker">
        </g>
        <g id="ker15" serif:id="ker">
        </g>
        <g id="ker16" serif:id="ker">
        </g>
        <g id="ker17" serif:id="ker">
        </g>
        <g id="ker18" serif:id="ker">
        </g>
    </g>
    <g>
        <g>
            <g id="strom">
            </g>
            <g id="strom1" serif:id="strom">
            </g>
            <g id="strom2" serif:id="strom">
            </g>
            <g id="strom3" serif:id="strom">
            </g>
            <g id="strom4" serif:id="strom">
            </g>
            <g id="strom5" serif:id="strom">
            </g>
            <g id="strom6" serif:id="strom">
            </g>
            <g id="strom7" serif:id="strom">
            </g>
            <g id="strom8" serif:id="strom">
            </g>
            <g id="strom9" serif:id="strom">
            </g>
            <g id="strom10" serif:id="strom">
            </g>
            <g id="strom11" serif:id="strom">
            </g>
            <g id="strom12" serif:id="strom">
            </g>
            <g id="strom13" serif:id="strom">
            </g>
            <g id="strom14" serif:id="strom">
                <g>
                    <path d="M69.679,185.984C71.436,185.956 72.883,185.834 74.155,186.665C77.914,189.118 80,195.615 80,202.271C80,209.334 77.342,217.218 72.797,218.36C71.344,218.725 71.145,218.416 70,218.416C64.481,218.416 60,211.182 60,202.271C60,193.361 64.161,186.072 69.679,185.984Z" style="fill:#3b7847;"/>
                    <ellipse cx="72.136" cy="202.271" rx="7.864" ry="16.145" style="fill:#4db343;"/>
                </g>
                <path d="M70,209.992L70,230" style="fill:none;stroke:#4c4c4c;stroke-width:4px;"/>
            </g>
        </g>
    </g>
    <g id="male-cesty" serif:id="male cesty">
        <path d="M-287.051,125C-282.086,123.689 -224.099,130.48 -185.842,120.578C-75.73,92.078 -22.388,194.734 5,216.033" style="fill:none;stroke:#2d5836;stroke-width:4px;stroke-linecap:butt;"/>
        <path d="M-145,293.479C-87.748,263.091 -18.129,240.857 53.948,316.869C55.267,318.261 65.876,326.805 70.592,333.024" style="fill:none;stroke:#2d5836;stroke-width:4px;stroke-linecap:butt;"/>
        <path d="M-54.521,236.403C-27.964,214.502 19.931,209.562 58.063,225C91.402,238.498 119.994,274.969 126.959,314.715" style="fill:none;stroke:#2d5836;stroke-width:4px;stroke-linecap:butt;"/>
        <path d="M40.593,42.135C-37.117,140.066 67.223,139.356 93.325,156.357C139.785,186.618 115.814,248.592 92.444,247.844" style="fill:none;stroke:#2d5836;stroke-width:4px;stroke-linecap:butt;"/>
        <path d="M186.165,112.502C143.127,166.551 258.553,182.375 275,209.569" style="fill:none;stroke:#2d5836;stroke-width:4px;stroke-linecap:butt;"/>
        <path d="M171.694,341.432C168.352,296.477 244.181,241.971 300,259.775" style="fill:none;stroke:#2d5836;stroke-width:4px;"/>
        <path d="M120,213.097C168.448,201.942 205.861,242.535 202.989,285" style="fill:none;stroke:#2d5836;stroke-width:4px;"/>
        <path d="M15,113.61C32.244,154.889 -46.721,185.189 -72.698,135.603" style="fill:none;stroke:#2d5836;stroke-width:4px;"/>
        <g id="les">
        </g>
        <path d="M190,-218.123C210.48,-186.585 201.148,-158.853 190,-143.371C166.902,-111.292 119.455,-117.281 105,-125.319C78.403,-140.109 18.287,-167.428 13.824,-115.814C11.006,-83.228 87.815,-76.529 105,-63.178C136.066,-39.042 129.917,-6.1 130,-5C133.976,47.767 -19.245,93.416 -54.521,-70" style="fill:none;stroke:#2d5836;stroke-width:4px;"/>
        <path d="M266.883,-6.809C268.727,-3.47 328.395,-29.613 346.356,20C355.294,44.686 332.013,72.319 315,80C304.216,84.869 240.971,115.417 247.194,-10" style="fill:none;stroke:#2d5836;stroke-width:4px;"/>
        <path d="M205.645,28.102C237.57,85.945 123.803,112.417 77.62,42.135" style="fill:none;stroke:#2d5836;stroke-width:4px;"/>
    </g>
    <g id="hory">
    </g>
    <g id="ker19" serif:id="ker">
    </g>
    <g id="ker20" serif:id="ker">
    </g>
    <g id="ker21" serif:id="ker">
    </g>
    <g id="strom15" serif:id="strom">
    </g>
    <g id="strom16" serif:id="strom">
    </g>
    <path d="M171.694,-178.643C135.296,-125.864 123.8,-155.525 66.051,-170.833C24.391,-181.877 -23.37,-158.794 -43.788,-124.718C-63.471,-91.87 -82.852,-56.563 -102.853,-20.958C-118.328,6.59 -125.775,39.132 -145.338,60.897C-157.163,74.054 -178.225,88.992 -191.968,96.637C-208.126,105.626 -214.09,129.32 -224.09,140.446C-228.135,144.947 -236.103,147.416 -238.597,151.975C-243.637,161.188 -241.707,176.187 -245.851,185.409C-252.914,201.125 -262.806,230.004 -277.974,238.442C-283.59,241.566 -290.109,240.005 -295.589,243.053C-299.539,245.251 -320.725,257.594 -324.605,257.594" style="fill:none;stroke:#065e7b;stroke-width:27.47px;"/>
    <path d="M159.98,-166.376C156.283,-156.851 145.302,-148.064 132.258,-146.767C110.518,-144.604 63.303,-182.081 21.65,-171.879C-8.362,-164.528 -29.877,-143.609 -44.159,-120.936C-64.533,-88.591 -81.241,-53.265 -101.227,-17.614C-116.692,9.971 -127.619,43.251 -147.132,65.044C-158.927,78.218 -182.145,93.552 -195.832,101.207C-211.926,110.208 -213.638,131.395 -223.613,142.536C-227.648,147.042 -234.983,148.303 -237.476,152.869C-242.512,162.093 -242.342,179.841 -246.488,189.076C-253.555,204.812 -264.111,232.244 -279.217,240.693C-284.811,243.821 -292.219,242.806 -297.677,245.859C-301.611,248.059 -321.896,258.768 -330,261.357" style="fill:none;stroke:#73b3ce;stroke-width:9.33px;"/>
    <g id="ker22" serif:id="ker">
    </g>
    <g id="cesty-velke" serif:id="cesty velke">
        <path d="M-190,403.931C-141.483,466.404 -47.875,452.83 -5,415C39.679,375.578 44.751,327.389 90,320C124.229,314.41 149.917,323.836 172.639,351.143C275.776,475.088 371.472,321.244 309.996,260.213C303.488,253.752 239.113,177.575 310,114.259C311.597,112.833 328.263,101.125 330,99.713" style="fill:none;stroke:#2d5836;stroke-width:18.67px;"/>
        <path d="M-40,157.586C-48.648,154.653 -79.983,146.357 -79.983,146.357C-79.983,146.357 -75.565,133.815 -77.976,121.357C-80.787,106.833 -90.46,92.034 -89.983,91.357C-82.086,80.163 -51.319,44.992 -45,36.948C77.268,-118.705 212.404,40.308 280.017,91.357C307.806,112.338 370.358,101.557 380,50C397.845,-45.425 269.733,-37.56 260.017,-148.643C251.808,-242.495 309.765,-286.785 370.017,-298.643C496.517,-323.538 450.386,-459.931 342.374,-436.691C286.476,-424.664 239.552,-356.123 227.192,-263.386C216.476,-182.978 105.294,-237.44 107.815,-272.312" style="fill:none;stroke:#2d5836;stroke-width:18.67px;"/>
    </g>
    <g id="strom17" serif:id="strom">
    </g>
    <g id="strom18" serif:id="strom">
    </g>
    <g id="strom19" serif:id="strom">
    </g>
    <g id="strom20" serif:id="strom">
    </g>
    <g id="stromy">
    </g>
    <g id="namesti">
    </g>
    <g id="smrky">
    </g>
    <g id="listnace">
    </g>
    <g id="lanoka">
    </g>
    <g id="strom21" serif:id="strom">
    </g>
    <g id="satelit">
    </g>
    <g id="domky">
        <g id="D1">
        </g>
        <g id="D7">
        </g>
        <g id="D71" serif:id="D7">
        </g>
        <g id="D72" serif:id="D7">
        </g>
        <g id="D73" serif:id="D7">
        </g>
        <g id="D74" serif:id="D7">
        </g>
        <g id="D75" serif:id="D7">
        </g>
        <g id="D76" serif:id="D7">
        </g>
        <g id="D77" serif:id="D7">
        </g>
        <g id="D78" serif:id="D7">
        </g>
        <g id="D79" serif:id="D7">
        </g>
        <g id="D710" serif:id="D7">
        </g>
        <g id="D711" serif:id="D7">
        </g>
        <g id="D712" serif:id="D7">
        </g>
        <g id="D713" serif:id="D7">
        </g>
        <g id="D714" serif:id="D7">
        </g>
        <g id="D715" serif:id="D7">
        </g>
        <g id="D716" serif:id="D7">
        </g>
        <g id="D2">
        </g>
        <g id="D21" serif:id="D2">
        </g>
        <g id="D10">
        </g>
        <g id="D101" serif:id="D10">
        </g>
        <g id="D102" serif:id="D10">
        </g>
        <g id="D01">
        </g>
    </g>
    <g id="strom22" serif:id="strom">
    </g>
    <g id="strom23" serif:id="strom">
    </g>
    <g id="staba">
        <path d="M221.29,-2L221.29,-117" style="fill:none;stroke:#000;stroke-width:4px;"/>
        <path d="M203.451,-2.168L203.451,-117.168" style="fill:none;stroke:#000;stroke-width:4px;"/>
        <path d="M245.846,-2L245.846,-117" style="fill:none;stroke:#000;stroke-width:4px;"/>
        <path d="M201.29,-91.355L201.29,-2L271.29,-2L271.29,-91.355L201.29,-91.355ZM229.29,-27L208.29,-27L208.29,-7L229.29,-7L229.29,-27ZM264.29,-27L243.29,-27L243.29,-7L264.29,-7L264.29,-27ZM229.29,-57L208.29,-57L208.29,-37L229.29,-37L229.29,-57ZM264.29,-57L243.29,-57L243.29,-37L264.29,-37L264.29,-57ZM229.29,-86.355L208.29,-86.355L208.29,-66.355L229.29,-66.355L229.29,-86.355ZM264.29,-86.355L243.29,-86.355L243.29,-66.355L264.29,-66.355L264.29,-86.355Z" style="fill:#737373;"/>
        <path d="M221.29,-89.355L221.29,-0L271.29,-0L271.29,-89.355L221.29,-89.355ZM241.29,-25L226.29,-25L226.29,-5L241.29,-5L241.29,-25ZM266.29,-25L251.29,-25L251.29,-5L266.29,-5L266.29,-25ZM241.29,-55L226.29,-55L226.29,-35L241.29,-35L241.29,-55ZM266.29,-55L251.29,-55L251.29,-35L266.29,-35L266.29,-55ZM241.29,-84.355L226.29,-84.355L226.29,-64.355L241.29,-64.355L241.29,-84.355ZM266.29,-84.355L251.29,-84.355L251.29,-64.355L266.29,-64.355L266.29,-84.355Z" style="fill:#d9d9d9;"/>
        <path d="M221.766,-0L221.766,-89.355L201.29,-89.355L201.29,-0L221.766,-0ZM218.934,-25L204.192,-25L204.192,-5L218.934,-5L218.934,-25ZM218.934,-55L204.192,-55L204.192,-35L218.934,-35L218.934,-55ZM218.934,-84.355L204.192,-84.355L204.192,-64.355L218.934,-64.355L218.934,-84.355Z" style="fill:#a6a6a6;"/>
        <path id="jerab" d="M70.593,-163.189L65.593,-213.491L55.593,-213.491L50.593,-163.189L50.593,10.071L40.593,21.249L80.593,21.249L70.593,10.071L70.66,-152.011L70.593,-163.189Z" style="fill:none;stroke:#f7db6b;stroke-width:4px;"/>
        <path id="jerab1" serif:id="jerab" d="M70.593,10.071L50.593,-6.696L70.593,-23.464L50.593,-40.231L70.593,-56.998L50.593,-73.765L70.593,-90.532L50.593,-107.299L70.649,-124.954L85,-123.944L88.994,-150L86.641,-134.649L70,-135.619L70,-125L50.593,-140.833L70.593,-157.6L51.705,-174.367L67.816,-191.135L55.593,-207.902L60.593,-219.08L65.593,-207.902L53.371,-191.135L69.482,-174.367L50.593,-157.6L70.593,-140.833L50.593,-124.066L70.593,-107.299L50.593,-90.532L70.593,-73.765L50.593,-56.998L70.593,-40.231L50.593,-23.464L70.593,-6.696L50.593,10.071L60.593,21.249L70.593,10.071Z" style="fill:none;stroke:#f7db6b;stroke-width:3.25px;"/>
    </g>
    <g id="chladici-vez" serif:id="chladici vez">
    </g>
    <g id="D22" serif:id="D2">
    </g>
    <g id="D5">
    </g>
    <g id="TOVANA">
    </g>
    <g id="strom24" serif:id="strom">
    </g>
    <g id="strom25" serif:id="strom">
    </g>
    <g id="panelaky">
        <g id="D6">
        </g>
        <g id="D3">
            <path d="M271.25,144.57L271.25,40L227.53,40L227.53,144.57L271.25,144.57Z" style="fill:#d9d9d9;"/>
            <path d="M227.654,144.57L227.654,40L208.951,40L208.951,144.57L227.654,144.57Z" style="fill:#8c8c8c;"/>
            <path d="M264.159,57.429L264.159,48.716L250.867,48.716L250.867,57.429L264.159,57.429Z" style="fill:#595959;"/>
            <path d="M246.623,57.429L246.623,48.716L233.331,48.716L233.331,57.429L246.623,57.429Z" style="fill:#595959;"/>
            <path d="M247.026,113.811L247.026,105.098L233.734,105.098L233.734,113.811L247.026,113.811Z" style="fill:#595959;"/>
            <path d="M264.271,68.705L264.271,59.993L250.979,59.993L250.979,68.705L264.271,68.705Z" style="fill:#595959;"/>
            <path d="M246.735,68.705L246.735,59.993L233.443,59.993L233.443,68.705L246.735,68.705Z" style="fill:#595959;"/>
            <path d="M247.138,125.087L247.138,116.375L233.846,116.375L233.846,125.087L247.138,125.087Z" style="fill:#595959;"/>
            <path d="M264.271,79.981L264.271,71.269L250.979,71.269L250.979,79.981L264.271,79.981Z" style="fill:#595959;"/>
            <path d="M246.735,79.981L246.735,71.269L233.443,71.269L233.443,79.981L246.735,79.981Z" style="fill:#595959;"/>
            <path d="M247.138,136.363L247.138,127.651L233.846,127.651L233.846,136.363L247.138,136.363Z" style="fill:#595959;"/>
            <path d="M264.271,91.258L264.271,82.546L250.979,82.546L250.979,91.258L264.271,91.258Z" style="fill:#595959;"/>
            <path d="M246.735,91.258L246.735,82.546L233.443,82.546L233.443,91.258L246.735,91.258Z" style="fill:#595959;"/>
            <path d="M264.271,102.534L264.271,93.822L250.979,93.822L250.979,102.534L264.271,102.534Z" style="fill:#595959;"/>
            <path d="M246.735,102.534L246.735,93.822L233.443,93.822L233.443,102.534L246.735,102.534Z" style="fill:#595959;"/>
        </g>
        <g id="D9">
            <rect x="130" y="60.781" width="16.626" height="41.566" style="fill:#8c8c8c;"/>
            <rect x="145.518" y="60.781" width="16.626" height="41.566" style="fill:#d9d9d9;"/>
            <rect x="149.674" y="66.342" width="8.313" height="8.313" style="fill:#595959;"/>
            <rect x="134.157" y="66.342" width="8.313" height="8.313" style="fill:#595959;"/>
            <rect x="149.674" y="79.49" width="8.313" height="8.313" style="fill:#595959;"/>
            <rect x="134.157" y="79.49" width="8.313" height="8.313" style="fill:#595959;"/>
        </g>
        <g id="D91" serif:id="D9">
            <rect x="159.484" y="86.296" width="16.626" height="41.566" style="fill:#8c8c8c;"/>
            <rect x="175.002" y="86.296" width="16.626" height="41.566" style="fill:#d9d9d9;"/>
            <rect x="179.158" y="91.858" width="8.313" height="8.313" style="fill:#595959;"/>
            <rect x="163.641" y="91.858" width="8.313" height="8.313" style="fill:#595959;"/>
            <rect x="179.158" y="105.006" width="8.313" height="8.313" style="fill:#595959;"/>
            <rect x="163.641" y="105.006" width="8.313" height="8.313" style="fill:#595959;"/>
        </g>
        <g id="D92" serif:id="D9">
            <rect x="187.267" y="112.945" width="16.626" height="41.566" style="fill:#8c8c8c;"/>
            <rect x="202.785" y="112.945" width="16.626" height="41.566" style="fill:#d9d9d9;"/>
            <rect x="206.942" y="118.507" width="8.313" height="8.313" style="fill:#595959;"/>
            <rect x="191.424" y="118.507" width="8.313" height="8.313" style="fill:#595959;"/>
            <rect x="206.942" y="131.655" width="8.313" height="8.313" style="fill:#595959;"/>
            <rect x="191.424" y="131.655" width="8.313" height="8.313" style="fill:#595959;"/>
        </g>
        <g id="D93" serif:id="D9">
            <rect x="213.916" y="144.131" width="16.626" height="41.566" style="fill:#8c8c8c;"/>
            <rect x="229.434" y="144.131" width="16.626" height="41.566" style="fill:#d9d9d9;"/>
            <rect x="233.591" y="149.692" width="8.313" height="8.313" style="fill:#595959;"/>
            <rect x="218.073" y="149.692" width="8.313" height="8.313" style="fill:#595959;"/>
            <rect x="233.591" y="162.84" width="8.313" height="8.313" style="fill:#595959;"/>
            <rect x="218.073" y="162.84" width="8.313" height="8.313" style="fill:#595959;"/>
        </g>
        <g id="D717" serif:id="D7">
        </g>
    </g>
    <g id="strom26" serif:id="strom">
    </g>
    <g id="strom27" serif:id="strom">
        <g>
            <path d="M223.352,-22.045C225.523,-22.081 227.309,-22.239 228.881,-21.163C233.524,-17.983 236.102,-9.563 236.102,-0.936C236.102,8.216 232.818,18.434 227.203,19.914C225.408,20.387 225.163,19.987 223.748,19.987C216.93,19.987 211.395,10.612 211.395,-0.936C211.395,-12.484 216.535,-21.931 223.352,-22.045Z" style="fill:#3b7847;"/>
            <ellipse cx="226.387" cy="-0.936" rx="9.715" ry="20.923" style="fill:#4db343;"/>
        </g>
        <path d="M223.748,9.07L223.748,35" style="fill:none;stroke:#4c4c4c;stroke-width:4px;"/>
    </g>
    <path d="M227.822,35.483L220.61,29.595L217.563,33.234L224.775,39.122L227.822,35.483Z" style="fill:#2d5836;"/>
    <g id="letiste">
    </g>
    <g id="strom28" serif:id="strom">
    </g>
    <g id="strom29" serif:id="strom">
    </g>
    <g id="tunel-s-vlakem" serif:id="tunel s vlakem">
        <rect x="57.267" y="81.502" width="31.19" height="18.498" style="fill:#595959;"/>
        <path d="M239.731,227.874C239.988,227.564 239.944,227.105 239.634,226.849L59.798,78.219C59.489,77.963 59.029,78.007 58.773,78.316L57.846,79.439C57.59,79.749 57.633,80.208 57.943,80.464L237.779,229.094C238.088,229.35 238.548,229.306 238.804,228.996L239.731,227.874Z"/>
        <path d="M236.853,232.874C237.109,232.564 237.065,232.105 236.755,231.849L57.828,83.97C57.518,83.714 57.059,83.757 56.803,84.067L55.875,85.19C55.619,85.499 55.663,85.959 55.973,86.215L234.9,234.094C235.21,234.35 235.669,234.306 235.925,233.996L236.853,232.874Z"/>
        <path d="M27.759,41.898L88.457,81.502L57.267,81.502L11.376,62.477C8.184,59.935 3.552,56.943 5.813,54.104L8.853,39.357C11.114,36.518 24.567,39.356 27.759,41.898Z" style="fill:#589765;"/>
        <path d="M57.267,81.502L57.267,100L16.946,66.913C14.106,64.653 5.336,57.86 6.581,56.295L9.215,54.418C10.461,52.853 23.135,53.312 25.975,55.572L57.267,81.502Z" style="fill:#3b7847;"/>
        <path d="M220,196.985L190,197.252L236.936,242.987C240.157,245.492 244.155,249.29 246.383,246.424L260,240C262.228,237.135 256.304,224.727 253.083,222.222L220,196.985Z" style="fill:#589765;"/>
        <path d="M190,197.252L190,210C188.772,211.579 200.42,219.595 203.285,221.822L231.313,238.618C234.179,240.846 242.845,247.772 244.073,246.193L245.277,243.191C246.504,241.612 243.077,229.402 240.212,227.174L190,197.252Z" style="fill:#3b7847;"/>
    </g>
    <g id="strom30" serif:id="strom">
    </g>
    <g id="hrad">
    </g>
    <g id="auta">
        <path d="M185.743,10.802C191.455,14.07 196.048,16.802 193.61,21.063C190.816,25.946 186.489,22.75 180.777,19.482C175.064,16.213 170.256,14.066 172.91,9.22C175.627,4.058 180.03,7.534 185.743,10.802Z" style="fill:#beed9a;"/>
    </g>
    <g id="majak">
    </g>
    <g id="vetrna-elektr" serif:id="vetrna elektr">
    </g>
    <g id="osrov-pokladu" serif:id="osrov pokladu">
    </g>
</svg>
