<svg xmlns="http://www.w3.org/2000/svg" xml:space="preserve" fill-rule="evenodd" stroke-linecap="round" stroke-linejoin="round" stroke-miterlimit="1.5" clip-rule="evenodd" viewBox="0 0 250 250"><path fill="none" d="M-500-500H500V500H-500z"/><path fill="#e2e1bf" d="M-346.3 108c-28.4-54-156-97-148.4-339.5 5-159 106-230.3 181.7-229.3 45.6.6 101.8 7.6 243 67.3 99 42 145.2 52.7 174 41.8 70.2-26.6 78.9-37.6 117.6-57.4 35.8-18.4 73-47 100.4-58 82.3-33 224.3 2.4 138 160-21.7 39.6-3 119.8-26.9 288.5-27 190-78.4 135.4-88.1 180-7 32.1 55.5 144.5 15 220-53 98.6-196.6 64.4-243 61.5-70-4.4-180.9 82-280 50-213.3-69-120.6-265.8-183.3-385Z"/><path fill="#589765" d="M-321 66.7C-369 40.3-448.8 11.9-480-132c-30.8-142 33.5-287 159-322.3 41.3-11.6 127.3 7.5 260.4 62.2 93.4 38.3 136.9 48.1 164 38.2C169.5-378.2 292.7-451.3 360-457c50.3-4.2 127.7 20.3 95 118.6-3.2 9.5-14.7 41.6-15 56.7-2 82.5-15.4 249.5-27.5 314.2C390.4 151 295 102 322.9 181.4c22.8 64.7 54.7 159 2.1 210-83.2 80.5-182 20.8-207.2 19.3-66-4-194.5 78.5-288 49.4-93.6-29-110-177.1-107.4-226.2 2.6-49-4.7-146-43.4-167.2Z"/><path fill="#8dcf86" d="M-246-253.5c-30-42 7.8-199.4-117-134.3-77.8 40.6-129.1 175.6-105.2 257 69 234.4 197.6 136 200.8 242.3 5.4 179.2 2 301.1 120 329.6 50.4 12.1 141.6 1 178-63.4 19.3-34.1 97.8-106 172-28.2 22.5 23.5 58.9 32.5 84.5 10.5 28.2-24.3 22.6-64.8 7.2-85-22.4-29.6-46-64.7-36.7-108.3 21.2-98.3 79.8-62.5 100.5-107.9 44.4-97.2-160.1-135-230.5-74.1C35.8 64-161-134.3-246-253.5Z"/><path fill="#f7db6b" d="m-8 218-4.4.6-2.8 1.2s15.9 6.5 39.4 39.7a382.2 382.2 0 0 1 37 61.7L65 320l2.3-1c-4.8-9.9-16.5-32-38.1-62.6-17.4-24.6-31.6-35-37.3-38.4Zm12-1.8-6.3 1-2.7.8s16.6 5.8 40 39c22.6 31.8 33 52.6 36.6 60.4l5.9-2.4c-5.3-10.6-16.9-32-37.5-61.2a141.7 141.7 0 0 0-36-37.6Zm-24.2 3.6-3 1.3-3.8 1.9s16.8 5.8 40.3 39c12 17 20.6 31 26.6 41.4L48 311l5.7 5.4a488.9 488.9 0 0 0-35.5-57.5c-18.8-26.5-34-36.5-38.5-39.1Zm27.4-3.5v.1s15.2 4.8 38.7 38c21.6 30.5 32 50.9 36 59.4l6.2-1.7c-5.3-10.7-16.8-32-37.2-60.8a155.3 155.3 0 0 0-32-34.8l-11.7-.2Zm56.3 11.6c4.5 5 9.6 11.2 15 19 29.1 41 38 63.8 38 63.8l8 1.5s-11-26.1-41-68.5l-4.5-6.2a116 116 0 0 0-15.5-9.6Zm-40.2-11.2c6.4 4 18.3 13.6 33.5 35.2a407 407 0 0 1 36 59.4l2.2-.3 4.6-.2c-5-10.2-16.6-32-37.8-62a171.5 171.5 0 0 0-26.4-30.2c-5.3-1-10.2-1.7-12-2Zm18.5 3.1c6.6 5.6 15.5 14.8 25.9 29.6 23.4 33 33.7 54.2 36.9 61.2l7-.2a452 452 0 0 0-39-64.2 198.3 198.3 0 0 0-18.3-22.5 107.8 107.8 0 0 0-12.5-3.9Zm-71 3.7-7.2 3s15.3 4.8 38.8 38c5.7 8.1 10.6 15.5 14.9 22l5.5 3.3 6.5 5a532 532 0 0 0-22-33.4A140 140 0 0 0-29 223.5Zm120.4 23.3a467.2 467.2 0 0 1 28.2 44.9l-13.2-27.4s-8.3-12.6-14.2-17l-.8-.5ZM-38 227.4l-6 3.3c5.7 3.2 18.5 12.3 35.5 36.4l5.9 8.5 11.2 6-12-17.6A147.4 147.4 0 0 0-38 227.4Zm-8.2 4.5-5.7 3c6.5 4.4 17.9 14 32.3 34.4l9.3 3-4-5.8a156 156 0 0 0-31.9-34.6Z"/><path fill="#589765" d="m173.7 325.9-7.3 4-4.6-2.5 14.5-7.9-2.6 6.4Zm-21.1-3.6 31.4-17-5.1 7.8-21.7 11.7-4.6-2.5Zm50.6-37.3-62 33.4 5.7 2 44.6-24.1 4.4-5 7.2-6v-.3Zm-73 29.4 72.5-39.2.6 4.6-67.8 36.7-5.1-1.8-.2-.3Zm72-44-74.3 40.2-2.2-3.8 75.8-41 .6 4.7Zm-1.7-9-76.6 41.3-1.6-4.1 77-41.6 1.2 4.3Zm-2.3-8.9-77.4 41.9-1.6-4.1 76.7-41.5 2.3 3.7Zm-5.4-8.7.7 1.2-75.9 41-1.5-4 74.9-40.6 1.8 2.4Zm-4.5-6-74.4 40.3-2.2-3.8 73.9-40 2.7 3.5Zm-5.6-7-73.2 39.6-2.2-3.8 72.2-39 3.2 3.2Zm-7.7-7.7 1.2 1.2-71 38.4-.2-.2-2.4-3.4 69.5-37.5 2.9 1.5Zm-7.5-4L100 255.4l-2.5-3.7 65.3-35.3 4.6 2.5ZM113 233.4l37.5-20.3 6.2 1.6-52.3 28.3 8-8.1.6-1.5Zm30.7-21.7-28.5 15.4 2.1-6 17.6-9.6 8.8.2ZM-89 218.3l24 11.7c6 .8 12.1 1.4 18.6 2l10.5-6 4.4-1.5c-22.4-.9-42.8-3.7-57.6-6.2Zm77-.5 16-1.6-5.6-6.7a420.7 420.7 0 0 1-129.7-16.8s.3 2.7-.5 3.7c-.7.9 0 3 0 3l20.6 5.6A345 345 0 0 0-12 217.8Zm-100.6-36.3-8.4 4.5 13.2 4A345 345 0 0 0-7 203l-5-6.3-1.8-1.8c-44.8-.3-84.3-9.4-91.4-11-.3-.2-3.4-1-7.4-2.3Zm13.6-12-6.1 5.4.7.2a341 341 0 0 0 84 12.8l-8.2-8.6a441 441 0 0 1-70.4-9.9Zm11.3-13.8-4.7 6.9c12 3 32 7.3 56.8 9.3l-4.4-4.6-4-4.9-43.7-6.7ZM57.5 43l7.7.6-.5-3.4c-1.2-8.2-5.6-33.7-20-64l-7.5 4.7a295.6 295.6 0 0 1 20.3 62Zm17.2-.7 7.1-1.8-.3-2.5c-1.1-8-5.4-32.8-19.1-62.4l-9.6.3a296.3 296.3 0 0 1 21.9 66.4Zm-34.8-1 7.9.7c-1.1-7.8-5-30-16.9-57l-7.6 4.7a296.4 296.4 0 0 1 16.6 51.6Zm-19-6.7 9.1 4A233 233 0 0 0 16.7-6.7L8.8-2.3c6 15 9.9 28.1 12.1 36.9ZM91.1 38l3.9-1 3.2-2a230 230 0 0 0-18-59.6l-1.7-.4-8.2.3A295.9 295.9 0 0 1 91.1 38ZM-1.2 22.1l6.7 5.5 5.4 2.5C9.1 22.3 6.3 12.6 2.2 1.7l-8 6L-1.3 22Zm108 8 7-4.4c-1.9-10.1-6-26.8-14-46.2L89-22.8A302 302 0 0 1 106.7 30ZM121 17.6l5.9-7.5-5-18.8-.7-2-5.1-5.6-6.6-1.8c4.6 11 8.7 25.2 11.5 35.7Z"/><path fill="#589765" d="m18.5 130-.5-5.3a275 275 0 0 0-10.6 7.4 162.8 162.8 0 0 0-28 28.9l14.8-4.4c6.2-7 12.8-13.5 19.1-18l5.2-8.6ZM14 109.6c-4.9 3-10 6.5-15.3 10.4-13 9.4-27.2 27.4-36.5 40.2l10 .7c9-12 21.2-26.4 32.5-34.4l12.5-8.4-3.2-8.5ZM12.8 95l.7-2.5A265 265 0 0 0-10 107.8c-14.6 10.7-30.9 32-39.8 44.7l4.7 2.5 2.3 2.3c9.1-12.9 24.6-33 38.7-43 5.8-4 11.2-7.6 16.4-10.8l.4-8.5ZM17 80l5-8.6a243.6 243.6 0 0 0-40.5 24.3c-16.6 12-35.3 38-43 49.2l3.8 3.4 3 1.6c8.3-12 26-36.4 42-47.7a305.3 305.3 0 0 1 28.5-17.9L17 80Zm16.7-28.8a219.7 219.7 0 0 0-60.9 32.3c-17.4 12.8-37.2 40.7-44 50.9l1.2 5.6 4.4 1.2C-58.8 131-39 102.6-21.3 90a265 265 0 0 1 48.6-27.8l6.4-11.1ZM30 39.4l-2.6-1.1c-15 4.6-37.1 14-63.2 33.1-15.2 11-32.2 33.8-40.9 46.1l1.7 6.1.7 5.5c6.7-10 26.6-38.6 44.4-51.2 32-22.6 55.8-31.5 69.7-35l-.6-.7-9.2-2.8Zm-17.7-7.6L9 29.5a228.9 228.9 0 0 0-53.5 29.8c-13.1 9.6-27.7 28-37 40.7l3 10.5c8.9-12.7 25.1-34.3 40-44.7a248.2 248.2 0 0 1 57.3-31.2l-6.5-2.8ZM-3 21.2l6 4a262 262 0 0 0-50 28.5c-12.8 9-26.6 26-35.9 38.8l-.5-2.5 18.6-20L-42 39.4A225 225 0 0 1-5.4 19.7l2.3 1.5Zm-15.6-7L-29.8 25a232 232 0 0 1 18-9.3l-6.9-1.6Zm227.7 43c-12 8.5-31.9 21.3-47.3 25.7l-8.4 2.2 8.7.3 14.5-2.4 13.4-5 10-6.7 8.6-11.3.5-2.8Zm2.1-10.9-1-6c-10.7 8-34.4 24.2-52.2 29.2a266.6 266.6 0 0 1-39.6 8.3l1.6.8 17 4.5a244 244 0 0 0 24.2-6c16.3-4.9 37.7-19 49.3-27.3l.7-3.5ZM200 31.6c-12.2 8.5-31 20.4-45.7 24.6a234.3 234.3 0 0 1-56.8 9.5l2.7 2.6L109 73c13-.9 29.2-3.4 48.3-9.1 16.4-5 37.9-19.2 49.5-27.4l-7-4.8Zm-11.7-8a156.8 156.8 0 0 1-37.8 19.2 212.3 212.3 0 0 1-67.1 9.4l4.7 4.4 3.4 3.3c14.5.3 35.5-1.5 62.2-9.5 13.2-4 29.7-14 41.6-22l-7-4.8Zm-11.9-8.3a130.7 130.7 0 0 1-29.6 14.1c-25.5 7.2-45 9.4-58.7 9.6l-5.5 1.7-1 5.6c14.4.9 37.6 0 68.3-9.3 10.5-3.1 23-10 33.7-16.7l-7.2-5Zm-7.7-5.3L164 7c-7.1 3.9-14.4 7.2-20.8 9a280 280 0 0 1-25.2 6l-3.3 3-7.9 5-4.7 2.5a222 222 0 0 0 44.2-8.9c7.8-2.3 16.8-6.8 25.3-11.7l-2.8-1.9ZM150.2-1.4a81 81 0 0 1-10.9 4l-10.7 2.9-3.8 9.4c5.6-1.3 11.5-2.8 17.7-4.6 5-1.5 10.4-3.9 15.9-6.7l-8.2-5Zm-18.7-8.2-1 .3h-.2l-.7 8.8A256.5 256.5 0 0 0 144.1-5l-12.6-4.6Z"/><path fill="#3b7847" d="M52.5 224.1c-.2-.8-.1 0-.1-1 0-5 2.4-9.3 5.5-9.3 1 0 1.9-.1 2.6.4 2.2 1.4 3.4 5.1 3.4 9 0 .8 0 1.5-.2 2.4 0 0-5 .5-6.7.4a14 14 0 0 1-4.5-1.9Z"/><path fill="#4db343" d="m63.7 225.6.2-2.5c0-4.7-1.8-8.7-4-9.2h-.5c-2.5 0-4.6 4.1-4.6 9.2 0 1 0 2 .2 2.8 0 0 2.6.3 4.7.1 1.3 0 4-.4 4-.4Z"/><path fill="#3b7847" d="M6.2 215a26 26 0 0 1-.3-4c0-7.3 3.4-13.3 7.9-13.3 1.4 0 2.6-.2 3.7.5 3 2 4.7 7.3 4.7 12.8 0 1.2 0 2.2-.2 3.5 0 0-7.1.6-9.6.6l-6.2-.1Z"/><path fill="#4db343" d="M21.9 215.9c.2-1.4.3-3.6.3-5 0-6.7-2.5-12.3-5.6-13.1h-.8c-3.5 0-6.4 5.9-6.4 13.2l.3 4s3.6.2 6.5.1c2 0 5.7.8 5.7.8Z"/><path fill="#3b7847" d="M32.6 218.1c-.3-1.4 0-.7 0-2.3 0-8.6 4-15.7 9.4-15.8 1.7 0 3-.1 4.3.7 3.7 2.4 5.7 8.6 5.7 15 0 1.6 0 2.8-.3 4.3H40c-2.5 0-7.4-1.9-7.4-1.9Z"/><path fill="#4db343" d="M51.5 221.6c.4-1.7.5-4.3.5-5.8 0-8-3-14.7-6.8-15.6h-.8c-4.2 0-7.7 7-7.7 15.6 0 1.5.3 3.4.5 4.9h7.7c2.2 0 6.6.9 6.6.9Z"/><path fill="#3b7847" d="M69.7 186c1.7 0 3.2-.2 4.5.7 3.7 2.4 5.8 9 5.8 15.6 0 7-2.7 15-7.2 16-1.5.4-1.7.1-2.8.1-5.5 0-10-7.2-10-16.1 0-9 4.2-16.2 9.7-16.3Z"/><ellipse cx="72.1" cy="202.3" fill="#4db343" rx="7.9" ry="16.1"/><path fill="none" stroke="#4c4c4c" stroke-width="4" d="M70 210v20"/><path fill="none" stroke="#2d5836" stroke-linecap="butt" stroke-width="4" d="M-287 125c5-1.3 62.9 5.5 101.2-4.4C-75.8 92-22.4 194.7 5 216m-150 77.5c57.3-30.4 126.9-52.6 199 23.4 1.3 1.4 11.9 10 16.6 16.1"/><path fill="none" stroke="#2d5836" stroke-linecap="butt" stroke-width="4" d="M-54.5 236.4C-28 214.5 19.9 209.6 58 225c33.3 13.5 61.9 50 68.9 89.7"/><path fill="none" stroke="#2d5836" stroke-linecap="butt" stroke-width="4" d="M40.6 42.1c-77.7 98 26.6 97.3 52.7 114.3 46.5 30.2 22.5 92.2-.9 91.4m93.8-135.3c-43 54 72.4 69.9 88.8 97"/><path fill="none" stroke="#2d5836" stroke-width="4" d="M171.7 341.4c-3.3-45 72.5-99.4 128.3-81.6"/><path fill="none" stroke="#2d5836" stroke-width="4" d="M120 213.1c48.4-11.2 85.9 29.4 83 71.9M15 113.6c17.2 41.3-61.7 71.6-87.7 22M190-218.1a63.6 63.6 0 0 1 0 74.7c-23.1 32.1-70.5 26.1-85 18-26.6-14.7-86.7-42-91.2 9.6-2.8 32.6 74 39.3 91.2 52.6C136-39 130-6 130-5c4 52.8-149.2 98.4-184.5-65M266.9-6.8c1.8 3.3 61.5-22.8 79.5 26.8 8.9 24.7-14.4 52.3-31.4 60-10.8 4.9-74 35.4-67.8-90"/><path fill="none" stroke="#2d5836" stroke-width="4" d="M205.6 28.1c32 57.8-81.8 84.3-128 14"/><path fill="none" stroke="#065e7b" stroke-width="27.5" d="M171.7-178.6c-36.4 52.7-47.9 23-105.6 7.8-41.7-11-89.5 12-109.9 46-19.7 33-39 68.2-59 103.8-15.5 27.6-23 60.1-42.5 81.9A208.6 208.6 0 0 1-192 96.6c-16.1 9-22 32.7-32 43.8-4.1 4.5-12.1 7-14.6 11.6-5 9.2-3.1 24.2-7.3 33.4-7 15.7-17 44.6-32 53-5.7 3.2-12.2 1.6-17.7 4.7"/><path fill="none" stroke="#73b3ce" stroke-width="9.3" d="M160-166.4a33.9 33.9 0 0 1-27.7 19.6c-21.8 2.2-69-35.3-110.7-25-30 7.3-51.5 28.2-65.8 50.9-20.3 32.3-37 67.6-57 103.3-15.5 27.6-26.4 60.9-46 82.6-11.7 13.2-35 28.6-48.6 36.2-16.1 9-17.8 30.2-27.8 41.3-4 4.5-11.4 5.8-13.9 10.4-5 9.2-4.8 27-9 36.2-7 15.7-17.6 43.1-32.7 51.6-5.6 3.1-13 2.1-18.5 5.2l-14.4 7.5"/><g fill="none" stroke="#2d5836" stroke-width="18.7"><path d="M-190 404c48.5 62.4 142.1 48.8 185 11 44.7-39.4 49.8-87.6 95-95 34.2-5.6 60 3.8 82.6 31.1 103.2 124 198.9-29.9 137.4-90.9-6.5-6.4-70.9-82.6 0-146 1.6-1.4 18.3-13 20-14.5"/><path d="M-40 157.6c-8.6-3-40-11.2-40-11.2s4.4-12.6 2-25c-2.8-14.6-12.5-29.4-12-30 8-11.2 38.7-46.4 45-54.5 122.3-155.6 257.4 3.4 325 54.5 27.8 21 90.4 10.2 100-41.4 17.8-95.4-110.3-87.6-120-198.6-8.2-93.9 49.8-138.2 110-150 126.5-25 80.4-161.3-27.6-138-56 12-102.8 80.5-115.2 173.2-10.7 80.4-122 26-119.4-9"/></g><path fill="none" stroke="#000" stroke-width="4" d="M221.3-2v-115M203.5-2.2v-115M245.8-2v-115"/><path fill="#737373" d="M201.3-91.4V-2h70v-89.4h-70Zm28 64.4h-21v20h21v-20Zm35 0h-21v20h21v-20Zm-35-30h-21v20h21v-20Zm35 0h-21v20h21v-20Zm-35-29.4h-21v20h21v-20Zm35 0h-21v20h21v-20Z"/><path fill="#d9d9d9" d="M221.3-89.4V0h50v-89.4h-50Zm20 64.4h-15v20h15v-20Zm25 0h-15v20h15v-20Zm-25-30h-15v20h15v-20Zm25 0h-15v20h15v-20Zm-25-29.4h-15v20h15v-20Zm25 0h-15v20h15v-20Z"/><path fill="#a6a6a6" d="M221.8 0v-89.4h-20.5V0h20.5Zm-2.9-25h-14.7v20h14.7v-20Zm0-30h-14.7v20h14.7v-20Zm0-29.4h-14.7v20h14.7v-20Z"/><path fill="none" stroke="#f7db6b" stroke-width="4" d="m70.6-163.2-5-50.3h-10l-5 50.3V10.1l-10 11.1h40l-10-11.1v-173.3Z"/><path fill="none" stroke="#f7db6b" stroke-width="3.3" d="m70.6 10-20-16.7 20-16.8-20-16.7 20-16.8-20-16.8 20-16.7-20-16.8 20-17.7 14.4 1 4-26-2.4 15.4-16.6-1v10.6l-19.4-15.8 20-16.8-18.9-16.8L67.8-191l-12.2-17 5-11.2 5 11.2-12.2 16.8 16 16.7-18.8 16.8 20 16.8-20 16.7 20 16.8-20 16.8 20 16.7-20 16.8 20 16.8-20 16.7 20 16.8-20 16.8 10 11.1 10-11.1Z"/><path fill="#d9d9d9" d="M271.3 144.6V40h-43.8v104.6h43.8Z"/><path fill="#8c8c8c" d="M227.7 144.6V40H209v104.6h18.7Z"/><path fill="#595959" d="M264.2 57.4v-8.7h-13.3v8.7h13.3Zm-17.6 0v-8.7h-13.3v8.7h13.3Zm.4 56.4v-8.7h-13.3v8.7H247Zm17.3-45.1V60H251v8.7h13.3Zm-17.6 0V60h-13.3v8.7h13.3Zm.4 56.3v-8.6h-13.3v8.7h13.3Zm17.2-45v-8.7H251V80h13.3Zm-17.6 0v-8.7h-13.3V80h13.3Zm.4 56.4v-8.7h-13.3v8.7h13.3Zm17.2-45.1v-8.8H251v8.8h13.3Zm-17.6 0v-8.8h-13.3v8.8h13.3Zm17.6 11.2v-8.7H251v8.7h13.3Zm-17.6 0v-8.7h-13.3v8.7h13.3Z"/><path fill="#8c8c8c" d="M130 60.8h16.6v41.6H130z"/><path fill="#d9d9d9" d="M145.5 60.8h16.6v41.6h-16.6z"/><path fill="#595959" d="M149.7 66.3h8.3v8.3h-8.3zm-15.5 0h8.3v8.3h-8.3zm15.5 13.2h8.3v8.3h-8.3zm-15.5 0h8.3v8.3h-8.3z"/><path fill="#8c8c8c" d="M159.5 86.3h16.6v41.6h-16.6z"/><path fill="#d9d9d9" d="M175 86.3h16.6v41.6H175z"/><path fill="#595959" d="M179.2 91.9h8.3v8.3h-8.3zm-15.6 0h8.3v8.3h-8.3zm15.6 13.1h8.3v8.3h-8.3zm-15.6 0h8.3v8.3h-8.3z"/><path fill="#8c8c8c" d="M187.3 112.9h16.6v41.6h-16.6z"/><path fill="#d9d9d9" d="M202.8 112.9h16.6v41.6h-16.6z"/><path fill="#595959" d="M206.9 118.5h8.3v8.3h-8.3zm-15.5 0h8.3v8.3h-8.3zm15.5 13.2h8.3v8.3h-8.3zm-15.5 0h8.3v8.3h-8.3z"/><path fill="#8c8c8c" d="M213.9 144.1h16.6v41.6h-16.6z"/><path fill="#d9d9d9" d="M229.4 144.1H246v41.6h-16.6z"/><path fill="#595959" d="M233.6 149.7h8.3v8.3h-8.3zm-15.5 0h8.3v8.3h-8.3zm15.5 13.1h8.3v8.3h-8.3zm-15.5 0h8.3v8.3h-8.3z"/><path fill="#3b7847" d="M223.4-22c2.1 0 4-.2 5.5.8C233.5-18 236-9.6 236-.9c0 9.1-3.3 19.3-8.9 20.8-1.8.5-2 0-3.5 0-6.8 0-12.3-9.3-12.3-20.8 0-11.6 5.1-21 12-21.1Z"/><ellipse cx="226.4" cy="-.9" fill="#4db343" rx="9.7" ry="20.9"/><path fill="none" stroke="#4c4c4c" stroke-width="4" d="M223.7 9v26"/><path fill="#2d5836" d="m227.8 35.5-7.2-6-3 3.7 7.2 6 3-3.7Z"/><path fill="#595959" d="M57.3 81.5h31.2V100H57.3z"/><path d="M239.7 227.9c.3-.3.2-.8 0-1L59.7 78.1a.7.7 0 0 0-1 .1l-1 1.1c-.2.3-.2.8.1 1L237.7 229c.3.3.7.2 1-.1l1-1.1Zm-2.8 5c.2-.3.2-.8-.1-1l-179-148a.7.7 0 0 0-1 .2l-1 1c-.2.4-.1.9.2 1.1l178.9 147.9c.3.3.8.2 1-.1l1-1.1Z"/><path fill="#589765" d="m27.8 41.9 60.7 39.6H57.3l-46-19c-3.1-2.6-7.7-5.6-5.5-8.4l3-14.7c2.3-2.9 15.8 0 19 2.5Z"/><path fill="#3b7847" d="M57.3 81.5V100L16.9 67c-2.8-2.3-11.6-9.1-10.3-10.7l2.6-1.9c1.3-1.5 14-1 16.8 1.2l31.3 25.9Z"/><path fill="#589765" d="m220 197-30 .3 47 45.7c3.2 2.5 7.2 6.3 9.4 3.4L260 240c2.2-2.9-3.7-15.3-7-17.8L220 197Z"/><path fill="#3b7847" d="M190 197.3V210c-1.2 1.6 10.4 9.6 13.3 11.8l28 16.8c2.9 2.2 11.5 9.2 12.8 7.6l1.2-3c1.2-1.6-2.2-13.8-5-16l-50.3-30Z"/><path fill="#beed9a" d="M185.7 10.8c5.8 3.3 10.3 6 8 10.3-2.9 4.8-7.2 1.6-13-1.6-5.6-3.3-10.4-5.4-7.8-10.3 2.7-5.1 7.1-1.7 12.8 1.6Z"/></svg>