<svg xmlns="http://www.w3.org/2000/svg" xml:space="preserve" fill-rule="evenodd" stroke-linejoin="round" stroke-miterlimit="1.5" clip-rule="evenodd" viewBox="0 0 250 250"><path fill="none" d="M0-750h1000V250H0z"/><path fill="#e2e1bf" d="M153.7-142c-28.4-54-156-97-148.4-339.5 5-159 106-230.3 181.7-229.3 45.6.6 101.8 7.6 243 67.3 99 42 145.2 52.7 174 41.8 70.2-26.6 78.9-37.6 117.6-57.4 35.8-18.4 73-47 100.4-58 82.3-33 224.3 2.4 138 160-21.7 39.6-3 119.8-26.9 288.5-27 190-78.4 135.4-88.1 180-7 32.1 55.5 144.5 15 220-53 98.6-196.6 64.4-243 61.5-70-4.4-180.9 82-280 50-213.3-69-120.6-265.8-183.3-385Z"/><path fill="#589765" d="M179-183.3C131-209.7 51.2-238.1 20-382c-30.8-142 33.5-287 159-322.3 41.3-11.6 127.3 7.5 260.4 62.2 93.4 38.3 136.9 48.1 164 38.2C669.5-628.2 792.7-701.3 860-707c50.3-4.2 127.7 20.3 95 118.6-3.2 9.5-14.7 41.6-15 56.7-2 82.5-15.4 249.5-27.5 314.2C890.4-99 795-148 822.9-68.6c22.8 64.7 54.7 159 2.1 210-83.2 80.5-182 20.8-207.2 19.3-66-4-194.5 78.5-288 49.4-93.6-29-110-177.1-107.4-226.2 2.6-49-4.7-146-43.4-167.2Z"/><path fill="#8dcf86" d="M254-503.5c-30-42 7.8-199.4-117-134.3-77.7 40.6-129 175.6-105.1 257 69 234.4 197.6 136 200.8 242.3 5.4 179.2 2 301.1 120 329.6 50.4 12.1 141.6 1 178-63.4 19.3-34.1 97.8-106 172-28.2 22.5 23.5 58.9 32.5 84.5 10.5 28.2-24.3 22.6-64.8 7.2-85-22.4-29.6-46-64.7-36.7-108.3 21.2-98.3 79.8-62.5 100.5-107.9 44.4-97.2-160.1-135-230.5-74.1C535.8-186 339-384.3 254-503.5Z"/><g fill="#589765"><path d="m236.6 13.5-4.6 5s.3 3 .5 3.2a287.4 287.4 0 0 1 40.3 96c0 .5 2.2 21.6 3.8 34.4.2 1 7.8 7.9 7.8 7.9s-3.7-40.5-4-42.3a239.4 239.4 0 0 0-43.8-104.2Zm15.7-3.7s-8 2.7-7.2 3.7c31.5 42.8 43 94.4 44.5 102L293 140s2.7-1 4-.8c1.2.3 3-1 3-1l-2.6-22.6a239.5 239.5 0 0 0-45-105.8Zm-15.7 43 2.8 15.3S255 115.2 256 120a2548.6 2548.6 0 0 0 5.2 10 116 116 0 0 0 3.9 6.5l-1.4-16.6c-1.4-9.7-7.4-44-29.2-81.8-.6-1 2.2 14.8 2.2 14.8ZM269 7.7s-8.5 2-8 2.7A282.5 282.5 0 0 1 310 133s2.7-1 4-.8c1.2.3 3.1-1 3.1-1l-3-17.8A239.5 239.5 0 0 0 271 10l-2-2.4Zm20 1.7-11-1s.5.2 1.5 1.6a283.9 283.9 0 0 1 44.8 105.7s2.7-1 4-.8c1.2.3 3.1-1 3.1-1s0-1-.3-2.7A239.2 239.2 0 0 0 288.9 9.4Zm22 5.6-11-2 1 1.3a288.2 288.2 0 0 1 40.2 99.2s2.7-1 4-.8c1.2.3 3-1 3-1s0-1-.3-2.7a237 237 0 0 0-35.2-91.7l-1.5-2.3Zm27.2 15-15.6-10 1.5 2.5a293.4 293.4 0 0 1 33.7 88.9s2.7-1.1 4-.9c1.2.3 3.1-1 3.1-1s0-1-.3-2.7c-1.3-9-6.6-39.4-25-74.1-.4-1-1.4-2.7-1.4-2.7Zm32.5 32.7L353 43s.5 1.3.8 1.7c8 12.4 16 42.4 18.9 54.9.2.6 7.1-2.8 7-3.2-2.9-12-8.2-31.8-8.2-31.8l-.7-2Z"/><path d="M230.8 6.5c4.1.4 12.3 1 22.3 1.4L265 8c4.8.1-16.9 3.3-16.9 3.3s-13.7 4.2-16.3 4l-1-9ZM286.4-6 280-.2c-3.8.8-7 1.3-9.6 1.4a302 302 0 0 1-38.6-.5l6.7-10.8c8 .6 19.5 1.1 32 .9 4.7-.1 11.7-1.5 20-3.3l-4.1 6.6Zm17-26.7L296-21c-11 2.5-20.2 4.6-25.9 5-10.7.6-20.9.4-28.6 0l4.7-10.8c7 .3 15.2.5 24 .3 7-.1 19-3 33.3-6Zm35.2-19.7L322-43.7c-22.4 4-42.3 9.9-52 10.4-7.5.5-14.8.5-21 .4l4.6-10.9c5.1.2 10.6.2 16.3.1 15-.3 52.3-13 86.9-13.7l-18 5.1ZM261-60.8l8.5-.1C286-61.2 329-76.4 366-74.5a86 86 0 0 1 26.2 6l-.8 1.2-15 4.3a54 54 0 0 0-10.8-1.6c-37-1.8-80 13.2-96 14.1-4.5.3-9 .4-13.2.4l4.7-10.7Zm6.1-17.3h2.1c16.4-.4 59.4-15.6 96.4-13.6 13.3.6 26.2 5.5 35 9.7l-5.5 8.8c-8-4-18.7-8-29.9-8.6-37-1.8-80 13.2-96 14l-5.4.3 3.3-10.6Zm5.5-17.5c18.5-2 58.3-15.2 92.7-13.4a105 105 0 0 1 43.5 14.2l-5.7 9a86 86 0 0 0-38.2-13.3c-36.6-1.7-79.4 13-95.6 14.1l3.3-10.6Zm18.1-20.7c20.6-4.4 48.9-11.2 74.3-9.9 24 1.2 46.4 16 46.4 16l-4.6 9.8s-20.3-14.8-42.2-15.9c-30.9-1.5-66.1 8.8-86.2 12.7l12.3-12.7Z"/></g><path fill="#3b7847" d="M232.5 14.5c-.2-.9 0-1.5 0-2.5 0-5.1 2.3-9.3 5.5-9.3 1 0 1.8-.1 2.6.4 2.1 1.4 3.3 5.1 3.3 9 0 .8 0 1.5-.2 2.4 0 0-5 .5-6.7.4-1.5 0-4.5-.4-4.5-.4Z"/><path fill="#4db343" d="M243.7 14.5c.2-.9.2-1.6.2-2.5 0-4.7-1.7-8.7-4-9.2h-.5c-2.5 0-4.5 4.1-4.5 9.2 0 1 0 2 .2 2.8 0 0 2.5.3 4.6.1l4-.4Z"/><path fill="#3b7847" d="M245.8 11.6a36 36 0 0 1-.3-4.7c0-8.6 4-15.7 9.3-15.8 1.7 0 3.1-.1 4.4.7 3.6 2.3 5.6 8.6 5.6 15 0 1.6 0 2.8-.3 4.3 0 0-8.4.7-11.3.7l-7.4-.2Z"/><path fill="#4db343" d="M264.6 10.6c.3-1.6.2-2.2.2-3.7 0-8-3-14.7-6.7-15.6h-.9c-4.2 0-7.6 7-7.6 15.6 0 1.5.2 3.4.4 4.8 0 0 4.1-1.1 7.6-1.2l7 .1Z"/><path fill="none" stroke="#2d5836" stroke-width="4" d="M223.4 18.3c1.6-.1 13-3.2 15-3.8 81.2-24 132.4 42.4 151.2 77M213-125c5-1.3 62.9 5.5 101.2-4.4C424.2-158 477.6-55.3 505-34"/><path fill="#8dcf86" d="M365 104.6c73.6-.6 123 72 123 72s-34.8 20.1-68 28c-5.8 1.5-11.8 4.6-61 .8-32.3-2.6-52-34-52-34s-23-66 58-66.8Z"/><path fill="#065e7b" d="M211.3 5 200-20l-18.7 10 2 28.5 28-13.5Z"/><path fill="none" stroke="#065e7b" stroke-linecap="round" stroke-width="27.5" d="M671.7-428.6c-36.4 52.7-47.9 23-105.6 7.8-41.7-11-89.5 12-109.9 46-19.7 33-39 68.2-59 103.8-15.5 27.6-23 60.1-42.5 81.9a208.6 208.6 0 0 1-46.7 35.7c-16.1 9-22 32.7-32 43.8-4.1 4.5-12.1 7-14.6 11.6-5 9.2-3.1 24.2-7.3 33.4-7 15.7-17 44.6-32 53-5.7 3.2-12.2 1.6-17.7 4.7"/><path fill="none" stroke="#73b3ce" stroke-linecap="round" stroke-width="9.3" d="M660-416.4a33.9 33.9 0 0 1-27.7 19.6c-21.8 2.2-69-35.3-110.6-25-30 7.3-51.6 28.2-65.9 50.9-20.3 32.3-37 67.6-57 103.3-15.5 27.6-26.4 60.9-46 82.6-11.7 13.2-35 28.6-48.6 36.2-16.1 9-17.8 30.2-27.8 41.3-4 4.5-11.4 5.8-13.9 10.4-5 9.2-4.8 27-9 36.2-7 15.7-17.6 43.1-32.7 51.6-5.6 3.1-13 2.1-18.5 5.2L188 3.4"/><path fill="#73b3ce" d="m195 5-4.3-8.2L182 1l.7 10.2L195 5Z"/><path fill="#d9d9d9" fill-rule="nonzero" d="M75 164.6h36.2v7.2c0 1.8-1.4 3.2-3.1 3.2H77.2c-1.2 0-2.2-1-2.2-2.3v-8.1Z"/><path fill="#d9d9d9" fill-rule="nonzero" d="m70.6 163 .7-.4c.8-.4 1.8 0 2.1.8l4.8 10.8-.8.3c-.8.4-1.7 0-2-.8l-4.8-10.8Z"/><path fill="#d9d9d9" fill-rule="nonzero" d="M71.7 162.4h14.8v5H73.7a2 2 0 0 1-2-2.1v-3Z"/><circle cx="77.5" cy="165.4" r="1.4" fill="#8b8b8b"/><circle cx="82.4" cy="165.4" r="1.4" fill="#8b8b8b"/><path fill="#f7db6b" d="M89.8 156.9h16.5v7.7H89.8z"/><path fill="#f88948" d="M90.9 158.5h14.3v2.2H90.9z"/><path fill="#f7db6b" d="M97 151.4h1.1v6H97z"/><path fill="#8c8c8c" d="M97.5 147.5h.5v3.8h-.5zm1.1 1.1h.5v2.7h-.5z"/><path fill="#f7db6b" d="M105.2 151.4h1.1v6h-1.1z"/><path fill="#d9d9d9" d="M75.5 159.6h1.1v3.3h-1.1zm5 0h1.1v3.3h-1.1zm9.9 2.8h1.1v3.3h-1.1zm9.9 0h1.1v3.3h-1.1zm-5 0h1.1v3.3h-1.1zm9.9 0h1.1v3.3h-1.1z"/><path fill="#f7db6b" d="M92.6 150.8h18.1v1.1H92.6z"/><path fill="#d9d9d9" d="M86.5 160c0-.5-.4-1-1-1h-14a1 1 0 0 0-1 1v2.5c0 .5.5 1 1 1h14c.6 0 1-.5 1-1V160Zm-14.7.3v2h13.5v-2H71.8Z"/><path fill="#d9d9d9" d="M111.2 162.8c0-.5-.4-1-1-1H86.4a1 1 0 0 0-1 1v2.4c0 .6.5 1 1 1h23.8c.6 0 1-.4 1-1v-2.4Zm-24.6.2v2H110v-2H86.6Z"/></svg>