<?xml version="1.0" encoding="UTF-8" standalone="no"?>
<!DOCTYPE svg PUBLIC "-//W3C//DTD SVG 1.1//EN" "http://www.w3.org/Graphics/SVG/1.1/DTD/svg11.dtd">
<svg width="250px" height="250px" version="1.1" xmlns="http://www.w3.org/2000/svg" xmlns:xlink="http://www.w3.org/1999/xlink" xml:space="preserve" xmlns:serif="http://www.serif.com/" style="fill-rule:evenodd;clip-rule:evenodd;stroke-linejoin:round;stroke-miterlimit:1.5;">
    <rect id="Artboard" x="0" y="-750" width="999.991" height="1000" style="fill:none;"/>
    <g id="background">
    </g>
    <path id="OSTROV" d="M153.69,-142.009C125.315,-195.957 -2.239,-239.03 5.323,-481.538C10.278,-640.443 111.31,-711.829 186.957,-710.805C232.625,-710.186 288.838,-703.187 429.96,-643.467C529.062,-601.53 575.23,-590.82 603.907,-601.679C674.243,-628.314 682.87,-639.33 721.578,-659.138C757.384,-677.461 794.527,-706.154 821.957,-717.137C904.286,-750.1 1046.28,-714.656 960,-557.045C938.336,-517.473 957.089,-437.326 933.144,-268.643C906.159,-78.539 854.682,-133.208 845,-88.643C838.009,-56.463 900.472,55.911 860,131.357C807.077,230.013 663.418,195.756 616.957,192.863C547.037,188.51 436.097,274.886 336.957,242.863C123.707,173.984 216.359,-22.858 153.69,-142.009Z" style="fill:#e2e1bf;"/>
    <path id="OSTROV1" serif:id="OSTROV" d="M178.951,-183.315C130.927,-209.722 51.194,-238.124 20,-381.929C-10.788,-523.863 53.54,-668.925 178.951,-704.153C220.341,-715.779 306.339,-696.664 439.358,-642.034C532.769,-603.671 576.287,-593.874 603.317,-603.808C669.613,-628.173 792.79,-701.346 860.084,-707.008C910.37,-711.238 987.811,-686.69 955.084,-588.398C951.933,-578.933 940.446,-546.796 940.084,-531.712C938.105,-449.155 924.692,-282.19 912.587,-217.523C890.392,-98.943 795.013,-147.922 822.916,-68.643C845.701,-3.904 877.605,90.415 825,141.357C741.849,221.881 643.03,162.249 617.784,160.724C551.879,156.742 423.281,239.181 329.747,210.149C236.213,181.117 219.722,33.003 222.352,-16.074C224.983,-65.151 217.667,-162.027 178.951,-183.315Z" style="fill:#589765;"/>
    <path d="M253.905,-503.472C223.925,-545.422 261.804,-702.947 137.092,-637.839C59.159,-597.152 7.877,-462.199 31.832,-380.766C100.777,-146.397 229.442,-244.847 232.635,-138.472C238.015,40.746 234.657,162.637 352.635,191.087C402.996,203.231 494.242,192.058 530.608,127.748C549.945,93.552 628.434,21.669 702.635,99.46C725.115,123.028 761.478,132.035 787.055,110C815.287,85.677 809.653,45.206 794.345,25C771.902,-4.625 748.234,-39.742 757.635,-83.341C778.818,-181.574 837.367,-145.85 858.066,-191.17C902.476,-288.403 697.953,-326.2 627.635,-265.341C535.801,-185.861 339.049,-384.331 253.905,-503.472Z" style="fill:#8dcf86;"/>
    <g id="pole">
        <path d="M236.582,13.538L232.021,18.477C232.021,18.477 232.276,21.408 232.457,21.674C260.803,63.158 271.254,110.401 272.761,117.781C272.853,118.233 274.97,139.303 276.633,152.081C276.757,153.033 284.442,159.971 284.442,159.971C284.442,159.971 280.673,119.522 280.427,117.74C278.841,106.243 270.704,60.362 237.512,14.805C237.204,14.383 236.582,13.538 236.582,13.538ZM252.256,9.775C252.256,9.775 244.287,12.455 245.084,13.538C276.623,56.326 288.029,107.857 289.608,115.592C289.741,116.243 292.87,140 292.87,140C292.87,140 295.578,138.908 296.879,139.192C298.067,139.452 299.967,138.178 299.967,138.178C299.967,138.178 297.521,117.333 297.275,115.551C295.67,103.921 287.363,57.106 253.195,11.033C252.884,10.614 252.256,9.775 252.256,9.775ZM236.58,52.887L239.41,68.126C239.41,68.126 254.94,115.206 255.913,119.969C256.046,120.62 256.624,121.435 256.624,121.435C256.624,121.435 260.503,128.815 261.11,130C262.298,132.322 265,136.47 265,136.47C265,136.47 263.825,121.71 263.579,119.928C262.24,110.218 256.228,75.983 234.395,38.13C233.795,37.089 236.58,52.887 236.58,52.887ZM269.109,7.594C269.109,7.594 260.6,9.559 261.141,10.283C293.28,53.277 304.864,105.605 306.456,113.404C306.589,114.054 310,133.039 310,133.039C310,133.039 312.708,131.947 314.009,132.231C315.198,132.491 317.098,131.217 317.098,131.217C317.098,131.217 314.368,115.145 314.122,113.363C312.531,101.83 304.349,55.697 270.894,10C270.307,9.198 269.109,7.594 269.109,7.594ZM288.873,9.369L277.875,8.482C277.875,8.482 278.4,8.635 279.395,10C310.467,52.621 321.735,103.531 323.304,111.216C323.437,111.866 324.207,115.734 324.207,115.734C324.207,115.734 326.915,114.642 328.216,114.926C329.404,115.186 331.305,113.912 331.305,113.912C331.305,113.912 331.216,112.957 330.97,111.174C329.414,99.895 321.552,55.517 289.909,10.821C289.566,10.337 288.873,9.369 288.873,9.369ZM311.109,15L299.904,13.001C299.904,13.001 300.507,13.889 300.805,14.333C328.429,55.47 338.662,101.731 340.152,109.027C340.284,109.677 341.055,113.546 341.055,113.546C341.055,113.546 343.763,112.453 345.064,112.738C346.252,112.997 348.152,111.724 348.152,111.724C348.152,111.724 348.064,110.768 347.818,108.986C346.362,98.435 339.389,58.924 312.595,17.281C312.106,16.521 311.109,15 311.109,15ZM338.287,30L322.688,20C322.688,20 323.706,21.676 324.205,22.515C346.922,60.724 355.634,100.151 356.999,106.839C357.132,107.489 357.902,111.357 357.902,111.357C357.902,111.357 360.611,110.265 361.911,110.549C363.1,110.809 365,109.536 365,109.536C365,109.536 364.912,108.58 364.666,106.797C363.417,97.748 358.11,67.395 339.72,32.666C339.251,31.78 338.287,30 338.287,30ZM370.765,62.656L353.006,43.02C353.006,43.02 353.536,44.321 353.781,44.698C361.888,57.139 369.73,87.073 372.7,99.582C372.852,100.221 379.814,96.759 379.716,96.357C376.8,84.326 371.468,64.644 371.468,64.644L370.765,62.656Z" style="fill:#589765;"/>
        <path d="M230.77,6.47C234.934,6.869 243.082,7.549 253.128,7.876C253.847,7.899 264.263,8.066 265,8.086C269.833,8.214 248.122,11.357 248.122,11.357C248.122,11.357 234.387,15.568 231.815,15.367L230.77,6.47ZM286.365,-5.936L279.958,-0.177C276.197,0.552 272.982,1.05 270.448,1.193C253.924,2.127 238.754,1.246 231.788,0.705L238.491,-10.092C246.476,-9.525 258.01,-8.969 270.448,-9.227C275.185,-9.325 282.153,-10.666 290.558,-12.476L286.365,-5.936ZM303.453,-32.587L296.001,-20.965C284.949,-18.463 275.831,-16.353 270.146,-16.032C259.384,-15.424 249.196,-15.586 241.474,-15.922L246.205,-26.835C253.128,-26.492 261.414,-26.272 270.146,-26.452C277.187,-26.598 289.157,-29.49 303.453,-32.587ZM338.622,-52.265L321.863,-43.659C299.463,-39.625 279.598,-33.808 269.844,-33.257C262.351,-32.834 255.135,-32.784 248.837,-32.906L253.543,-43.76C258.615,-43.613 264.134,-43.559 269.844,-43.678C284.83,-43.988 322.142,-56.738 356.698,-57.432L338.622,-52.265ZM260.951,-60.846C263.741,-60.827 266.616,-60.842 269.542,-60.903C285.916,-61.242 328.946,-76.433 365.907,-74.521C375.272,-74.036 384.419,-71.486 392.083,-68.563L391.291,-67.32L376.324,-63.042C372.833,-63.86 369.212,-64.426 365.547,-64.605C328.594,-66.406 285.514,-51.385 269.542,-50.483C264.971,-50.225 260.504,-50.105 256.283,-50.079L260.951,-60.846ZM267.147,-78.093C267.841,-78.102 268.539,-78.114 269.239,-78.128C285.614,-78.467 328.644,-93.658 365.604,-91.746C378.946,-91.056 391.845,-86.175 400.641,-81.994L395.054,-73.226C387.19,-77.144 376.415,-81.286 365.245,-81.83C328.292,-83.631 285.212,-68.611 269.239,-67.708C267.413,-67.605 265.603,-67.524 263.82,-67.463L267.147,-78.093ZM272.632,-95.619C291.127,-97.677 330.851,-110.754 365.302,-108.972C384.078,-108 401.977,-98.728 408.796,-94.792L403.082,-85.825C396.081,-90.143 380.916,-98.277 364.943,-99.055C328.263,-100.843 285.547,-86.057 269.295,-84.956L272.632,-95.619ZM290.739,-116.26C311.261,-120.73 339.567,-127.513 365,-126.197C388.91,-124.96 411.397,-110.263 411.397,-110.263L406.83,-100.387C406.83,-100.387 386.491,-115.216 364.641,-116.281C333.7,-117.789 298.464,-107.504 278.441,-103.588L290.739,-116.26Z" style="fill:#589765;"/>
    </g>
    <g id="kere">
        <g id="ker">
        </g>
        <g id="ker1" serif:id="ker">
        </g>
        <g id="ker2" serif:id="ker">
        </g>
        <g id="ker3" serif:id="ker">
        </g>
        <g id="ker4" serif:id="ker">
        </g>
        <g id="ker5" serif:id="ker">
        </g>
        <g id="ker6" serif:id="ker">
        </g>
        <g id="ker7" serif:id="ker">
            <path d="M232.497,14.487C232.34,13.641 232.415,12.954 232.415,12.026C232.415,6.902 234.807,2.71 237.981,2.659C238.992,2.643 239.824,2.573 240.555,3.051C242.717,4.462 243.917,8.198 243.917,12.026C243.917,12.909 243.875,13.619 243.735,14.502C243.735,14.502 238.737,14.986 237.02,14.938C235.501,14.896 232.497,14.487 232.497,14.487Z" style="fill:#3b7847;"/>
            <path d="M243.735,14.502C243.861,13.635 243.917,12.931 243.917,12.026C243.917,7.27 242.163,3.305 239.917,2.766C239.743,2.724 239.574,2.741 239.394,2.741C236.898,2.741 234.872,6.902 234.872,12.026C234.872,12.931 234.924,13.924 235.05,14.79C235.05,14.79 237.602,15.141 239.688,14.936C241.042,14.803 243.735,14.502 243.735,14.502Z" style="fill:#4db343;"/>
        </g>
        <g id="ker8" serif:id="ker">
        </g>
        <g id="ker9" serif:id="ker">
        </g>
        <g id="ker10" serif:id="ker">
        </g>
        <g id="ker11" serif:id="ker">
        </g>
        <g id="ker12" serif:id="ker">
            <path d="M245.822,11.633C245.557,10.209 245.473,8.447 245.473,6.884C245.473,-1.744 249.502,-8.802 254.846,-8.887C256.548,-8.914 257.948,-9.032 259.18,-8.228C262.82,-5.852 264.84,0.438 264.84,6.884C264.84,8.37 264.768,9.565 264.533,11.051C264.533,11.051 256.119,11.773 253.227,11.787C250.775,11.799 245.822,11.633 245.822,11.633Z" style="fill:#3b7847;"/>
            <path d="M264.598,10.617C264.929,8.956 264.84,8.407 264.84,6.884C264.84,-1.124 261.887,-7.8 258.105,-8.708C257.812,-8.779 257.527,-8.749 257.225,-8.749C253.022,-8.749 249.61,-1.744 249.61,6.884C249.61,8.407 249.825,10.29 250.039,11.749C250.039,11.749 254.148,10.597 257.639,10.524C259.928,10.477 264.598,10.617 264.598,10.617Z" style="fill:#4db343;"/>
        </g>
        <g id="ker13" serif:id="ker">
        </g>
        <g id="ker14" serif:id="ker">
        </g>
        <g id="ker15" serif:id="ker">
        </g>
        <g id="ker16" serif:id="ker">
        </g>
        <g id="ker17" serif:id="ker">
        </g>
        <g id="ker18" serif:id="ker">
        </g>
    </g>
    <g id="male-cesty" serif:id="male cesty">
        <path d="M223.392,18.271C224.995,18.183 236.316,15.112 238.487,14.471C319.602,-9.499 370.826,56.888 389.597,91.432" style="fill:none;stroke:#2d5836;stroke-width:4px;"/>
        <path d="M212.949,-125C217.914,-126.311 275.901,-119.52 314.158,-129.422C424.27,-157.922 477.612,-55.266 505,-33.967" style="fill:none;stroke:#2d5836;stroke-width:4px;"/>
        <g id="les">
        </g>
    </g>
    <g id="hory">
        <path id="hora" d="M365.025,104.648C438.603,103.996 487.99,176.511 487.99,176.511C487.99,176.511 453.204,196.698 420,204.682C414.225,206.071 408.172,209.203 358.978,205.35C326.749,202.826 306.998,171.432 306.998,171.432C306.998,171.432 284.025,105.366 365.025,104.648Z" style="fill:#8dcf86;"/>
    </g>
    <g id="ker19" serif:id="ker">
    </g>
    <g id="ker20" serif:id="ker">
    </g>
    <g id="ker21" serif:id="ker">
    </g>
    <g id="strom">
    </g>
    <g id="strom1" serif:id="strom">
    </g>
    <path d="M671.694,-428.643C635.296,-375.864 623.8,-405.525 566.051,-420.833C524.391,-431.877 476.63,-408.794 456.212,-374.718C436.529,-341.87 417.148,-306.563 397.147,-270.958C381.672,-243.41 374.225,-210.868 354.662,-189.103C342.837,-175.946 321.775,-161.008 308.032,-153.363C291.874,-144.374 285.91,-120.68 275.91,-109.554C271.865,-105.053 263.897,-102.584 261.403,-98.025C256.363,-88.812 258.293,-73.813 254.149,-64.591C247.086,-48.875 237.194,-19.996 222.026,-11.558C216.41,-8.434 209.891,-9.995 204.411,-6.947C200.461,-4.749 179.275,7.594 175.395,7.594" style="fill:none;stroke:#065e7b;stroke-width:27.47px;stroke-linecap:round;"/>
    <ellipse cx="174.891" cy="7.314" rx="13.736" ry="13.96" style="fill:#065e7b;"/>
    <path d="M659.98,-416.376C656.283,-406.851 645.302,-398.064 632.258,-396.767C610.518,-394.604 563.303,-432.081 521.65,-421.879C491.638,-414.528 470.123,-393.609 455.841,-370.936C435.467,-338.591 418.759,-303.265 398.773,-267.614C383.308,-240.029 372.381,-206.749 352.868,-184.956C341.073,-171.782 317.855,-156.448 304.168,-148.793C288.074,-139.792 286.362,-118.605 276.387,-107.464C272.352,-102.958 265.017,-101.697 262.524,-97.131C257.488,-87.907 257.658,-70.159 253.512,-60.924C246.445,-45.188 235.889,-17.756 220.783,-9.307C215.189,-6.179 207.781,-7.194 202.323,-4.141C198.389,-1.941 178.104,8.768 170,11.357" style="fill:none;stroke:#73b3ce;stroke-width:9.33px;stroke-linecap:round;"/>
    <g id="ker22" serif:id="ker">
    </g>
    <g id="cesty-velke" serif:id="cesty velke">
    </g>
    <g id="strom2" serif:id="strom">
    </g>
    <g id="strom3" serif:id="strom">
    </g>
    <g id="strom4" serif:id="strom">
    </g>
    <g id="strom5" serif:id="strom">
    </g>
    <g id="stromy">
    </g>
    <g id="namesti">
    </g>
    <g id="smrky">
    </g>
    <g id="listnace">
    </g>
    <g id="lanoka">
    </g>
    <g id="strom6" serif:id="strom">
    </g>
    <g id="satelit">
    </g>
    <g id="domky">
        <g id="D1">
        </g>
        <g id="D7">
        </g>
        <g id="D71" serif:id="D7">
        </g>
        <g id="D72" serif:id="D7">
        </g>
        <g id="D73" serif:id="D7">
        </g>
        <g id="D74" serif:id="D7">
        </g>
        <g id="D75" serif:id="D7">
        </g>
        <g id="D76" serif:id="D7">
        </g>
        <g id="D77" serif:id="D7">
        </g>
        <g id="D78" serif:id="D7">
        </g>
        <g id="D79" serif:id="D7">
        </g>
        <g id="D710" serif:id="D7">
        </g>
        <g id="D711" serif:id="D7">
        </g>
        <g id="D712" serif:id="D7">
        </g>
        <g id="D713" serif:id="D7">
        </g>
        <g id="D714" serif:id="D7">
        </g>
        <g id="D715" serif:id="D7">
        </g>
        <g id="D716" serif:id="D7">
        </g>
        <g id="D2">
        </g>
        <g id="D21" serif:id="D2">
        </g>
        <g id="D10">
        </g>
        <g id="D101" serif:id="D10">
        </g>
        <g id="D102" serif:id="D10">
        </g>
        <g id="D01">
        </g>
    </g>
    <g id="strom7" serif:id="strom">
    </g>
    <g id="strom8" serif:id="strom">
    </g>
    <g id="staba">
    </g>
    <g id="chladici-vez" serif:id="chladici vez">
    </g>
    <g id="D22" serif:id="D2">
    </g>
    <g id="D5">
    </g>
    <g id="TOVANA">
    </g>
    <g id="strom9" serif:id="strom">
    </g>
    <g id="strom10" serif:id="strom">
    </g>
    <g id="panelaky">
        <g id="D6">
        </g>
        <g id="D3">
        </g>
        <g id="D9">
        </g>
        <g id="D91" serif:id="D9">
        </g>
        <g id="D92" serif:id="D9">
        </g>
        <g id="D93" serif:id="D9">
        </g>
        <g id="D717" serif:id="D7">
        </g>
    </g>
    <g id="strom11" serif:id="strom">
    </g>
    <g id="strom12" serif:id="strom">
    </g>
    <g id="letiste">
    </g>
    <g id="strom13" serif:id="strom">
    </g>
    <g id="strom14" serif:id="strom">
    </g>
    <g id="tunel-s-vlakem" serif:id="tunel s vlakem">
    </g>
    <g id="strom15" serif:id="strom">
    </g>
    <g id="hrad">
    </g>
    <g id="auta">
    </g>
    <g id="majak">
    </g>
    <g id="vetrna-elektr" serif:id="vetrna elektr">
    </g>
    <g id="osrov-pokladu" serif:id="osrov pokladu">
    </g>
    <path d="M74.986,164.561L111.249,164.561L111.249,171.836C111.249,173.583 109.832,175 108.085,175L77.246,175C75.998,175 74.986,173.988 74.986,172.74L74.986,164.561Z" style="fill:#c4c4c4;fill-rule:nonzero;"/>
    <path d="M70.57,162.92L71.318,162.591C72.12,162.238 73.055,162.602 73.408,163.403L78.154,174.187L77.406,174.516C76.605,174.869 75.67,174.505 75.317,173.704L70.57,162.92Z" style="fill:#c4c4c4;fill-rule:nonzero;"/>
    <path d="M71.69,162.363L86.524,162.363L86.524,167.308L73.724,167.308C72.6,167.308 71.69,166.397 71.69,165.274L71.69,162.363Z" style="fill:#c4c4c4;fill-rule:nonzero;"/>
    <circle cx="77.459" cy="165.385" r="1.374" style="fill:#8b8b8b;"/>
    <circle cx="82.404" cy="165.385" r="1.374" style="fill:#8b8b8b;"/>
    <rect x="89.821" y="156.869" width="16.483" height="7.692" style="fill:#f7db6b;"/>
    <rect x="90.92" y="158.517" width="14.285" height="2.198" style="fill:#f88948;"/>
    <rect x="96.964" y="151.374" width="1.099" height="6.044" style="fill:#f7db6b;"/>
    <rect x="97.513" y="147.528" width="0.549" height="3.846" style="fill:#b3b3b3;"/>
    <rect x="98.612" y="148.627" width="0.549" height="2.747" style="fill:#b3b3b3;"/>
    <rect x="105.205" y="151.374" width="1.099" height="6.044" style="fill:#f7db6b;"/>
    <rect x="75.536" y="159.616" width="1.099" height="3.297" style="fill:#c4c4c4;"/>
    <rect x="80.481" y="159.616" width="1.099" height="3.297" style="fill:#c4c4c4;"/>
    <rect x="90.37" y="162.363" width="1.099" height="3.297" style="fill:#c4c4c4;"/>
    <rect x="100.26" y="162.363" width="1.099" height="3.297" style="fill:#c4c4c4;"/>
    <rect x="95.315" y="162.363" width="1.099" height="3.297" style="fill:#c4c4c4;"/>
    <rect x="105.205" y="162.363" width="1.099" height="3.297" style="fill:#c4c4c4;"/>
    <rect x="92.568" y="150.825" width="18.131" height="1.099" style="fill:#f7db6b;"/>
    <path d="M86.524,160.067C86.524,159.515 86.076,159.067 85.524,159.067L71.591,159.067C71.039,159.067 70.591,159.515 70.591,160.067L70.591,162.462C70.591,163.014 71.039,163.462 71.591,163.462L85.524,163.462C86.076,163.462 86.524,163.014 86.524,162.462L86.524,160.067ZM71.796,160.272L71.796,162.257L85.319,162.257L85.319,160.272L71.796,160.272Z" style="fill:#c4c4c4;"/>
    <path d="M111.249,162.814C111.249,162.262 110.801,161.814 110.249,161.814L86.425,161.814C85.874,161.814 85.425,162.262 85.425,162.814L85.425,165.209C85.425,165.761 85.874,166.209 86.425,166.209L110.249,166.209C110.801,166.209 111.249,165.761 111.249,165.209L111.249,162.814ZM86.631,163.019L86.631,165.004L110.043,165.004L110.043,163.019L86.631,163.019Z" style="fill:#c4c4c4;"/>
</svg>
