<svg xmlns="http://www.w3.org/2000/svg" xml:space="preserve" fill-rule="evenodd" stroke-linejoin="round" stroke-miterlimit="1.5" clip-rule="evenodd" viewBox="0 0 249 250"><path fill="none" d="M-250-750H750V250H-250z"/><path fill="#e2e1bf" d="M-96.3-142c-28.4-54-156-97-148.4-339.5 5-159 106-230.3 181.7-229.3 45.6.6 101.8 7.6 243 67.3 99 42 145.2 52.7 174 41.8 70.2-26.6 78.9-37.6 117.6-57.4 35.8-18.4 73-47 100.4-58 82.3-33 224.3 2.4 138 160-21.7 39.6-3 119.8-26.9 288.5-27 190-78.4 135.4-88.1 180-7 32.1 55.5 144.5 15 220-53 98.6-196.6 64.4-243 61.5-70-4.4-180.9 82-280 50-213.3-69-120.6-265.8-183.3-385Z"/><path fill="#589765" d="M-71-183.3c-48-26.4-127.8-54.8-159-198.6-30.8-142 33.5-287 159-322.3 41.3-11.6 127.3 7.5 260.4 62.2 93.4 38.3 136.9 48.1 164 38.2C419.5-628.2 542.7-701.3 610-707c50.3-4.2 127.7 20.3 95 118.6-3.2 9.5-14.7 41.6-15 56.7-2 82.5-15.4 249.5-27.5 314.2C640.4-99 545-148 572.9-68.6c22.8 64.7 54.7 159 2.1 210-83.2 80.5-182 20.8-207.2 19.3-66-4-194.5 78.5-288 49.4C-13.9 181.1-30.3 33-27.7-16-25-65-32.3-162-71-183.3Z"/><path fill="#8dcf86" d="M3.9-503.5c-30-42 7.9-199.4-116.8-134.3-78 40.6-129.2 175.6-105.3 257 69 234.4 197.6 136 200.8 242.3 5.4 179.2 2 301.1 120 329.6 50.4 12.1 141.6 1 178-63.4 19.3-34.1 97.8-106 172-28.2 22.5 23.5 58.9 32.5 84.5 10.5 28.2-24.3 22.6-64.8 7.2-85-22.4-29.6-46-64.7-36.7-108.3 21.2-98.3 79.8-62.5 100.5-107.9 44.4-97.2-160.1-135-230.5-74.1C285.8-186 89-384.3 4-503.5Z"/><path fill="#589765" d="m80 169-1.3 7.9s49.3-28 90.4-28.8c26.2-.6 68 23.3 68 23.3l3.7-2.4 3.1-2.2s-42.8-27-74.8-26.6c-46.5.8-89 28.8-89 28.8Zm2-14.6-1.3 7.8s49.2-27.9 90.4-28.7c31.5-.7 77.3 30.1 77.3 30.1l3.3-2.7 2.2-1.8s-6.4-4.9-16.4-10.9c-16.5-9.9-42.9-23-66.4-22.6-46.6.8-89 28.8-89 28.8Zm2-14.7-1.4 8s49.3-28 90.4-28.9c36.6-.7 85.1 36.4 85.1 36.4l2.6-2.6 2-2.1S217.3 110.3 173 111c-46.5.8-89 28.7-89 28.7Zm2-14.6-1.4 7.9s49.2-28 90.4-28.8c42.2-.9 91.3 42.2 91.3 42.2l2-2.6 1.7-2.2s-38.2-46.2-95-45.2C128.4 97 86 125 86 125Zm177.9-1.1 5.8 5.6 1.7-1.9c10.7-11.2 23.8-21.3 23.8-21.3l22.1-20.9s-32.2 15.3-53 38l-.4.4Zm-11.3-11.3c-2 2.4.8 2.9 2.4 4.1 1.6 1.3 1.8 3.4 3.8 1.1 20-22.4 59.7-38.4 59.7-38.4l-4.6-5.8s-40.3 14.5-61.3 39Zm-14.5-6.3 6.9 4.2 1.6-1.8c21.3-23.6 52.5-35.6 61.1-38.6 1.5-.5-2-6.6-6.5-5.2-13 4-40.8 14.8-61.7 39.6l-1.4 1.8Zm55.4-51.6-1.4.5c-10.7 2.8-43 13.5-66.2 41.9l-1 1.3 6.7 4.4 1.3-1.5c25-28.6 64.6-40.7 64.6-40.7s-2-2-2.2-3c-.2-.7-1.3-2.3-1.8-3 .3-.2-.3-.2-.3-.2l.3.3ZM209.8 93l7.8 2.8.9-1c22.5-27.4 59-40.5 65.4-42.6l2.5-1s-2-1.8-2.4-2.8l-.8-2.9s-44.9 9-73 46.8l-.4.7Zm-67.4-.7 8.9-1 .7-2.1a123 123 0 0 1 8.1-17.6c17.3-30 53-46.4 67.8-52.2l2.1-.8-13-3-1.7.7c-17.8 7-45 22-62 51.3a134.4 134.4 0 0 0-11 24.7Zm51.5-3.2 8.3 1.8 1.3-1.7c22.5-30 62.2-43.9 68.1-45.8l3.4-1.1s-2-2-2.3-3.1c-.2-1-2-2.4-2-2.4l-2.2.5C259 39.8 219 51.7 194.7 88l-.8 1.2Zm-16.6-2 8 2 1.5-2.6c21-33.7 64.9-49.4 72-51.8l3.9-1-8.8-4.6-.8.3c-13.9 4-52.8 18-74.6 55.7l-1.2 2Zm-17.4 1.2 9.1-1 .5-1c1-2 2-4 3.2-6 18.1-31.6 44.5-41.4 72.8-54.8l1-.5-7.2-4-1.8.6c-15.9 5-51.2 19.5-71.6 54.8-2 3.5-3.9 7-5.5 10.7l-.5 1.2Zm-28.2-10L137 88l.2-.7A126 126 0 0 1 147.6 63c13.9-24.2 39.6-39.5 56.9-47.6l2.3-1-20.2.9-1.1.6A117.7 117.7 0 0 0 132 77.5l-.4.9ZM121.5 64l5.6 7.5s4.9-11.9 8-17.2c7.7-13.5 24.6-30.4 34.9-35.2 1-.5 1.4-1.1 1.4-1.1L150 23.7s-15.4 16-21.6 26.6c-2.6 4.4-6.8 13.7-6.8 13.7Zm-10.9-12.6 5.9 6.5s3.8-8.5 6-12.4c3.4-5.8 12-16 12-16l-15.6 7-3.2 5c-1.8 3.3-5 9.9-5 9.9Z"/><path fill="#f7db6b" d="m242-32-4.4.6-2.8 1.2s15.9 6.5 39.4 39.7a382.2 382.2 0 0 1 37 61.7L315 70l2.3-1c-4.8-9.9-16.5-32-38.1-62.6-17.4-24.6-31.6-35-37.3-38.4Zm12-1.8-6.3 1-2.7.8s16.6 5.8 40 39c22.6 31.8 33 52.6 36.6 60.4l5.9-2.4c-5.3-10.6-16.9-32-37.5-61.2a141.7 141.7 0 0 0-36-37.6Zm-24.2 3.6-3 1.3L223-27s16.8 5.8 40.3 39c12 17 20.6 31 26.6 41.4L298 61l5.7 5.4a488.9 488.9 0 0 0-35.5-57.5c-18.8-26.5-34-36.5-38.5-39.1Zm27.4-3.5v.1s15.2 4.8 38.7 38c21.6 30.5 32 50.9 36 59.4l6.2-1.7c-5.3-10.7-16.8-32-37.2-60.8a155.3 155.3 0 0 0-32-34.8l-11.7-.2Zm56.3 11.6c4.5 5 9.6 11.2 15 19 29.1 41 38 63.8 38 63.8l8 1.5s-11-26.1-41-68.5l-4.5-6.2a116 116 0 0 0-15.5-9.6Zm-40.2-11.2c6.4 4 18.3 13.6 33.5 35.2a407 407 0 0 1 36 59.4l2.2-.3 4.6-.2c-5-10.2-16.6-32-37.8-62a171.5 171.5 0 0 0-26.4-30.2c-5.3-1-10.2-1.7-12-2Zm18.5 3.1c6.6 5.6 15.4 14.8 25.9 29.6 23.4 33 33.7 54.2 36.9 61.2l7-.2a452 452 0 0 0-39-64.2 198.3 198.3 0 0 0-18.3-22.5 107.8 107.8 0 0 0-12.5-3.9Zm-71 3.7-7.2 3s15.3 4.9 38.8 38c5.7 8.1 10.6 15.5 14.9 22l5.5 3.3 6.5 5a532 532 0 0 0-22-33.4A140 140 0 0 0 221-26.5ZM341.3-3.2a467.2 467.2 0 0 1 28.2 44.9l-13.2-27.4S348 1.7 342-2.7l-.8-.5ZM212-22.6l-6 3.3c5.7 3.2 18.5 12.3 35.5 36.4l6 8.5 11 6c-3.6-5.5-7.6-11.4-12-17.6A147.4 147.4 0 0 0 212-22.6Zm-8.2 4.5-5.7 3c6.5 4.4 17.9 14 32.3 34.4l9.3 3-4-5.8a156 156 0 0 0-31.9-34.6Z"/><path fill="#589765" d="m-13.4 13.5-4.6 5s.3 3 .5 3.2a287.4 287.4 0 0 1 40.3 96c0 .5 2.2 21.6 3.8 34.4.2 1 7.8 7.9 7.8 7.9s-3.7-40.5-4-42.3A239.4 239.4 0 0 0-12.5 14.8l-1-1.3ZM2.3 9.8s-8 2.7-7.2 3.7c31.5 42.8 43 94.4 44.5 102L43 140s2.7-1 4-.8c1.2.3 3-1 3-1l-2.6-22.6A239.5 239.5 0 0 0 2.3 9.8Zm-15.7 43 2.8 15.3S5 115.2 6 120a2548.6 2548.6 0 0 0 5.2 10 116 116 0 0 0 3.9 6.5l-1.4-16.6c-1.4-9.7-7.4-44-29.2-81.8-.6-1 2.2 14.8 2.2 14.8ZM19 7.7s-8.5 2-8 2.7A282.5 282.5 0 0 1 60 133s2.7-1 4-.8c1.2.3 3.1-1 3.1-1l-3-17.8a239.5 239.5 0 0 0-45-105.8Zm20 1.7-11-1s.5.2 1.5 1.6c31 42.6 42.3 93.5 43.9 101.2l1 4.5s2.6-1 4-.8c1.1.3 3-1 3-1s0-1-.3-2.7A239.2 239.2 0 0 0 40 10.8l-1.1-1.4ZM61 15l-11-2 1 1.3A288.2 288.2 0 0 1 90.1 109c0 .7.9 4.5.9 4.5s2.7-1 4-.8c1.2.3 3-1 3-1s0-1-.3-2.7a237 237 0 0 0-35.2-91.7L61 15Zm27.2 15L72.7 20l1.5 2.5a293.4 293.4 0 0 1 32.8 84.3l.9 4.6s2.7-1.1 4-.9c1.2.3 3.1-1 3.1-1s0-1-.3-2.7c-1.3-9-6.6-39.4-25-74.1-.4-1-1.4-2.7-1.4-2.7Zm32.5 32.7L103 43s.5 1.3.8 1.7c8 12.4 16 42.4 18.9 54.9.2.6 7.1-2.8 7-3.2-2.9-12-8.2-31.8-8.2-31.8l-.7-2Z"/><path fill="#589765" d="M-19.2 6.5c4.1.4 12.3 1 22.3 1.4L15 8c4.8.1-16.9 3.3-16.9 3.3s-13.7 4.2-16.3 4l-1-9ZM36.4-6 30-.2c-3.8.8-7 1.3-9.6 1.4A302 302 0 0 1-18.2.7l6.7-10.8c8 .6 19.5 1.1 32 .9 4.7-.1 11.7-1.5 20-3.3l-4.1 6.6Zm17-26.7L46-21c-11 2.5-20.2 4.6-25.9 5-10.7.6-20.9.4-28.6 0l4.7-10.8c7 .3 15.2.5 24 .3 7-.1 19-3 33.3-6Zm35.2-19.7L72-43.7c-22.4 4-42.3 9.9-52 10.4-7.5.5-14.8.5-21 .4l4.6-10.9c5.1.2 10.6.2 16.3.1 15-.3 52.3-13 86.9-13.7l-18 5.1ZM11-60.8l8.5-.1C36-61.2 79-76.4 116-74.5a86 86 0 0 1 26.2 6l-.8 1.2-15 4.3a54 54 0 0 0-10.8-1.6c-37-1.8-80 13.2-96 14.1-4.5.3-9 .4-13.2.4L11-60.8Zm6-17.3h2.1c16.4-.4 59.4-15.6 96.4-13.6 13.3.6 26.2 5.5 35 9.7l-5.5 8.8c-8-4-18.7-8-29.9-8.6-37-1.8-80 13.2-96 14l-5.4.3L17.1-78Zm5.5-17.5c18.5-2 58.3-15.2 92.7-13.4a105 105 0 0 1 43.5 14.2l-5.7 9a86 86 0 0 0-38.2-13.3C78.3-100.8 35.5-86 19.3-85l3.3-10.6Zm18.1-20.7c20.6-4.4 48.9-11.2 74.3-9.9 24 1.2 46.4 16 46.4 16l-4.6 9.8s-20.3-14.8-42.2-15.9c-30.9-1.5-66.1 8.8-86.2 12.7l12.3-12.7Z"/><path fill="#3b7847" d="M133.6 28.3c-.2-.9-.1-1.6-.1-2.5 0-5.1 2.4-9.3 5.6-9.4 1 0 1.8 0 2.5.4 2.2 1.4 3.4 5.2 3.4 9V27s-5.2 1.8-6.9 1.7c-1.5 0-4.5-.4-4.5-.4Z"/><path fill="#4db343" d="M144.6 27c.1-.9.4-.3.4-1.2 0-4.7-1.8-8.7-4-9.2h-.5c-2.5 0-4.5 4-4.5 9.2l.1 2.8 4.3-.6a45 45 0 0 0 4.2-1Z"/><path fill="#3b7847" d="M146.8 23.7c-.2-1-.1-1.8-.1-2.8 0-6 2.8-10.8 6.4-10.9 1.2 0 2.2 0 3 .5 2.5 1.6 3.9 6 3.9 10.4v1s-6.5 1.2-8.5 1.1c-1.8 0-4.7.7-4.7.7Z"/><path fill="#4db343" d="M160 21.9v-1c0-5.5-2-10.1-4.6-10.8h-.6c-3 0-5.3 4.8-5.3 10.8 0 1 0 2.2.2 3.2 0 0 1.8-1 4.2-1.3 1.6-.1 6-.9 6-.9Z"/><path fill="#3b7847" d="M158 19.8c-.2-.8 0-1.5 0-2.4 0-5.1 2.3-9.3 5.5-9.4 1 0 1.8 0 2.6.4 2.1 1.4 3.3 5.2 3.3 9 0 .9 0 1.6-.2 2.5 0 0-5 .4-6.7.4-1.5 0-4.5-.5-4.5-.5Z"/><path fill="#4db343" d="M169.2 19.9c.2-1 .2-1.6.2-2.5 0-4.8-1.7-8.7-4-9.3h-.5c-2.5 0-4.5 4.2-4.5 9.3l.1 2.7s2.6.4 4.7.2l4-.4Z"/><path fill="#3b7847" d="M151 88.7v-2.5c0-5.1 2.3-9.3 5.5-9.4 1 0 1.8 0 2.6.4 2.1 1.4 3.3 5.2 3.3 9 0 .9 0 1.6-.2 2.5 0 0-5 .5-6.7.4-1.5 0-4.5-.4-4.5-.4Z"/><path fill="#4db343" d="M162.2 88.7c.2-.9.2-1.6.2-2.5 0-4.8-1.7-8.7-4-9.3h-.5c-2.5 0-4.5 4.2-4.5 9.3 0 .9 0 1.9.2 2.8 0 0 2.5.3 4.6.1l4-.4Z"/><path fill="#3b7847" d="M167.2 86.3c-.2-1.5-.3-3.2-.3-4.8 0-8.6 4-15.7 9.4-15.8 1.7 0 3-.1 4.3.7 3.6 2.4 5.7 8.7 5.7 15.1a20 20 0 0 1-.4 4.2s-8.4.7-11.3.7l-7.4-.1Z"/><path fill="#4db343" d="M185.8 87.3c.3-1.6.5-4.3.5-5.8 0-8-3-14.7-6.8-15.6h-.9c-4.2 0-7.6 7-7.6 15.6 0 1.5.2 3.4.5 4.9h7.6c2.3 0 6.7 1 6.7 1Z"/><path fill="#3b7847" d="M-4.2 11.6a36 36 0 0 1-.3-4.7c0-8.6 4-15.7 9.3-15.8 1.7 0 3.1-.1 4.4.7 3.6 2.3 5.6 8.6 5.6 15 0 1.6 0 2.8-.3 4.3 0 0-8.4.7-11.3.7l-7.4-.2Z"/><path fill="#4db343" d="M14.6 10.6c.3-1.6.2-2.2.2-3.7 0-8-3-14.7-6.7-15.6h-.9C3-8.7-.4-1.7-.4 6.9c0 1.5.2 3.4.4 4.8 0 0 4.1-1.1 7.6-1.2l7 .1Z"/><path fill="none" stroke="#2d5836" stroke-width="4" d="M-26.6 18.3c1.6-.1 13-3.2 15-3.8 81.2-24 132.4 42.4 151.2 77"/><path fill="none" stroke="#2d5836" stroke-linecap="round" stroke-width="4" d="M90-53.6c58.5 8.3 111 34.6 130 68.9"/><path fill="none" stroke="#2d5836" stroke-width="4" d="M-37-125c5-1.3 62.9 5.5 101.2-4.4C174.2-158 227.6-55.3 255-34M64.2 146.4c69.7-76.2 140.4-73.6 200.5-21.7 1.8 1.5 7 7.4 10.3 9.4M105 43.5C162.3 13 231.9-9.1 304 66.9c1.3 1.4 11.9 10 16.6 16.1"/><path fill="none" stroke="#2d5836" stroke-width="4" d="M195.5-13.6C222-35.5 269.9-40.4 308-25c33.4 13.5 62 50 69 89.7"/><path fill="none" stroke="#2d5836" stroke-width="4" d="M290.6-207.9c-77.7 98 26.6 97.3 52.7 114.3 46.5 30.2 22.5 92.2-.9 91.4"/><path fill="#8dcf86" d="M115 104.6c73.6-.6 123 72 123 72s-34.8 20.1-68 28c-5.8 1.5-11.8 4.6-61 .8-32.3-2.6-52-34-52-34s-23-66 58-66.8Z"/><path fill="#3b7847" d="M110 104.8c-20.8 17.8-.7 100.4-1.6 100.5-26.7 3-73.8-30-75.5-36.3-4.2-16.2 8.3-54 77.1-64.2Z"/><path fill="#fff" d="M115.6 101.4c23.6-.6 44.4 13 44.4 13-2.6 3.7-80.2 2.6-88.2-1.6 0 0 17.7-10.8 43.8-11.4Z"/><path fill="#3b7847" d="M138.7 148c-.2-1-.1-1.7-.1-2.8 0-6 2.7-10.8 6.4-10.9 1.2 0 2.1 0 3 .5 2.5 1.6 3.9 6 3.9 10.4 0 1 0 1.8-.2 2.9 0 0-5.8.5-7.8.5-1.8 0-5.2-.6-5.2-.6Z"/><path fill="#4db343" d="m151.7 148 .2-2.8c0-5.5-2-10.1-4.7-10.7h-.6c-2.9 0-5.2 4.8-5.2 10.7 0 1 0 2.2.2 3.2 0 0 3 .4 5.4.2l4.7-.5Z"/><path fill="#3b7847" d="M121.2 153.2v-1.9c0-4 1.8-7.1 4.2-7.2.8 0 1.5 0 2 .3 1.7 1.1 2.6 4 2.6 7l-.1 1.8-5.2.4c-1.2 0-3.5-.4-3.5-.4Z"/><path fill="#4db343" d="m129.9 153.2.1-1.9c0-3.6-1.3-6.7-3-7.1h-.5c-1.9 0-3.5 3.2-3.5 7.1 0 .7 0 1.5.2 2.1 0 0 2 .3 3.5.2l3.2-.4Z"/><path fill="#3b7847" d="M70 114.5v-2.3c0-4.8 2.3-8.7 5.2-8.7 1 0 1.7-.1 2.4.3 2 1.4 3.2 4.8 3.2 8.4 0 .8 0 1.5-.2 2.3 0 0-4.7.5-6.3.4a42 42 0 0 1-4.2-.4Z"/><path fill="#4db343" d="M80.4 117.8c.2-.9.4-4.7.4-5.6 0-4.4-1.7-8.1-3.8-8.6h-.5c-2.3 0-4.2 3.8-4.2 8.6v3.2s2.2 1.9 4.2 1.7c1.2-.1 4 .7 4 .7Z"/><path fill="none" stroke="#065e7b" stroke-linecap="round" stroke-width="27.5" d="M421.7-428.6c-36.4 52.7-47.9 23-105.6 7.8-41.7-11-89.5 12-109.9 46-19.7 33-39 68.2-59 103.8-15.5 27.6-23 60.1-42.5 81.9A208.6 208.6 0 0 1 58-153.4c-16.1 9-22 32.7-32 43.8-4.1 4.5-12.1 7-14.6 11.6-5 9.2-3.1 24.2-7.3 33.4-7 15.7-17 44.6-32 53-5.7 3.2-12.2 1.6-17.7 4.7"/><path fill="none" stroke="#73b3ce" stroke-linecap="round" stroke-width="9.3" d="M410-416.4a33.9 33.9 0 0 1-27.7 19.6c-21.8 2.2-69-35.3-110.7-25-30 7.3-51.5 28.2-65.8 50.9-20.3 32.3-37 67.6-57 103.3-15.5 27.6-26.4 60.9-46 82.6-11.7 13.2-35 28.6-48.6 36.2-16.1 9-17.8 30.2-27.8 41.3-4 4.5-11.4 5.8-13.9 10.4-5 9.2-4.8 27-9 36.2-7 15.7-17.6 43.1-32.7 51.6-5.6 3.1-13 2.1-18.5 5.2L-62 3.4"/><path fill="none" stroke="#2d5836" stroke-linecap="round" stroke-width="18.7" d="M120-175c5 0 12.5-1.7 17.4 0a56.4 56.4 0 0 1 34.9 49.6c.3 12.5-3.6 21-9.8 31.8-7.6 13-22.5 22.4-35.5 28.5C98-51.6 62.7-44 41.4-17.9 27.5-1 22 19.7 19.7 41c-4.4 40.7 3.8 86.9 40.1 111m.2 2c48.5 62.4 142.1 48.8 185 11 44.7-39.4 49.8-87.6 95-95 34.2-5.6 60 3.8 82.6 31.1 103.2 124 198.9-29.9 137.4-90.9-6.5-6.4-70.9-82.6 0-146 1.6-1.4 18.3-13 20-14.5"/><path fill="#2d5836" d="M110 116.2s-13.3 2.3-20 2c-5.8-.4-20-4.1-20-4.1s-5.7 3.3-8.3 5c-2.6 1.9-7.4 5.9-7.4 5.9s9.8 10 38 10c32 0 42.7-18.4 42.7-18.4h-12.7c-4.2 0-12.3-.4-12.3-.4Z"/><path fill="#2d5836" d="M180.6 124s-37.8 29.8-68 28C70.4 149.8 59 140 59 140s-3.7 5-6.3 6.7c-2.6 1.8-8.4 5.4-8.4 5.4S61.2 174 115 170c62.2-4.6 80.6-36.4 80.6-36.4s-2.8-2.5-5.6-4.3c-6.3-4.2-9.4-5.2-9.4-5.2Z"/><path fill="#d9d9d9" d="M194-3.7h12.8v17.3H194z"/><path fill="#8c8c8c" d="m180.5-3.7 6.7-6 6.8 6v17.3h-13.5V-3.7Z"/><path fill="#595959" d="M183.9.8h6.5v6.5h-6.5z"/><path fill="#f7db6b" d="M24.2-2.4c2.4-6.1 4.5-11 9-9.2 5.3 2.1 2.7 6.8.2 13-2.5 6-4 11-9.1 9-5.5-2-2.6-6.7-.1-12.8Z"/><path fill="#589765" d="M164.8 138.7c5.7-3.4 10.3-6.1 12.5-1.7 2.4 5.1-2.5 7.3-8.2 10.7-5.6 3.5-10 6.7-12.4 1.7-2.6-5.1 2.5-7.3 8.1-10.7Z"/><path d="M82.9 102.6h63.5v5H82.9z"/><path fill="red" d="M146.1 102.6H83L98.7 92h31.6l15.8 10.7Z"/><path fill="#8c0008" d="M125 102.6H82.9L98.7 92h21.5l4.8 10.7Z"/><path fill="#8c0008" d="m107.7 92-2.7 10.6H82.9L98.7 92h9Z"/><path fill="#8c8c8c" d="M101.7 43.1h2.6v13.5h-2.6z"/><path fill="#fff" d="M113.2 46.1h2.6v13.5h-2.6z"/><path fill="#8c8c8c" d="M108.7 42.9h2.6v13.5h-2.6z"/><path fill="#b3b3b3" d="M117.7 42.9h2.6v13.5h-2.6zm-7.8 0h1.5v13.5h-1.5z"/><path fill="#d9d9d9" d="M118.8 42.9h1.5v13.5h-1.5zm5.3.2h2.6v13.5h-2.6z"/><path fill="#b3b3b3" d="M126.7 56h-25v36h28.6l-3.6-36Z"/><path fill="#d9d9d9" d="m126.7 56-8-.4 1.5 36.3h10.1L126.7 56Z"/><path fill="#8c8c8c" d="M109.8 56h-8.1l-3 36h9l2.1-36Z"/><path fill="#8c0008" d="M118.8 55.8h-9l-.3 6h9.5l-.2-6Z"/><path fill="red" d="m126.8 55.7-8 .1.2 6h8.3l-.5-6Z"/><path fill="#8c0008" d="M109.8 55.8h-8.1l-.5 6h8.3l.3-6Zm9.4 11.4-10-.1-.3 6h10.5l-.2-6Z"/><path fill="red" d="M127.8 67.1h-8.6l.2 6h9l-.6-6Z"/><path fill="#8c0008" d="M119.6 78.5h-11l-.4 6h11.7l-.3-6Z"/><path fill="#8c0008" d="M108.5 78.5h-8.7l-.5 6h8.9l.3-6Z"/><path fill="red" d="M129 78.5h-9.4l.3 6h9.7l-.6-6Z"/><path fill="#8c0008" d="M109.3 67.1h-8.6l-.5 6h8.7l.4-6Z"/><path fill="#d9d9d9" d="M101.8 35.5h25v8h-25z"/><path fill="#b3b3b3" d="M101.8 35.5h17.1v8h-17.1z"/><path fill="#8c8c8c" d="M101.7 35.5h8.2v8h-8.2z"/><path fill="#8c0008" d="m113.8 25-5 11H100l13.8-11Z"/><path fill="#8c0008" d="m113.8 25-5 11H128l-14.2-11Z"/><path fill="red" d="m113.8 25 5.3 11h9l-14.3-11Z"/></svg>