<?xml version="1.0" encoding="UTF-8" standalone="no"?>
<!DOCTYPE svg PUBLIC "-//W3C//DTD SVG 1.1//EN" "http://www.w3.org/Graphics/SVG/1.1/DTD/svg11.dtd">
<svg width="249px" height="250px" version="1.1" xmlns="http://www.w3.org/2000/svg" xmlns:xlink="http://www.w3.org/1999/xlink" xml:space="preserve" xmlns:serif="http://www.serif.com/" style="fill-rule:evenodd;clip-rule:evenodd;stroke-linejoin:round;stroke-miterlimit:1.5;">
    <rect id="Artboard" x="-250" y="-750" width="999.991" height="1000" style="fill:none;"/>
    <g id="background">
    </g>
    <path id="OSTROV" d="M-96.31,-142.009C-124.685,-195.957 -252.239,-239.03 -244.677,-481.538C-239.722,-640.443 -138.69,-711.829 -63.043,-710.805C-17.375,-710.186 38.838,-703.187 179.96,-643.467C279.062,-601.53 325.23,-590.82 353.907,-601.679C424.243,-628.314 432.87,-639.33 471.578,-659.138C507.384,-677.461 544.527,-706.154 571.957,-717.137C654.286,-750.1 796.284,-714.656 710,-557.045C688.336,-517.473 707.089,-437.326 683.144,-268.643C656.159,-78.539 604.682,-133.208 595,-88.643C588.009,-56.463 650.472,55.911 610,131.357C557.077,230.013 413.418,195.756 366.957,192.863C297.037,188.51 186.097,274.886 86.957,242.863C-126.293,173.984 -33.641,-22.858 -96.31,-142.009Z" style="fill:#e2e1bf;"/>
    <path id="OSTROV1" serif:id="OSTROV" d="M-71.049,-183.315C-119.073,-209.722 -198.806,-238.124 -230,-381.929C-260.788,-523.863 -196.46,-668.925 -71.049,-704.153C-29.659,-715.779 56.339,-696.664 189.358,-642.034C282.769,-603.671 326.287,-593.874 353.317,-603.808C419.613,-628.173 542.79,-701.346 610.084,-707.008C660.37,-711.238 737.811,-686.69 705.084,-588.398C701.933,-578.933 690.446,-546.796 690.084,-531.712C688.105,-449.155 674.692,-282.19 662.587,-217.523C640.392,-98.943 545.013,-147.922 572.916,-68.643C595.701,-3.904 627.605,90.415 575,141.357C491.849,221.881 393.03,162.249 367.784,160.724C301.879,156.742 173.281,239.181 79.747,210.149C-13.787,181.117 -30.278,33.003 -27.648,-16.074C-25.017,-65.151 -32.333,-162.027 -71.049,-183.315Z" style="fill:#589765;"/>
    <path d="M3.905,-503.472C-26.075,-545.422 11.804,-702.947 -112.908,-637.839C-190.841,-597.152 -242.123,-462.199 -218.168,-380.766C-149.223,-146.397 -20.558,-244.847 -17.365,-138.472C-11.985,40.746 -15.343,162.637 102.635,191.087C152.996,203.231 244.242,192.058 280.608,127.748C299.945,93.552 378.434,21.669 452.635,99.46C475.115,123.028 511.478,132.035 537.055,110C565.287,85.677 559.653,45.206 544.345,25C521.902,-4.625 498.234,-39.742 507.635,-83.341C528.818,-181.574 587.367,-145.85 608.066,-191.17C652.476,-288.403 447.953,-326.2 377.635,-265.341C285.801,-185.861 89.049,-384.331 3.905,-503.472Z" style="fill:#8dcf86;"/>
    <g id="pole">
        <path d="M80.071,169.005L78.738,176.877C78.738,176.877 127.957,148.94 169.148,148.085C195.316,147.541 237.1,171.357 237.1,171.357C237.1,171.357 239.677,169.709 240.815,168.957C241.883,168.252 243.93,166.845 243.93,166.845C243.93,166.845 201.136,139.715 169.148,140.247C122.559,141.022 80.071,169.005 80.071,169.005ZM82.021,154.375L80.689,162.247C80.689,162.247 129.908,134.31 171.099,133.455C202.616,132.8 248.351,163.602 248.351,163.602C248.351,163.602 250.777,161.706 251.699,160.95C252.443,160.341 253.887,159.069 253.887,159.069C253.887,159.069 247.496,154.239 237.515,148.249C220.984,138.329 194.603,125.226 171.099,125.617C124.51,126.392 82.021,154.375 82.021,154.375ZM83.972,139.745L82.64,147.617C82.64,147.617 131.859,119.68 173.049,118.825C209.554,118.067 258.126,155.153 258.126,155.153C258.126,155.153 259.917,153.41 260.676,152.632C261.369,151.921 262.678,150.484 262.678,150.484C262.678,150.484 217.296,110.251 173.049,110.987C126.46,111.762 83.972,139.745 83.972,139.745ZM85.923,125.115L84.59,132.987C84.59,132.987 133.809,105.05 175,104.195C217.236,103.318 266.293,146.357 266.293,146.357C266.293,146.357 267.708,144.61 268.326,143.816C268.908,143.069 270,141.596 270,141.596C270,141.596 231.772,95.413 175,96.357C128.411,97.132 85.923,125.115 85.923,125.115Z" style="fill:#589765;"/>
        <path d="M263.85,123.938L269.655,129.598C269.655,129.598 270.802,128.359 271.387,127.744C282.093,116.495 295.201,106.357 295.201,106.357L317.33,85.526C317.33,85.526 285.093,100.779 264.315,123.428C264.159,123.598 263.85,123.938 263.85,123.938ZM252.613,112.701C250.538,115.13 253.417,115.579 255,116.838C256.558,118.079 256.788,120.166 258.802,117.916C278.889,95.474 318.489,79.525 318.489,79.525L313.948,73.651C313.948,73.651 273.584,88.158 252.613,112.701ZM238.089,106.357L245,110.62C245,110.62 246.05,109.416 246.585,108.824C267.938,85.2 299.115,73.162 307.729,70.16C309.194,69.65 305.622,63.638 301.151,65C288.227,68.936 260.399,79.787 239.5,104.644C239.026,105.208 238.089,106.357 238.089,106.357ZM293.474,54.759C293.323,54.88 292.945,55.043 292.143,55.258C281.413,58.137 249.094,68.774 225.93,97.154C225.569,97.596 224.854,98.494 224.854,98.494L231.634,102.859C231.634,102.859 232.487,101.853 232.92,101.357C257.858,72.812 297.462,60.674 297.462,60.674C297.462,60.674 295.582,58.78 295.299,57.731C295.099,56.986 293.969,55.422 293.474,54.759C293.759,54.531 293.241,54.451 293.241,54.451C293.241,54.451 293.331,54.568 293.474,54.759ZM209.779,93.096L217.65,95.89C217.65,95.89 218.185,95.224 218.456,94.895C240.961,67.48 277.446,54.424 283.919,52.27C284.569,52.053 286.381,51.357 286.381,51.357C286.381,51.357 284.329,49.517 284.046,48.468C283.788,47.509 283.219,45.65 283.219,45.65C283.219,45.65 238.348,54.567 210.271,92.427C210.107,92.649 209.779,93.096 209.779,93.096ZM142.392,92.365L151.281,91.357C151.281,91.357 151.776,89.974 152.031,89.286C154.312,83.127 156.987,77.181 160.123,71.726C177.412,41.649 213.018,25.253 227.93,19.469C228.673,19.181 230,18.683 230,18.683L216.925,15.726C216.925,15.726 215.858,16.139 215.312,16.357C197.495,23.454 170.311,38.456 153.379,67.732C149.083,75.16 145.669,82.948 142.958,90.712C142.766,91.263 142.392,92.365 142.392,92.365ZM193.919,89.18L202.219,90.979C202.219,90.979 203.041,89.845 203.46,89.286C225.966,59.333 265.734,45.397 271.632,43.457C272.115,43.298 275,42.367 275,42.367C275,42.367 273.021,40.323 272.738,39.273C272.48,38.315 270.674,36.923 270.674,36.923C270.674,36.923 269.92,37.073 268.548,37.416C258.937,39.817 218.969,51.695 194.695,88.003C194.434,88.393 193.919,89.18 193.919,89.18ZM177.302,87.254L185.214,89.18C185.214,89.18 186.234,87.443 186.767,86.592C207.848,52.896 251.68,37.195 258.83,34.815C259.479,34.599 262.678,33.737 262.678,33.737L253.887,29.245C253.887,29.245 253.343,29.396 253.054,29.478C239.199,33.413 200.308,47.427 178.47,85.186C178.073,85.872 177.302,87.254 177.302,87.254ZM159.869,88.384L169.015,87.441C169.015,87.441 169.362,86.717 169.538,86.357C170.527,84.337 171.569,82.365 172.668,80.453C190.845,48.833 217.199,39.038 245.543,25.551C246.204,25.236 246.585,25.134 246.585,25.134L239.274,21.109C239.274,21.109 238.105,21.461 237.473,21.659C221.628,26.626 186.331,41.175 165.925,76.459C163.885,79.985 162.044,83.593 160.383,87.241C160.21,87.621 159.869,88.384 159.869,88.384ZM131.714,78.404L136.942,88.003C136.942,88.003 137.08,87.568 137.149,87.35C139.882,78.79 143.301,70.438 147.578,62.999C161.461,38.848 187.153,23.518 204.459,15.42C205.267,15.042 206.825,14.333 206.825,14.333L186.599,15.273C186.599,15.273 185.856,15.686 185.482,15.897C170.121,24.569 152.882,38.173 140.834,59.005C137.374,64.987 134.486,71.203 132.077,77.452C131.955,77.769 131.714,78.404 131.714,78.404ZM121.462,63.974L127.074,71.471C127.074,71.471 131.958,59.62 135.033,54.272C142.799,40.762 159.693,23.87 170,19.084C171.052,18.595 171.432,17.982 171.432,17.982L149.924,23.66C149.924,23.66 134.457,39.614 128.289,50.278C125.708,54.741 121.462,63.974 121.462,63.974ZM110.635,51.392L116.459,57.859C116.459,57.859 120.252,49.434 122.487,45.545C125.861,39.676 134.411,29.478 134.411,29.478L118.891,36.444C118.891,36.444 116.758,39.798 115.744,41.551C113.88,44.774 110.635,51.392 110.635,51.392Z" style="fill:#589765;"/>
        <path d="M241.913,-32.004L237.588,-31.358L234.797,-30.203C234.797,-30.203 250.668,-23.712 274.167,9.501C298.034,43.234 308.327,64.608 311.243,71.17L315,70L317.33,69.065C312.512,59.143 300.813,36.988 279.159,6.36C261.824,-18.158 247.588,-28.516 241.913,-32.004ZM253.967,-33.794L253.912,-33.796L247.661,-32.862L245,-32.02C245,-32.02 261.552,-26.243 285.051,6.97C307.555,38.777 317.991,59.595 321.554,67.37L327.462,65C322.233,54.434 310.643,32.966 290.042,3.829C273.795,-19.15 260.271,-29.691 253.967,-33.794ZM229.808,-30.196L229.802,-30.196L226.801,-28.95L223,-27.014C223,-27.014 239.784,-21.181 263.284,12.033C275.349,29.086 283.946,42.98 289.873,53.4L298.142,60.952L303.842,66.395C297.944,54.924 286.722,34.982 268.275,8.891C249.515,-17.642 234.386,-27.592 229.808,-30.196ZM257.232,-33.73L257.122,-33.59C257.122,-33.59 272.436,-28.774 295.935,4.439C317.477,34.886 327.961,55.264 331.943,63.771L338.147,62.07C332.829,51.371 321.272,30.074 300.926,1.298C287.562,-17.604 276.04,-28.09 268.863,-33.5L257.232,-33.73ZM313.517,-22.117C318.033,-17.148 323.085,-10.929 328.587,-3.154C357.646,37.918 366.582,60.668 366.582,60.668L374.433,62.22C374.433,62.22 363.529,36.066 333.578,-6.295C332.043,-8.467 330.532,-10.527 329.046,-12.485C324.619,-15.7 319.548,-19.035 313.517,-22.117ZM273.345,-33.329C279.75,-29.254 291.558,-19.661 306.819,1.908C328.413,32.429 338.895,52.832 342.856,61.302L345,60.952L349.649,60.791C344.637,50.559 332.983,28.712 311.81,-1.233C301.523,-15.783 292.327,-25.346 285.366,-31.445C280.096,-32.392 275.153,-33.084 273.345,-33.329ZM291.829,-30.164C298.417,-24.551 307.25,-15.396 317.703,-0.623C341.076,32.411 351.43,53.593 354.588,60.619L361.556,60.377C357.225,51.276 345.463,28.439 322.694,-3.764C315.989,-13.247 309.748,-20.612 304.287,-26.28C302.17,-27.114 299.952,-27.909 297.624,-28.654C295.984,-29.179 293.981,-29.688 291.829,-30.164ZM220.869,-26.488L213.586,-23.465C213.586,-23.465 228.9,-18.65 252.4,14.564C258.101,22.622 263.028,29.975 267.267,36.594L272.843,39.77L279.34,44.764C273.575,35.268 266.331,24.067 257.391,11.422C240.751,-12.112 226.967,-22.6 220.869,-26.488ZM341.24,-3.171C354.805,16.197 363.778,31.315 369.402,41.695L356.225,14.333C356.225,14.333 347.925,1.738 341.969,-2.631C341.728,-2.808 341.485,-2.987 341.24,-3.171ZM212.01,-22.607L206.032,-19.349C211.748,-16.135 224.481,-6.981 241.516,17.095C243.579,20.011 245.541,22.835 247.405,25.564L258.558,31.632C254.939,26.114 250.931,20.21 246.507,13.954C231.509,-7.26 218.83,-17.873 212.01,-22.607ZM203.799,-18.132L198.075,-15.014L198.076,-15.013C204.622,-10.651 215.958,-1.049 230.413,19.318L239.717,22.343C238.397,20.431 237.031,18.476 235.623,16.485C222.406,-2.21 210.99,-12.672 203.799,-18.132Z" style="fill:#f7db6b;"/>
        <path d="M-13.418,13.538L-17.979,18.477C-17.979,18.477 -17.724,21.408 -17.543,21.674C10.803,63.158 21.254,110.401 22.761,117.781C22.853,118.233 24.97,139.303 26.633,152.081C26.757,153.033 34.442,159.971 34.442,159.971C34.442,159.971 30.673,119.522 30.427,117.74C28.841,106.243 20.704,60.362 -12.488,14.805C-12.796,14.383 -13.418,13.538 -13.418,13.538ZM2.256,9.775C2.256,9.775 -5.713,12.455 -4.916,13.538C26.623,56.326 38.029,107.857 39.608,115.592C39.741,116.243 42.87,140 42.87,140C42.87,140 45.578,138.908 46.879,139.192C48.067,139.452 49.967,138.178 49.967,138.178C49.967,138.178 47.521,117.333 47.275,115.551C45.67,103.921 37.363,57.106 3.195,11.033C2.884,10.614 2.256,9.775 2.256,9.775ZM-13.42,52.887L-10.59,68.126C-10.59,68.126 4.94,115.206 5.913,119.969C6.046,120.62 6.624,121.435 6.624,121.435C6.624,121.435 10.503,128.815 11.11,130C12.298,132.322 15,136.47 15,136.47C15,136.47 13.825,121.71 13.579,119.928C12.24,110.218 6.228,75.983 -15.605,38.13C-16.205,37.089 -13.42,52.887 -13.42,52.887ZM19.109,7.594C19.109,7.594 10.6,9.559 11.141,10.283C43.28,53.277 54.864,105.605 56.456,113.404C56.589,114.054 60,133.039 60,133.039C60,133.039 62.708,131.947 64.009,132.231C65.198,132.491 67.098,131.217 67.098,131.217C67.098,131.217 64.368,115.145 64.122,113.363C62.531,101.83 54.349,55.697 20.894,10C20.307,9.198 19.109,7.594 19.109,7.594ZM38.873,9.369L27.875,8.482C27.875,8.482 28.4,8.635 29.395,10C60.467,52.621 71.735,103.531 73.304,111.216C73.437,111.866 74.207,115.734 74.207,115.734C74.207,115.734 76.915,114.642 78.216,114.926C79.404,115.186 81.305,113.912 81.305,113.912C81.305,113.912 81.216,112.957 80.97,111.174C79.414,99.895 71.552,55.517 39.909,10.821C39.566,10.337 38.873,9.369 38.873,9.369ZM61.109,15L49.904,13.001C49.904,13.001 50.507,13.889 50.805,14.333C78.429,55.47 88.662,101.731 90.152,109.027C90.284,109.677 91.055,113.546 91.055,113.546C91.055,113.546 93.763,112.453 95.064,112.738C96.252,112.997 98.152,111.724 98.152,111.724C98.152,111.724 98.064,110.768 97.818,108.986C96.362,98.435 89.389,58.924 62.595,17.281C62.106,16.521 61.109,15 61.109,15ZM88.287,30L72.688,20C72.688,20 73.706,21.676 74.205,22.515C96.922,60.724 105.634,100.151 106.999,106.839C107.132,107.489 107.902,111.357 107.902,111.357C107.902,111.357 110.611,110.265 111.911,110.549C113.1,110.809 115,109.536 115,109.536C115,109.536 114.912,108.58 114.666,106.797C113.417,97.748 108.11,67.395 89.72,32.666C89.251,31.78 88.287,30 88.287,30ZM120.765,62.656L103.006,43.02C103.006,43.02 103.536,44.321 103.781,44.698C111.888,57.139 119.73,87.073 122.7,99.582C122.852,100.221 129.814,96.759 129.716,96.357C126.8,84.326 121.468,64.644 121.468,64.644L120.765,62.656Z" style="fill:#589765;"/>
        <path d="M-19.23,6.47C-15.066,6.869 -6.918,7.549 3.128,7.876C3.847,7.899 14.263,8.066 15,8.086C19.833,8.214 -1.878,11.357 -1.878,11.357C-1.878,11.357 -15.613,15.568 -18.185,15.367L-19.23,6.47ZM36.365,-5.936L29.958,-0.177C26.197,0.552 22.982,1.05 20.448,1.193C3.924,2.127 -11.246,1.246 -18.212,0.705L-11.509,-10.092C-3.524,-9.525 8.01,-8.969 20.448,-9.227C25.185,-9.325 32.153,-10.666 40.558,-12.476L36.365,-5.936ZM53.453,-32.587L46.001,-20.965C34.949,-18.463 25.831,-16.353 20.146,-16.032C9.384,-15.424 -0.804,-15.586 -8.526,-15.922L-3.795,-26.835C3.128,-26.492 11.414,-26.272 20.146,-26.452C27.187,-26.598 39.157,-29.49 53.453,-32.587ZM88.622,-52.265L71.863,-43.659C49.463,-39.625 29.598,-33.808 19.844,-33.257C12.351,-32.834 5.135,-32.784 -1.163,-32.906L3.543,-43.76C8.615,-43.613 14.134,-43.559 19.844,-43.678C34.83,-43.988 72.142,-56.738 106.698,-57.432L88.622,-52.265ZM10.951,-60.846C13.741,-60.827 16.616,-60.842 19.542,-60.903C35.916,-61.242 78.946,-76.433 115.907,-74.521C125.272,-74.036 134.419,-71.486 142.083,-68.563L141.291,-67.32L126.324,-63.042C122.833,-63.86 119.212,-64.426 115.547,-64.605C78.594,-66.406 35.514,-51.385 19.542,-50.483C14.971,-50.225 10.504,-50.105 6.283,-50.079L10.951,-60.846ZM17.147,-78.093C17.841,-78.102 18.539,-78.114 19.239,-78.128C35.614,-78.467 78.644,-93.658 115.604,-91.746C128.946,-91.056 141.845,-86.175 150.641,-81.994L145.054,-73.226C137.19,-77.144 126.415,-81.286 115.245,-81.83C78.292,-83.631 35.212,-68.611 19.239,-67.708C17.413,-67.605 15.603,-67.524 13.82,-67.463L17.147,-78.093ZM22.632,-95.619C41.127,-97.677 80.851,-110.754 115.302,-108.972C134.078,-108 151.977,-98.728 158.796,-94.792L153.082,-85.825C146.081,-90.143 130.916,-98.277 114.943,-99.055C78.263,-100.843 35.547,-86.057 19.295,-84.956L22.632,-95.619ZM40.739,-116.26C61.261,-120.73 89.567,-127.513 115,-126.197C138.91,-124.96 161.397,-110.263 161.397,-110.263L156.83,-100.387C156.83,-100.387 136.491,-115.216 114.641,-116.281C83.7,-117.789 48.464,-107.504 28.441,-103.588L40.739,-116.26Z" style="fill:#589765;"/>
    </g>
    <g id="kere">
        <g id="ker">
        </g>
        <g id="ker1" serif:id="ker">
        </g>
        <g id="ker2" serif:id="ker">
        </g>
        <g id="ker3" serif:id="ker">
            <path d="M133.58,28.273C133.423,27.427 133.498,26.74 133.498,25.812C133.498,20.688 135.891,16.496 139.064,16.445C140.075,16.429 140.907,16.359 141.639,16.837C143.8,18.248 145,21.984 145,25.812C145,26.695 145.14,26.08 145,26.963C145,26.963 139.82,28.772 138.103,28.724C136.584,28.682 133.58,28.273 133.58,28.273Z" style="fill:#3b7847;"/>
            <path d="M144.61,26.989C144.737,26.123 145,26.717 145,25.812C145,21.056 143.247,17.091 141,16.551C140.826,16.51 140.657,16.527 140.477,16.527C137.981,16.527 135.955,20.688 135.955,25.812C135.955,26.717 136.007,27.71 136.133,28.576C136.133,28.576 138.322,28.173 140.408,27.968C141.761,27.836 144.61,26.989 144.61,26.989Z" style="fill:#4db343;"/>
        </g>
        <g id="ker4" serif:id="ker">
            <path d="M146.782,23.704C146.6,22.726 146.687,21.931 146.687,20.857C146.687,14.925 149.456,10.073 153.13,10.015C154.3,9.997 155.262,9.915 156.109,10.468C158.611,12.101 160,16.426 160,20.857C160,21.878 160.14,20.876 159.978,21.898C159.978,21.898 153.485,23.062 151.498,23.007C149.74,22.958 146.782,23.704 146.782,23.704Z" style="fill:#3b7847;"/>
            <path d="M159.978,21.898C160.125,20.895 160,21.904 160,20.857C160,15.352 157.97,10.762 155.37,10.138C155.169,10.09 154.973,10.11 154.765,10.11C151.876,10.11 149.53,14.925 149.53,20.857C149.53,21.904 149.591,23.053 149.737,24.056C149.737,24.056 151.473,23.068 153.887,22.831C155.454,22.677 159.978,21.898 159.978,21.898Z" style="fill:#4db343;"/>
        </g>
        <g id="ker5" serif:id="ker">
            <path d="M157.991,19.843C157.834,18.997 157.909,18.311 157.909,17.383C157.909,12.258 160.302,8.066 163.475,8.016C164.486,8 165.318,7.93 166.05,8.407C168.211,9.818 169.411,13.555 169.411,17.383C169.411,18.265 169.369,18.975 169.229,19.858C169.229,19.858 164.231,20.343 162.514,20.295C160.995,20.253 157.991,19.843 157.991,19.843Z" style="fill:#3b7847;"/>
            <path d="M169.229,19.858C169.356,18.992 169.411,18.287 169.411,17.383C169.411,12.626 167.658,8.662 165.411,8.122C165.237,8.08 165.068,8.098 164.889,8.098C162.392,8.098 160.366,12.258 160.366,17.383C160.366,18.287 160.418,19.28 160.545,20.147C160.545,20.147 163.097,20.497 165.183,20.292C166.536,20.159 169.229,19.858 169.229,19.858Z" style="fill:#4db343;"/>
        </g>
        <g id="ker6" serif:id="ker">
            <path d="M151.009,88.657C150.852,87.811 150.927,87.125 150.927,86.197C150.927,81.072 153.32,76.88 156.493,76.83C157.504,76.814 158.336,76.743 159.068,77.221C161.229,78.632 162.429,82.368 162.429,86.197C162.429,87.079 162.387,87.789 162.247,88.672C162.247,88.672 157.249,89.157 155.532,89.109C154.013,89.066 151.009,88.657 151.009,88.657Z" style="fill:#3b7847;"/>
            <path d="M162.247,88.672C162.374,87.806 162.429,87.101 162.429,86.197C162.429,81.44 160.676,77.475 158.429,76.936C158.255,76.894 158.086,76.912 157.907,76.912C155.41,76.912 153.384,81.072 153.384,86.197C153.384,87.101 153.436,88.094 153.563,88.961C153.563,88.961 156.115,89.311 158.201,89.106C159.554,88.973 162.247,88.672 162.247,88.672Z" style="fill:#4db343;"/>
        </g>
        <g id="ker7" serif:id="ker">
        </g>
        <g id="ker8" serif:id="ker">
        </g>
        <g id="ker9" serif:id="ker">
        </g>
        <g id="ker10" serif:id="ker">
        </g>
        <g id="ker11" serif:id="ker">
            <path d="M167.234,86.268C166.969,84.844 166.886,83.081 166.886,81.518C166.886,72.89 170.915,65.832 176.258,65.747C177.96,65.72 179.36,65.602 180.593,66.406C184.232,68.782 186.252,75.073 186.252,81.518C186.252,83.004 186.181,84.199 185.945,85.686C185.945,85.686 177.532,86.407 174.64,86.421C172.187,86.434 167.234,86.268 167.234,86.268Z" style="fill:#3b7847;"/>
            <path d="M185.803,87.314C186.133,85.654 186.252,83.041 186.252,81.518C186.252,73.51 183.3,66.834 179.517,65.926C179.224,65.855 178.939,65.885 178.637,65.885C174.435,65.885 171.023,72.89 171.023,81.518C171.023,83.041 171.238,84.925 171.451,86.383C171.451,86.383 175.641,86.489 179.133,86.417C181.422,86.369 185.803,87.314 185.803,87.314Z" style="fill:#4db343;"/>
        </g>
        <g id="ker12" serif:id="ker">
            <path d="M-4.178,11.633C-4.443,10.209 -4.527,8.447 -4.527,6.884C-4.527,-1.744 -0.498,-8.802 4.846,-8.887C6.548,-8.914 7.948,-9.032 9.18,-8.228C12.82,-5.852 14.84,0.438 14.84,6.884C14.84,8.37 14.768,9.565 14.533,11.051C14.533,11.051 6.119,11.773 3.227,11.787C0.775,11.799 -4.178,11.633 -4.178,11.633Z" style="fill:#3b7847;"/>
            <path d="M14.598,10.617C14.929,8.956 14.84,8.407 14.84,6.884C14.84,-1.124 11.887,-7.8 8.105,-8.708C7.812,-8.779 7.527,-8.749 7.225,-8.749C3.022,-8.749 -0.39,-1.744 -0.39,6.884C-0.39,8.407 -0.175,10.29 0.039,11.749C0.039,11.749 4.148,10.597 7.639,10.524C9.928,10.477 14.598,10.617 14.598,10.617Z" style="fill:#4db343;"/>
        </g>
        <g id="ker13" serif:id="ker">
        </g>
        <g id="ker14" serif:id="ker">
        </g>
        <g id="ker15" serif:id="ker">
        </g>
        <g id="ker16" serif:id="ker">
        </g>
        <g id="ker17" serif:id="ker">
        </g>
        <g id="ker18" serif:id="ker">
        </g>
    </g>
    <g>
        <g>
            <g id="strom">
            </g>
            <g id="strom1" serif:id="strom">
            </g>
            <g id="strom2" serif:id="strom">
            </g>
            <g id="strom3" serif:id="strom">
            </g>
            <g id="strom4" serif:id="strom">
            </g>
            <g id="strom5" serif:id="strom">
            </g>
            <g id="strom6" serif:id="strom">
            </g>
            <g id="strom7" serif:id="strom">
            </g>
            <g id="strom8" serif:id="strom">
            </g>
            <g id="strom9" serif:id="strom">
            </g>
            <g id="strom10" serif:id="strom">
            </g>
            <g id="strom11" serif:id="strom">
            </g>
            <g id="strom12" serif:id="strom">
            </g>
            <g id="strom13" serif:id="strom">
            </g>
            <g id="strom14" serif:id="strom">
            </g>
        </g>
    </g>
    <g id="male-cesty" serif:id="male cesty">
        <path d="M-26.608,18.271C-25.005,18.183 -13.684,15.112 -11.513,14.471C69.602,-9.499 120.826,56.888 139.597,91.432" style="fill:none;stroke:#2d5836;stroke-width:4px;"/>
        <path d="M90,-53.643C148.479,-45.323 200.994,-19.044 220,15.273" style="fill:none;stroke:#2d5836;stroke-width:4px;stroke-linecap:round;"/>
        <path d="M-37.051,-125C-32.086,-126.311 25.901,-119.52 64.158,-129.422C174.27,-157.922 227.612,-55.266 255,-33.967" style="fill:none;stroke:#2d5836;stroke-width:4px;"/>
        <path d="M64.158,146.357C133.884,70.151 204.597,72.848 264.735,124.69C266.499,126.211 271.725,132.106 275,134.113" style="fill:none;stroke:#2d5836;stroke-width:4px;"/>
        <path d="M105,43.479C162.252,13.091 231.871,-9.143 303.948,66.869C305.267,68.261 315.876,76.805 320.592,83.024" style="fill:none;stroke:#2d5836;stroke-width:4px;"/>
        <path d="M195.479,-13.597C222.036,-35.498 269.931,-40.438 308.063,-25C341.402,-11.502 369.994,24.969 376.959,64.715" style="fill:none;stroke:#2d5836;stroke-width:4px;"/>
        <path d="M290.593,-207.865C212.883,-109.934 317.223,-110.644 343.325,-93.643C389.785,-63.382 365.814,-1.408 342.444,-2.156" style="fill:none;stroke:#2d5836;stroke-width:4px;"/>
        <g id="les">
        </g>
    </g>
    <g id="hory">
        <path id="hora" d="M115.025,104.648C188.603,103.996 237.99,176.511 237.99,176.511C237.99,176.511 203.204,196.698 170,204.682C164.225,206.071 158.172,209.203 108.978,205.35C76.749,202.826 56.998,171.432 56.998,171.432C56.998,171.432 34.025,105.366 115.025,104.648Z" style="fill:#8dcf86;"/>
        <path id="hora1" serif:id="hora" d="M110,104.777C89.199,122.556 109.256,205.237 108.445,205.328C81.677,208.334 34.581,175.286 32.919,168.962C28.656,152.753 41.184,115.051 110,104.777Z" style="fill:#3b7847;"/>
        <path id="hora2" serif:id="hora" d="M115.602,101.373C139.174,100.839 160.047,114.314 160,114.381C157.396,118.062 79.755,116.952 71.802,112.837C71.714,112.792 89.493,101.964 115.602,101.373Z" style="fill:#fff;"/>
    </g>
    <g id="ker19" serif:id="ker">
        <path d="M138.652,148.033C138.47,147.054 138.556,146.26 138.556,145.186C138.556,139.254 141.326,134.402 144.999,134.344C146.169,134.325 147.132,134.244 147.979,134.797C150.481,136.43 151.87,140.754 151.87,145.186C151.87,146.207 151.821,147.029 151.659,148.05C151.659,148.05 145.874,148.612 143.887,148.556C142.129,148.507 138.652,148.033 138.652,148.033Z" style="fill:#3b7847;"/>
        <path d="M151.659,148.05C151.805,147.048 151.87,146.232 151.87,145.186C151.87,139.68 149.84,135.091 147.24,134.467C147.038,134.418 146.842,134.439 146.635,134.439C143.746,134.439 141.4,139.254 141.4,145.186C141.4,146.232 141.46,147.382 141.607,148.384C141.607,148.384 144.561,148.79 146.975,148.553C148.542,148.399 151.659,148.05 151.659,148.05Z" style="fill:#4db343;"/>
    </g>
    <g id="ker20" serif:id="ker">
        <path d="M121.22,153.21C121.099,152.56 121.157,152.032 121.157,151.318C121.157,147.378 122.996,144.155 125.436,144.117C126.214,144.104 126.853,144.05 127.416,144.418C129.078,145.503 130,148.375 130,151.318C130,151.997 129.967,152.543 129.86,153.221C129.86,153.221 126.017,153.594 124.697,153.557C123.53,153.525 121.22,153.21 121.22,153.21Z" style="fill:#3b7847;"/>
        <path d="M129.86,153.221C129.957,152.555 130,152.014 130,151.318C130,147.661 128.652,144.613 126.925,144.198C126.791,144.166 126.661,144.18 126.523,144.18C124.604,144.18 123.046,147.378 123.046,151.318C123.046,152.014 123.086,152.777 123.183,153.443C123.183,153.443 125.145,153.713 126.749,153.555C127.789,153.453 129.86,153.221 129.86,153.221Z" style="fill:#4db343;"/>
    </g>
    <g id="ker21" serif:id="ker">
        <path d="M70.094,114.521C69.947,113.731 70.017,113.09 70.017,112.224C70.017,107.439 72.251,103.525 75.214,103.478C76.157,103.463 76.934,103.398 77.617,103.844C79.636,105.161 80.756,108.649 80.756,112.224C80.756,113.048 80.716,113.71 80.586,114.535C80.586,114.535 75.919,114.987 74.316,114.943C72.898,114.903 70.094,114.521 70.094,114.521Z" style="fill:#3b7847;"/>
        <path d="M80.435,117.757C80.553,116.948 80.756,113.068 80.756,112.224C80.756,107.783 79.119,104.081 77.021,103.577C76.859,103.538 76.701,103.555 76.533,103.555C74.203,103.555 72.31,107.439 72.31,112.224C72.31,113.068 72.208,114.561 72.326,115.37C72.326,115.37 74.52,117.301 76.468,117.11C77.732,116.986 80.435,117.757 80.435,117.757Z" style="fill:#4db343;"/>
    </g>
    <g id="strom15" serif:id="strom">
    </g>
    <g id="strom16" serif:id="strom">
    </g>
    <path d="M421.694,-428.643C385.296,-375.864 373.8,-405.525 316.051,-420.833C274.391,-431.877 226.63,-408.794 206.212,-374.718C186.529,-341.87 167.148,-306.563 147.147,-270.958C131.672,-243.41 124.225,-210.868 104.662,-189.103C92.837,-175.946 71.775,-161.008 58.032,-153.363C41.874,-144.374 35.91,-120.68 25.91,-109.554C21.865,-105.053 13.897,-102.584 11.403,-98.025C6.363,-88.812 8.293,-73.813 4.149,-64.591C-2.914,-48.875 -12.806,-19.996 -27.974,-11.558C-33.59,-8.434 -40.109,-9.995 -45.589,-6.947C-49.539,-4.749 -70.725,7.594 -74.605,7.594" style="fill:none;stroke:#065e7b;stroke-width:27.47px;stroke-linecap:round;"/>
    <path d="M409.98,-416.376C406.283,-406.851 395.302,-398.064 382.258,-396.767C360.518,-394.604 313.303,-432.081 271.65,-421.879C241.638,-414.528 220.123,-393.609 205.841,-370.936C185.467,-338.591 168.759,-303.265 148.773,-267.614C133.308,-240.029 122.381,-206.749 102.868,-184.956C91.073,-171.782 67.855,-156.448 54.168,-148.793C38.074,-139.792 36.362,-118.605 26.387,-107.464C22.352,-102.958 15.017,-101.697 12.524,-97.131C7.488,-87.907 7.658,-70.159 3.512,-60.924C-3.555,-45.188 -14.111,-17.756 -29.217,-9.307C-34.811,-6.179 -42.219,-7.194 -47.677,-4.141C-51.611,-1.941 -71.896,8.768 -80,11.357" style="fill:none;stroke:#73b3ce;stroke-width:9.33px;stroke-linecap:round;"/>
    <g id="ker22" serif:id="ker">
    </g>
    <g id="cesty-velke" serif:id="cesty velke">
        <path d="M120,-175C125.023,-175 132.503,-176.722 137.409,-175C157.071,-168.1 171.666,-146.092 172.255,-125.446C172.611,-112.94 168.732,-104.382 162.483,-93.643C154.903,-80.613 140.047,-71.183 126.992,-65.096C98.022,-51.587 62.731,-43.995 41.363,-17.915C27.537,-1.04 22.085,19.691 19.743,40.986C15.27,81.672 23.509,127.903 59.807,152.08" style="fill:none;stroke:#2d5836;stroke-width:18.67px;stroke-linecap:round;"/>
        <path d="M60,153.931C108.517,216.404 202.125,202.83 245,165C289.679,125.578 294.751,77.389 340,70C374.229,64.41 399.917,73.836 422.639,101.143C525.776,225.088 621.472,71.244 559.996,10.213C553.488,3.752 489.113,-72.425 560,-135.741C561.597,-137.167 578.263,-148.875 580,-150.287" style="fill:none;stroke:#2d5836;stroke-width:18.67px;stroke-linecap:round;"/>
        <path d="M110,116.244C110,116.244 96.667,118.5 90,118.128C84.191,117.804 70,114.057 70,114.057C70,114.057 64.301,117.37 61.728,119.164C59.113,120.988 54.309,125 54.309,125C54.309,125 64.061,134.927 92.274,135C124.38,135.083 135,116.609 135,116.609C135,116.609 125.598,116.603 122.265,116.577C118.098,116.545 110,116.244 110,116.244Z" style="fill:#2d5836;"/>
        <path d="M180.619,124.086C180.619,124.086 142.815,153.82 112.614,152.08C70.445,149.65 58.894,140 58.894,140C58.894,140 55.18,144.906 52.607,146.7C49.991,148.524 44.217,152.08 44.217,152.08C44.217,152.08 61.283,174 115,170C177.15,165.372 195.611,133.644 195.611,133.644C195.611,133.644 192.776,131.137 190,129.292C183.74,125.132 180.619,124.086 180.619,124.086Z" style="fill:#2d5836;"/>
    </g>
    <g id="strom17" serif:id="strom">
    </g>
    <g id="strom18" serif:id="strom">
    </g>
    <g id="strom19" serif:id="strom">
    </g>
    <g id="strom20" serif:id="strom">
    </g>
    <g id="stromy">
    </g>
    <g id="namesti">
    </g>
    <g id="smrky">
    </g>
    <g id="listnace">
    </g>
    <g id="lanoka">
    </g>
    <g id="strom21" serif:id="strom">
    </g>
    <g id="satelit">
    </g>
    <g id="domky">
        <g id="D1">
        </g>
        <g id="D7">
        </g>
        <g id="D71" serif:id="D7">
        </g>
        <g id="D72" serif:id="D7">
        </g>
        <g id="D73" serif:id="D7">
        </g>
        <g id="D74" serif:id="D7">
        </g>
        <g id="D75" serif:id="D7">
        </g>
        <g id="D76" serif:id="D7">
        </g>
        <g id="D77" serif:id="D7">
        </g>
        <g id="D78" serif:id="D7">
        </g>
        <g id="D79" serif:id="D7">
        </g>
        <g id="D710" serif:id="D7">
        </g>
        <g id="D711" serif:id="D7">
        </g>
        <g id="D712" serif:id="D7">
        </g>
        <g id="D713" serif:id="D7">
        </g>
        <g id="D714" serif:id="D7">
        </g>
        <g id="D715" serif:id="D7">
        </g>
        <g id="D716" serif:id="D7">
            <rect x="193.973" y="-3.706" width="12.844" height="17.313" style="fill:#d9d9d9;"/>
            <path d="M180.474,-3.706L187.168,-9.792L193.973,-3.706L193.973,13.607L180.474,13.607L180.474,-3.706Z" style="fill:#8c8c8c;"/>
            <rect x="183.949" y="0.804" width="6.55" height="6.55" style="fill:#595959;"/>
        </g>
        <g id="D2">
        </g>
        <g id="D21" serif:id="D2">
        </g>
        <g id="D10">
        </g>
        <g id="D101" serif:id="D10">
        </g>
        <g id="D102" serif:id="D10">
        </g>
        <g id="D01">
        </g>
    </g>
    <g id="strom22" serif:id="strom">
    </g>
    <g id="strom23" serif:id="strom">
    </g>
    <g id="staba">
    </g>
    <g id="chladici-vez" serif:id="chladici vez">
    </g>
    <g id="D22" serif:id="D2">
    </g>
    <g id="D5">
    </g>
    <g id="TOVANA">
    </g>
    <g id="strom24" serif:id="strom">
    </g>
    <g id="strom25" serif:id="strom">
    </g>
    <g id="panelaky">
        <g id="D6">
        </g>
        <g id="D3">
        </g>
        <g id="D9">
        </g>
        <g id="D91" serif:id="D9">
        </g>
        <g id="D92" serif:id="D9">
        </g>
        <g id="D93" serif:id="D9">
        </g>
        <g id="D717" serif:id="D7">
        </g>
    </g>
    <g id="strom26" serif:id="strom">
    </g>
    <g id="strom27" serif:id="strom">
    </g>
    <g id="letiste">
    </g>
    <g id="strom28" serif:id="strom">
    </g>
    <g id="strom29" serif:id="strom">
    </g>
    <g id="tunel-s-vlakem" serif:id="tunel s vlakem">
    </g>
    <g id="strom30" serif:id="strom">
    </g>
    <g id="hrad">
    </g>
    <g id="auta">
        <path d="M24.153,-2.436C26.628,-8.534 28.721,-13.451 33.27,-11.605C38.483,-9.49 35.894,-4.774 33.419,1.324C30.944,7.422 29.459,12.475 24.302,10.493C18.822,8.49 21.678,3.662 24.153,-2.436Z" style="fill:#f7db6b;"/>
        <path d="M164.849,138.706C170.512,135.288 175.148,132.595 177.254,137.03C179.668,142.112 174.802,144.321 169.139,147.739C163.477,151.157 159.192,154.352 156.735,149.415C154.057,144.255 159.187,142.124 164.849,138.706Z" style="fill:#589765;"/>
    </g>
    <g id="majak">
        <rect x="82.87" y="102.635" width="63.534" height="5"/>
        <path d="M146.134,102.635L82.87,102.635L98.686,91.942L130.318,91.942L146.134,102.635Z" style="fill:#f00;"/>
        <path d="M125,102.635L82.87,102.635L98.686,91.942L120.161,91.942L125,102.635Z" style="fill:#8c0008;"/>
        <path d="M107.721,91.942L105,102.635L82.87,102.635L98.686,91.942L107.721,91.942Z" style="fill:#8c0008;"/>
        <rect x="101.702" y="43.06" width="2.64" height="13.509" style="fill:#8c8c8c;"/>
        <rect x="113.161" y="46.12" width="2.64" height="13.509" style="fill:#fff;"/>
        <rect x="108.735" y="42.871" width="2.64" height="13.509" style="fill:#8c8c8c;"/>
        <rect x="117.669" y="42.871" width="2.64" height="13.509" style="fill:#b3b3b3;"/>
        <rect x="109.864" y="42.871" width="1.511" height="13.509" style="fill:#b3b3b3;"/>
        <rect x="118.817" y="42.871" width="1.491" height="13.509" style="fill:#d9d9d9;"/>
        <rect x="124.117" y="43.06" width="2.64" height="13.509" style="fill:#d9d9d9;"/>
        <path d="M126.716,56.03L101.716,56.03L101.716,91.942L130.318,91.942L126.716,56.03Z" style="fill:#b3b3b3;"/>
        <path d="M126.716,56.03L118.774,55.608L120.161,91.942L130.318,91.942L126.716,56.03Z" style="fill:#d9d9d9;"/>
        <path d="M109.823,56.03L101.661,56.03L98.686,91.942L107.721,91.942L109.823,56.03Z" style="fill:#8c8c8c;"/>
        <path d="M118.817,55.801L109.823,55.803L109.484,61.814L119.011,61.814L118.817,55.801Z" style="fill:#8c0008;"/>
        <path d="M126.798,55.721L118.817,55.801L119.011,61.814L127.296,61.814L126.798,55.721Z" style="fill:#f00;"/>
        <path d="M109.823,55.803L101.702,55.721L101.182,61.814L109.484,61.814L109.823,55.803Z" style="fill:#8c0008;"/>
        <path d="M119.215,67.172L109.284,67.096L108.911,73.189L119.445,73.189L119.215,67.172Z" style="fill:#8c0008;"/>
        <path d="M127.826,67.096L119.215,67.172L119.445,73.189L128.437,73.189L127.826,67.096Z" style="fill:#f00;"/>
        <path d="M119.649,78.539L108.526,78.462L108.153,84.555L119.879,84.555L119.649,78.539Z" style="fill:#8c0008;"/>
        <path d="M108.526,78.462L99.758,78.462L99.298,84.555L108.153,84.555L108.526,78.462Z" style="fill:#8c0008;"/>
        <path d="M128.965,78.453L119.649,78.539L119.879,84.555L129.577,84.555L128.965,78.453Z" style="fill:#f00;"/>
        <path d="M109.284,67.096L100.745,67.087L100.239,73.189L108.911,73.189L109.284,67.096Z" style="fill:#8c0008;"/>
        <rect x="101.757" y="35.488" width="25" height="8.042" style="fill:#d9d9d9;"/>
        <rect x="101.757" y="35.488" width="17.06" height="8.042" style="fill:#b3b3b3;"/>
        <rect x="101.702" y="35.488" width="8.162" height="8.042" style="fill:#8c8c8c;"/>
        <path d="M113.838,25L108.735,36.027L100,36.022L113.838,25Z" style="fill:#8c0008;"/>
        <path d="M113.838,25L108.735,36.027L128.04,36.022L113.838,25Z" style="fill:#8c0008;"/>
        <path d="M113.838,25L119.073,36.027L128.04,36.022L113.838,25Z" style="fill:#f00;"/>
    </g>
    <g id="vetrna-elektr" serif:id="vetrna elektr">
    </g>
    <g id="osrov-pokladu" serif:id="osrov pokladu">
    </g>
</svg>
