<svg xmlns="http://www.w3.org/2000/svg" xml:space="preserve" fill-rule="evenodd" stroke-linecap="round" stroke-linejoin="round" stroke-miterlimit="1.5" clip-rule="evenodd" viewBox="0 0 250 250"><path fill="none" d="M-500-750H500V250H-500z"/><path fill="#e2e1bf" d="M-346.3-142c-28.4-54-156-97-148.4-339.5 5-159 106-230.3 181.7-229.3 45.6.6 101.8 7.6 243 67.3 99 42 145.2 52.7 174 41.8 70.2-26.6 78.9-37.6 117.6-57.4 35.8-18.4 73-47 100.4-58 82.3-33 224.3 2.4 138 160-21.7 39.6-3 119.8-26.9 288.5-27 190-78.4 135.4-88.1 180-7 32.1 55.5 144.5 15 220-53 98.6-196.6 64.4-243 61.5-70-4.4-180.9 82-280 50-213.3-69-120.6-265.8-183.3-385Z"/><path fill="#589765" d="M-321-183.3c-48-26.4-127.8-54.8-159-198.6-30.8-142 33.5-287 159-322.3 41.3-11.6 127.3 7.5 260.4 62.2 93.4 38.3 136.9 48.1 164 38.2C169.5-628.2 292.7-701.3 360-707c50.3-4.2 127.7 20.3 95 118.6-3.2 9.5-14.7 41.6-15 56.7-2 82.5-15.4 249.5-27.5 314.2C390.4-99 295-148 322.9-68.6c22.8 64.7 54.7 159 2.1 210-83.2 80.5-182 20.8-207.2 19.3-66-4-194.5 78.5-288 49.4-93.6-29-110-177.1-107.4-226.2 2.6-49-4.7-146-43.4-167.2Z"/><path fill="#8dcf86" d="M-246-503.5c-30-42 7.8-199.4-117-134.3-77.8 40.6-129.1 175.6-105.2 257 69 234.4 197.6 136 200.8 242.3 5.4 179.2 2 301.1 120 329.6 50.4 12.1 141.6 1 178-63.4 19.3-34.1 97.8-106 172-28.2 22.5 23.5 58.9 32.5 84.5 10.5 28.2-24.3 22.6-64.8 7.2-85-22.4-29.6-46-64.7-36.7-108.3 21.2-98.3 79.8-62.5 100.5-107.9 44.4-97.2-160.1-135-230.5-74.1C35.8-186-161-384.3-246-503.5Z"/><path fill="#589765" d="m-170 169-1.3 7.9s49.3-28 90.4-28.8c26.2-.6 68 23.3 68 23.3l3.7-2.4 3.1-2.2s-42.8-27-74.8-26.6c-46.5.8-89 28.8-89 28.8Zm2-14.6-1.3 7.8s49.2-27.9 90.4-28.7c31.5-.7 77.3 30.1 77.3 30.1a289 289 0 0 0 5.5-4.5s-6.4-4.9-16.4-10.9c-16.5-9.9-42.9-23-66.4-22.6-46.6.8-89 28.8-89 28.8Zm2-14.7-1.4 8s49.3-28 90.4-28.9c36.6-.7 85.1 36.4 85.1 36.4l2.6-2.6 2-2.1S-32.7 110.3-77 111c-46.5.8-89 28.7-89 28.7Zm2-14.6-1.4 7.9s49.2-28 90.4-28.8c42.2-.9 91.3 42.2 91.3 42.2l2-2.6 1.7-2.2s-38.2-46.2-95-45.2c-46.6.7-89 28.7-89 28.7ZM13.8 124l5.9 5.6 1.7-1.9c10.7-11.2 23.8-21.3 23.8-21.3l22.1-20.9s-32.2 15.3-53 38l-.5.4ZM2.7 112.6c-2 2.4.8 2.9 2.4 4.1 1.6 1.3 1.8 3.4 3.8 1.1 20-22.4 59.7-38.4 59.7-38.4L64 73.6s-40.3 14.5-61.3 39Zm-14.5-6.3 6.9 4.2 1.6-1.8c21.2-23.5 52.3-35.5 61-38.5 1.5-.5-2-6.6-6.5-5.2A132.9 132.9 0 0 0-12 106.4Zm55.4-51.6-1.4.5a132.2 132.2 0 0 0-66.2 42l-1 1.3 6.7 4.4 1.3-1.5C8 72.8 47.5 60.7 47.5 60.7s-2-2-2.2-3c-.2-.7-1.3-2.3-1.8-3 .3-.2-.3-.2-.3-.2l.3.3ZM-40.2 93l7.9 2.8.8-1c22.5-27.4 59-40.5 65.4-42.6l2.5-1s-2-1.8-2.4-2.8l-.8-2.9s-44.9 9-73 46.8l-.4.7Zm-67.4-.7 8.9-1 .7-2.1a123 123 0 0 1 8.1-17.6c17.3-30 53-46.4 67.8-52.2l2.1-.8-13-3-1.7.7c-17.8 7-45 22-62 51.3-4.2 7.5-7.6 15.2-10.3 23l-.6 1.7Zm51.5-3.2 8.3 1.8 1.3-1.7c22.5-30 62.2-43.9 68.1-45.8l3.4-1.1s-2-2-2.3-3.1c-.2-1-2-2.4-2-2.4l-2.2.5C9 39.8-31 51.7-55.3 88l-.8 1.2Zm-16.6-2 8 2 1.5-2.6c21-33.7 64.9-49.4 72-51.8l3.9-1-8.8-4.6-.8.3c-13.9 4-52.8 18-74.6 55.7l-1.2 2Zm-17.4 1.2 9.1-1 .5-1c1-2 2-4 3.2-6C-59.2 48.9-32.8 39-4.5 25.7l1-.5-7.2-4-1.8.6c-15.9 5-51.2 19.5-71.6 54.8-2 3.5-3.9 7-5.5 10.7l-.5 1.2Zm-28.2-10 5.2 9.6.2-.7A126 126 0 0 1-102.4 63c13.9-24.2 39.6-39.5 56.9-47.6l2.3-1-20.2.9-1.1.6A117.7 117.7 0 0 0-118 77.5l-.4.9ZM-128.5 64l5.6 7.5s4.9-11.9 8-17.2C-107.3 40.8-90.4 23.9-80 19c1-.5 1.4-1.1 1.4-1.1l-21.5 5.7s-15.4 16-21.6 26.6c-2.6 4.4-6.8 13.7-6.8 13.7Zm-10.9-12.6 5.9 6.5s3.8-8.5 6-12.4c3.4-5.8 12-16 12-16l-15.6 7-3.2 5c-1.8 3.3-5 9.9-5 9.9Z"/><path fill="#f7db6b" d="m-8-32-4.4.6-2.8 1.2S.7-23.7 24.2 9.5a382.2 382.2 0 0 1 37 61.7L65 70l2.3-1c-4.8-9.9-16.5-32-38.1-62.6C11.8-18.2-2.4-28.6-8.1-32Zm12-1.8-6.3 1-2.7.8s16.6 5.8 40 39c22.6 31.8 33 52.6 36.6 60.4l5.9-2.4C72.2 54.4 60.6 33 40 3.8A141.7 141.7 0 0 0 4-33.8Zm-24.2 3.6-3 1.3L-27-27s16.8 5.8 40.3 39c12 17 20.6 31 26.6 41.4L48 61l5.7 5.4A488.9 488.9 0 0 0 18.3 8.9c-18.8-26.5-34-36.5-38.5-39.1Zm27.4-3.5v.1s15.2 4.8 38.7 38A411.5 411.5 0 0 1 82 63.8l6.2-1.7A481.2 481.2 0 0 0 51 1.3a155.3 155.3 0 0 0-32-34.8l-11.7-.2Zm56.3 11.6c4.5 5 9.6 11.2 15 19 29.1 41 38 63.8 38 63.8l8 1.5s-11-26.1-41-68.5L79-12.5A116 116 0 0 0 63.5-22ZM23.3-33.3c6.4 4 18.3 13.6 33.5 35.2a407 407 0 0 1 36 59.4L95 61l4.6-.2c-5-10.2-16.6-32-37.8-62a171.5 171.5 0 0 0-26.4-30.2c-5.3-1-10.2-1.7-12-2Zm18.5 3.1c6.6 5.6 15.5 14.8 25.9 29.6 23.4 33 33.7 54.2 36.9 61.2l7-.2a452 452 0 0 0-39-64.2 198.8 198.8 0 0 0-18.2-22.5 107.8 107.8 0 0 0-12.5-3.9Zm-71 3.7-7.2 3s15.3 4.9 38.8 38C8.1 22.7 13 30 17.3 36.6l5.5 3.3 6.5 5a532 532 0 0 0-22-33.4 140 140 0 0 0-36.3-38ZM91.3-3.2a467.2 467.2 0 0 1 28.2 44.9l-13.2-27.4S98 1.7 92-2.7l-.8-.5ZM-38-22.6l-6 3.3C-38.3-16.1-25.5-7-8.5 17l5.9 8.5 11.2 6-12-17.6A147.4 147.4 0 0 0-38-22.6Zm-8.2 4.5-5.7 3c6.5 4.4 17.9 14 32.3 34.4l9.3 3-4-5.8a156 156 0 0 0-31.9-34.6Z"/><path fill="#589765" d="m173.7 75.9-7.3 4-4.6-2.5 14.5-7.9-2.6 6.4Zm-21.1-3.6 31.4-17-5.1 7.8-21.7 11.7-4.6-2.5ZM203.2 35l-62 33.4 5.7 2 44.6-24.1 4.4-5 7.2-6V35Zm-73 29.4 72.5-39.2.6 4.6-67.8 36.7-5.1-1.8-.2-.3Zm72-44-74.3 40.2-2.2-3.8 75.8-41 .6 4.7Zm-1.7-9-76.6 41.3-1.6-4.1 77-41.6 1.2 4.3Zm-2.3-8.9-77.4 41.9-1.6-4.1L196-1.2l2.3 3.7Zm-5.4-8.7.7 1.2-75.9 41-1.5-4L191-8.7l1.8 2.4Zm-4.5-6-74.4 40.3-2.2-3.8 73.9-40 2.7 3.5Zm-5.6-7-73.2 39.6-2.2-3.8 72.2-39 3.2 3.2Zm-7.7-7.7 1.2 1.2-71 38.4-.2-.2-2.4-3.4 69.5-37.5L175-27Zm-7.5-4L100 5.4l-2.5-3.7 65.3-35.3 4.6 2.5ZM113-16.6l37.5-20.3 6.2 1.6L104.4-7l8-8.1.6-1.5Zm30.7-21.7-28.5 15.4 2.1-6 17.6-9.6 8.8.2Z"/><path fill="#3b7847" d="M100.3 60.5c-.2-1.4-.3-3.1-.3-4.7 0-8.6 4-15.7 9.4-15.8 1.7 0 3-.1 4.3.7 3.6 2.4 5.7 8.6 5.7 15a30 30 0 0 1-.3 4.3s-8.5.7-11.3.7l-7.5-.2Z"/><path fill="#4db343" d="M119 61.6c.2-1.7.4-4.3.4-5.8 0-8-3-14.7-6.8-15.6h-.8c-4.3 0-7.7 7-7.7 15.6 0 1.5.3 3.4.5 4.9h7.6c2.3 0 6.7.9 6.7.9Z"/><path fill="#3b7847" d="M70.4 67.4c-.3-1.8-.4-3.9-.4-5.8 0-10.5 4.9-19 11.4-19.1 2 0 3.7-.2 5.2.8 4.5 2.9 7 10.5 7 18.3 0 1.8-.2 3.3-.5 5 0 0-10.2 1-13.7 1l-9-.2Z"/><path fill="#4db343" d="M93 68.6c.4-2 .5-5.1.5-7 0-9.7-3.6-17.8-8.2-19h-1c-5.1 0-9.3 8.5-9.3 19 0 1.9.3 4.1.5 6H85c2.7-.1 8 1 8 1Z"/><path fill="#3b7847" d="M211.6 72.8c2.3 0 4.2-.2 5.8.9 4.9 3.2 7.6 11.6 7.6 20.3 0 9.1-3.5 19.4-9.4 20.9-1.8.4-2.1 0-3.6 0-7.2 0-13-9.4-13-21 0-11.5 5.4-21 12.6-21.1Z"/><ellipse cx="214.8" cy="94" fill="#4db343" rx="10.2" ry="21"/><path fill="none" stroke="#4c4c4c" stroke-width="4" d="M212 104v26"/><path fill="#3b7847" d="M238.3 95c1.8 0 3.3-.1 4.7.7 3.9 2.6 6 9.4 6 16.3 0 7.3-2.7 15.6-7.4 16.8-1.6.3-1.8 0-3 0-5.7 0-10.4-7.5-10.4-16.8s4.4-16.9 10.1-17Z"/><ellipse cx="240.9" cy="112" fill="#4db343" rx="8.2" ry="16.8"/><path fill="none" stroke="#4c4c4c" stroke-width="4" d="M238.6 120v21"/><path fill="none" stroke="#2d5836" stroke-linecap="butt" stroke-width="4" d="M-287-125c5-1.3 62.9 5.5 101.2-4.4C-75.8-158-22.4-55.3 5-34m-190.8 180.4c69.7-76.2 140.4-73.6 200.5-21.7 1.8 1.5 7 7.4 10.3 9.4m-170-90.6C-87.7 13-18.1-9.1 54 66.9c1.3 1.4 11.9 10 16.6 16.1"/><path fill="none" stroke="#2d5836" stroke-linecap="butt" stroke-width="4" d="M-54.5-13.6C-28-35.5 19.9-40.4 58-25c33.4 13.5 62 50 69 89.7"/><path fill="none" stroke="#2d5836" stroke-linecap="butt" stroke-width="4" d="M40.6-207.9c-77.7 98 26.6 97.3 52.7 114.3 46.5 30.2 22.5 92.2-.9 91.4"/><path fill="none" stroke="#2d5836" stroke-width="4" d="M171.7 91.4C168.4 46.4 244.2-8 300 9.8"/><path fill="none" stroke="#2d5836" stroke-width="4" d="M120-36.9c48.4-11.2 85.9 29.4 83 71.9"/><path fill="#8dcf86" d="M-135 104.6c73.6-.6 123 72 123 72s-34.8 20.1-68 28c-5.8 1.5-11.8 4.6-61 .8-32.3-2.6-52-34-52-34s-23-66 58-66.8Z"/><path fill="#296034" d="m149.5 15 12 50.9h-24l12-50.9Z"/><path fill="#4db343" d="m149.5 15 12 50.9h-15.2l3.2-50.9Z"/><path fill="none" stroke="#4c4c4c" stroke-width="4" d="M149.5 59.2v15.5"/><path fill="none" stroke="#065e7b" stroke-width="27.5" d="M171.7-428.6c-36.4 52.7-47.9 23-105.6 7.8-41.7-11-89.5 12-109.9 46-19.7 33-39 68.2-59 103.8-15.5 27.6-23 60.1-42.5 81.9a208.6 208.6 0 0 1-46.7 35.7c-16.1 9-22 32.7-32 43.8-4.1 4.5-12.1 7-14.6 11.6-5 9.2-3.1 24.2-7.3 33.4-7 15.7-17 44.6-32 53-5.7 3.2-12.2 1.6-17.7 4.7"/><path fill="none" stroke="#73b3ce" stroke-width="9.3" d="M160-416.4a33.9 33.9 0 0 1-27.7 19.6c-21.8 2.2-69-35.3-110.7-25-30 7.3-51.5 28.2-65.8 50.9-20.3 32.3-37 67.6-57 103.3-15.5 27.6-26.4 60.9-46 82.6-11.7 13.2-35 28.6-48.6 36.2-16.1 9-17.8 30.2-27.8 41.3-4 4.5-11.4 5.8-13.9 10.4-5 9.2-4.8 27-9 36.2-7 15.7-17.6 43.1-32.7 51.6-5.6 3.1-13 2.1-18.5 5.2L-312 3.4"/><path fill="#3b7847" d="M47.2 84.4c-.3-1.4-.4-3.2-.4-4.7 0-8.7 4-15.7 9.4-15.8 1.7 0 3.1-.1 4.4.7 3.6 2.3 5.6 8.6 5.6 15 0 1.6 0 2.8-.3 4.2 0 0-8.4.8-11.3.8l-7.4-.2Z"/><path fill="#4db343" d="M65.8 85.5c.3-1.7.4-4.3.4-5.8 0-8-3-14.7-6.7-15.6h-.9c-4.2 0-7.6 7-7.6 15.6 0 1.5.2 3.4.4 4.8h7.7c2.3 0 6.7 1 6.7 1Z"/><path fill="none" stroke="#2d5836" stroke-width="18.7" d="M-190 154c48.5 62.4 142.1 48.8 185 11 44.7-39.4 49.8-87.6 95-95 34.2-5.6 60 3.8 82.6 31.1 103.2 124 198.9-29.9 137.4-90.9-6.5-6.4-70.9-82.6 0-146 1.6-1.4 18.3-13 20-14.5"/><path fill="#d9d9d9" d="M84 81.3h12.8v17.3H84z"/><path fill="#beed9a" d="m77.2 75.2 12.6.2 7 5.9H84l-6.8-6Z"/><path fill="#8c8c8c" d="m70.5 81.3 6.7-6 6.8 6v17.3H70.5V81.3Z"/><path fill="#595959" d="M73.9 85.8h6.5v6.5h-6.5z"/><path fill="#d9d9d9" d="M218.9 22.7h12.8V40h-12.8z"/><path fill="#73b3ce" d="m212 16.6 12.8.2 7 5.9h-12.9l-6.8-6.1Z"/><path fill="#8c8c8c" d="m205.4 22.7 6.7-6.1 6.8 6V40h-13.5V22.7Z"/><path fill="#595959" d="M208.9 27.2h6.5v6.5h-6.5z"/><path fill="#d9d9d9" d="M110.8 120.8h12.8v17.3h-12.8z"/><path fill="#f88948" d="m104 114.7 12.7.2 7 5.9h-12.9l-6.8-6.1Z"/><path fill="#8c8c8c" d="m97.3 120.8 6.7-6.1 6.8 6v17.4H97.3v-17.3Z"/><path fill="#595959" d="M100.8 125.3h6.5v6.5h-6.5z"/><path fill="#8c8c8c" d="M43.7 107.7h12.8V125H43.7z"/><path fill="#0071a7" d="m63.3 101.6-12.7.2-7 5.9h12.9l6.8-6.1Z"/><path fill="#d9d9d9" d="m70 107.7-6.7-6.1-6.8 6V125H70v-17.3Z"/><path fill="#595959" d="M60 112.2h6.5v6.5H60z"/><path fill="#8c8c8c" d="M225 32.7h12.8V50H225z"/><path fill="#0071a7" d="m244.6 26.6-12.6.2-7 5.9h12.8l6.8-6.1Z"/><path fill="#d9d9d9" d="m251.3 32.7-6.7-6.1-6.8 6V50h13.5V32.7Z"/><path fill="#595959" d="M241.3 37.2h6.5v6.5h-6.5z"/><path fill="#589765" d="m220-53-30 .3L237-7c3.2 2.5 7.2 6.3 9.4 3.4L260-10c2.2-2.9-3.7-15.3-7-17.8L220-53Z"/><path fill="#3b7847" d="M190-52.7V-40c-1.2 1.6 10.4 9.6 13.3 11.8l28 16.8c2.9 2.2 11.5 9.2 12.8 7.6l1.2-3c1.2-1.6-2.2-13.8-5-16l-50.3-30Z"/><path fill="#065e7b" d="M248.5 145c6.5-.2 11.9-.3 12 4.6.1 5.7-5.2 5.2-11.8 5.3-6.6.1-11.8.8-12-4.7-.4-5.9 5.2-5.2 11.8-5.3Z"/><path fill="#73b3ce" d="M223.2 138.1c6.3 2.2 11.3 4 9.7 8.7-1.9 5.3-6.7 3-13 .8-6.2-2.2-11.3-3.4-9.6-8.7 1.8-5.5 6.7-3 13-.8Z"/></svg>