<?xml version="1.0" encoding="UTF-8" standalone="no"?>
<!DOCTYPE svg PUBLIC "-//W3C//DTD SVG 1.1//EN" "http://www.w3.org/Graphics/SVG/1.1/DTD/svg11.dtd">
<svg width="250px" height="250px" version="1.1" xmlns="http://www.w3.org/2000/svg" xmlns:xlink="http://www.w3.org/1999/xlink" xml:space="preserve" xmlns:serif="http://www.serif.com/" style="fill-rule:evenodd;clip-rule:evenodd;stroke-linecap:round;stroke-linejoin:round;stroke-miterlimit:1.5;">
    <rect id="Artboard" x="-500" y="-750" width="999.991" height="1000" style="fill:none;"/>
    <g id="background">
    </g>
    <path id="OSTROV" d="M-346.31,-142.009C-374.685,-195.957 -502.239,-239.03 -494.677,-481.538C-489.722,-640.443 -388.69,-711.829 -313.043,-710.805C-267.375,-710.186 -211.162,-703.187 -70.04,-643.467C29.062,-601.53 75.23,-590.82 103.907,-601.679C174.243,-628.314 182.87,-639.33 221.578,-659.138C257.384,-677.461 294.527,-706.154 321.957,-717.137C404.286,-750.1 546.284,-714.656 460,-557.045C438.336,-517.473 457.089,-437.326 433.144,-268.643C406.159,-78.539 354.682,-133.208 345,-88.643C338.009,-56.463 400.472,55.911 360,131.357C307.077,230.013 163.418,195.756 116.957,192.863C47.037,188.51 -63.903,274.886 -163.043,242.863C-376.293,173.984 -283.641,-22.858 -346.31,-142.009Z" style="fill:#e2e1bf;"/>
    <path id="OSTROV1" serif:id="OSTROV" d="M-321.049,-183.315C-369.073,-209.722 -448.806,-238.124 -480,-381.929C-510.788,-523.863 -446.46,-668.925 -321.049,-704.153C-279.659,-715.779 -193.661,-696.664 -60.642,-642.034C32.769,-603.671 76.287,-593.874 103.317,-603.808C169.613,-628.173 292.79,-701.346 360.084,-707.008C410.37,-711.238 487.811,-686.69 455.084,-588.398C451.933,-578.933 440.446,-546.796 440.084,-531.712C438.105,-449.155 424.692,-282.19 412.587,-217.523C390.392,-98.943 295.013,-147.922 322.916,-68.643C345.701,-3.904 377.605,90.415 325,141.357C241.849,221.881 143.03,162.249 117.784,160.724C51.879,156.742 -76.719,239.181 -170.253,210.149C-263.787,181.117 -280.278,33.003 -277.648,-16.074C-275.017,-65.151 -282.333,-162.027 -321.049,-183.315Z" style="fill:#589765;"/>
    <path d="M-246.095,-503.472C-276.075,-545.422 -238.196,-702.947 -362.908,-637.839C-440.841,-597.152 -492.123,-462.199 -468.168,-380.766C-399.223,-146.397 -270.558,-244.847 -267.365,-138.472C-261.985,40.746 -265.343,162.637 -147.365,191.087C-97.004,203.231 -5.758,192.058 30.608,127.748C49.945,93.552 128.434,21.669 202.635,99.46C225.115,123.028 261.478,132.035 287.055,110C315.287,85.677 309.653,45.206 294.345,25C271.902,-4.625 248.234,-39.742 257.635,-83.341C278.818,-181.574 337.367,-145.85 358.066,-191.17C402.476,-288.403 197.953,-326.2 127.635,-265.341C35.801,-185.861 -160.951,-384.331 -246.095,-503.472Z" style="fill:#8dcf86;"/>
    <g id="pole">
        <path d="M-169.929,169.005L-171.262,176.877C-171.262,176.877 -122.043,148.94 -80.852,148.085C-54.684,147.541 -12.9,171.357 -12.9,171.357C-12.9,171.357 -10.323,169.709 -9.185,168.957C-8.117,168.252 -6.07,166.845 -6.07,166.845C-6.07,166.845 -48.864,139.715 -80.852,140.247C-127.441,141.022 -169.929,169.005 -169.929,169.005ZM-167.979,154.375L-169.311,162.247C-169.311,162.247 -120.092,134.31 -78.901,133.455C-47.384,132.8 -1.649,163.602 -1.649,163.602C-1.649,163.602 0.777,161.706 1.699,160.95C2.443,160.341 3.887,159.069 3.887,159.069C3.887,159.069 -2.504,154.239 -12.485,148.249C-29.016,138.329 -55.397,125.226 -78.901,125.617C-125.49,126.392 -167.979,154.375 -167.979,154.375ZM-166.028,139.745L-167.36,147.617C-167.36,147.617 -118.141,119.68 -76.951,118.825C-40.446,118.067 8.126,155.153 8.126,155.153C8.126,155.153 9.917,153.41 10.676,152.632C11.369,151.921 12.678,150.484 12.678,150.484C12.678,150.484 -32.704,110.251 -76.951,110.987C-123.54,111.762 -166.028,139.745 -166.028,139.745ZM-164.077,125.115L-165.41,132.987C-165.41,132.987 -116.191,105.05 -75,104.195C-32.764,103.318 16.293,146.357 16.293,146.357C16.293,146.357 17.708,144.61 18.326,143.816C18.908,143.069 20,141.596 20,141.596C20,141.596 -18.228,95.413 -75,96.357C-121.589,97.132 -164.077,125.115 -164.077,125.115Z" style="fill:#589765;"/>
        <path d="M13.85,123.938L19.655,129.598C19.655,129.598 20.802,128.359 21.387,127.744C32.093,116.495 45.201,106.357 45.201,106.357L67.33,85.526C67.33,85.526 35.093,100.779 14.315,123.428C14.159,123.598 13.85,123.938 13.85,123.938ZM2.613,112.701C0.538,115.13 3.417,115.579 5,116.838C6.558,118.079 6.788,120.166 8.802,117.916C28.889,95.474 68.489,79.525 68.489,79.525L63.948,73.651C63.948,73.651 23.584,88.158 2.613,112.701ZM-11.911,106.357L-5,110.62C-5,110.62 -3.95,109.416 -3.415,108.824C17.938,85.2 49.115,73.162 57.729,70.16C59.194,69.65 55.622,63.638 51.151,65C38.227,68.936 10.399,79.787 -10.5,104.644C-10.974,105.208 -11.911,106.357 -11.911,106.357ZM43.474,54.759C43.323,54.88 42.945,55.043 42.143,55.258C31.413,58.137 -0.906,68.774 -24.07,97.154C-24.431,97.596 -25.146,98.494 -25.146,98.494L-18.366,102.859C-18.366,102.859 -17.513,101.853 -17.08,101.357C7.858,72.812 47.462,60.674 47.462,60.674C47.462,60.674 45.582,58.78 45.299,57.731C45.099,56.986 43.969,55.422 43.474,54.759C43.759,54.531 43.241,54.451 43.241,54.451C43.241,54.451 43.331,54.568 43.474,54.759ZM-40.221,93.096L-32.35,95.89C-32.35,95.89 -31.815,95.224 -31.544,94.895C-9.039,67.48 27.446,54.424 33.919,52.27C34.569,52.053 36.381,51.357 36.381,51.357C36.381,51.357 34.329,49.517 34.046,48.468C33.788,47.509 33.219,45.65 33.219,45.65C33.219,45.65 -11.652,54.567 -39.729,92.427C-39.893,92.649 -40.221,93.096 -40.221,93.096ZM-107.608,92.365L-98.719,91.357C-98.719,91.357 -98.224,89.974 -97.969,89.286C-95.688,83.127 -93.013,77.181 -89.877,71.726C-72.588,41.649 -36.982,25.253 -22.07,19.469C-21.327,19.181 -20,18.683 -20,18.683L-33.075,15.726C-33.075,15.726 -34.142,16.139 -34.688,16.357C-52.505,23.454 -79.689,38.456 -96.621,67.732C-100.917,75.16 -104.331,82.948 -107.042,90.712C-107.234,91.263 -107.608,92.365 -107.608,92.365ZM-56.081,89.18L-47.781,90.979C-47.781,90.979 -46.959,89.845 -46.54,89.286C-24.034,59.333 15.734,45.397 21.632,43.457C22.115,43.298 25,42.367 25,42.367C25,42.367 23.021,40.323 22.738,39.273C22.48,38.315 20.674,36.923 20.674,36.923C20.674,36.923 19.92,37.073 18.548,37.416C8.937,39.817 -31.031,51.695 -55.305,88.003C-55.566,88.393 -56.081,89.18 -56.081,89.18ZM-72.698,87.254L-64.786,89.18C-64.786,89.18 -63.766,87.443 -63.233,86.592C-42.152,52.896 1.68,37.195 8.83,34.815C9.479,34.599 12.678,33.737 12.678,33.737L3.887,29.245C3.887,29.245 3.343,29.396 3.054,29.478C-10.801,33.413 -49.692,47.427 -71.53,85.186C-71.927,85.872 -72.698,87.254 -72.698,87.254ZM-90.131,88.384L-80.985,87.441C-80.985,87.441 -80.638,86.717 -80.462,86.357C-79.473,84.337 -78.431,82.365 -77.332,80.453C-59.155,48.833 -32.801,39.038 -4.457,25.551C-3.796,25.236 -3.415,25.134 -3.415,25.134L-10.726,21.109C-10.726,21.109 -11.895,21.461 -12.527,21.659C-28.372,26.626 -63.669,41.175 -84.075,76.459C-86.115,79.985 -87.956,83.593 -89.617,87.241C-89.79,87.621 -90.131,88.384 -90.131,88.384ZM-118.286,78.404L-113.058,88.003C-113.058,88.003 -112.92,87.568 -112.851,87.35C-110.118,78.79 -106.699,70.438 -102.422,62.999C-88.539,38.848 -62.847,23.518 -45.541,15.42C-44.733,15.042 -43.175,14.333 -43.175,14.333L-63.401,15.273C-63.401,15.273 -64.144,15.686 -64.518,15.897C-79.879,24.569 -97.118,38.173 -109.166,59.005C-112.626,64.987 -115.514,71.203 -117.923,77.452C-118.045,77.769 -118.286,78.404 -118.286,78.404ZM-128.538,63.974L-122.926,71.471C-122.926,71.471 -118.042,59.62 -114.967,54.272C-107.201,40.762 -90.307,23.87 -80,19.084C-78.948,18.595 -78.568,17.982 -78.568,17.982L-100.076,23.66C-100.076,23.66 -115.543,39.614 -121.711,50.278C-124.292,54.741 -128.538,63.974 -128.538,63.974ZM-139.365,51.392L-133.541,57.859C-133.541,57.859 -129.748,49.434 -127.513,45.545C-124.139,39.676 -115.589,29.478 -115.589,29.478L-131.109,36.444C-131.109,36.444 -133.242,39.798 -134.256,41.551C-136.12,44.774 -139.365,51.392 -139.365,51.392Z" style="fill:#589765;"/>
        <path d="M-8.087,-32.004L-12.412,-31.358L-15.203,-30.203C-15.203,-30.203 0.668,-23.712 24.167,9.501C48.034,43.234 58.327,64.608 61.243,71.17L65,70L67.33,69.065C62.512,59.143 50.813,36.988 29.159,6.36C11.824,-18.158 -2.412,-28.516 -8.087,-32.004ZM3.967,-33.794L3.912,-33.796L-2.339,-32.862L-5,-32.02C-5,-32.02 11.552,-26.243 35.051,6.97C57.555,38.777 67.991,59.595 71.554,67.37L77.462,65C72.233,54.434 60.643,32.966 40.042,3.829C23.795,-19.15 10.271,-29.691 3.967,-33.794ZM-20.192,-30.196L-20.198,-30.196L-23.199,-28.95L-27,-27.014C-27,-27.014 -10.216,-21.181 13.284,12.033C25.349,29.086 33.946,42.98 39.873,53.4L48.142,60.952L53.842,66.395C47.944,54.924 36.722,34.982 18.275,8.891C-0.485,-17.642 -15.614,-27.592 -20.192,-30.196ZM7.232,-33.73L7.122,-33.59C7.122,-33.59 22.436,-28.774 45.935,4.439C67.477,34.886 77.961,55.264 81.943,63.771L88.147,62.07C82.829,51.371 71.272,30.074 50.926,1.298C37.562,-17.604 26.04,-28.09 18.863,-33.5L7.232,-33.73ZM63.517,-22.117C68.033,-17.148 73.085,-10.929 78.587,-3.154C107.646,37.918 116.582,60.668 116.582,60.668L124.433,62.22C124.433,62.22 113.529,36.066 83.578,-6.295C82.043,-8.467 80.532,-10.527 79.046,-12.485C74.619,-15.7 69.548,-19.035 63.517,-22.117ZM23.345,-33.329C29.75,-29.254 41.558,-19.661 56.819,1.908C78.413,32.429 88.895,52.832 92.856,61.302L95,60.952L99.649,60.791C94.637,50.559 82.983,28.712 61.81,-1.233C51.523,-15.783 42.327,-25.346 35.366,-31.445C30.096,-32.392 25.153,-33.084 23.345,-33.329ZM41.829,-30.164C48.417,-24.551 57.25,-15.396 67.703,-0.623C91.076,32.411 101.43,53.593 104.588,60.619L111.556,60.377C107.225,51.276 95.463,28.439 72.694,-3.764C65.989,-13.247 59.748,-20.612 54.287,-26.28C52.17,-27.114 49.952,-27.909 47.624,-28.654C45.984,-29.179 43.981,-29.688 41.829,-30.164ZM-29.131,-26.488L-36.414,-23.465C-36.414,-23.465 -21.1,-18.65 2.4,14.564C8.101,22.622 13.028,29.975 17.267,36.594L22.843,39.77L29.34,44.764C23.575,35.268 16.331,24.067 7.391,11.422C-9.249,-12.112 -23.033,-22.6 -29.131,-26.488ZM91.24,-3.171C104.805,16.197 113.778,31.315 119.402,41.695L106.225,14.333C106.225,14.333 97.925,1.738 91.969,-2.631C91.728,-2.808 91.485,-2.987 91.24,-3.171ZM-37.99,-22.607L-43.968,-19.349C-38.252,-16.135 -25.519,-6.981 -8.484,17.095C-6.421,20.011 -4.459,22.835 -2.595,25.564L8.558,31.632C4.939,26.114 0.931,20.21 -3.493,13.954C-18.491,-7.26 -31.17,-17.873 -37.99,-22.607ZM-46.201,-18.132L-51.925,-15.014L-51.924,-15.013C-45.378,-10.651 -34.042,-1.049 -19.587,19.318L-10.283,22.343C-11.603,20.431 -12.969,18.476 -14.377,16.485C-27.594,-2.21 -39.01,-12.672 -46.201,-18.132Z" style="fill:#f7db6b;"/>
        <path d="M173.744,75.887L166.436,79.838L161.849,77.351L176.286,69.545L173.744,75.887ZM152.593,72.331L184.022,55.339L178.873,63.091L157.18,74.819L152.593,72.331ZM203.154,34.972L141.245,68.443L146.869,70.37L191.476,46.253L195.885,41.357L203.144,35.266L203.154,34.972ZM130.18,64.401L202.714,25.186L203.313,29.83L135.521,66.481L130.367,64.715L130.18,64.401ZM202.105,20.46L127.902,60.577L125.663,56.819L201.507,15.815L202.105,20.46ZM200.455,11.328L123.884,52.726L122.337,48.594L199.332,6.967L200.455,11.328ZM198.189,2.53L120.762,44.39L119.215,40.259L195.889,-1.195L198.189,2.53ZM192.819,-6.166L193.549,-4.985L117.64,36.054L116.093,31.923L190.993,-8.571L192.819,-6.166ZM188.271,-12.155L113.884,28.061L111.713,24.267L185.596,-15.677L188.271,-12.155ZM182.692,-19.163L109.504,20.406L107.333,16.612L179.467,-22.387L182.692,-19.163ZM175,-26.854L176.185,-25.669L105.123,12.75L105,12.534L102.63,9.131L172.115,-28.436L175,-26.854ZM167.472,-30.982L100.071,5.458L97.558,1.849L162.91,-33.483L167.472,-30.982ZM113.027,-16.538L150.487,-36.79L156.749,-35.208L104.396,-6.904L112.492,-15L113.027,-16.538ZM143.749,-38.203L115.196,-22.766L117.326,-28.886L134.915,-38.395L143.749,-38.203Z" style="fill:#589765;"/>
    </g>
    <g id="kere">
        <g id="ker">
        </g>
        <g id="ker1" serif:id="ker">
        </g>
        <g id="ker2" serif:id="ker">
        </g>
        <g id="ker3" serif:id="ker">
        </g>
        <g id="ker4" serif:id="ker">
        </g>
        <g id="ker5" serif:id="ker">
        </g>
        <g id="ker6" serif:id="ker">
        </g>
        <g id="ker7" serif:id="ker">
        </g>
        <g id="ker8" serif:id="ker">
        </g>
        <g id="ker9" serif:id="ker">
        </g>
        <g id="ker10" serif:id="ker">
        </g>
        <g id="ker11" serif:id="ker">
        </g>
        <g id="ker12" serif:id="ker">
        </g>
        <g id="ker13" serif:id="ker">
        </g>
        <g id="ker14" serif:id="ker">
            <path d="M100.348,60.542C100.083,59.119 100,57.356 100,55.793C100,47.165 104.029,40.107 109.372,40.022C111.074,39.995 112.474,39.877 113.707,40.681C117.346,43.057 119.366,49.347 119.366,55.793C119.366,57.279 119.295,58.474 119.059,59.96C119.059,59.96 110.646,60.682 107.754,60.696C105.301,60.708 100.348,60.542 100.348,60.542Z" style="fill:#3b7847;"/>
            <path d="M118.917,61.589C119.247,59.929 119.366,57.316 119.366,55.793C119.366,47.785 116.414,41.109 112.631,40.201C112.338,40.13 112.053,40.16 111.752,40.16C107.549,40.16 104.137,47.165 104.137,55.793C104.137,57.316 104.352,59.199 104.565,60.658C104.565,60.658 108.755,60.764 112.247,60.691C114.536,60.644 118.917,61.589 118.917,61.589Z" style="fill:#4db343;"/>
        </g>
        <g id="ker15" serif:id="ker">
            <path d="M70.423,67.377C70.101,65.648 70,63.508 70,61.611C70,51.137 74.891,42.569 81.377,42.466C83.443,42.433 85.143,42.29 86.639,43.266C91.058,46.15 93.51,53.787 93.51,61.611C93.51,63.415 93.423,64.866 93.137,66.67C93.137,66.67 82.923,67.546 79.413,67.563C76.435,67.578 70.423,67.377 70.423,67.377Z" style="fill:#3b7847;"/>
            <path d="M92.964,68.648C93.365,66.632 93.51,63.46 93.51,61.611C93.51,51.89 89.926,43.786 85.334,42.683C84.978,42.598 84.632,42.634 84.266,42.634C79.164,42.634 75.022,51.137 75.022,61.611C75.022,63.46 75.283,65.747 75.542,67.517C75.542,67.517 80.628,67.646 84.867,67.558C87.646,67.5 92.964,68.648 92.964,68.648Z" style="fill:#4db343;"/>
        </g>
        <g id="ker16" serif:id="ker">
        </g>
        <g id="ker17" serif:id="ker">
        </g>
        <g id="ker18" serif:id="ker">
        </g>
    </g>
    <g>
        <g>
            <g id="strom">
            </g>
            <g id="strom1" serif:id="strom">
                <g>
                    <path d="M211.588,72.802C213.872,72.766 215.751,72.607 217.405,73.687C222.289,76.875 225,85.317 225,93.967C225,103.144 221.546,113.39 215.639,114.873C213.751,115.348 213.493,114.947 212.005,114.947C204.833,114.947 199.01,105.546 199.01,93.967C199.01,82.388 204.417,72.916 211.588,72.802Z" style="fill:#3b7847;"/>
                    <ellipse cx="214.781" cy="93.967" rx="10.219" ry="20.98" style="fill:#4db343;"/>
                </g>
                <path d="M212.005,104L212.005,130" style="fill:none;stroke:#4c4c4c;stroke-width:4px;"/>
            </g>
            <g id="strom2" serif:id="strom">
                <g>
                    <path d="M238.312,95.024C240.143,94.995 241.649,94.867 242.975,95.733C246.891,98.289 249.064,105.056 249.064,111.991C249.064,119.348 246.295,127.561 241.56,128.751C240.046,129.131 239.839,128.809 238.646,128.809C232.897,128.809 228.229,121.273 228.229,111.991C228.229,102.708 232.563,95.115 238.312,95.024Z" style="fill:#3b7847;"/>
                    <ellipse cx="240.872" cy="111.991" rx="8.192" ry="16.819" style="fill:#4db343;"/>
                </g>
                <path d="M238.646,120.034L238.646,140.877" style="fill:none;stroke:#4c4c4c;stroke-width:4px;"/>
            </g>
            <g id="strom3" serif:id="strom">
            </g>
            <g id="strom4" serif:id="strom">
            </g>
            <g id="strom5" serif:id="strom">
            </g>
            <g id="strom6" serif:id="strom">
            </g>
            <g id="strom7" serif:id="strom">
            </g>
            <g id="strom8" serif:id="strom">
            </g>
            <g id="strom9" serif:id="strom">
            </g>
            <g id="strom10" serif:id="strom">
            </g>
            <g id="strom11" serif:id="strom">
            </g>
            <g id="strom12" serif:id="strom">
            </g>
            <g id="strom13" serif:id="strom">
            </g>
            <g id="strom14" serif:id="strom">
            </g>
        </g>
    </g>
    <g id="male-cesty" serif:id="male cesty">
        <path d="M-287.051,-125C-282.086,-126.311 -224.099,-119.52 -185.842,-129.422C-75.73,-157.922 -22.388,-55.266 5,-33.967" style="fill:none;stroke:#2d5836;stroke-width:4px;stroke-linecap:butt;"/>
        <path d="M-185.842,146.357C-116.116,70.151 -45.403,72.848 14.735,124.69C16.499,126.211 21.725,132.106 25,134.113" style="fill:none;stroke:#2d5836;stroke-width:4px;stroke-linecap:butt;"/>
        <path d="M-145,43.479C-87.748,13.091 -18.129,-9.143 53.948,66.869C55.267,68.261 65.876,76.805 70.592,83.024" style="fill:none;stroke:#2d5836;stroke-width:4px;stroke-linecap:butt;"/>
        <path d="M-54.521,-13.597C-27.964,-35.498 19.931,-40.438 58.063,-25C91.402,-11.502 119.994,24.969 126.959,64.715" style="fill:none;stroke:#2d5836;stroke-width:4px;stroke-linecap:butt;"/>
        <path d="M40.593,-207.865C-37.117,-109.934 67.223,-110.644 93.325,-93.643C139.785,-63.382 115.814,-1.408 92.444,-2.156" style="fill:none;stroke:#2d5836;stroke-width:4px;stroke-linecap:butt;"/>
        <path d="M171.694,91.432C168.352,46.477 244.181,-8.029 300,9.775" style="fill:none;stroke:#2d5836;stroke-width:4px;"/>
        <path d="M120,-36.903C168.448,-48.058 205.861,-7.465 202.989,35" style="fill:none;stroke:#2d5836;stroke-width:4px;"/>
        <g id="les">
        </g>
    </g>
    <g id="hory">
        <path id="hora" d="M-134.975,104.648C-61.397,103.996 -12.01,176.511 -12.01,176.511C-12.01,176.511 -46.796,196.698 -80,204.682C-85.775,206.071 -91.828,209.203 -141.022,205.35C-173.251,202.826 -193.002,171.432 -193.002,171.432C-193.002,171.432 -215.975,105.366 -134.975,104.648Z" style="fill:#8dcf86;"/>
    </g>
    <g id="ker19" serif:id="ker">
    </g>
    <g id="ker20" serif:id="ker">
    </g>
    <g id="ker21" serif:id="ker">
    </g>
    <g id="strom15" serif:id="strom">
    </g>
    <g id="strom16" serif:id="strom">
    </g>
    <g>
        <path d="M149.513,15L161.478,65.852L137.548,65.852L149.513,15Z" style="fill:#296034;"/>
        <path d="M149.513,15L161.478,65.852L146.325,65.852L149.513,15Z" style="fill:#4db343;"/>
        <path d="M149.513,59.158L149.513,74.713" style="fill:none;stroke:#4c4c4c;stroke-width:4px;"/>
    </g>
    <path d="M171.694,-428.643C135.296,-375.864 123.8,-405.525 66.051,-420.833C24.391,-431.877 -23.37,-408.794 -43.788,-374.718C-63.471,-341.87 -82.852,-306.563 -102.853,-270.958C-118.328,-243.41 -125.775,-210.868 -145.338,-189.103C-157.163,-175.946 -178.225,-161.008 -191.968,-153.363C-208.126,-144.374 -214.09,-120.68 -224.09,-109.554C-228.135,-105.053 -236.103,-102.584 -238.597,-98.025C-243.637,-88.812 -241.707,-73.813 -245.851,-64.591C-252.914,-48.875 -262.806,-19.996 -277.974,-11.558C-283.59,-8.434 -290.109,-9.995 -295.589,-6.947C-299.539,-4.749 -320.725,7.594 -324.605,7.594" style="fill:none;stroke:#065e7b;stroke-width:27.47px;"/>
    <path d="M159.98,-416.376C156.283,-406.851 145.302,-398.064 132.258,-396.767C110.518,-394.604 63.303,-432.081 21.65,-421.879C-8.362,-414.528 -29.877,-393.609 -44.159,-370.936C-64.533,-338.591 -81.241,-303.265 -101.227,-267.614C-116.692,-240.029 -127.619,-206.749 -147.132,-184.956C-158.927,-171.782 -182.145,-156.448 -195.832,-148.793C-211.926,-139.792 -213.638,-118.605 -223.613,-107.464C-227.648,-102.958 -234.983,-101.697 -237.476,-97.131C-242.512,-87.907 -242.342,-70.159 -246.488,-60.924C-253.555,-45.188 -264.111,-17.756 -279.217,-9.307C-284.811,-6.179 -292.219,-7.194 -297.677,-4.141C-301.611,-1.941 -321.896,8.768 -330,11.357" style="fill:none;stroke:#73b3ce;stroke-width:9.33px;"/>
    <g id="ker22" serif:id="ker">
        <path d="M47.195,84.425C46.93,83.001 46.847,81.238 46.847,79.675C46.847,71.047 50.876,63.989 56.219,63.904C57.921,63.877 59.321,63.759 60.554,64.563C64.193,66.939 66.213,73.23 66.213,79.675C66.213,81.161 66.142,82.357 65.906,83.843C65.906,83.843 57.492,84.564 54.601,84.578C52.148,84.591 47.195,84.425 47.195,84.425Z" style="fill:#3b7847;"/>
        <path d="M65.764,85.472C66.094,83.811 66.213,81.198 66.213,79.675C66.213,71.667 63.261,64.991 59.478,64.083C59.185,64.013 58.9,64.042 58.598,64.042C54.396,64.042 50.984,71.047 50.984,79.675C50.984,81.198 51.199,83.082 51.412,84.54C51.412,84.54 55.602,84.647 59.094,84.574C61.383,84.526 65.764,85.472 65.764,85.472Z" style="fill:#4db343;"/>
    </g>
    <g id="cesty-velke" serif:id="cesty velke">
        <path d="M-190,153.931C-141.483,216.404 -47.875,202.83 -5,165C39.679,125.578 44.751,77.389 90,70C124.229,64.41 149.917,73.836 172.639,101.143C275.776,225.088 371.472,71.244 309.996,10.213C303.488,3.752 239.113,-72.425 310,-135.741C311.597,-137.167 328.263,-148.875 330,-150.287" style="fill:none;stroke:#2d5836;stroke-width:18.67px;"/>
    </g>
    <g id="strom17" serif:id="strom">
    </g>
    <g id="strom18" serif:id="strom">
    </g>
    <g id="strom19" serif:id="strom">
    </g>
    <g id="strom20" serif:id="strom">
    </g>
    <g id="stromy">
    </g>
    <g id="namesti">
    </g>
    <g id="smrky">
    </g>
    <g id="listnace">
    </g>
    <g id="lanoka">
    </g>
    <g id="strom21" serif:id="strom">
    </g>
    <g id="satelit">
    </g>
    <g id="domky">
        <g id="D1">
        </g>
        <g id="D7">
        </g>
        <g id="D71" serif:id="D7">
        </g>
        <g id="D72" serif:id="D7">
        </g>
        <g id="D73" serif:id="D7">
        </g>
        <g id="D74" serif:id="D7">
            <rect x="83.973" y="81.294" width="12.844" height="17.313" style="fill:#d9d9d9;"/>
            <path d="M77.168,75.208L89.845,75.422L96.817,81.294L83.973,81.294L77.168,75.208Z" style="fill:#beed9a;"/>
            <path d="M70.474,81.294L77.168,75.208L83.973,81.294L83.973,98.607L70.474,98.607L70.474,81.294Z" style="fill:#8c8c8c;"/>
            <rect x="73.949" y="85.804" width="6.55" height="6.55" style="fill:#595959;"/>
        </g>
        <g id="D75" serif:id="D7">
            <rect x="218.897" y="22.687" width="12.844" height="17.313" style="fill:#d9d9d9;"/>
            <path d="M212.092,16.6L224.77,16.815L231.741,22.687L218.897,22.687L212.092,16.6Z" style="fill:#73b3ce;"/>
            <path d="M205.398,22.687L212.092,16.6L218.897,22.687L218.897,40L205.398,40L205.398,22.687Z" style="fill:#8c8c8c;"/>
            <rect x="208.873" y="27.197" width="6.55" height="6.55" style="fill:#595959;"/>
        </g>
        <g id="D76" serif:id="D7">
            <rect x="110.81" y="120.783" width="12.844" height="17.313" style="fill:#d9d9d9;"/>
            <path d="M104.005,114.696L116.682,114.911L123.654,120.783L110.81,120.783L104.005,114.696Z" style="fill:#f88948;"/>
            <path d="M97.311,120.783L104.005,114.696L110.81,120.783L110.81,138.096L97.311,138.096L97.311,120.783Z" style="fill:#8c8c8c;"/>
            <rect x="100.786" y="125.293" width="6.55" height="6.55" style="fill:#595959;"/>
        </g>
        <g id="D77" serif:id="D7">
        </g>
        <g id="D78" serif:id="D7">
        </g>
        <g id="D79" serif:id="D7">
        </g>
        <g id="D710" serif:id="D7">
        </g>
        <g id="D711" serif:id="D7">
        </g>
        <g id="D712" serif:id="D7">
            <rect x="43.657" y="107.687" width="12.844" height="17.313" style="fill:#8c8c8c;"/>
            <path d="M63.306,101.6L50.628,101.815L43.657,107.687L56.501,107.687L63.306,101.6Z" style="fill:#0071a7;"/>
            <path d="M70,107.687L63.306,101.6L56.501,107.687L56.501,125L70,125L70,107.687Z" style="fill:#d9d9d9;"/>
            <rect x="59.975" y="112.197" width="6.55" height="6.55" style="fill:#595959;"/>
        </g>
        <g id="D713" serif:id="D7">
            <rect x="225" y="32.687" width="12.844" height="17.313" style="fill:#8c8c8c;"/>
            <path d="M244.649,26.6L231.972,26.815L225,32.687L237.844,32.687L244.649,26.6Z" style="fill:#0071a7;"/>
            <path d="M251.343,32.687L244.649,26.6L237.844,32.687L237.844,50L251.343,50L251.343,32.687Z" style="fill:#d9d9d9;"/>
            <rect x="241.319" y="37.197" width="6.55" height="6.55" style="fill:#595959;"/>
        </g>
        <g id="D714" serif:id="D7">
        </g>
        <g id="D715" serif:id="D7">
        </g>
        <g id="D716" serif:id="D7">
        </g>
        <g id="D2">
        </g>
        <g id="D21" serif:id="D2">
        </g>
        <g id="D10">
        </g>
        <g id="D101" serif:id="D10">
        </g>
        <g id="D102" serif:id="D10">
        </g>
        <g id="D01">
        </g>
    </g>
    <g id="strom22" serif:id="strom">
    </g>
    <g id="strom23" serif:id="strom">
    </g>
    <g id="staba">
    </g>
    <g id="chladici-vez" serif:id="chladici vez">
    </g>
    <g id="D22" serif:id="D2">
    </g>
    <g id="D5">
    </g>
    <g id="TOVANA">
    </g>
    <g id="strom24" serif:id="strom">
    </g>
    <g id="strom25" serif:id="strom">
    </g>
    <g id="panelaky">
        <g id="D6">
        </g>
        <g id="D3">
        </g>
        <g id="D9">
        </g>
        <g id="D91" serif:id="D9">
        </g>
        <g id="D92" serif:id="D9">
        </g>
        <g id="D93" serif:id="D9">
        </g>
        <g id="D717" serif:id="D7">
        </g>
    </g>
    <g id="strom26" serif:id="strom">
    </g>
    <g id="strom27" serif:id="strom">
    </g>
    <g id="letiste">
    </g>
    <g id="strom28" serif:id="strom">
    </g>
    <g id="strom29" serif:id="strom">
    </g>
    <g id="tunel-s-vlakem" serif:id="tunel s vlakem">
        <path d="M220,-53.015L190,-52.748L236.936,-7.013C240.157,-4.508 244.155,-0.71 246.383,-3.576L260,-10C262.228,-12.865 256.304,-25.273 253.083,-27.778L220,-53.015Z" style="fill:#589765;"/>
        <path d="M190,-52.748L190,-40C188.772,-38.421 200.42,-30.405 203.285,-28.178L231.313,-11.382C234.179,-9.154 242.845,-2.228 244.073,-3.807L245.277,-6.809C246.504,-8.388 243.077,-20.598 240.212,-22.826L190,-52.748Z" style="fill:#3b7847;"/>
    </g>
    <g id="strom30" serif:id="strom">
    </g>
    <g id="hrad">
    </g>
    <g id="auta">
        <path d="M248.456,144.905C255.036,144.761 260.38,144.735 260.487,149.643C260.61,155.268 255.254,154.759 248.675,154.903C242.095,155.047 236.867,155.685 236.644,150.165C236.312,144.34 241.877,145.049 248.456,144.905Z" style="fill:#065e7b;"/>
        <path d="M223.24,138.128C229.457,140.287 234.474,142.125 232.864,146.763C231.018,152.078 226.176,149.734 219.959,147.575C213.742,145.416 208.62,144.191 210.335,138.94C212.054,133.364 217.023,135.969 223.24,138.128Z" style="fill:#73b3ce;"/>
    </g>
    <g id="majak">
    </g>
    <g id="vetrna-elektr" serif:id="vetrna elektr">
    </g>
    <g id="osrov-pokladu" serif:id="osrov pokladu">
    </g>
</svg>
