<?xml version="1.0" encoding="UTF-8" standalone="no"?>
<!DOCTYPE svg PUBLIC "-//W3C//DTD SVG 1.1//EN" "http://www.w3.org/Graphics/SVG/1.1/DTD/svg11.dtd">
<svg width="250px" height="250px" version="1.1" xmlns="http://www.w3.org/2000/svg" xmlns:xlink="http://www.w3.org/1999/xlink" xml:space="preserve" xmlns:serif="http://www.serif.com/" style="fill-rule:evenodd;clip-rule:evenodd;stroke-linecap:round;stroke-linejoin:round;stroke-miterlimit:1.5;">
    <rect id="Artboard" x="-750" y="-749" width="999.991" height="1000" style="fill:none;"/>
    <clipPath id="_clip1">
        <rect x="-750" y="-749" width="999.991" height="1000"/>
    </clipPath>
    <g clip-path="url(#_clip1)">
        <g id="background">
        </g>
        <path id="OSTROV" d="M-596.31,-141.009C-624.685,-194.957 -752.239,-238.03 -744.677,-480.538C-739.722,-639.443 -638.69,-710.829 -563.043,-709.805C-517.375,-709.186 -461.162,-702.187 -320.04,-642.467C-220.938,-600.53 -174.77,-589.82 -146.093,-600.679C-75.757,-627.314 -67.13,-638.33 -28.422,-658.138C7.384,-676.461 44.527,-705.154 71.957,-716.137C154.286,-749.1 296.284,-713.656 210,-556.045C188.336,-516.473 207.089,-436.326 183.144,-267.643C156.159,-77.539 104.682,-132.208 95,-87.643C88.009,-55.463 150.472,56.911 110,132.357C57.077,231.013 -86.582,196.756 -133.043,193.863C-202.963,189.51 -313.903,275.886 -413.043,243.863C-626.293,174.984 -533.641,-21.858 -596.31,-141.009Z" style="fill:#e2e1bf;"/>
        <path id="OSTROV1" serif:id="OSTROV" d="M-571.049,-182.315C-619.073,-208.722 -698.806,-237.124 -730,-380.929C-760.788,-522.863 -696.46,-667.925 -571.049,-703.153C-529.659,-714.779 -443.661,-695.664 -310.642,-641.034C-217.231,-602.671 -173.713,-592.874 -146.683,-602.808C-80.387,-627.173 42.79,-700.346 110.084,-706.008C160.37,-710.238 237.811,-685.69 205.084,-587.398C201.933,-577.933 190.446,-545.796 190.084,-530.712C188.105,-448.155 174.692,-281.19 162.587,-216.523C140.392,-97.943 45.013,-146.922 72.916,-67.643C95.701,-2.904 127.605,91.415 75,142.357C-8.151,222.881 -106.97,163.249 -132.216,161.724C-198.121,157.742 -326.719,240.181 -420.253,211.149C-513.787,182.117 -530.278,34.003 -527.648,-15.074C-525.017,-64.151 -532.333,-161.027 -571.049,-182.315Z" style="fill:#589765;"/>
        <path d="M-496.095,-502.472C-526.075,-544.422 -488.196,-701.947 -612.908,-636.839C-690.841,-596.152 -742.123,-461.199 -718.168,-379.766C-649.223,-145.397 -520.558,-243.847 -517.365,-137.472C-511.985,41.746 -515.343,163.637 -397.365,192.087C-347.004,204.231 -255.758,193.058 -219.392,128.748C-200.055,94.552 -121.566,22.669 -47.365,100.46C-24.885,124.028 11.478,133.035 37.055,111C65.287,86.677 59.653,46.206 44.345,26C21.902,-3.625 -1.766,-38.742 7.635,-82.341C28.818,-180.574 87.367,-144.85 108.066,-190.17C152.476,-287.403 -52.047,-325.2 -122.365,-264.341C-214.199,-184.861 -410.951,-383.331 -496.095,-502.472Z" style="fill:#8dcf86;"/>
        <g id="pole">
        </g>
        <g id="kere">
        </g>
        <g>
            <g>
                <g id="strom">
                </g>
                <g id="strom1" serif:id="strom">
                </g>
                <g id="strom2" serif:id="strom">
                    <g>
                        <path d="M-11.688,96.024C-9.857,95.995 -8.351,95.867 -7.025,96.733C-3.109,99.289 -0.936,106.056 -0.936,112.991C-0.936,120.348 -3.705,128.561 -8.44,129.751C-9.954,130.131 -10.161,129.809 -11.354,129.809C-17.103,129.809 -21.771,122.273 -21.771,112.991C-21.771,103.708 -17.437,96.115 -11.688,96.024Z" style="fill:#3b7847;"/>
                        <ellipse cx="-9.128" cy="112.991" rx="8.192" ry="16.819" style="fill:#4db343;"/>
                    </g>
                </g>
                <g id="strom3" serif:id="strom">
                    <g>
                        <path d="M15.942,102.182C17.484,102.157 18.754,102.05 19.87,102.779C23.169,104.932 25,110.634 25,116.475C25,122.673 22.667,129.593 18.678,130.595C17.403,130.915 17.229,130.644 16.224,130.644C11.38,130.644 7.448,124.295 7.448,116.475C7.448,108.656 11.099,102.258 15.942,102.182Z" style="fill:#3b7847;"/>
                        <ellipse cx="18.098" cy="116.475" rx="6.902" ry="14.169" style="fill:#4db343;"/>
                    </g>
                    <path d="M16.224,123.251L16.224,140.811" style="fill:none;stroke:#4c4c4c;stroke-width:4px;"/>
                </g>
                <g id="strom4" serif:id="strom">
                    <g>
                        <path d="M43.075,83.544C44.77,83.517 46.165,83.399 47.393,84.2C51.018,86.567 53.03,92.833 53.03,99.254C53.03,106.066 50.467,113.671 46.082,114.772C44.681,115.124 44.489,114.826 43.385,114.826C38.061,114.826 33.739,107.848 33.739,99.254C33.739,90.659 37.752,83.628 43.075,83.544Z" style="fill:#3b7847;"/>
                        <ellipse cx="45.445" cy="99.254" rx="7.585" ry="15.573" style="fill:#4db343;"/>
                    </g>
                    <path d="M43.385,106.701L43.385,126" style="fill:none;stroke:#4c4c4c;stroke-width:4px;"/>
                </g>
                <g id="strom5" serif:id="strom">
                </g>
                <g id="strom6" serif:id="strom">
                </g>
                <g id="strom7" serif:id="strom">
                </g>
                <g id="strom8" serif:id="strom">
                </g>
                <g id="strom9" serif:id="strom">
                </g>
                <g id="strom10" serif:id="strom">
                </g>
                <g id="strom11" serif:id="strom">
                </g>
                <g id="strom12" serif:id="strom">
                </g>
                <g id="strom13" serif:id="strom">
                </g>
                <g id="strom14" serif:id="strom">
                </g>
            </g>
        </g>
        <g id="male-cesty" serif:id="male cesty">
            <path d="M-78.306,92.432C-81.648,47.477 -5.819,-7.029 50,10.775" style="fill:none;stroke:#2d5836;stroke-width:4px;"/>
            <g id="les">
            </g>
        </g>
        <g id="hory">
        </g>
        <g id="ker">
        </g>
        <g id="ker1" serif:id="ker">
        </g>
        <g id="ker2" serif:id="ker">
        </g>
        <g id="strom15" serif:id="strom">
        </g>
        <g id="strom16" serif:id="strom">
        </g>
        <g id="ker3" serif:id="ker">
        </g>
        <g id="cesty-velke" serif:id="cesty velke">
            <path d="M-440,154.931C-391.483,217.404 -297.875,203.83 -255,166C-210.321,126.578 -205.249,78.389 -160,71C-125.771,65.41 -100.083,74.836 -77.361,102.143C25.776,226.088 121.472,72.244 59.996,11.213C53.488,4.752 -10.887,-71.425 60,-134.741C61.597,-136.167 78.263,-147.875 80,-149.287" style="fill:none;stroke:#2d5836;stroke-width:18.67px;"/>
            <path d="M60,119.128L80,131" style="fill:none;stroke:#2d5836;stroke-width:18.67px;"/>
            <path d="M80,141C87.013,143.661 94.423,124.837 88.006,122.994C81.459,121.114 70.691,115.057 70.691,115.057C70.691,115.057 67,119.483 65,122.096C63.062,124.628 60,131 60,131C60,131 66.856,136.013 80,141Z" style="fill:#2d5836;"/>
        </g>
        <g id="strom17" serif:id="strom">
        </g>
        <g id="strom18" serif:id="strom">
        </g>
        <g id="strom19" serif:id="strom">
        </g>
        <g id="strom20" serif:id="strom">
        </g>
        <g id="stromy">
        </g>
        <g id="namesti">
        </g>
        <g id="smrky">
        </g>
        <g id="listnace">
        </g>
        <g id="lanoka">
        </g>
        <g id="strom21" serif:id="strom">
        </g>
        <g id="satelit">
        </g>
        <g id="domky">
            <g id="D1">
            </g>
            <g id="D7">
            </g>
            <g id="D71" serif:id="D7">
            </g>
            <g id="D72" serif:id="D7">
            </g>
            <g id="D73" serif:id="D7">
            </g>
            <g id="D74" serif:id="D7">
            </g>
            <g id="D75" serif:id="D7">
            </g>
            <g id="D76" serif:id="D7">
            </g>
            <g id="D77" serif:id="D7">
            </g>
            <g id="D78" serif:id="D7">
            </g>
            <g id="D79" serif:id="D7">
            </g>
            <g id="D710" serif:id="D7">
            </g>
            <g id="D711" serif:id="D7">
            </g>
            <g id="D712" serif:id="D7">
            </g>
            <g id="D713" serif:id="D7">
                <path d="M1.343,33.687L-5.351,27.6L-12.156,33.687L-12.156,51L1.343,51L1.343,33.687Z" style="fill:#d9d9d9;"/>
            </g>
            <g id="D714" serif:id="D7">
            </g>
            <g id="D715" serif:id="D7">
            </g>
            <g id="D716" serif:id="D7">
            </g>
            <g id="D2">
            </g>
            <g id="D21" serif:id="D2">
            </g>
            <g id="D10">
            </g>
            <g id="D101" serif:id="D10">
            </g>
            <g id="D102" serif:id="D10">
            </g>
            <g id="D01">
            </g>
        </g>
        <g id="strom22" serif:id="strom">
        </g>
        <g id="strom23" serif:id="strom">
        </g>
        <g id="staba">
        </g>
        <g id="chladici-vez" serif:id="chladici vez">
        </g>
        <g id="D22" serif:id="D2">
        </g>
        <g id="D5">
        </g>
        <g id="TOVANA">
        </g>
        <g id="strom24" serif:id="strom">
        </g>
        <g id="strom25" serif:id="strom">
        </g>
        <g id="panelaky">
            <g id="D6">
            </g>
            <g id="D3">
            </g>
            <g id="D9">
            </g>
            <g id="D91" serif:id="D9">
            </g>
            <g id="D92" serif:id="D9">
            </g>
            <g id="D93" serif:id="D9">
            </g>
            <g id="D717" serif:id="D7">
            </g>
        </g>
        <g id="strom26" serif:id="strom">
        </g>
        <g id="strom27" serif:id="strom">
        </g>
        <g id="letiste">
        </g>
        <g id="strom28" serif:id="strom">
        </g>
        <g id="strom29" serif:id="strom">
        </g>
        <g id="tunel-s-vlakem" serif:id="tunel s vlakem">
            <path d="M-30,-52.015L-60,-51.748L-13.064,-6.013C-9.843,-3.508 -5.845,0.29 -3.617,-2.576L10,-9C12.228,-11.865 6.304,-24.273 3.083,-26.778L-30,-52.015Z" style="fill:#589765;"/>
            <path d="M-60,-51.748L-60,-39C-61.228,-37.421 -49.58,-29.405 -46.715,-27.178L-18.687,-10.382C-15.821,-8.154 -7.155,-1.228 -5.927,-2.807L-4.723,-5.809C-3.496,-7.388 -6.923,-19.598 -9.788,-21.826L-60,-51.748Z" style="fill:#3b7847;"/>
        </g>
        <g id="strom30" serif:id="strom">
            <path d="M17.043,-13.78L17.043,7.218" style="fill:none;stroke:#4c4c4c;stroke-width:4px;"/>
        </g>
        <path d="M20,5.742C17.571,5.659 14.392,6.036 13.423,6.633C13.21,6.764 13.636,9.713 13.636,9.713L20.13,9.181C20.13,9.181 20.262,5.751 20,5.742Z" style="fill:#2d5836;"/>
        <g id="hrad">
        </g>
        <g id="auta">
            <path d="M-1.544,145.905C5.036,145.761 10.38,145.735 10.487,150.643C10.61,156.268 5.254,155.759 -1.325,155.903C-7.905,156.047 -13.133,156.685 -13.356,151.165C-13.688,145.34 -8.123,146.049 -1.544,145.905Z" style="fill:#065e7b;"/>
            <path d="M23.895,141.446C30.065,139.157 35.106,137.384 36.814,141.987C38.77,147.262 33.543,148.533 27.373,150.822C21.202,153.11 16.471,155.424 14.454,150.281C12.234,144.885 17.724,143.735 23.895,141.446Z" style="fill:#73b3ce;"/>
        </g>
        <g id="majak">
        </g>
        <g id="vetrna-elektr" serif:id="vetrna elektr">
        </g>
        <g id="osrov-pokladu" serif:id="osrov pokladu">
            <path d="M175.797,94.714C212.384,99.067 186.115,109.573 201.132,118.828C218.866,129.758 247.87,140.886 241.976,163.352C238.05,178.317 206.793,228.387 192.638,227.534C178.546,226.685 171.753,226.969 158.733,227.303C139.363,227.8 124.328,240.173 105,232.578C68.543,218.253 83.236,198.807 104.173,170.776C112.536,159.58 114.164,130.114 127.817,112.474C138.857,98.211 161.07,92.961 175.797,94.714Z" style="fill:#e2e1bf;"/>
            <path d="M175.124,100.705C206.617,103.161 184.714,113.245 198.027,120.745C213.75,129.602 239.115,138.222 235.245,157.962C232.667,171.112 209.016,219.695 196.963,220.946C173.522,223.38 171.901,215.071 157.947,220.946C131.734,231.983 101.43,194.536 117.866,169.414C124.431,159.38 124.292,133.709 135.043,117.882C143.737,105.085 162.447,99.716 175.124,100.705Z" style="fill:#589765;"/>
            <path d="M159.701,100.159C168.253,98.75 180.474,100.804 180.314,100.846C157.853,106.817 152.663,126.335 148.811,146.08C142.711,177.341 122.663,158.909 120,196C118.321,219.392 155.617,221.451 155.121,221.527C96.239,230.521 97.166,194.354 117.903,168.983C125.492,159.698 124.329,133.278 135.081,117.451C143.774,104.653 146.383,102.352 159.701,100.159Z" style="fill:#3b7847;"/>
            <path d="M174.716,105.326C189.86,105.698 191.861,117.525 190,120.513C188.76,122.504 173.257,120.111 166.546,121C153.941,122.671 146.931,116.615 147.181,115.728C148.131,112.356 150.271,110.323 155.441,107.926C159.622,105.989 168.62,105.176 174.716,105.326Z" style="fill:#8dcf86;"/>
            <path d="M159.119,106.802C159.566,106.744 155.503,107.513 155,115.35C154.725,119.631 159.144,120.958 158.126,121C150.815,121.302 143.926,117.484 145.868,115.164C148.117,112.478 150.895,107.87 159.119,106.802Z" style="fill:#589765;"/>
            <path d="M199.719,118.003L208.398,113.721L214.124,113.721L219.85,118.003L225.575,176.705L180.316,176.705L199.719,118.003Z" style="fill:#d9d9d9;"/>
            <path d="M199.719,118.003L208.398,113.721L214.124,113.721L202.672,119.762L196.946,176.705L180.316,176.705L199.719,118.003Z" style="fill:#b3b3b3;"/>
            <path d="M200.382,119.447L209.061,115.164L214.787,115.164L218.704,118.301L217.559,121.737L213.551,120.019L213.551,132.616L209.543,120.019L204.39,120.019L200.382,119.447Z" style="fill:#8c8c8c;"/>
            <path d="M188.873,150.816L191.221,150.223L195.801,141.777L196.946,148.776L199.719,148.076L208.398,136.624L214.124,156.963L216.765,142.35L219.85,148.076L222.224,142.35L225.575,176.705L180.316,176.705L188.873,150.816Z" style="fill:#8dcf86;"/>
            <path d="M188.873,150.816L191.221,150.223L195.801,141.777L196.946,148.776L199.719,148.076L195.774,168.116L206.68,158.382L211.261,176.705L191.221,188.156L177.165,188.156L174.043,176.705L156.866,176.705L184.101,165.253L188.873,150.816Z" style="fill:#3b7847;"/>
            <path d="M129.204,137.722C144.899,138.358 161.813,134.551 165,146C169.979,163.888 156.697,166.553 145.414,170.979C121.967,180.176 130.582,198.586 139.689,205.334C146.67,210.506 182.784,220.497 199.809,184.434" style="fill:none;stroke:#f00;stroke-width:4px;stroke-dasharray:16,16,0,0;stroke-dashoffset:4;"/>
            <path d="M198.378,165.253L199.237,177.85L200.382,173.904L201.615,181.285L202.386,181.858L195.801,185.539L194.084,186.52L194.656,178.422L198.378,165.253Z" style="fill:#595959;"/>
            <path d="M205.535,183.947L197.903,186.668L194.575,179.567L201.445,193.882L197.903,186.668L189.898,189.401" style="fill:none;stroke:#f00;stroke-width:4px;"/>
            <g>
                <path d="M156.437,221.062L151.258,201.022" style="fill:none;stroke:#4c4c4c;stroke-width:4px;"/>
                <path d="M165,200.449C165,198.868 161.796,197.586 157.843,197.586C153.89,197.586 150.686,198.868 150.686,200.449L165,200.449Z" style="fill:#4db343;"/>
                <path d="M150.686,200.449C149.065,199.273 146.33,200.276 144.577,202.691C142.823,205.105 142.716,208.017 144.337,209.194L150.686,200.449Z" style="fill:#4db343;"/>
                <path d="M157.955,193.033C156.861,191.978 154.396,192.758 152.451,194.776C150.506,196.793 149.816,199.284 150.911,200.34L157.955,193.033Z" style="fill:#4db343;"/>
                <path d="M150.781,200.663C151.439,198.011 148.973,195.118 145.273,194.2C141.573,193.282 138.041,194.688 137.383,197.339L150.781,200.663Z" style="fill:#4db343;"/>
            </g>
            <g>
                <path d="M148.463,105.725L143.97,88.339" style="fill:none;stroke:#4c4c4c;stroke-width:4px;"/>
                <path d="M155.892,87.842C155.892,86.47 153.112,85.358 149.682,85.358C146.253,85.358 143.473,86.47 143.473,87.842L155.892,87.842Z" style="fill:#4db343;"/>
                <path d="M143.473,87.842C142.067,86.821 139.694,87.692 138.173,89.787C136.652,91.882 136.559,94.407 137.965,95.428L143.473,87.842Z" style="fill:#4db343;"/>
                <path d="M149.78,81.408C148.83,80.493 146.692,81.169 145.004,82.92C143.317,84.67 142.719,86.831 143.668,87.747L149.78,81.408Z" style="fill:#4db343;"/>
                <path d="M143.556,88.028C144.127,85.727 141.987,83.217 138.777,82.42C135.567,81.624 132.503,82.844 131.932,85.144L143.556,88.028Z" style="fill:#4db343;"/>
            </g>
            <g>
                <path d="M192.358,217.624L195.794,204.328" style="fill:none;stroke:#4c4c4c;stroke-width:4px;"/>
                <path d="M186.677,203.949C186.677,202.9 188.803,202.049 191.426,202.049C194.048,202.049 196.174,202.9 196.174,203.949L186.677,203.949Z" style="fill:#4db343;"/>
                <path d="M196.174,203.949C197.25,203.168 199.064,203.834 200.227,205.436C201.39,207.038 201.462,208.969 200.386,209.75L196.174,203.949Z" style="fill:#4db343;"/>
                <path d="M191.351,199.028C192.078,198.328 193.712,198.846 195.003,200.184C196.294,201.523 196.751,203.176 196.025,203.876L191.351,199.028Z" style="fill:#4db343;"/>
                <path d="M196.111,204.09C195.674,202.331 197.31,200.411 199.765,199.802C202.22,199.194 204.564,200.126 205,201.885L196.111,204.09Z" style="fill:#4db343;"/>
            </g>
            <g>
                <path d="M179.639,188.156L186.532,161.483" style="fill:none;stroke:#4c4c4c;stroke-width:4px;"/>
                <path d="M168.241,160.72C168.241,158.616 172.507,156.91 177.768,156.91C183.029,156.91 187.294,158.616 187.294,160.72L168.241,160.72Z" style="fill:#4db343;"/>
                <path d="M187.294,160.72C189.451,159.154 193.092,160.49 195.425,163.704C197.758,166.918 197.901,170.793 195.744,172.359L187.294,160.72Z" style="fill:#4db343;"/>
                <path d="M177.618,150.85C179.075,149.445 182.355,150.483 184.944,153.169C187.533,155.854 188.451,159.17 186.994,160.574L177.618,150.85Z" style="fill:#4db343;"/>
                <path d="M187.166,161.005C186.291,157.476 189.573,153.624 194.498,152.403C199.423,151.181 204.125,153.052 205,156.581L187.166,161.005Z" style="fill:#4db343;"/>
            </g>
            <g>
                <path d="M155.447,102.395L155.334,80.978" style="fill:none;stroke:#4c4c4c;stroke-width:4px;"/>
                <path d="M169.265,83.889C169.666,82.303 166.776,80.205 162.811,79.202C158.846,78.199 155.306,78.672 154.905,80.258L169.265,83.889Z" style="fill:#4db343;"/>
                <path d="M154.905,80.258C153.578,78.667 150.58,78.98 148.209,80.958C145.838,82.935 144.991,85.828 146.319,87.42L154.905,80.258Z" style="fill:#4db343;"/>
                <path d="M164.079,74.663C163.249,73.327 160.579,73.484 158.115,75.015C155.652,76.545 154.329,78.869 155.159,80.206L164.079,74.663Z" style="fill:#4db343;"/>
                <path d="M154.947,80.497C156.28,78.004 154.54,74.476 151.061,72.617C147.582,70.758 143.682,71.271 142.35,73.764L154.947,80.497Z" style="fill:#4db343;"/>
            </g>
            <path d="M158.605,220.26C156.125,221.203 154.538,221.805 154.538,221.805L155.111,225.727L158.733,224.657C158.733,224.657 158.653,220.241 158.605,220.26Z" style="fill:#e2e1bf;"/>
            <path d="M176.419,188.169C177.194,189.288 177.633,192.563 177.633,192.563L184.355,191.66L182.631,188.156C182.631,188.156 176.387,188.123 176.419,188.169Z" style="fill:#589765;"/>
            <g id="strom31" serif:id="strom">
                <g>
                    <path d="M166.255,67.216C167.582,67.195 168.673,67.103 169.633,67.73C172.469,69.581 174.043,74.483 174.043,79.506C174.043,84.835 172.038,90.784 168.608,91.645C167.512,91.921 167.362,91.688 166.498,91.688C162.333,91.688 158.952,86.229 158.952,79.506C158.952,72.783 162.092,67.282 166.255,67.216Z" style="fill:#3b7847;"/>
                    <ellipse cx="168.11" cy="79.506" rx="5.934" ry="12.182" style="fill:#4db343;"/>
                </g>
                <path d="M166.498,85.331L166.498,100.428" style="fill:none;stroke:#4c4c4c;stroke-width:4px;"/>
            </g>
            <g>
                <path d="M232.414,146.385L237.62,126.239" style="fill:none;stroke:#4c4c4c;stroke-width:4px;"/>
                <path d="M223.806,125.663C223.806,124.073 227.027,122.785 231.001,122.785C234.975,122.785 238.196,124.073 238.196,125.663L223.806,125.663Z" style="fill:#4db343;"/>
                <path d="M238.196,125.663C239.825,124.48 242.575,125.489 244.337,127.916C246.1,130.344 246.208,133.271 244.578,134.454L238.196,125.663Z" style="fill:#4db343;"/>
                <path d="M230.888,118.208C231.988,117.147 234.466,117.931 236.421,119.959C238.377,121.987 239.07,124.492 237.97,125.553L230.888,118.208Z" style="fill:#4db343;"/>
                <path d="M238.1,125.878C237.438,123.212 239.918,120.303 243.637,119.381C247.357,118.458 250.908,119.871 251.569,122.536L238.1,125.878Z" style="fill:#4db343;"/>
            </g>
            <path d="M226.778,143.5C227.721,145.55 232.583,151.106 232.583,151.106C232.583,151.106 234.841,148.918 234.653,147.583C234.323,145.244 230.507,140.676 230.507,140.676C230.507,140.676 226.739,143.415 226.778,143.5Z" style="fill:#589765;"/>
            <path d="M145.465,104.968C145.439,104.988 147.565,109.173 147.565,109.173L169.124,102.269L169.199,99.712C162.522,99.577 151.977,100.016 145.465,104.968Z" style="fill:#3b7847;"/>
            <g>
                <path d="M181.673,189.625C181.576,189.104 181.553,187.351 181.553,186.779C181.553,183.622 183.028,181.039 184.983,181.008C185.606,180.998 186.118,180.955 186.569,181.249C187.901,182.119 188.653,184.421 188.64,186.779C188.638,187.281 188.636,186.946 188.626,187.39L181.673,189.625Z" style="fill:#3b7847;"/>
                <path d="M188.626,187.39C188.624,187.199 188.64,186.937 188.64,186.779C188.64,183.849 187.56,181.406 186.176,181.073C186.069,181.048 185.964,181.059 185.854,181.059C184.316,181.059 183.067,183.622 183.067,186.779C183.067,187.337 183.171,188.585 183.25,189.118L188.626,187.39Z" style="fill:#4db343;"/>
            </g>
            <path d="M187.107,220.956C187.01,220.435 186.996,218.661 186.996,218.089C186.996,214.932 188.471,212.349 190.426,212.318C191.049,212.308 191.561,212.265 192.012,212.559C193.344,213.428 194.096,215.73 194.083,218.089C194.081,218.591 194.093,220.328 194.084,220.772C194.084,220.772 191.407,220.937 190.245,220.964C189.21,220.988 187.107,220.956 187.107,220.956Z" style="fill:#3b7847;"/>
            <path d="M181.367,220.558C181.291,220.159 181.287,219.371 181.287,218.933C181.287,216.516 182.446,214.539 183.982,214.515C184.472,214.507 184.875,214.474 185.229,214.699C186.276,215.365 186.867,217.127 186.857,218.933C186.855,219.317 186.865,220.647 186.857,220.987C186.857,220.987 184.092,220.801 183.177,220.729C182.574,220.682 181.367,220.558 181.367,220.558Z" style="fill:#3b7847;"/>
            <path d="M158.337,220.362C158.261,219.963 158.218,217.072 158.218,216.635C158.218,214.217 159.377,212.24 160.914,212.216C161.403,212.209 161.806,212.176 162.161,212.401C163.207,213.067 163.798,214.829 163.788,216.635C163.786,217.019 163.796,218.349 163.789,218.688C163.789,218.688 161.749,219.246 160.822,219.535C159.948,219.808 158.337,220.362 158.337,220.362Z" style="fill:#3b7847;"/>
            <g>
                <path d="M149.396,102.633C149.328,102.232 149.316,100.89 149.316,100.45C149.316,98.019 150.34,96.03 151.698,96.006C152.13,95.999 152.486,95.965 152.799,96.192C153.724,96.861 154.246,98.634 154.238,100.45C154.236,100.836 154.244,100.744 154.238,101.085L151.51,101.962L150.444,102.306L149.396,102.633Z" style="fill:#3b7847;"/>
                <path d="M154.238,101.085C154.236,100.939 154.238,100.571 154.238,100.45C154.238,98.193 153.487,96.312 152.526,96.057C152.451,96.037 152.379,96.045 152.302,96.045C151.234,96.045 150.367,98.019 150.367,100.45C150.367,100.879 150.453,101.873 150.507,102.284L154.238,101.085Z" style="fill:#4db343;"/>
            </g>
            <g>
                <path d="M153.486,101.787C153.396,101.247 153.379,99.443 153.379,98.851C153.379,95.582 154.755,92.908 156.581,92.876C157.163,92.866 157.641,92.821 158.062,93.126C159.306,94.026 160.008,96.409 159.996,98.851C159.994,99.37 160.006,99.246 159.996,99.705L156.329,100.884L154.895,101.347L153.486,101.787Z" style="fill:#3b7847;"/>
                <path d="M160,100.072C159.998,99.875 159.996,99.013 159.996,98.851C159.996,95.817 158.987,93.288 157.695,92.944C157.595,92.917 157.497,92.929 157.394,92.929C155.958,92.929 154.792,95.582 154.792,98.851C154.792,99.428 154.927,100.448 155,101L160,100.072Z" style="fill:#4db343;"/>
            </g>
            <path d="M194.084,220.772C194.081,220.582 194.083,218.246 194.083,218.089C194.083,215.159 193.003,212.716 191.619,212.383C191.512,212.357 191.407,212.368 191.297,212.368C189.759,212.368 188.51,214.932 188.51,218.089C188.51,218.646 188.617,220.441 188.695,220.975C188.695,220.975 190.619,220.969 191.517,220.935C192.381,220.902 194.084,220.772 194.084,220.772Z" style="fill:#4db343;"/>
            <path d="M186.857,220.987C186.855,220.841 186.857,219.053 186.857,218.933C186.857,216.689 186.008,214.819 184.92,214.565C184.836,214.545 184.754,214.554 184.667,214.554C183.458,214.554 182.477,216.516 182.477,218.933C182.477,219.359 182.571,220.273 182.632,220.682C182.632,220.682 184.306,220.829 185.01,220.88C185.625,220.924 186.857,220.987 186.857,220.987Z" style="fill:#4db343;"/>
            <path d="M163.791,218.703C163.79,218.558 163.788,216.755 163.788,216.635C163.788,214.391 162.939,212.521 161.851,212.267C161.767,212.247 161.685,212.255 161.598,212.255C160.389,212.255 159.408,214.217 159.408,216.635C159.408,217.061 159.387,219.586 159.449,219.994L163.791,218.703Z" style="fill:#4db343;"/>
            <g>
                <path d="M107.949,159.27C107.949,159.27 107.949,159.27 107.949,159.27ZM83.192,136.268C82.882,123.342 93.471,112.662 106.825,112.432C120.179,112.203 131.272,122.51 131.583,135.435L123.993,135.566C123.781,126.695 116.167,119.62 107.002,119.778C97.836,119.936 90.568,127.266 90.781,136.137L83.192,136.268Z" style="fill:#8c8c8c;"/>
                <path d="M104.764,164.663C104.764,164.663 104.764,164.663 104.764,164.663ZM80.007,141.66C79.697,128.735 90.286,118.055 103.64,117.825C116.994,117.595 128.087,127.903 128.397,140.828L120.808,140.958C120.595,132.087 112.982,125.013 103.816,125.171C94.651,125.328 87.383,132.659 87.596,141.53L80.007,141.66Z" style="fill:#f7db6b;"/>
            </g>
            <rect x="203.102" y="178.196" width="7.886" height="1.372" style="fill:#4c4c4c;"/>
            <rect x="203.817" y="179.204" width="7.373" height="5.241" style="fill:#e2e1bf;"/>
            <rect x="203.102" y="179.204" width="2.87" height="5.241" style="fill:#f7db6b;"/>
            <path d="M207.622,176.918C207.622,176.918 205.007,176.918 205,176.918C203.459,176.866 203.005,177.806 203.102,178.289C203.103,178.296 207.622,178.289 207.622,178.289L207.622,176.918Z" style="fill:#f7db6b;"/>
            <path d="M211.227,179.204C211.502,178.359 211.039,177.468 209.022,177.036C207.006,176.605 206.247,177.427 205.971,178.272L211.227,179.204Z" style="fill:#e2e1bf;"/>
            <g id="D718" serif:id="D7">
                <rect x="161.676" y="97.525" width="10.28" height="12.809" style="fill:#8c8c8c;"/>
                <path d="M182.76,97.525L177.402,93.022L171.955,97.525L171.955,110.335L182.76,110.335L182.76,97.525Z" style="fill:#d9d9d9;"/>
                <path d="M178.768,93.022L166.091,93.236L159.119,99.109L171.963,99.109L178.768,93.022Z" style="fill:#f7db6b;"/>
                <rect x="174.083" y="99.109" width="6.55" height="6.55" style="fill:#595959;"/>
                <path d="M184.355,98.326L178.768,93.022L176.539,95.016L178.865,94.539L184.355,99.597L184.355,98.326Z" style="fill:#f7db6b;"/>
            </g>
        </g>
    </g>
</svg>
