<svg xmlns="http://www.w3.org/2000/svg" xml:space="preserve" fill-rule="evenodd" stroke-linecap="round" stroke-linejoin="round" stroke-miterlimit="1.5" clip-rule="evenodd" viewBox="0 0 250 250"><path fill="none" d="M-750-749H250V251H-750z"/><clipPath id="a"><path d="M-750-749H250V251H-750z"/></clipPath><g clip-path="url(#a)"><path fill="#e2e1bf" d="M-596.3-141c-28.4-54-156-97-148.4-339.5 5-159 106-230.3 181.7-229.3 45.6.6 101.8 7.6 243 67.3 99 42 145.2 52.7 174 41.8 70.2-26.6 78.9-37.6 117.6-57.4 35.8-18.4 73-47 100.4-58 82.3-33 224.3 2.4 138 160-21.7 39.6-3 119.8-26.9 288.5-27 190-78.4 135.4-88.1 180-7 32.1 55.5 144.5 15 220-53 98.6-196.6 64.4-243 61.5-70-4.4-180.9 82-280 50-213.3-69-120.6-265.8-183.3-385Z"/><path fill="#589765" d="M-571-182.3c-48-26.4-127.8-54.8-159-198.6-30.8-142 33.5-287 159-322.3 41.3-11.6 127.3 7.5 260.4 62.2 93.4 38.3 136.9 48.1 164 38.2C-80.5-627.2 42.7-700.3 110-706c50.3-4.2 127.7 20.3 95 118.6-3.2 9.5-14.7 41.6-15 56.7-2 82.5-15.4 249.5-27.5 314.2C140.4-98 45-147 72.9-67.6c22.8 64.7 54.7 159 2.1 210-83.2 80.5-182 20.8-207.2 19.3-66-4-194.5 78.5-288 49.4-93.6-29-110-177.1-107.4-226.2 2.6-49-4.7-146-43.4-167.2Z"/><path fill="#8dcf86" d="M-496.1-502.5c-30-42 7.9-199.4-116.8-134.3-78 40.6-129.2 175.6-105.3 257 69 234.4 197.6 136 200.8 242.3 5.4 179.2 2 301.1 120 329.6 50.4 12.1 141.6 1 178-63.4 19.3-34.1 97.8-106 172-28.2C-24.9 124 11.5 133 37.1 111c28.2-24.3 22.6-64.8 7.2-85C22-3.6-1.7-38.7 7.6-82.3c21.2-98.3 79.8-62.5 100.5-107.9 44.4-97.2-160.1-135-230.5-74.1C-214.2-185-411-383.3-496-502.5Z"/><path fill="#3b7847" d="M-11.7 96c1.8 0 3.3-.1 4.7.7 3.9 2.6 6 9.4 6 16.3 0 7.3-2.7 15.6-7.4 16.8-1.6.3-1.8 0-3 0-5.7 0-10.4-7.5-10.4-16.8s4.4-16.9 10.1-17Z"/><ellipse cx="-9.1" cy="113" fill="#4db343" rx="8.2" ry="16.8"/><path fill="#3b7847" d="M16 102.2c1.5 0 2.8-.2 3.9.6 3.3 2.1 5.1 7.8 5.1 13.7 0 6.2-2.3 13-6.3 14-1.3.4-1.5.1-2.5.1-4.8 0-8.8-6.3-8.8-14.1s3.7-14.2 8.5-14.3Z"/><ellipse cx="18.1" cy="116.5" fill="#4db343" rx="6.9" ry="14.2"/><path fill="none" stroke="#4c4c4c" stroke-width="4" d="M16.2 123.3v17.5"/><path fill="#3b7847" d="M43 83.5c1.8 0 3.2-.1 4.4.7 3.6 2.4 5.6 8.6 5.6 15 0 6.9-2.5 14.5-7 15.6-1.3.3-1.5 0-2.6 0-5.3 0-9.7-7-9.7-15.5 0-8.6 4-15.7 9.4-15.8Z"/><ellipse cx="45.4" cy="99.3" fill="#4db343" rx="7.6" ry="15.6"/><path fill="none" stroke="#4c4c4c" stroke-width="4" d="M43.4 106.7V126"/><path fill="none" stroke="#2d5836" stroke-width="4" d="M-78.3 92.4C-81.6 47.4-5.8-7 50 10.8"/><path fill="none" stroke="#2d5836" stroke-width="18.7" d="M-440 155c48.5 62.4 142.1 48.8 185 11 44.7-39.4 49.8-87.6 95-95 34.2-5.6 60 3.8 82.6 31.1C25.8 226.1 121.5 72.2 60 11.2c-6.5-6.4-70.9-82.6 0-146 1.6-1.4 18.3-13 20-14.5M60 119.1 80 131"/><path fill="#2d5836" d="M80 141c7 2.7 14.4-16.2 8-18-6.5-1.9-17.3-8-17.3-8l-5.7 7.1c-2 2.5-5 8.9-5 8.9s6.9 5 20 10Z"/><path fill="#d9d9d9" d="m1.3 33.7-6.7-6.1-6.8 6V51H1.3V33.7Z"/><path fill="#589765" d="m-30-52-30 .3L-13-6C-9.9-3.5-5.9.3-3.7-2.6L10-9c2.2-2.9-3.7-15.3-7-17.8L-30-52Z"/><path fill="#3b7847" d="M-60-51.7V-39c-1.2 1.6 10.4 9.6 13.3 11.8l28 16.8c2.9 2.2 11.5 9.2 12.8 7.6l1.2-3c1.2-1.6-2.2-13.8-5-16l-50.3-30Z"/><path fill="none" stroke="#4c4c4c" stroke-width="4" d="M17-13.8v21"/><path fill="#2d5836" d="M20 5.7c-2.4 0-5.6.3-6.6 1-.2 0 .2 3 .2 3l6.5-.5s.2-3.4-.1-3.5Z"/><path fill="#065e7b" d="M-1.5 146c6.5-.2 11.9-.3 12 4.6.1 5.7-5.2 5.2-11.8 5.3-6.6.1-11.8.8-12-4.7-.4-5.9 5.2-5.2 11.8-5.3Z"/><path fill="#73b3ce" d="M23.9 141.4c6.2-2.2 11.2-4 13 .6 1.9 5.3-3.4 6.5-9.5 8.8-6.2 2.3-11 4.6-13-.5-2.2-5.4 3.3-6.6 9.5-8.9Z"/><path fill="#e2e1bf" d="M175.8 94.7c36.6 4.4 10.3 14.9 25.3 24.1 17.8 11 46.8 22 40.9 44.6-4 15-35.2 65-49.4 64.1-14-.8-20.8-.5-33.9-.2-19.3.5-34.4 12.9-53.7 5.3-36.5-14.3-21.8-33.8-.8-61.8 8.3-11.2 10-40.7 23.6-58.3 11-14.3 33.3-19.5 48-17.8Z"/><path fill="#589765" d="M175.1 100.7c31.5 2.5 9.6 12.5 23 20 15.7 8.9 41 17.5 37.1 37.3-2.5 13.1-26.2 61.7-38.2 63-23.5 2.4-25.1-6-39 0-26.3 11-56.6-26.5-40.1-51.6 6.5-10 6.4-35.7 17.1-51.5 8.7-12.8 27.4-18.2 40.1-17.2Z"/><path fill="#3b7847" d="M159.7 100.2c8.6-1.5 20.8.6 20.6.6-22.4 6-27.6 25.5-31.5 45.3-6 31.2-26.1 12.8-28.8 49.9-1.7 23.4 35.6 25.5 35.1 25.5-58.9 9-58-27.1-37.2-52.5 7.6-9.3 6.4-35.7 17.2-51.5 8.7-12.8 11.3-15.1 24.6-17.3Z"/><path fill="#8dcf86" d="M174.7 105.3c15.2.4 17.2 12.2 15.3 15.2-1.2 2-16.7-.4-23.5.5-12.6 1.7-19.6-4.4-19.3-5.3 1-3.3 3-5.4 8.2-7.8 4.2-2 13.2-2.7 19.3-2.6Z"/><path fill="#589765" d="M159.1 106.8c.5 0-3.6.7-4.1 8.5-.3 4.3 4.1 5.7 3.1 5.7-7.3.3-14.2-3.5-12.2-5.8 2.2-2.7 5-7.3 13.2-8.4Z"/><path fill="#d9d9d9" d="m199.7 118 8.7-4.3h5.7l5.8 4.3 5.7 58.7h-45.3l19.4-58.7Z"/><path fill="#b3b3b3" d="m199.7 118 8.7-4.3h5.7l-11.4 6-5.8 57h-16.6l19.4-58.7Z"/><path fill="#8c8c8c" d="m200.4 119.4 8.7-4.2h5.7l3.9 3.1-1.1 3.4-4-1.7v12.6l-4-12.6h-5.2l-4-.6Z"/><path fill="#8dcf86" d="m188.9 150.8 2.3-.6 4.6-8.4 1.1 7 2.8-.7 8.7-11.5 5.7 20.4 2.7-14.7 3 5.8 2.4-5.8 3.4 34.4h-45.3l8.6-25.9Z"/><path fill="#3b7847" d="m188.9 150.8 2.3-.6 4.6-8.4 1.1 7 2.8-.7-4 20 11-9.7 4.6 18.3-20 11.5h-14.1l-3.2-11.5h-17l27.2-11.4 4.8-14.5Z"/><path fill="none" stroke="red" stroke-dasharray="16 16 0 0" stroke-dashoffset="4" stroke-width="4" d="M129.2 137.7c15.7.7 32.6-3.1 35.8 8.3 5 17.9-8.3 20.6-19.6 25-23.4 9.2-14.8 27.6-5.7 34.3 7 5.2 43 15.2 60.1-20.9"/><path fill="#595959" d="m198.4 165.3.8 12.5 1.2-3.9 1.2 7.4.8.6-6.6 3.6-1.7 1 .6-8 3.7-13.2Z"/><path fill="none" stroke="red" stroke-width="4" d="m205.5 184-7.6 2.7-3.3-7.1 6.8 14.3-3.5-7.2-8 2.7"/><path fill="none" stroke="#4c4c4c" stroke-width="4" d="m156.4 221-5.1-20"/><path fill="#4db343" d="M165 200.4c0-1.5-3.2-2.8-7.2-2.8s-7.1 1.3-7.1 2.8H165Zm-14.3 0c-1.6-1.1-4.4-.1-6.1 2.3-1.8 2.4-1.9 5.3-.3 6.5l6.4-8.8Z"/><path fill="#4db343" d="M158 193c-1.1-1-3.6-.2-5.5 1.8-2 2-2.7 4.5-1.6 5.5l7-7.3Z"/><path fill="#4db343" d="M150.8 200.7c.6-2.7-1.8-5.6-5.5-6.5-3.7-1-7.3.5-8 3.1l13.5 3.4Z"/><path fill="none" stroke="#4c4c4c" stroke-width="4" d="M148.5 105.7 144 88.3"/><path fill="#4db343" d="M155.9 87.8c0-1.3-2.8-2.4-6.2-2.4-3.4 0-6.2 1-6.2 2.4h12.4Zm-12.4 0c-1.4-1-3.8-.1-5.3 2-1.5 2-1.6 4.6-.2 5.6l5.5-7.6Z"/><path fill="#4db343" d="M149.8 81.4c-1-1-3.1-.2-4.8 1.5-1.7 1.8-2.3 4-1.3 4.8l6-6.3Z"/><path fill="#4db343" d="M143.6 88c.5-2.3-1.6-4.8-4.8-5.6-3.2-.8-6.3.4-6.9 2.7l11.7 3Z"/><path fill="none" stroke="#4c4c4c" stroke-width="4" d="m192.4 217.6 3.4-13.3"/><path fill="#4db343" d="M186.7 204c0-1.1 2.1-2 4.7-2s4.8.9 4.8 2h-9.5Zm9.5 0c1-.8 2.9-.2 4 1.4 1.2 1.6 1.3 3.6.2 4.3l-4.2-5.8Z"/><path fill="#4db343" d="M191.4 199c.7-.7 2.3-.2 3.6 1.2 1.3 1.3 1.8 3 1 3.7l-4.6-4.9Z"/><path fill="#4db343" d="M196.1 204c-.4-1.7 1.2-3.6 3.7-4.2 2.4-.6 4.8.3 5.2 2l-8.9 2.3Z"/><path fill="none" stroke="#4c4c4c" stroke-width="4" d="m179.6 188.2 7-26.7"/><path fill="#4db343" d="M168.2 160.7c0-2 4.3-3.8 9.6-3.8 5.2 0 9.5 1.7 9.5 3.8h-19Zm19.1 0c2.2-1.5 5.8-.2 8.1 3 2.4 3.2 2.5 7 .3 8.7l-8.4-11.7Z"/><path fill="#4db343" d="M177.6 150.8c1.5-1.4 4.8-.3 7.3 2.4 2.6 2.7 3.6 6 2 7.4l-9.3-9.8Z"/><path fill="#4db343" d="M187.2 161c-1-3.5 2.4-7.4 7.3-8.6 5-1.2 9.6.7 10.5 4.2l-17.8 4.4Z"/><path fill="none" stroke="#4c4c4c" stroke-width="4" d="M155.4 102.4V81"/><path fill="#4db343" d="M169.3 83.9c.4-1.6-2.5-3.7-6.5-4.7s-7.5-.5-7.9 1l14.4 3.7Z"/><path fill="#4db343" d="M155 80.3c-1.4-1.6-4.4-1.3-6.8.7-2.4 2-3.2 4.8-1.9 6.4l8.6-7.1Zm9-5.6c-.8-1.4-3.4-1.2-5.9.3-2.4 1.5-3.8 3.9-3 5.2l9-5.5Z"/><path fill="#4db343" d="M155 80.5c1.3-2.5-.5-6-4-7.9-3.4-1.8-7.3-1.3-8.7 1.2l12.6 6.7Z"/><path fill="#e2e1bf" d="m158.6 220.3-4 1.5.5 4 3.6-1.1v-4.4Z"/><path fill="#589765" d="M176.4 188.2c.8 1 1.2 4.4 1.2 4.4l6.8-1-1.8-3.4h-6.2Z"/><path fill="#3b7847" d="M166.3 67.2c1.3 0 2.4-.1 3.3.5 2.9 1.9 4.4 6.8 4.4 11.8 0 5.3-2 11.3-5.4 12.1-1 .3-1.2 0-2.1 0-4.2 0-7.5-5.4-7.5-12 0-6.8 3-12.3 7.3-12.4Z"/><ellipse cx="168.1" cy="79.5" fill="#4db343" rx="5.9" ry="12.2"/><path fill="none" stroke="#4c4c4c" stroke-width="4" d="M166.5 85.3v15.1m65.9 46 5.2-20.2"/><path fill="#4db343" d="M223.8 125.7c0-1.6 3.2-3 7.2-3s7.2 1.4 7.2 3h-14.4Zm14.4 0c1.6-1.2 4.4-.2 6.1 2.2 1.8 2.4 2 5.4.3 6.6l-6.4-8.8Z"/><path fill="#4db343" d="M230.9 118.2c1-1 3.6-.3 5.5 1.8 2 2 2.7 4.5 1.6 5.6l-7.1-7.4Z"/><path fill="#4db343" d="M238.1 125.9c-.7-2.7 1.8-5.6 5.5-6.5 3.8-1 7.3.5 8 3.1L238 126Z"/><path fill="#589765" d="M226.8 143.5c1 2 5.8 7.6 5.8 7.6s2.2-2.2 2-3.5c-.3-2.4-4-7-4-7s-3.9 2.8-3.8 2.9Z"/><path fill="#3b7847" d="m145.5 105 2 4.2 21.6-7 .1-2.5c-6.7-.1-17.2.3-23.7 5.3Zm36.2 84.6-.1-2.8c0-3.2 1.4-5.8 3.4-5.8.6 0 1.1 0 1.6.2 1.3 1 2 3.2 2 5.6v.6l-7 2.2Z"/><path fill="#4db343" d="M188.6 187.4v-.6c0-3-1-5.4-2.4-5.7h-.3c-1.6 0-2.8 2.5-2.8 5.7 0 .5 0 1.8.2 2.3l5.3-1.7Z"/><path fill="#3b7847" d="m187.1 221-.1-3c0-3 1.5-5.7 3.4-5.7.6 0 1.2 0 1.6.3 1.3.8 2.1 3.1 2 5.5v2.7l-3.8.2h-3Zm-5.7-.4-.1-1.7c0-2.4 1.1-4.4 2.7-4.4.5 0 .9 0 1.2.2 1 .7 1.7 2.4 1.7 4.2v2l-3.7-.2-1.8-.1Zm-23.1-.2v-3.8c0-2.4 1-4.4 2.6-4.4.5 0 1 0 1.3.2 1 .7 1.6 2.4 1.6 4.2v2l-3 1-2.5.8Zm-8.9-117.8v-2.1c0-2.5 1-4.5 2.3-4.5.4 0 .8 0 1.1.2 1 .7 1.4 2.4 1.4 4.3v.6l-2.7.9-1 .3-1.1.3Z"/><path fill="#4db343" d="M154.2 101v-.5c0-2.3-.7-4.2-1.7-4.4h-.2c-1 0-2 2-2 4.4l.2 1.8 3.7-1.2Z"/><path fill="#3b7847" d="m153.5 101.8-.1-3c0-3.2 1.4-5.9 3.2-6 .6 0 1 0 1.5.3 1.2 1 2 3.3 1.9 5.8v.8l-3.7 1.2-1.4.4-1.4.5Z"/><path fill="#4db343" d="M160 100v-1c0-3-1-5.6-2.3-6h-.3c-1.4 0-2.6 2.7-2.6 6l.2 2.1 5-1Zm34 120.8V218c0-3-1-5.4-2.4-5.7h-.3c-1.5 0-2.8 2.5-2.8 5.7l.2 2.9h2.8l2.6-.2Zm-7.1.2v-2c0-2.3-.9-4.2-2-4.4h-.2c-1.2 0-2.2 2-2.2 4.3l.1 1.8a237.7 237.7 0 0 0 4.3.3Zm-23.1-2.3v-2c0-2.3-.9-4.2-2-4.4h-.2c-1.2 0-2.2 2-2.2 4.3v3.4l4.4-1.3Z"/><path fill="#8c8c8c" d="M108 159.3Zm-24.8-23a23.6 23.6 0 0 1 23.6-23.9 24 24 0 0 1 24.8 23l-7.6.2c-.2-9-7.8-16-17-15.8-9.2.1-16.4 7.5-16.2 16.3l-7.6.2Z"/><path fill="#f7db6b" d="M104.8 164.7Zm-24.8-23a23.6 23.6 0 0 1 23.6-23.9 24 24 0 0 1 24.8 23l-7.6.2c-.2-9-7.8-16-17-15.8-9.1.1-16.4 7.5-16.2 16.3l-7.6.2Z"/><path fill="#4c4c4c" d="M203.1 178.2h7.9v1.4h-7.9z"/><path fill="#e2e1bf" d="M203.8 179.2h7.4v5.2h-7.4z"/><path fill="#f7db6b" d="M203.1 179.2h2.9v5.2h-2.9zm4.5-2.2H205c-1.5-.1-2 .8-1.9 1.3h4.5v-1.4Z"/><path fill="#e2e1bf" d="M211.2 179.2c.3-.8-.2-1.7-2.2-2.2-2-.4-2.8.4-3 1.3l5.2.9Z"/><path fill="#8c8c8c" d="M161.7 97.5H172v12.8h-10.3z"/><path fill="#d9d9d9" d="m182.8 97.5-5.4-4.5-5.4 4.5v12.8h10.8V97.5Z"/><path fill="#f7db6b" d="m178.8 93-12.7.2-7 6H172l6.8-6.2Z"/><path fill="#595959" d="M174.1 99.1h6.5v6.5h-6.5z"/><path fill="#f7db6b" d="m184.4 98.3-5.6-5.3-2.3 2 2.4-.5 5.5 5.1v-1.3Z"/></g></svg>