<svg xmlns="http://www.w3.org/2000/svg" xml:space="preserve" fill-rule="evenodd" stroke-linecap="round" stroke-linejoin="round" stroke-miterlimit="1.5" clip-rule="evenodd" viewBox="0 0 250 250"><path fill="none" d="M-250 0H750v1000H-250z"/><path fill="#e2e1bf" d="M-96.3 608c-28.4-54-156-97-148.4-339.5 5-159 106-230.3 181.7-229.3 45.6.6 101.8 7.6 243 67.3 99 42 145.2 52.7 174 41.8 70.2-26.6 78.9-37.6 117.6-57.4 35.8-18.4 73-47 100.4-58 82.3-33 224.3 2.4 138 160-21.7 39.6-3 119.8-26.9 288.5-27 190-78.4 135.4-88.1 180-7 32.1 55.5 144.5 15 220-53 98.6-196.6 64.4-243 61.5-70-4.4-180.9 82-280 50-213.3-69-120.6-265.8-183.3-385Z"/><path fill="#296034" d="M19.3 7.7 28 45.1H10.5l8.8-37.4Z"/><path fill="#4db343" d="M19.3 7.7 28 45.1H16.9l2.4-37.4Z"/><path fill="none" stroke="#4c4c4c" stroke-width="4" d="M19.3 40.2v11.4"/><path fill="#589765" d="M-71 566.7c-48-26.4-127.8-54.8-159-198.6-30.8-142 33.5-287 159-322.3 41.3-11.6 127.3 7.5 260.4 62.2 93.4 38.3 136.9 48.1 164 38.2C419.5 121.8 542.7 48.7 610 43c50.3-4.2 127.7 20.3 95 118.6-3.2 9.5-14.7 41.6-15 56.7-2 82.5-15.4 249.5-27.5 314.2C640.4 651 545 602 572.9 681.4c22.8 64.7 54.7 159 2.1 210-83.2 80.5-182 20.8-207.2 19.3-66-4-194.5 78.5-288 49.4-93.6-29-110-177.1-107.4-226.2 2.6-49-4.7-146-43.4-167.2Z"/><path fill="#8dcf86" d="M3.9 246.5c-30-42 7.9-199.4-116.8-134.3-78 40.6-129.2 175.6-105.3 257 69 234.4 197.6 136 200.8 242.3 5.4 179.2 2 301.1 120 329.6 50.4 12.1 141.6 1 178-63.4 19.3-34.1 97.8-106 172-28.2 22.5 23.5 58.9 32.5 84.5 10.5 28.2-24.3 22.6-64.8 7.2-85-22.4-29.6-46-64.7-36.7-108.3 21.2-98.3 79.8-62.6 100.5-107.9 44.4-97.2-160.1-135-230.5-74.1C285.8 564 89 365.7 4 246.5Z"/><path fill="#8dcf86" d="M301.2 300h-6.4l8.5-49.1 6.4-.4-8.5 49.5Zm13 0h-6.5l8.6-49.9 6.4-.3-8.6 50.2Zm-25.8-.4-6.3-.3 8.2-47.6 6.4-.4-8.3 48.3Zm38.9-1.4-6.6 1.2 8.6-50 6.4-.4-8.4 49.2Zm-46-46 2.4-.2-8 46.7-6.2-1.2 7.8-45.5 4 .2Zm66.6 1.2-7.2 42-1.2.6-5.5 1 8.3-48.4h2l3.6 4.8ZM257 294.9l7.5-43.6 6.3.3-7.7 44.7-5.2-1-1-.4Zm1-44-7 42.1-6-1.9 6.9-40.5 6.3.3Zm95.2 9 3 2.5 2.3 3.7-3.9 22.4-6.6 3.3h-.3l5.5-32Zm-108-9.7-6.6 38.8-6-2.3L239 250l6.4.3Zm116 37.8 3-16.4 5.5 5.4-1 5.1-7.5 5.9Zm-128.5-38.4-5.9 34.3-5.7-3.6 5.3-31 6.3.3ZM209.8 270l3.7-21.4 6.3.3-4.7 27.7-5.3-6.6Zm-8.7-23.8 6.2 1-2.8 16.1-4.5-11 .7-4.1.4-2Z"/><path fill="#296034" d="M40.8 26.3 51.5 72H30l10.8-45.7Z"/><path fill="#4db343" d="M40.8 26.3 51.5 72H38l2.9-45.7Z"/><path fill="none" stroke="#4c4c4c" stroke-width="4" d="M40.8 66v14"/><path fill="#296034" d="m.3 16 10.2 43.6H-10L.3 16Z"/><path fill="#4db343" d="m.3 16 10.2 43.6h-13L.3 16Z"/><path fill="none" stroke="#4c4c4c" stroke-width="4" d="M.3 53.8v13.4"/><path fill="#296034" d="m252 109.1 10.4 44.1h-20.8l10.4-44Z"/><path fill="#4db343" d="m252 109.1 10.4 44.1h-13.2l2.8-44Z"/><path fill="none" stroke="#4c4c4c" stroke-width="4" d="M252 147.4v13.5"/><path fill="none" stroke="#2d5836" stroke-linecap="butt" stroke-width="4" d="M68.6 217.9c88.5 11.4 46.6 61.6 47.1 93.7.8 45.4 42.6 65 65.9 61.2"/><path fill="none" stroke="#2d5836" stroke-linecap="butt" stroke-width="4" d="M-159.7 365C-179 255.3-133.3 209.7-41.5 246.8c67.2 27.1 91.4 66.6 94.9 73.2 16.6 31.6 60.3 37.6 70.2 21.7m-261.2-136.2C-156.7 95.8-58.9 40.8 33 78c37.1 15 123.5 24.6 178.3 62.4 45.4 31.4 92.2 31.6 93.8 34.6"/><path fill="#296034" d="m24.7 55 8.2 35H16.4l8.3-35Z"/><path fill="#4db343" d="m24.7 55 8.2 35H22.5l2.2-35Z"/><path fill="none" stroke="#4c4c4c" stroke-width="4" d="M24.7 85.5v10.7"/><path fill="#296034" d="m65 40 10.1 42.8H55L65 40Z"/><path fill="#4db343" d="m65 40 10.1 42.8H62.4L65 40Z"/><path fill="none" stroke="#4c4c4c" stroke-width="4" d="M65 77.2v13"/><path fill="#296034" d="m8.4 75 8.3 35.6H0L8.4 75Z"/><path fill="#4db343" d="m8.4 75 8.3 35.6H6.2L8.4 75Z"/><path fill="none" stroke="#4c4c4c" stroke-width="4" d="M8.4 106v10.8"/><path fill="#296034" d="m35.3 100 9.7 41.4H25.5l9.8-41.4Z"/><path fill="#4db343" d="m35.3 100 9.7 41.4H32.7l2.6-41.4Z"/><path fill="none" stroke="#4c4c4c" stroke-width="4" d="M35.3 136v12.6"/><path fill="#3b7847" d="M84.1 71.3 98 129.8H70.4L84 71.3Z"/><path fill="#4db343" d="M84.1 71.3 98 129.8H80.4l3.7-58.5Z"/><path fill="none" stroke="#4c4c4c" stroke-width="4" d="M84.1 122v18"/><path fill="none" stroke="#2d5836" stroke-width="4" d="M260 295.6c-6.4 12.9-6 24-35 29.4-28.9 5.4-87.2-15.1-65-106"/><path fill="none" stroke="#2d5836" stroke-width="4" d="M393.4 233.1c-4.3 3.3 4.8 48.5-59.1 63.6C270.5 312 187 281 188.3 226M440 281.9a63.6 63.6 0 0 1 0 74.7c-23.1 32.1-70.5 26.1-85 18-26.6-14.7-86.7-42-91.2 9.6-2.8 32.6 74 39.3 91.2 52.6 31 24.2 25 57.1 25 58.2 4 52.8-149.2 98.4-184.5-65"/><path fill="#8dcf86" d="M128.4 36.4C202.2 34.8 207 93 245.4 180c.3.6-6.6 5-25.4 11.1-39 12.9-70.6-15.8-102-14.2-46.5 2.5-94.5-11.4-94.5-11.4S47.2 38 128.5 36.4Z"/><path fill="#3b7847" d="M128.4 36.4c10.4-.2-.6 10.7-8.4 20.4-30.6 38-15.8 120-18 120.4-43.3 7.6-78.5-18.7-78.5-18.7S47.2 38 128.5 36.4Z"/><path fill="#f5f7f1" d="M135 36.1c62.7 2 71 49.2 76.2 60.3L183 94.6l-11.2 6.8-7.2-15-9 12-5.4-34.4-18.3 29-4.7-6.6-10 16.6V78l-15.7 13.4-6.2-20-19 10-24 5S73.7 34 135 36Z"/><g fill="none" stroke="#2d5836" stroke-width="18.7"><path stroke-linecap="butt" d="M435 205.4c-46.7 14.4-130.8 23.6-150 23-62-1.7-150-4-147.5-42.8 3-48 61.4 5.6 62.4-39 .9-36.9-42.8-6.6-42.5-35.2.2-26.7 29.2-6.9 27.6-35-1-19-25.8-13.2-23.3-28.1"/><path d="M210 657.6c-8.6-3-40-11.2-40-11.2s4.4-12.6 2-25c-2.8-14.6-12.5-29.4-12-30 8-11.2 38.7-46.4 45-54.5 122.3-155.6 257.4 3.4 325 54.5 27.8 21 90.4 10.2 100-41.4 17.8-95.4-110.3-87.6-120-198.6-8.2-93.9 49.8-138.2 110-150 126.5-25 80.4-161.3-27.6-138-56 12-102.8 80.5-115.2 173.2-10.7 80.4-122 26-119.4-9m-204.8-15c-6 9-21.2 35.9-127.6 25-73.7-7.6-104.5-46.4-161.6-32.4-74.7 18.3-102 141.4-18.8 251.2 30.3 40 138.3 113.6 195 115.9"/></g><path fill="#296034" d="m213 100.7 7 29.6h-14l7-29.6Z"/><path fill="#4db343" d="m213 100.7 7 29.6h-8.8l1.8-29.6Z"/><path fill="none" stroke="#4c4c4c" stroke-width="4" d="M213 126.4v9"/><path fill="#296034" d="m162 115.3 7 29.5h-14l7-29.5Z"/><path fill="#4db343" d="m162 115.3 7 29.5h-9l1.9-29.5Z"/><path fill="none" stroke="#4c4c4c" stroke-width="4" d="M162 141v9"/><path fill="#296034" d="m181.3 77.3 7 29.6h-14l7-29.6Z"/><path fill="#4db343" d="m181.3 77.3 7 29.6h-8.8l1.8-29.6Z"/><path fill="none" stroke="#4c4c4c" stroke-width="4" d="M181.3 103v9"/><path fill="#296034" d="m134.6 100.7 7 29.6h-14l7-29.6Z"/><path fill="#4db343" d="m134.6 100.7 7 29.6h-8.8l1.8-29.6Z"/><path fill="none" stroke="#4c4c4c" stroke-width="4" d="M134.6 126.4v9"/><path fill="#296034" d="m83.5 115.3 7 29.5h-14l7-29.5Z"/><path fill="#4db343" d="m83.5 115.3 7 29.5h-8.8l1.8-29.5Z"/><path fill="none" stroke="#4c4c4c" stroke-width="4" d="M83.5 141v9"/><path fill="#296034" d="m103 77.3 6.9 29.6h-14l7-29.6Z"/><path fill="#4db343" d="m103 77.3 6.9 29.6H101l1.8-29.6Z"/><path fill="none" stroke="#4c4c4c" stroke-width="4" d="M103 103v9"/><path fill="#296034" d="m56.2 103.4 7 29.6h-14l7-29.6Z"/><path fill="#4db343" d="m56.2 103.4 7 29.6h-8.8l1.8-29.6Z"/><path fill="none" stroke="#4c4c4c" stroke-width="4" d="M56.2 129v9.1"/><path fill="#e2e1bf" d="M6.5 152.5c.3-23-11-17.2-55-17.5-40.1-.3-124.9-6.7-120 35 1.5 13.5 79.7 12 95 15 27.4 5.5 79.7-10.8 80-32.5Z"/><path fill="#d9d9d9" d="M-2.6 165.3h.7l8.4 21h-33.7l8.4-21h1l7.6-6.4 7.6 6.4Z"/><path fill="#8c8c8c" d="M-16.3 132H7.8v10.9h-24.1z"/><path fill="#d9d9d9" d="M7.9 121.2H20V143H7.9z"/><path fill="#595959" d="M-16.3 121.2H7.8v10.9h-24.1z"/><path fill="#d9d9d9" d="M-16.3 121.2H20v1.3h-36.3z"/><path fill="#296034" d="m70 145 10 42.6H60L70 145Z"/><path fill="#4db343" d="m70 145 10 42.6H67.3L70 145Z"/><path fill="none" stroke="#4c4c4c" stroke-width="4" d="M70 182v13"/><path fill="#296034" d="m110.4 135 12 51.1h-24l12-51.1Z"/><path fill="#4db343" d="m110.4 135 12 51.1h-15.2l3.2-51.1Z"/><path fill="none" stroke="#4c4c4c" stroke-width="4" d="M110.4 179.4V195"/><path fill="#296034" d="m164 152.3 8.5 36.4h-17.1l8.5-36.4Z"/><path fill="#4db343" d="m164 152.3 8.5 36.4h-10.9l2.3-36.4Z"/><path fill="none" stroke="#4c4c4c" stroke-width="4" d="M164 183.9V195"/><path fill="#296034" d="m227 145 12 51.1h-24l12-51Z"/><path fill="#4db343" d="m227 145 12 51.1h-15.2l3.2-51Z"/><path fill="none" stroke="#4c4c4c" stroke-width="4" d="M227 189.4V205"/><path fill="#8c8c8c" d="M17.9 140h16.6v41.6H17.9z"/><path fill="#d9d9d9" d="M33.4 140H50v41.6H33.4z"/><path fill="#595959" d="M37.5 145.6h8.3v8.3h-8.3zm-15.5 0h8.3v8.3H22zm15.5 13.1h8.3v8.3h-8.3zm-15.5 0h8.3v8.3H22z"/><path fill="#8c8c8c" d="M39.4 194.8h14.2v25.3H39.4z"/><path fill="#f88948" d="M65.2 186.2H50.3l-10.7 8.7h14.9l10.7-8.7Z"/><path fill="#d9d9d9" d="m76.6 195-11.4-8.8-11.6 8.8v25.1h23v-25Z"/><path fill="#595959" d="M56 196.5h17.4v23.2H56z"/><path fill="#d9d9d9" d="M17 220.1v-48.7l19.5-22.6L56 171.4v48.7H17Z"/><path fill="#065e7b" d="M-12.2 171.4H17l19.5-22.6H5.3l-17.5 22.6Z"/><path fill="#8c8c8c" d="M-12.2 171.4H17v48.7h-29.2z"/><path fill="#595959" d="M26.8 181.1h19.5v9.7H26.8zm0 19.5h19.5v9.7H26.8zm-29.3 0h9.7v9.7h-9.7zm0-19.5h9.7v9.7h-9.7z"/><path fill="#d9d9d9" d="M83.5 220.1v-14.3H105V220v-21.5H76.3V220h7.2Z"/><path fill="#3b7847" d="M-6.2 185c1.6 0 2.9-.1 4 .6 3.5 2.3 5.4 8.2 5.4 14.2 0 6.4-2.4 13.6-6.6 14.6-1.3.4-1.5 0-2.5 0-5 0-9.1-6.5-9.1-14.6 0-8 3.8-14.7 8.8-14.8Z"/><ellipse cx="-4" cy="199.8" fill="#4db343" rx="7.1" ry="14.7"/><path fill="#2d5836" d="m1.4 224.4-15-3.8-4.3 13.1 16.4 3.6 3-12.9Z"/><path fill="#8c8c8c" d="m123.3 220-12.8 6.7v30.8h13l-.2-37.6Z"/><path fill="#d9d9d9" d="m135.2 213.6-13.1 7v36.9h13.7l-.6-43.9Z"/><path fill="#595959" d="M126 229.1h6.5v6.5H126zm-12.3 0h6.5v6.5h-6.5zm12.3 10.4h6.5v6.5H126zm-12.3 0h6.5v6.5h-6.5z"/><path fill="#8c8c8c" d="m160.8 230-12.8 6.7v30.8h13l-.2-37.6Z"/><path fill="#d9d9d9" d="m172.7 223.6-13.1 7v36.9h13.7l-.6-43.9Z"/><path fill="#595959" d="M163.5 239.1h6.5v6.5h-6.5zm-12.3 0h6.5v6.5h-6.5zm12.3 10.4h6.5v6.5h-6.5zm-12.3 0h6.5v6.5h-6.5z"/><path fill="#8c8c8c" d="m198.3 241-12.8 6.7v30.8h13l-.2-37.6Z"/><path fill="#d9d9d9" d="m210.2 234.6-13.1 7v36.9h13.7l-.6-43.9Z"/><path fill="#595959" d="M201 250.1h6.5v6.5H201zm-12.3 0h6.5v6.5h-6.5z"/><path fill="#d9d9d9" d="M144.9 27.2h24.2v24.2h-24.2z"/><path fill="#8c8c8c" d="M128.8 27.2H145v24.2h-16.2z"/><path fill="#595959" d="M122.6 24.7h49.3v2.5h-49.3zm30.5 10.5h8v8.1h-8zM131.4 30h10.7v21.4h-10.7z"/><path fill="#73b3ce" d="M147.3 174.8c-4.1 5-7.5 9.2-11.3 6.1-4.4-3.5-.6-7.2 3.5-12.4 4.1-5.1 7-9.6 11.3-6.2 4.7 3.5.6 7.3-3.5 12.5Z"/></svg>