<?xml version="1.0" encoding="UTF-8" standalone="no"?>
<!DOCTYPE svg PUBLIC "-//W3C//DTD SVG 1.1//EN" "http://www.w3.org/Graphics/SVG/1.1/DTD/svg11.dtd">
<svg width="250px" height="250px" version="1.1" xmlns="http://www.w3.org/2000/svg" xmlns:xlink="http://www.w3.org/1999/xlink" xml:space="preserve" xmlns:serif="http://www.serif.com/" style="fill-rule:evenodd;clip-rule:evenodd;stroke-linecap:round;stroke-linejoin:round;stroke-miterlimit:1.5;">
    <rect id="Artboard" x="-250" y="0" width="999.991" height="1000" style="fill:none;"/>
    <g id="background">
    </g>
    <path id="OSTROV" d="M-96.31,607.991C-124.685,554.043 -252.239,510.97 -244.677,268.462C-239.722,109.557 -138.69,38.171 -63.043,39.195C-17.375,39.814 38.838,46.813 179.96,106.533C279.062,148.47 325.23,159.18 353.907,148.321C424.243,121.686 432.87,110.67 471.578,90.862C507.384,72.539 544.527,43.846 571.957,32.863C654.286,-0.1 796.284,35.344 710,192.955C688.336,232.527 707.089,312.674 683.144,481.357C656.159,671.461 604.682,616.792 595,661.357C588.009,693.537 650.472,805.911 610,881.357C557.077,980.013 413.418,945.756 366.957,942.863C297.037,938.51 186.097,1024.89 86.957,992.863C-126.293,923.984 -33.641,727.142 -96.31,607.991Z" style="fill:#e2e1bf;"/>
    <g>
        <path d="M19.286,7.744L28.069,45.07L10.504,45.07L19.286,7.744Z" style="fill:#296034;"/>
        <path d="M19.286,7.744L28.069,45.07L16.947,45.07L19.286,7.744Z" style="fill:#4db343;"/>
        <path d="M19.286,40.156L19.286,51.574" style="fill:none;stroke:#4c4c4c;stroke-width:4px;"/>
    </g>
    <path id="OSTROV1" serif:id="OSTROV" d="M-71.049,566.685C-119.073,540.278 -198.806,511.876 -230,368.071C-260.788,226.137 -196.46,81.075 -71.049,45.847C-29.659,34.221 56.339,53.336 189.358,107.966C282.769,146.329 326.287,156.126 353.317,146.192C419.613,121.827 542.79,48.654 610.084,42.992C660.37,38.762 737.811,63.31 705.084,161.602C701.933,171.067 690.446,203.204 690.084,218.288C688.105,300.845 674.692,467.81 662.587,532.477C640.392,651.057 545.013,602.078 572.916,681.357C595.701,746.096 627.605,840.415 575,891.357C491.849,971.881 393.03,912.249 367.784,910.724C301.879,906.742 173.281,989.181 79.747,960.149C-13.787,931.117 -30.278,783.003 -27.648,733.926C-25.017,684.849 -32.333,587.973 -71.049,566.685Z" style="fill:#589765;"/>
    <path d="M3.905,246.528C-26.075,204.578 11.804,47.053 -112.908,112.161C-190.841,152.848 -242.123,287.801 -218.168,369.234C-149.223,603.603 -20.558,505.153 -17.365,611.528C-11.985,790.746 -15.343,912.637 102.635,941.087C152.996,953.231 244.242,942.058 280.608,877.748C299.945,843.552 378.434,771.669 452.635,849.46C475.115,873.028 511.478,882.035 537.055,860C565.287,835.677 559.653,795.206 544.345,775C521.902,745.375 498.234,710.258 507.635,666.659C528.818,568.426 587.367,604.15 608.066,558.83C652.476,461.597 447.953,423.8 377.635,484.659C285.801,564.139 89.049,365.669 3.905,246.528Z" style="fill:#8dcf86;"/>
    <g id="pole">
        <path d="M301.227,300L294.843,300L303.269,250.896L309.717,250.517L301.227,300ZM314.108,300L307.724,300L316.281,250.131L322.73,249.752L314.108,300ZM288.409,299.634L282.087,299.271L290.256,251.661L296.705,251.282L288.409,299.634ZM327.299,298.192L320.714,299.362L329.293,249.366L335.742,248.987L327.299,298.192ZM281.368,252.183L283.693,252.047L275.682,298.731L269.509,297.508L277.323,251.964L281.368,252.183ZM347.873,253.357L340.652,295.439L339.473,296.028L334.001,297.001L342.305,248.601L344.206,248.586L347.873,253.357ZM257.07,294.93L264.561,251.272L270.886,251.615L263.225,296.263L258.047,295.237L257.07,294.93ZM258.124,250.923L250.905,292.996L244.847,291.095L251.799,250.581L258.124,250.923ZM353.256,259.848L356.318,262.368L358.573,266.065L354.723,288.507L348.095,291.776L347.758,291.893L353.256,259.848ZM245.361,250.232L238.709,289.003L232.718,286.715L239.037,249.889L245.361,250.232ZM361.134,287.872L364.137,271.509L369.603,276.857L368.521,282.025L361.134,287.872ZM232.599,249.54L226.712,283.849L220.955,280.199L226.274,249.197L232.599,249.54ZM209.839,269.91L213.512,248.505L219.837,248.848L215.095,276.484L209.839,269.91ZM201.065,246.076L207.26,247.075L204.49,263.218L200,252.183L200.703,248.089L201.065,246.076Z" style="fill:#8dcf86;"/>
    </g>
    <g id="kere">
    </g>
    <g>
        <g>
            <g id="strom">
            </g>
            <g id="strom1" serif:id="strom">
            </g>
            <g id="strom2" serif:id="strom">
            </g>
            <g id="strom3" serif:id="strom">
            </g>
            <g id="strom4" serif:id="strom">
            </g>
            <g id="strom5" serif:id="strom">
            </g>
            <g id="strom6" serif:id="strom">
            </g>
            <g id="strom7" serif:id="strom">
            </g>
            <g id="strom8" serif:id="strom">
            </g>
            <g id="strom9" serif:id="strom">
            </g>
            <g id="strom10" serif:id="strom">
            </g>
            <g id="strom11" serif:id="strom">
            </g>
            <g id="strom12" serif:id="strom">
            </g>
            <g id="strom13" serif:id="strom">
            </g>
            <g id="strom14" serif:id="strom">
            </g>
        </g>
    </g>
    <g>
        <path d="M40.764,26.284L51.527,72.029L30,72.029L40.764,26.284Z" style="fill:#296034;"/>
        <path d="M40.764,26.284L51.527,72.029L37.896,72.029L40.764,26.284Z" style="fill:#4db343;"/>
        <path d="M40.764,66.007L40.764,80" style="fill:none;stroke:#4c4c4c;stroke-width:4px;"/>
    </g>
    <g>
        <path d="M0.252,15.992L10.504,59.563L-10,59.563L0.252,15.992Z" style="fill:#296034;"/>
        <path d="M0.252,15.992L10.504,59.563L-2.479,59.563L0.252,15.992Z" style="fill:#4db343;"/>
        <path d="M0.252,53.827L0.252,67.154" style="fill:none;stroke:#4c4c4c;stroke-width:4px;"/>
    </g>
    <g>
        <path d="M251.987,109.14L262.354,153.2L241.619,153.2L251.987,109.14Z" style="fill:#296034;"/>
        <path d="M251.987,109.14L262.354,153.2L249.225,153.2L251.987,109.14Z" style="fill:#4db343;"/>
        <path d="M251.987,147.4L251.987,160.877" style="fill:none;stroke:#4c4c4c;stroke-width:4px;"/>
    </g>
    <g id="male-cesty" serif:id="male cesty">
        <path d="M68.609,217.884C157.078,229.308 115.197,279.456 115.744,311.611C116.515,356.98 158.3,376.663 181.589,372.81" style="fill:none;stroke:#2d5836;stroke-width:4px;stroke-linecap:butt;"/>
        <path d="M-159.717,365C-178.876,255.272 -133.324,209.705 -41.512,246.795C25.651,273.927 49.89,313.387 53.377,320C70.045,351.601 113.715,357.647 123.582,341.706" style="fill:none;stroke:#2d5836;stroke-width:4px;stroke-linecap:butt;"/>
        <path d="M-137.565,205.533C-156.724,95.805 -58.894,40.829 32.919,77.919C70.027,92.91 156.372,102.502 211.177,140.311C256.63,171.667 303.439,171.931 305,174.89" style="fill:none;stroke:#2d5836;stroke-width:4px;stroke-linecap:butt;"/>
        <g id="les">
            <g>
                <g>
                    <path d="M24.676,55L32.927,90.066L16.425,90.066L24.676,55Z" style="fill:#296034;"/>
                    <path d="M24.676,55L32.927,90.066L22.478,90.066L24.676,55Z" style="fill:#4db343;"/>
                    <path d="M24.676,85.45L24.676,96.176" style="fill:none;stroke:#4c4c4c;stroke-width:4px;"/>
                </g>
                <g>
                    <path d="M65.07,40L75.14,82.797L55,82.797L65.07,40Z" style="fill:#296034;"/>
                    <path d="M65.07,40L75.14,82.797L62.387,82.797L65.07,40Z" style="fill:#4db343;"/>
                    <path d="M65.07,77.163L65.07,90.254" style="fill:none;stroke:#4c4c4c;stroke-width:4px;"/>
                </g>
            </g>
            <g>
                <g>
                    <path d="M8.375,75L16.75,110.595L0,110.595L8.375,75Z" style="fill:#296034;"/>
                    <path d="M8.375,75L16.75,110.595L6.144,110.595L8.375,75Z" style="fill:#4db343;"/>
                    <path d="M8.375,105.909L8.375,116.797" style="fill:none;stroke:#4c4c4c;stroke-width:4px;"/>
                </g>
                <g>
                    <path d="M35.27,100L45,141.354L25.539,141.354L35.27,100Z" style="fill:#296034;"/>
                    <path d="M35.27,100L45,141.354L32.678,141.354L35.27,100Z" style="fill:#4db343;"/>
                    <path d="M35.27,135.91L35.27,148.56" style="fill:none;stroke:#4c4c4c;stroke-width:4px;"/>
                </g>
                <g>
                    <path d="M84.114,71.289L97.873,129.763L70.355,129.763L84.114,71.289Z" style="fill:#3b7847;"/>
                    <path d="M84.114,71.289L97.873,129.763L80.449,129.763L84.114,71.289Z" style="fill:#4db343;"/>
                    <path d="M84.114,122.066L84.114,139.952" style="fill:none;stroke:#4c4c4c;stroke-width:4px;"/>
                </g>
            </g>
        </g>
        <path d="M260,295.585C253.562,308.473 253.921,319.615 225,325C196.127,330.376 137.771,309.88 160,219.028" style="fill:none;stroke:#2d5836;stroke-width:4px;"/>
        <path d="M393.392,233.143C389.08,236.45 398.177,281.557 334.288,296.749C270.504,311.916 187.107,280.966 188.276,225.991" style="fill:none;stroke:#2d5836;stroke-width:4px;"/>
        <path d="M440,281.877C460.48,313.415 451.148,341.147 440,356.629C416.902,388.708 369.455,382.719 355,374.681C328.403,359.891 268.287,332.572 263.824,384.186C261.006,416.772 337.815,423.471 355,436.822C386.066,460.958 379.917,493.9 380,495C383.976,547.767 230.755,593.416 195.479,430" style="fill:none;stroke:#2d5836;stroke-width:4px;"/>
    </g>
    <g id="hory">
        <path id="hora" d="M128.407,36.359C202.161,34.821 206.938,93.019 245.454,180C245.699,180.553 238.824,184.928 220,191.129C181.06,203.958 149.393,175.256 117.914,176.942C71.503,179.427 23.548,165.461 23.548,165.461C23.548,165.461 47.214,38.052 128.407,36.359Z" style="fill:#8dcf86;"/>
        <path id="hora1" serif:id="hora" d="M128.407,36.357C138.78,36.153 127.828,47.141 120,56.836C89.406,94.727 104.209,176.794 101.953,177.193C58.682,184.846 23.548,158.462 23.548,158.462C23.548,158.462 47.214,37.958 128.407,36.357Z" style="fill:#3b7847;"/>
        <path id="hora2" serif:id="hora" d="M135,36.116C197.696,38.134 206.022,85.34 211.177,96.357L183.042,94.592L171.802,101.352L164.586,86.352L155.695,98.353L150.176,63.996L131.87,93.017L127.198,86.352L117.199,103.018L117.199,77.945L101.467,91.352L95.336,71.352L76.22,81.352L52.245,86.357C52.245,86.357 73.811,34.147 135,36.116Z" style="fill:#f5f7f1;"/>
    </g>
    <g id="ker">
    </g>
    <g id="ker1" serif:id="ker">
    </g>
    <g id="ker2" serif:id="ker">
    </g>
    <g id="strom15" serif:id="strom">
    </g>
    <g id="strom16" serif:id="strom">
    </g>
    <g id="ker3" serif:id="ker">
    </g>
    <g id="cesty-velke" serif:id="cesty velke">
        <path d="M435,205.373C388.32,219.821 304.228,229.044 285,228.494C222.992,226.722 134.924,224.49 137.462,185.591C140.588,137.692 198.895,191.248 199.909,146.687C200.751,109.724 157.073,139.997 157.368,111.357C157.643,84.693 186.62,104.496 185,76.357C183.906,57.359 159.24,63.177 161.678,48.279" style="fill:none;stroke:#2d5836;stroke-width:18.67px;stroke-linecap:butt;"/>
        <path d="M210,657.586C201.352,654.653 170.017,646.357 170.017,646.357C170.017,646.357 174.435,633.815 172.024,621.357C169.213,606.833 159.54,592.034 160.017,591.357C167.914,580.163 198.681,544.992 205,536.948C327.268,381.295 462.404,540.308 530.017,591.357C557.806,612.338 620.358,601.557 630,550C647.845,454.575 519.733,462.44 510.017,351.357C501.808,257.505 559.765,213.215 620.017,201.357C746.517,176.462 700.386,40.069 592.374,63.309C536.476,75.336 489.552,143.877 477.192,236.614C466.476,317.022 355.294,262.56 357.815,227.688" style="fill:none;stroke:#2d5836;stroke-width:18.67px;"/>
        <path d="M153.011,212.619C147.011,221.618 131.789,248.486 25.406,237.553C-48.27,229.981 -79.082,191.217 -136.227,205.193C-210.893,223.453 -238.221,346.563 -155,456.357C-124.713,496.315 -16.688,569.995 40,572.305" style="fill:none;stroke:#2d5836;stroke-width:18.67px;"/>
    </g>
    <g id="strom17" serif:id="strom">
    </g>
    <g id="strom18" serif:id="strom">
    </g>
    <g id="strom19" serif:id="strom">
    </g>
    <g id="strom20" serif:id="strom">
    </g>
    <g id="stromy">
        <g>
            <path d="M213.04,100.727L220,130.308L206.079,130.308L213.04,100.727Z" style="fill:#296034;"/>
            <path d="M213.04,100.727L220,130.308L211.186,130.308L213.04,100.727Z" style="fill:#4db343;"/>
            <path d="M213.04,126.414L213.04,135.463" style="fill:none;stroke:#4c4c4c;stroke-width:4px;"/>
        </g>
        <g>
            <path d="M161.96,115.264L168.921,144.846L155,144.846L161.96,115.264Z" style="fill:#296034;"/>
            <path d="M161.96,115.264L168.921,144.846L160.106,144.846L161.96,115.264Z" style="fill:#4db343;"/>
            <path d="M161.96,140.952L161.96,150" style="fill:none;stroke:#4c4c4c;stroke-width:4px;"/>
        </g>
        <g>
            <path d="M181.347,77.327L188.307,106.909L174.387,106.909L181.347,77.327Z" style="fill:#296034;"/>
            <path d="M181.347,77.327L188.307,106.909L179.493,106.909L181.347,77.327Z" style="fill:#4db343;"/>
            <path d="M181.347,103.014L181.347,112.063" style="fill:none;stroke:#4c4c4c;stroke-width:4px;"/>
        </g>
        <g>
            <path d="M134.625,100.727L141.585,130.308L127.664,130.308L134.625,100.727Z" style="fill:#296034;"/>
            <path d="M134.625,100.727L141.585,130.308L132.77,130.308L134.625,100.727Z" style="fill:#4db343;"/>
            <path d="M134.625,126.414L134.625,135.463" style="fill:none;stroke:#4c4c4c;stroke-width:4px;"/>
        </g>
        <g>
            <path d="M83.545,115.264L90.506,144.846L76.585,144.846L83.545,115.264Z" style="fill:#296034;"/>
            <path d="M83.545,115.264L90.506,144.846L81.691,144.846L83.545,115.264Z" style="fill:#4db343;"/>
            <path d="M83.545,140.952L83.545,150" style="fill:none;stroke:#4c4c4c;stroke-width:4px;"/>
        </g>
        <g>
            <path d="M102.932,77.327L109.892,106.909L95.972,106.909L102.932,77.327Z" style="fill:#296034;"/>
            <path d="M102.932,77.327L109.892,106.909L101.078,106.909L102.932,77.327Z" style="fill:#4db343;"/>
            <path d="M102.932,103.014L102.932,112.063" style="fill:none;stroke:#4c4c4c;stroke-width:4px;"/>
        </g>
        <g>
            <path d="M56.209,103.4L63.17,132.981L49.249,132.981L56.209,103.4Z" style="fill:#296034;"/>
            <path d="M56.209,103.4L63.17,132.981L54.355,132.981L56.209,103.4Z" style="fill:#4db343;"/>
            <path d="M56.209,129.087L56.209,138.136" style="fill:none;stroke:#4c4c4c;stroke-width:4px;"/>
        </g>
    </g>
    <g id="namesti">
        <path id="namesti1" serif:id="namesti" d="M6.452,152.46C6.763,129.408 -4.544,135.33 -48.548,135C-88.647,134.699 -173.352,128.268 -168.548,170C-166.998,183.462 -88.821,181.924 -73.548,185C-46.12,190.524 6.159,174.173 6.452,152.46Z" style="fill:#e2e1bf;"/>
        <g id="satn">
        </g>
        <g id="satn1" serif:id="satn">
            <path d="M-2.647,165.282L-1.913,165.282L6.526,186.247L-27.229,186.247L-18.79,165.282L-17.843,165.282L-10.245,158.916L-2.647,165.282Z" style="fill:#d9d9d9;"/>
        </g>
        <g id="satn2" serif:id="satn">
        </g>
        <g id="stanek">
            <rect x="-16.267" y="132.022" width="24.146" height="10.921" style="fill:#8c8c8c;"/>
            <rect x="7.879" y="121.187" width="12.121" height="21.756" style="fill:#d9d9d9;"/>
            <rect x="-16.267" y="121.187" width="24.146" height="10.878" style="fill:#595959;"/>
            <rect x="-16.315" y="121.187" width="36.267" height="1.281" style="fill:#d9d9d9;"/>
        </g>
        <g id="stanek1" serif:id="stanek">
        </g>
        <g id="majka">
        </g>
    </g>
    <g id="smrky">
        <g>
            <path d="M70,145.095L80,187.595L60,187.595L70,145.095Z" style="fill:#296034;"/>
            <path d="M70,145.095L80,187.595L67.336,187.595L70,145.095Z" style="fill:#4db343;"/>
            <path d="M70,182L70,195" style="fill:none;stroke:#4c4c4c;stroke-width:4px;"/>
        </g>
        <g>
            <path d="M110.425,135L122.447,186.097L98.402,186.097L110.425,135Z" style="fill:#296034;"/>
            <path d="M110.425,135L122.447,186.097L107.222,186.097L110.425,135Z" style="fill:#4db343;"/>
            <path d="M110.425,179.37L110.425,195" style="fill:none;stroke:#4c4c4c;stroke-width:4px;"/>
        </g>
        <g>
            <path d="M163.906,152.307L172.461,188.665L155.352,188.665L163.906,152.307Z" style="fill:#296034;"/>
            <path d="M163.906,152.307L172.461,188.665L161.628,188.665L163.906,152.307Z" style="fill:#4db343;"/>
            <path d="M163.906,183.879L163.906,195" style="fill:none;stroke:#4c4c4c;stroke-width:4px;"/>
        </g>
        <g>
            <path d="M226.97,145.095L238.973,196.111L214.966,196.111L226.97,145.095Z" style="fill:#296034;"/>
            <path d="M226.97,145.095L238.973,196.111L223.772,196.111L226.97,145.095Z" style="fill:#4db343;"/>
            <path d="M226.97,189.395L226.97,205" style="fill:none;stroke:#4c4c4c;stroke-width:4px;"/>
        </g>
    </g>
    <g id="listnace">
    </g>
    <g id="lanoka">
        <g id="D9">
            <rect x="17.856" y="140" width="16.626" height="41.566" style="fill:#8c8c8c;"/>
            <rect x="33.374" y="140" width="16.626" height="41.566" style="fill:#d9d9d9;"/>
            <rect x="37.53" y="145.561" width="8.313" height="8.313" style="fill:#595959;"/>
            <rect x="22.013" y="145.561" width="8.313" height="8.313" style="fill:#595959;"/>
            <rect x="37.53" y="158.709" width="8.313" height="8.313" style="fill:#595959;"/>
            <rect x="22.013" y="158.709" width="8.313" height="8.313" style="fill:#595959;"/>
        </g>
        <g id="D8" opacity="0.99">
            <rect x="39.367" y="194.805" width="14.19" height="25.301" style="fill:#8c8c8c;"/>
            <path d="M65.203,186.185L50.333,186.185L39.608,194.889L54.477,194.889L65.203,186.185Z" style="fill:#f88948;"/>
            <path d="M76.565,195.009L65.156,186.185L53.557,195.009L53.557,220.106L76.565,220.106L76.565,195.009Z" style="fill:#d9d9d9;"/>
            <rect x="55.988" y="196.496" width="17.408" height="23.166" style="fill:#595959;"/>
            <g id="dum-lanoka" serif:id="dum lanoka">
                <path d="M17.024,220.106L17.024,171.402L36.505,148.761L55.987,171.402C55.989,171.44 55.989,171.478 55.987,171.516L55.987,220.106L17.024,220.106Z" style="fill:#d9d9d9;"/>
                <path d="M-12.198,171.402L17.024,171.402L36.505,148.761L5.28,148.761L-12.198,171.402Z" style="fill:#065e7b;"/>
                <rect x="-12.198" y="171.402" width="29.222" height="48.704" style="fill:#8c8c8c;"/>
                <rect x="26.765" y="181.143" width="19.482" height="9.741" style="fill:#595959;"/>
                <rect x="26.765" y="200.624" width="19.482" height="9.741" style="fill:#595959;"/>
                <rect x="-2.458" y="200.624" width="9.741" height="9.741" style="fill:#595959;"/>
                <rect x="-2.458" y="181.143" width="9.741" height="9.741" style="fill:#595959;"/>
            </g>
        </g>
        <path d="M83.485,220.106L83.485,205.763L105,205.763L105,220.106L105,198.591L76.314,198.591L76.314,220.106L83.485,220.106Z" style="fill:#d9d9d9;"/>
    </g>
    <g id="strom21" serif:id="strom">
        <g>
            <path d="M-6.209,185.021C-4.612,184.995 -3.299,184.884 -2.143,185.639C1.271,187.867 3.166,193.768 3.166,199.814C3.166,206.229 0.752,213.39 -3.377,214.427C-4.697,214.759 -4.877,214.478 -5.917,214.478C-10.93,214.478 -15,207.907 -15,199.814C-15,191.721 -11.221,185.1 -6.209,185.021Z" style="fill:#3b7847;"/>
            <ellipse cx="-3.977" cy="199.814" rx="7.143" ry="14.664" style="fill:#4db343;"/>
        </g>
        <path d="M1.431,224.411L-13.6,220.627L-17.904,233.738L-1.54,237.331L1.431,224.411Z" style="fill:#2d5836;"/>
    </g>
    <g id="satelit">
    </g>
    <g id="domky">
        <g id="D1">
        </g>
        <g id="D7">
        </g>
        <g id="D71" serif:id="D7">
        </g>
        <g id="D72" serif:id="D7">
        </g>
        <g id="D73" serif:id="D7">
        </g>
        <g id="D74" serif:id="D7">
        </g>
        <g id="D75" serif:id="D7">
        </g>
        <g id="D76" serif:id="D7">
        </g>
        <g id="D77" serif:id="D7">
        </g>
        <g id="D78" serif:id="D7">
        </g>
        <g id="D79" serif:id="D7">
        </g>
        <g id="D710" serif:id="D7">
        </g>
        <g id="D711" serif:id="D7">
        </g>
        <g id="D712" serif:id="D7">
        </g>
        <g id="D713" serif:id="D7">
        </g>
        <g id="D714" serif:id="D7">
        </g>
        <g id="D715" serif:id="D7">
        </g>
        <g id="D716" serif:id="D7">
        </g>
        <g id="D2">
        </g>
        <g id="D21" serif:id="D2">
        </g>
        <g id="D10">
            <path d="M123.315,219.918L110.545,226.707L110.474,257.495L123.573,257.495L123.315,219.918Z" style="fill:#8c8c8c;"/>
            <path d="M135.157,213.607L122.057,220.589L122.057,257.495C122.057,257.495 130.799,257.443 135.799,257.495L135.157,213.607Z" style="fill:#d9d9d9;"/>
            <rect x="125.975" y="229.128" width="6.55" height="6.55" style="fill:#595959;"/>
            <rect x="113.749" y="229.128" width="6.55" height="6.55" style="fill:#595959;"/>
            <rect x="125.975" y="239.487" width="6.55" height="6.55" style="fill:#595959;"/>
            <rect x="113.749" y="239.487" width="6.55" height="6.55" style="fill:#595959;"/>
        </g>
        <g id="D101" serif:id="D10">
            <path d="M160.815,229.918L148.045,236.707L147.974,267.495L161.073,267.495L160.815,229.918Z" style="fill:#8c8c8c;"/>
            <path d="M172.657,223.607L159.557,230.589L159.557,267.495C159.557,267.495 168.299,267.443 173.299,267.495L172.657,223.607Z" style="fill:#d9d9d9;"/>
            <rect x="163.475" y="239.128" width="6.55" height="6.55" style="fill:#595959;"/>
            <rect x="151.249" y="239.128" width="6.55" height="6.55" style="fill:#595959;"/>
            <rect x="163.475" y="249.487" width="6.55" height="6.55" style="fill:#595959;"/>
            <rect x="151.249" y="249.487" width="6.55" height="6.55" style="fill:#595959;"/>
        </g>
        <g id="D102" serif:id="D10">
            <path d="M198.315,240.918L185.545,247.707L185.474,278.495L198.573,278.495L198.315,240.918Z" style="fill:#8c8c8c;"/>
            <path d="M210.157,234.607L197.057,241.589L197.057,278.495C197.057,278.495 205.799,278.443 210.799,278.495L210.157,234.607Z" style="fill:#d9d9d9;"/>
            <rect x="200.975" y="250.128" width="6.55" height="6.55" style="fill:#595959;"/>
            <rect x="188.749" y="250.128" width="6.55" height="6.55" style="fill:#595959;"/>
        </g>
        <g id="D01">
            <rect x="144.946" y="27.202" width="24.232" height="24.232" style="fill:#d9d9d9;"/>
            <rect x="128.791" y="27.202" width="16.155" height="24.232" style="fill:#8c8c8c;"/>
            <rect x="122.611" y="24.662" width="49.276" height="2.541" style="fill:#595959;"/>
            <rect x="153.056" y="35.248" width="8.045" height="8.109" style="fill:#595959;"/>
            <rect x="131.431" y="30" width="10.717" height="21.435" style="fill:#595959;"/>
        </g>
    </g>
    <g id="strom22" serif:id="strom">
    </g>
    <g id="strom23" serif:id="strom">
    </g>
    <g id="staba">
    </g>
    <g id="chladici-vez" serif:id="chladici vez">
    </g>
    <g id="D22" serif:id="D2">
    </g>
    <g id="D5">
    </g>
    <g id="TOVANA">
    </g>
    <g id="strom24" serif:id="strom">
    </g>
    <g id="strom25" serif:id="strom">
    </g>
    <g id="panelaky">
    </g>
    <g id="strom26" serif:id="strom">
    </g>
    <g id="strom27" serif:id="strom">
    </g>
    <g id="letiste">
    </g>
    <g id="strom28" serif:id="strom">
    </g>
    <g id="strom29" serif:id="strom">
    </g>
    <g id="tunel-s-vlakem" serif:id="tunel s vlakem">
    </g>
    <g id="strom30" serif:id="strom">
    </g>
    <g id="hrad">
    </g>
    <g id="auta">
        <path d="M147.304,174.752C143.197,179.895 139.792,184.014 135.956,180.95C131.559,177.439 135.383,173.655 139.49,168.512C143.596,163.37 146.457,158.948 150.838,162.314C155.522,165.793 151.41,169.61 147.304,174.752Z" style="fill:#73b3ce;"/>
    </g>
    <g id="majak">
    </g>
    <g id="vetrna-elektr" serif:id="vetrna elektr">
    </g>
    <g id="osrov-pokladu" serif:id="osrov pokladu">
    </g>
</svg>
