<svg xmlns="http://www.w3.org/2000/svg" xml:space="preserve" fill-rule="evenodd" stroke-linecap="round" stroke-linejoin="round" stroke-miterlimit="1.5" clip-rule="evenodd" viewBox="0 0 250 250"><path fill="none" d="M-500 0H500v1000H-500z"/><path fill="#e2e1bf" d="M-346.3 608c-28.4-54-156-97-148.4-339.5 5-159 106-230.3 181.7-229.3 45.6.6 101.8 7.6 243 67.3 99 42 145.2 52.7 174 41.8 70.2-26.6 78.9-37.6 117.6-57.4 35.8-18.4 73-47 100.4-58 82.3-33 224.3 2.4 138 160-21.7 39.6-3 119.8-26.9 288.5-27 190-78.4 135.4-88.1 180-7 32.1 55.5 144.5 15 220-53 98.6-196.6 64.4-243 61.5-70-4.4-180.9 82-280 50-213.3-69-120.6-265.8-183.3-385Z"/><path fill="#589765" d="M-321 566.7c-48-26.4-127.8-54.8-159-198.6-30.8-142 33.5-287 159-322.3 41.3-11.6 127.3 7.5 260.4 62.2 93.4 38.3 136.9 48.1 164 38.2C169.5 121.8 292.7 48.7 360 43c50.3-4.2 127.7 20.3 95 118.6-3.2 9.5-14.7 41.6-15 56.7-2 82.5-15.4 249.5-27.5 314.2C390.4 651 295 602 322.9 681.4c22.8 64.7 54.7 159 2.1 210-83.2 80.5-182 20.8-207.2 19.3-66-4-194.5 78.5-288 49.4-93.6-29-110-177.1-107.4-226.2 2.6-49-4.7-146-43.4-167.2Z"/><path fill="#8dcf86" d="M-246 246.5c-30-42 7.8-199.4-117-134.3-77.8 40.6-129.1 175.6-105.2 257 69 234.4 197.6 136 200.8 242.3 5.4 179.2 2 301.1 120 329.6 50.4 12.1 141.6 1 178-63.4 19.3-34.1 97.8-106 172-28.2 22.5 23.5 58.9 32.5 84.5 10.5 28.2-24.3 22.6-64.8 7.2-85-22.4-29.6-46-64.7-36.7-108.3 21.2-98.3 79.8-62.6 100.5-107.9 44.4-97.2-160.1-135-230.5-74.1C35.8 564-161 365.7-246 246.5Z"/><path fill="#8dcf86" d="M51.2 300h-6.4l8.5-49.1 6.4-.4-8.5 49.5Zm13 0h-6.5l8.6-49.9 6.4-.3-8.6 50.2Zm-25.8-.4-6.3-.3 8.2-47.6 6.4-.4-8.3 48.3Zm38.9-1.4-6.6 1.2 8.6-50 6.4-.4-8.4 49.2Zm-46-46 2.4-.2-8 46.7-6.2-1.2 7.8-45.5 4 .2Zm66.6 1.2-7.2 42-1.2.6-5.5 1 8.3-48.4h2l3.6 4.8ZM7 294.9l7.5-43.6 6.3.3-7.7 44.7-5.2-1-1-.4Zm1-44L1 293l-6-1.9 6.9-40.5 6.3.3Zm95.2 9 3 2.5 2.3 3.7-3.9 22.4-6.6 3.3h-.3l5.5-32Zm-108-9.7-6.6 38.8-6-2.3L-11 250l6.4.3Zm116 37.8 3-16.4 5.5 5.4-1 5.1-7.5 5.9Zm-128.5-38.4-5.9 34.3-5.7-3.6 5.3-31 6.3.3ZM-40.2 270l3.7-21.4 6.3.3-4.7 27.7-5.3-6.6Zm-8.7-23.8 6.2 1-2.8 16.1-4.5-11 .7-4.1.4-2Z"/><path fill="#3b7847" d="M253.8 248.2c1.6 0 2.9-.1 4 .6 3.5 2.2 5.4 8.1 5.4 14.2 0 6.4-2.4 13.6-6.6 14.6-1.3.3-1.5 0-2.5 0-5 0-9.1-6.5-9.1-14.6s3.8-14.7 8.8-14.8Z"/><ellipse cx="256" cy="263" fill="#4db343" rx="7.1" ry="14.7"/><path fill="#296034" d="m2 109.1 10.4 44.1H-8.4l10.4-44Z"/><path fill="#4db343" d="m2 109.1 10.4 44.1H-.8l2.8-44Z"/><path fill="none" stroke="#4c4c4c" stroke-width="4" d="M2 147.4v13.5"/><path fill="none" stroke="#2d5836" stroke-linecap="butt" stroke-width="4" d="M-387.6 205.5C-406.7 95.8-308.9 40.8-217 78c37.1 15 123.5 24.6 178.3 62.4C6.6 171.7 53.4 172 55 175"/><path fill="none" stroke="#2d5836" stroke-width="4" d="M226.5 244.4c1-.9 1.8-31.7 36.7-22.8a28.5 28.5 0 0 1 21.4 32.5M155 156.3c1-.9 24.8-36.9 60-29.3 30.4 6.5 12.9-44.2 65-32m100.8 55.8c-1.6 2.2 22.5 49-60.7 63.2-34.7 6-66-6.8-73.8-31.6M10 295.6c-6.4 12.9-6 24-35 29.4-28.9 5.4-87.2-15.1-65-106"/><path fill="none" stroke="#2d5836" stroke-width="4" d="M143.4 233.1c-4.3 3.3 4.8 48.5-59.1 63.6C20.5 312-63 281-61.7 226M190 281.9a63.6 63.6 0 0 1 0 74.7c-23.1 32.1-70.5 26.1-85 18-26.6-14.7-86.7-42-91.2 9.6-2.8 32.6 74 39.3 91.2 52.6 31 24.2 25 57.1 25 58.2 4 52.8-149.2 98.4-184.5-65"/><path fill="#3b7847" d="M116.2 154.7c84.5-.7 96.6 27.7 129.7 66.7 1.1 1.3-241.4 4.3-241.4 4.3s18.6-70.2 111.7-71Z"/><path fill="#8dcf86" d="M116.3 154.7c84.2 8.1 107.6 20.6 129.8 66.7 3 6.1-20.7 6.7-47 7.1-11.9.2-19.6 2.8-34 1.7-8.5-.7-16.2-7.3-25-8-18-1.3-38.8 1.9-54.4 0-34.7-4 24.5-68 30.6-67.5Z"/><path fill="#3b7847" d="M347.7 73.2c42.8-.9 68.7 28.5 74.7 77.7.2 1.4-142.4-1-142.4-1s20.7-75.7 67.7-76.7Z"/><path fill="none" stroke="#2d5836" stroke-linecap="butt" stroke-width="18.7" d="M185 205.4c-46.7 14.4-130.8 23.6-150 23-62-1.7-150-4-147.5-42.8 3-48 61.4 5.6 62.4-39 .9-36.9-42.8-6.6-42.5-35.2.2-26.7 29.2-6.9 27.6-35-1-19-25.8-13.2-23.3-28.1"/><path fill="none" stroke="#2d5836" stroke-width="18.7" d="M-40 657.6c-8.6-3-40-11.2-40-11.2s4.4-12.6 2-25c-2.8-14.6-12.5-29.4-12-30 8-11.2 38.7-46.4 45-54.5 122.3-155.6 257.4 3.4 325 54.5 27.8 21 90.4 10.2 100-41.4 17.8-95.4-110.3-87.6-120-198.6-8.2-93.9 49.8-138.2 110-150 126.5-25 80.4-161.3-27.6-138-56 12-102.8 80.5-115.2 173.2-10.7 80.4-122 26-119.4-9"/><path fill="#2d5836" d="M222 185.9c-2.3-2.1-4-5-19.1 4.1-4.7 2.8-20.9 6.6-20.9 6.6s1 7.4 1.5 9.2c.8 3.1 4.3 8.3 4.3 8.3s10.7-2.3 27.2-10.2c12.9-6.2 10-13.9 10-13.9s-.2-1.6-3-4.1Zm-101-11.8s1.5 14.6-32.9 15.9c-5.8.2-57.2-5-57.2-5s-3.4 3.1-5 5c-2.3 2.3-5.9 7-5.9 7s36.8 7.6 65 8c55.2.8 55.2-30.9 55.2-30.9s-4-1-7.4-1c-4.2-.1-11.8 1-11.8 1Z"/><path fill="#296034" d="M23 138.5 33 181H13l10-42.6Z"/><path fill="#4db343" d="M23 138.5 33 181H20.3l2.7-42.6Z"/><path fill="none" stroke="#4c4c4c" stroke-width="4" d="M23 175.5v13"/><path fill="#8c8c8c" d="M20.5 197.7h12.8V215H20.5z"/><path fill="#8c0008" d="m40.1 191.6-12.7.2-7 5.9h13l6.7-6Z"/><path fill="#d9d9d9" d="m46.8 197.7-6.7-6-6.8 6V215h13.5v-17.3Z"/><path fill="#595959" d="M36.8 202.2h6.5v6.5h-6.5z"/><path fill="#d9d9d9" d="M139 226.3h12.8v17.3H139z"/><path fill="#beed9a" d="m132.2 220.2 12.6.2 7 5.9H139l-6.8-6Z"/><path fill="#8c8c8c" d="m125.5 226.3 6.7-6 6.8 6v17.3h-13.5v-17.3Z"/><path fill="#595959" d="M128.9 230.8h6.5v6.5h-6.5z"/><path fill="#8c8c8c" d="M150.1 241.8h12.8v17.3h-12.8z"/><path fill="#0071a7" d="m169.8 235.7-12.7.2-7 5.9H163l6.8-6.1Z"/><path fill="#d9d9d9" d="m176.5 241.8-6.7-6.1-6.8 6v17.4h13.5v-17.3Z"/><path fill="#595959" d="M166.5 246.3h6.5v6.5h-6.5z"/><path fill="#8c8c8c" d="M230 81.1h12.8v17.3H230z"/><path fill="#f88948" d="m249.6 75-12.6.2-7 5.9h12.8l6.8-6.1Z"/><path fill="#d9d9d9" d="m256.3 81-6.7-6-6.8 6v17.4h13.5V81.1Z"/><path fill="#595959" d="M246.3 85.6h6.5v6.5h-6.5z"/><path fill="#065e7b" d="M247.8 190.2h22.4l15-6.7h-22.3l-15 6.7Z"/><path fill="#8c8c8c" d="M247.8 190.2h22.4V215h-22.4z"/><path fill="#3b7847" d="M107.4 246.6c1.7 0 3 0 4.2.7 3.5 2.2 5.4 8.2 5.4 14.4 0 6.5-2.5 13.8-6.7 14.9-1.3.3-1.5 0-2.6 0-5 0-9.2-6.7-9.2-15 0-8.1 3.8-14.9 9-15Z"/><ellipse cx="109.7" cy="261.7" fill="#4db343" rx="7.3" ry="14.9"/><path fill="#f7db6b" d="M173.7 108.6h10v3.8h-10z"/><path fill="#8c8c8c" d="M176 135.5h5.1V181H176z"/><path fill="#bfbfbf" d="M181.1 135.5h5.1V181h-5.1z"/><path fill="#009ce5" d="m183.7 112.4 7.6 23.1h-5l-2.6-23Z"/><path fill="#004363" d="m183.7 112.4-2.6 23.1h-5l7.6-23Z"/><path fill="#0071a7" d="m183.7 112.4 2.5 23.1h-5l2.5-23Z"/><path fill="#d9d9d9" d="M186.2 135.5h5.1V181h-5.1z"/><path fill="#8c8c8c" d="M47.2 112.3h6.4v57.4h-6.4z"/><path fill="#bfbfbf" d="M53.7 112.3h6.4v57.4h-6.4z"/><path fill="#009ce5" d="m56.9 83.2 9.6 29.1h-6.4l-3.2-29.1Z"/><path fill="#004363" d="m56.9 83.2-3.2 29.1h-6.5L57 83.2Z"/><path fill="#0071a7" d="m56.9 83.2 3.2 29.1h-6.4l3.2-29.1Z"/><path fill="#d9d9d9" d="M60.1 112.3h6.4v57.4h-6.4z"/><path fill="#bfbfbf" d="M162.7 99.8h8.3v74.4h-8.3zm-75-.1H96v74.4h-8.3zM44.6 143h4.6v41.1h-4.6zm158.4 0h4.6v41.1H203z"/><path fill="#d9d9d9" d="M171 99.8h8.3v74.4H171z"/><path fill="#595959" d="M95.5 115.4c.3-1.2.5-2.5.5-3.8 0-4.1-1.8-7.5-4.1-7.5s-4.2 3.4-4.2 7.5c0 1.3.2 2.6.6 3.8h7.2Zm74.9 0c.3-1.2.5-2.5.5-3.8 0-4.1-1.8-7.5-4.1-7.5s-4.2 3.4-4.2 7.5c0 1.3.2 2.6.6 3.8h7.2Z"/><path fill="#009ce5" d="m166.9 62 12.5 37.8H171L167 62Zm-75 0 12.5 37.8H96L92 62ZM47 122.2l6.8 20.8h-4.6L47 122.2Zm158.3 0 7 20.8h-4.7l-2.3-20.8ZM114.5 17l7.5 26.5h-5L114.5 17Zm30 0 7.5 26.5h-5L144.5 17Z"/><path fill="#004363" d="m166.9 62-4.2 37.8h-8.3L166.9 62Zm-75 0-4.2 37.8h-8.3L91.9 62ZM47 122.2 44.5 143H40l7-20.8Zm158.3 0L203 143h-4.6l7-20.8ZM114.5 17 112 43.5h-5l7.5-26.5Zm30 0L142 43.5h-5l7.5-26.5Z"/><path fill="#0071a7" d="m166.9 62 4.1 37.8h-8.3l4.2-37.8Zm-75 0L96 99.8h-8.3L92 62ZM47 122.2l2.2 20.8h-4.6l2.3-20.8Zm158.3 0 2.3 20.8H203l2.3-20.8ZM114.5 17l2.5 26.5h-5l2.5-26.5Zm30 0 2.5 26.5h-5l2.5-26.5Z"/><path fill="#d9d9d9" d="M96 99.8h8.3v74.4H96zM49.2 143h4.6v41.1h-4.6zm158.4 0h4.6v41.1h-4.6z"/><path fill="#f7db6b" d="M81.9 58.2h10V62h-10zm-35 21.2h10v3.8h-10zm-10 38.9h10v3.8h-10zm67.6-105.1h10V17h-10zm30 0h10V17h-10z"/><path fill="#8c8c8c" d="M137 43.5h5v130.6h-5zm-30 0h5v130.6h-5z"/><path fill="#bfbfbf" d="M142 43.5h5v130.6h-5zm-30 0h5v130.6h-5z"/><path fill="#d9d9d9" d="M147 43.5h5v130.6h-5zm-30 0h5v130.6h-5z"/><path fill="#b3b3b3" d="M104.4 116.4h16.7v57.7h-16.7z"/><path fill="#d9d9d9" d="M122 88.5h15v85.7h-15zm0-39.4h15v9h-15z"/><path fill="#0071a7" d="M122 45.3h15v3.8h-15z"/><path fill="#d9d9d9" d="M122 68.8h15v9h-15zm-1 47.6h33.3v57.7H121z"/><path fill="#0071a7" d="M104.3 108.1h50v8.3h-50z"/><path fill="#8c8c8c" d="M104.3 127.9h50v1.6h-50zm50.1-28.1h8.3v74.4h-8.3zm-75-.1h8.3v74.4h-8.3zM40 143h4.6v41.1H40zm158.4 0h4.6v41.1h-4.6z"/><path fill="#f7db6b" d="M156.9 58.2h10V62h-10zm38.4 60.1h10v3.8h-10z"/><path fill="#ccc" d="M60.1 124.1h19.3v7H60.1z"/><path fill="#595959" d="m140.2 174.1.3-4.8c0-11.9-4.4-21.5-9.9-21.5-5.4 0-9.8 9.6-9.8 21.5 0 1.6 0 3.2.2 4.8h19.2ZM112 90.8h5v4.9h-5zm-64 24.6h5v4.9h-5zm12.1 0h5v8.7h-5z"/><path fill="#8c8c8c" d="M110.2 119.3h5v4.9h-5z"/><path fill="#999" d="M121.2 119.3h5v4.9h-5zm10.9 0h5v4.9h-5zm11 0h5v4.9h-5z"/><path fill="#595959" d="M142 90.8h5v4.9h-5zm-30-20.1h5v5h-5zm30-.1h5v5h-5zm-30-20h5v5h-5zm30 0h5v5h-5zm-15 0h5v5h-5zm0 20.1h5v5h-5zm-5 20.1h15.1v5H122z"/><path fill="#999" d="M173.2 145.7v-5h-5v5h-5v-5h-5v5h-5v-5h-5v10h35v-10h-5v5h-5Zm-75.3 0v-5h-5v5h-5v-5h-5v5h-5v-5h-5v10h35v-10h-5v5h-5Z"/><path fill="#d9d9d9" d="M175.6 145.7v-5h-5v5h-5v-5h-5v5h-5v-5h-5v10h35v-10h-5v5h-5Zm-75.4 0v-5h-5v5h-5v-5h-5v5h-5v-5h-5v10h35v-10h-5v5h-5Z"/><path fill="#8c8c8c" d="M211.5 184.1h-65.2v-15c0-11.8-11.1-19.1-22.8-19.1-10.6 0-21.8 6.3-22 19.1v15h-65v-25h5v5h5v-5h5v5h5v-5h5v5h5v-5h5v5h5v-5h5v5h5c0-20 21.6-28.7 37-28.7 14.2 0 37.3 8.1 37.8 33.7h5.2v-5h5v5h5v-5h5v5h5v-5h5v5h5v-5h5v5h5v-5h5v20Z"/><path fill="#d9d9d9" d="M215 184.1h-65.2v-15c0-11.8-11-19.1-22.8-19.1-10.6 0-21.8 6.3-22 19.1v15H40v-25h5v5h5v-5h5v5h5v-5h5v5h5v-5h5v5h5v-5h5v5h5c0-20 21.6-28.7 37-28.7 14.2 0 37.3 8.1 37.8 33.7h5.2v-5h5v5h5v-5h5v5h5v-5h5v5h5v-5h5v5h5v-5h5v20Z"/><path fill="#73b3ce" d="M167.9 205.7c6.3-1.8 11.5-3 12.8 1.7 1.5 5.4-3.8 6.2-10.2 8-6.3 1.6-11.2 3.5-12.8-1.8-1.7-5.5 3.8-6.2 10.2-8Z"/></svg>