<?xml version="1.0" encoding="UTF-8" standalone="no"?>
<!DOCTYPE svg PUBLIC "-//W3C//DTD SVG 1.1//EN" "http://www.w3.org/Graphics/SVG/1.1/DTD/svg11.dtd">
<svg width="100%" height="100%" viewBox="0 0 250 250" version="1.1" xmlns="http://www.w3.org/2000/svg" xmlns:xlink="http://www.w3.org/1999/xlink" xml:space="preserve" xmlns:serif="http://www.serif.com/" style="fill-rule:evenodd;clip-rule:evenodd;stroke-linejoin:round;stroke-miterlimit:1.5;">
    <rect id="Artboard" x="0" y="0" width="249.983" height="249.978" style="fill:none;"/>
    <clipPath id="_clip1">
        <rect x="0" y="0" width="249.983" height="249.978"/>
    </clipPath>
    <g clip-path="url(#_clip1)">
        <g id="background">
            <rect x="0" y="0" width="1000" height="1000" style="fill:#16727e;"/>
        </g>
        <path id="OSTROV" d="M153.69,607.991c-28.375,-53.948 -155.929,-97.021 -148.367,-339.529c4.955,-158.905 105.987,-230.291 181.634,-229.267c45.668,0.619 101.881,7.618 243.003,67.338c99.102,41.937 145.27,52.647 173.947,41.788c70.336,-26.635 78.963,-37.651 117.671,-57.459c35.806,-18.323 72.949,-47.016 100.379,-57.999c82.329,-32.963 224.327,2.481 138.043,160.092c-21.664,39.572 -2.911,119.719 -26.856,288.402c-26.985,190.104 -78.462,135.435 -88.144,180c-6.991,32.18 55.472,144.554 15,220c-52.923,98.656 -196.582,64.399 -243.043,61.506c-69.92,-4.353 -180.86,82.023 -280,50c-213.25,-68.879 -120.598,-265.721 -183.267,-384.872Z" style="fill:#ccc;"/>
        <path id="OSTROV1" serif:id="OSTROV" d="M178.951,566.685c-48.024,-26.407 -127.757,-54.809 -158.951,-198.614c-30.788,-141.934 33.54,-286.996 158.951,-322.224c41.39,-11.626 127.388,7.489 260.407,62.119c93.411,38.363 136.929,48.16 163.959,38.226c66.296,-24.365 189.473,-97.538 256.767,-103.2c50.286,-4.23 127.727,20.318 95,118.61c-3.151,9.465 -14.638,41.602 -15,56.686c-1.979,82.557 -15.392,249.522 -27.497,314.189c-22.195,118.58 -117.574,69.601 -89.671,148.88c22.785,64.739 54.689,159.058 2.084,210c-83.151,80.524 -181.97,20.892 -207.216,19.367c-65.905,-3.982 -194.503,78.457 -288.037,49.425c-93.534,-29.032 -110.025,-177.146 -107.395,-226.223c2.631,-49.077 -4.685,-145.953 -43.401,-167.241Z" style="fill:#1f6352;"/>
        <path d="M246.27,246.357c-29.98,-41.95 7.899,-199.475 -116.813,-134.367c-77.933,40.687 -123.412,167.934 -99.457,249.367c68.945,234.369 191.807,143.626 195,250c5.38,179.218 2.022,301.109 120,329.559c50.361,12.144 145.249,4.752 181.615,-59.559c19.337,-34.196 99.184,-117.791 173.385,-40c22.48,23.568 59.424,27.035 85,5c66.971,-57.698 -32.426,-108.17 -35,-179.869c-2.734,-76.182 84.568,-62.412 105,-110.131c42.076,-98.265 -164.682,-132.728 -235,-71.869c-91.834,79.48 -288.586,-118.99 -373.73,-238.131Z" style="fill:#46af82;"/>
        <path d="M90.283,365c-19.159,-109.728 26.393,-155.295 118.205,-118.205c67.163,27.132 91.402,66.592 94.889,73.205c16.668,31.601 60.338,37.647 70.205,21.706" style="fill:none;stroke:#274b41;stroke-width:4px;"/>
        <path d="M112.435,205.533c-19.159,-109.728 78.671,-164.704 170.484,-127.614c37.108,14.991 123.453,24.583 178.258,62.392c45.453,31.356 92.262,31.62 93.823,34.579" style="fill:none;stroke:#274b41;stroke-width:4px;"/>
        <g id="cesty-velke" serif:id="cesty velke">
            <path d="M403.011,212.619c-6,8.999 -21.222,35.867 -127.605,24.934c-73.676,-7.572 -104.488,-46.336 -161.633,-32.36c-74.666,18.26 -101.994,141.37 -18.773,251.164c30.287,39.958 144.553,117.69 201.24,120" style="fill:none;stroke:#274b41;stroke-width:18.67px;stroke-linecap:round;"/>
        </g>
        <g id="namesti">
            <path id="namesti1" serif:id="namesti" d="M256.452,152.46c0.311,-23.052 -10.996,-17.13 -55,-17.46c-40.099,-0.301 -124.804,-6.732 -120,35c1.55,13.462 79.727,11.924 95,15c27.428,5.524 79.707,-10.827 80,-32.54Z" style="fill:#c6d7a4;"/>
            <g>
                <rect x="200.605" y="178.244" width="24.395" height="21.756" style="fill:#d9d9d9;"/>
                <rect x="188.828" y="178.287" width="12.025" height="21.567" style="fill:#8c8c8c;"/>
                <rect x="188.828" y="177.995" width="36.172" height="1.608" style="fill:#d9d9d9;"/>
            </g>
            <g id="satn">
                <path d="M175.828,112.991l0.733,-0l8.439,20.965l-33.754,-0l8.438,-20.965l0.947,-0l7.598,-6.366l7.599,6.366Z" style="fill:#d9d9d9;"/>
                <path d="M166.082,112.2l0.878,0.791l-1.182,0.482l-4.36,20.483l-10.644,-0l8.439,-20.965l0.947,-0l8.069,-6.366l-2.147,5.575Z" style="fill:#8c8c8c;"/>
                <rect x="159.655" y="103.568" width="8.575" height="3.057" style="fill:#940aa4;"/>
            </g>
            <g id="stanek">
                <rect x="233.733" y="132.022" width="24.146" height="10.921" style="fill:#8c8c8c;"/>
                <rect x="233.733" y="121.187" width="24.146" height="10.878" style="fill:#262626;"/>
                <rect x="233.685" y="121.187" width="36.267" height="1.281" style="fill:#d9d9d9;"/>
            </g>
            <g id="majka">
                <path d="M230.498,77.935l-19.271,6.069l0.954,3.031l19.271,-6.069l-0.954,-3.031Z" style="fill:#940aa4;"/>
                <path d="M212.665,68.586c-0.025,-4.764 -5.685,-4.799 -5.581,0c0.337,15.41 0.392,68.459 0,79.431c-0.17,4.787 5.564,4.779 5.581,0c0.09,-24.577 0.078,-64.537 -0,-79.431Z" style="fill:#262626;"/>
                <path d="M198.554,74.772l-20.115,-1.885l-0.297,3.164l20.116,1.884l0.296,-3.163Z" style="fill:#940aa4;"/>
                <path d="M212.728,75c12.424,0 16.808,4.156 16.808,10.315c-0,6.16 -10.087,11.16 -22.51,11.16c-12.424,0 -25.788,-5.172 -25.788,-11.331c-0,-6.159 12.179,-10.022 24.602,-10.022" style="fill:none;stroke:#3e9c76;stroke-width:9.33px;"/>
                <path d="M212.676,75.01c11.773,0 19.988,4.372 19.988,9.318c-0,4.946 -9.559,8.962 -21.332,8.962c-11.774,-0 -21.332,-4.016 -21.332,-8.962c-0,-4.946 5.307,-9.328 17.081,-9.328" style="fill:none;stroke:#63cba1;stroke-width:9.33px;"/>
                <path d="M189.882,80.935l-19.27,6.069l0.954,3.031l19.271,-6.069l-0.955,-3.031Z" style="fill:#940aa4;"/>
                <path d="M231.842,87.035l-16.842,11.159l1.755,2.649l16.842,-11.16l-1.755,-2.648Z" style="fill:#940aa4;"/>
                <path d="M199.395,93.237l-17.639,9.851l1.549,2.774l17.64,-9.85l-1.55,-2.775Z" style="fill:#940aa4;"/>
            </g>
        </g>
        <g id="lanoka">
            <g id="dum-lanoka" serif:id="dum lanoka">
                <path d="M231.815,175.352l29.222,0l19.481,-22.64l-31.225,-0l-17.478,22.64Z" style="fill:#005f8c;"/>
                <rect x="231.815" y="175.352" width="29.222" height="48.704" style="fill:#8c8c8c;"/>
                <rect x="241.555" y="204.575" width="9.741" height="9.741" style="fill:#262626;"/>
                <rect x="241.555" y="185.093" width="9.741" height="9.741" style="fill:#262626;"/>
            </g>
            <g id="D8">
            </g>
        </g>
        <g id="satelit">
        </g>
        <g id="domky">
            <g id="D1">
                <rect x="133.25" y="229.416" width="18.568" height="32.453" style="fill:#8c8c8c;"/>
                <path d="M133.25,229.416l18.568,-0l8.217,-15.135l-18.298,0.044l-8.487,15.091Z" style="fill:#005f8c;"/>
                <path d="M176.469,214.281l8.217,15.719l-0,31.869l-32.868,-0l-0,-32.453l8.217,-15.135l16.434,0Z" style="fill:#d9d9d9;"/>
                <rect x="138.838" y="249.106" width="6.55" height="12.763" style="fill:#262626;"/>
                <rect x="171.365" y="236.016" width="6.55" height="6.55" style="fill:#262626;"/>
                <rect x="171.365" y="249.285" width="6.55" height="6.55" style="fill:#262626;"/>
                <rect x="158.435" y="235.846" width="6.55" height="6.55" style="fill:#262626;"/>
                <path d="M171.601,228.783c0.309,-0.841 0.471,-1.794 0.471,-2.765c0,-3.053 -1.576,-5.532 -3.518,-5.532c-1.941,0 -3.517,2.479 -3.517,5.532c-0,0.971 0.162,1.924 0.471,2.765l6.093,0Z" style="fill:#262626;"/>
                <rect x="158.435" y="249.116" width="6.55" height="6.55" style="fill:#262626;"/>
                <rect x="138.888" y="235.956" width="6.55" height="6.55" style="fill:#262626;"/>
            </g>
            <g id="D7">
            </g>
            <g id="D71" serif:id="D7">
            </g>
            <g id="D72" serif:id="D7">
            </g>
            <g id="D73" serif:id="D7">
            </g>
            <g id="D74" serif:id="D7">
            </g>
            <g id="D75" serif:id="D7">
            </g>
            <g id="D2">
            </g>
            <g id="D21" serif:id="D2">
            </g>
            <g id="D10">
            </g>
            <g id="D101" serif:id="D10">
            </g>
            <g id="D102" serif:id="D10">
            </g>
            <g id="D01">
            </g>
        </g>
        <g id="staba">
        </g>
        <g id="D22" serif:id="D2">
        </g>
        <g id="D5">
        </g>
        <g id="TOVANA">
        </g>
        <g id="panelaky">
        </g>
        <g id="letiste">
        </g>
        <g id="letadlo">
        </g>
        <g id="letadlo1" serif:id="letadlo">
        </g>
        <g id="tunel-s-vlakem" serif:id="tunel s vlakem">
        </g>
        <g id="hrad">
        </g>
        <g id="auta">
        </g>
    </g>
    <g id="fial">
    </g>
</svg>
