<?xml version="1.0" encoding="UTF-8" standalone="no"?>
<!DOCTYPE svg PUBLIC "-//W3C//DTD SVG 1.1//EN" "http://www.w3.org/Graphics/SVG/1.1/DTD/svg11.dtd">
<svg width="250px" height="250px" version="1.1" xmlns="http://www.w3.org/2000/svg" xmlns:xlink="http://www.w3.org/1999/xlink" xml:space="preserve" xmlns:serif="http://www.serif.com/" style="fill-rule:evenodd;clip-rule:evenodd;stroke-linecap:round;stroke-linejoin:round;stroke-miterlimit:1.5;">
    <rect id="Artboard" x="-500" y="0" width="999.991" height="1000" style="fill:none;"/>
    <g id="background">
    </g>
    <path id="OSTROV" d="M-346.31,607.991C-374.685,554.043 -502.239,510.97 -494.677,268.462C-489.722,109.557 -388.69,38.171 -313.043,39.195C-267.375,39.814 -211.162,46.813 -70.04,106.533C29.062,148.47 75.23,159.18 103.907,148.321C174.243,121.686 182.87,110.67 221.578,90.862C257.384,72.539 294.527,43.846 321.957,32.863C404.286,-0.1 546.284,35.344 460,192.955C438.336,232.527 457.089,312.674 433.144,481.357C406.159,671.461 354.682,616.792 345,661.357C338.009,693.537 400.472,805.911 360,881.357C307.077,980.013 163.418,945.756 116.957,942.863C47.037,938.51 -63.903,1024.89 -163.043,992.863C-376.293,923.984 -283.641,727.142 -346.31,607.991Z" style="fill:#e2e1bf;"/>
    <path id="OSTROV1" serif:id="OSTROV" d="M-321.049,566.685C-369.073,540.278 -448.806,511.876 -480,368.071C-510.788,226.137 -446.46,81.075 -321.049,45.847C-279.659,34.221 -193.661,53.336 -60.642,107.966C32.769,146.329 76.287,156.126 103.317,146.192C169.613,121.827 292.79,48.654 360.084,42.992C410.37,38.762 487.811,63.31 455.084,161.602C451.933,171.067 440.446,203.204 440.084,218.288C438.105,300.845 424.692,467.81 412.587,532.477C390.392,651.057 295.013,602.078 322.916,681.357C345.701,746.096 377.605,840.415 325,891.357C241.849,971.881 143.03,912.249 117.784,910.724C51.879,906.742 -76.719,989.181 -170.253,960.149C-263.787,931.117 -280.278,783.003 -277.648,733.926C-275.017,684.849 -282.333,587.973 -321.049,566.685Z" style="fill:#589765;"/>
    <path d="M-246.095,246.528C-276.075,204.578 -238.196,47.053 -362.908,112.161C-440.841,152.848 -492.123,287.801 -468.168,369.234C-399.223,603.603 -270.558,505.153 -267.365,611.528C-261.985,790.746 -265.343,912.637 -147.365,941.087C-97.004,953.231 -5.758,942.058 30.608,877.748C49.945,843.552 128.434,771.669 202.635,849.46C225.115,873.028 261.478,882.035 287.055,860C315.287,835.677 309.653,795.206 294.345,775C271.902,745.375 248.234,710.258 257.635,666.659C278.818,568.426 337.367,604.15 358.066,558.83C402.476,461.597 197.953,423.8 127.635,484.659C35.801,564.139 -160.951,365.669 -246.095,246.528Z" style="fill:#8dcf86;"/>
    <g id="pole">
        <path d="M51.227,300L44.843,300L53.269,250.896L59.717,250.517L51.227,300ZM64.108,300L57.724,300L66.281,250.131L72.73,249.752L64.108,300ZM38.409,299.634L32.087,299.271L40.256,251.661L46.705,251.282L38.409,299.634ZM77.299,298.192L70.714,299.362L79.293,249.366L85.742,248.987L77.299,298.192ZM31.368,252.183L33.693,252.047L25.682,298.731L19.509,297.508L27.323,251.964L31.368,252.183ZM97.873,253.357L90.652,295.439L89.473,296.028L84.001,297.001L92.305,248.601L94.206,248.586L97.873,253.357ZM7.07,294.93L14.561,251.272L20.886,251.615L13.225,296.263L8.047,295.237L7.07,294.93ZM8.124,250.923L0.905,292.996L-5.153,291.095L1.799,250.581L8.124,250.923ZM103.256,259.848L106.318,262.368L108.573,266.065L104.723,288.507L98.095,291.776L97.758,291.893L103.256,259.848ZM-4.639,250.232L-11.291,289.003L-17.282,286.715L-10.963,249.889L-4.639,250.232ZM111.134,287.872L114.137,271.509L119.603,276.857L118.521,282.025L111.134,287.872ZM-17.401,249.54L-23.288,283.849L-29.045,280.199L-23.726,249.197L-17.401,249.54ZM-40.161,269.91L-36.488,248.505L-30.163,248.848L-34.905,276.484L-40.161,269.91ZM-48.935,246.076L-42.74,247.075L-45.51,263.218L-50,252.183L-49.297,248.089L-48.935,246.076Z" style="fill:#8dcf86;"/>
    </g>
    <g id="kere">
    </g>
    <g>
        <g>
            <g id="strom">
            </g>
            <g id="strom1" serif:id="strom">
            </g>
            <g id="strom2" serif:id="strom">
            </g>
            <g id="strom3" serif:id="strom">
            </g>
            <g id="strom4" serif:id="strom">
            </g>
            <g id="strom5" serif:id="strom">
            </g>
            <g id="strom6" serif:id="strom">
            </g>
            <g id="strom7" serif:id="strom">
                <g>
                    <path d="M253.791,248.196C255.388,248.17 256.701,248.059 257.857,248.814C261.271,251.043 263.166,256.943 263.166,262.989C263.166,269.404 260.752,276.565 256.623,277.602C255.303,277.934 255.123,277.653 254.083,277.653C249.07,277.653 245,271.083 245,262.989C245,254.896 248.779,248.275 253.791,248.196Z" style="fill:#3b7847;"/>
                    <ellipse cx="256.023" cy="262.989" rx="7.143" ry="14.664" style="fill:#4db343;"/>
                </g>
            </g>
            <g id="strom8" serif:id="strom">
            </g>
            <g id="strom9" serif:id="strom">
            </g>
            <g id="strom10" serif:id="strom">
            </g>
            <g id="strom11" serif:id="strom">
            </g>
            <g id="strom12" serif:id="strom">
            </g>
            <g id="strom13" serif:id="strom">
            </g>
            <g id="strom14" serif:id="strom">
            </g>
        </g>
    </g>
    <g>
        <path d="M1.987,109.14L12.354,153.2L-8.381,153.2L1.987,109.14Z" style="fill:#296034;"/>
        <path d="M1.987,109.14L12.354,153.2L-0.775,153.2L1.987,109.14Z" style="fill:#4db343;"/>
        <path d="M1.987,147.4L1.987,160.877" style="fill:none;stroke:#4c4c4c;stroke-width:4px;"/>
    </g>
    <g id="male-cesty" serif:id="male cesty">
        <path d="M-387.565,205.533C-406.724,95.805 -308.894,40.829 -217.081,77.919C-179.973,92.91 -93.628,102.502 -38.823,140.311C6.63,171.667 53.439,171.931 55,174.89" style="fill:none;stroke:#2d5836;stroke-width:4px;stroke-linecap:butt;"/>
        <g id="les">
        </g>
        <path d="M226.464,244.402C227.541,243.541 228.312,212.696 263.165,221.618C277.723,225.345 286.964,238.765 284.644,254.096" style="fill:none;stroke:#2d5836;stroke-width:4px;"/>
        <path d="M155,156.28C156.077,155.418 179.823,119.415 215,126.963C245.378,133.481 227.881,82.771 280,95" style="fill:none;stroke:#2d5836;stroke-width:4px;"/>
        <path d="M380.771,150.827C379.152,152.969 403.263,199.737 320.113,213.984C285.382,219.934 254.094,207.169 246.316,182.391" style="fill:none;stroke:#2d5836;stroke-width:4px;"/>
        <path d="M10,295.585C3.562,308.473 3.921,319.615 -25,325C-53.873,330.376 -112.229,309.88 -90,219.028" style="fill:none;stroke:#2d5836;stroke-width:4px;"/>
        <path d="M143.392,233.143C139.08,236.45 148.177,281.557 84.288,296.749C20.504,311.916 -62.893,280.966 -61.724,225.991" style="fill:none;stroke:#2d5836;stroke-width:4px;"/>
        <path d="M190,281.877C210.48,313.415 201.148,341.147 190,356.629C166.902,388.708 119.455,382.719 105,374.681C78.403,359.891 18.287,332.572 13.824,384.186C11.006,416.772 87.815,423.471 105,436.822C136.066,460.958 129.917,493.9 130,495C133.976,547.767 -19.245,593.416 -54.521,430" style="fill:none;stroke:#2d5836;stroke-width:4px;"/>
    </g>
    <g id="hory">
        <path id="hora" d="M116.202,154.685C200.733,153.967 212.804,182.375 245.886,221.357C247.049,222.727 4.536,225.665 4.536,225.665C4.536,225.665 23.144,155.476 116.202,154.685Z" style="fill:#3b7847;"/>
        <path id="hora1" serif:id="hora" d="M116.257,154.685C200.52,162.823 223.91,175.295 246.133,221.357C249.112,227.531 225.401,228.056 199.184,228.52C187.218,228.731 179.486,231.309 165.131,230.204C156.569,229.544 148.949,222.922 140.095,222.263C122.026,220.918 101.296,224.055 85.69,222.263C50.993,218.281 110.248,154.105 116.257,154.685Z" style="fill:#8dcf86;"/>
        <path id="hora2" serif:id="hora" d="M347.734,73.228C390.495,72.328 416.435,101.688 422.383,150.895C422.558,152.339 280,149.939 280,149.939C280,149.939 300.659,74.22 347.734,73.228Z" style="fill:#3b7847;"/>
    </g>
    <g id="ker">
    </g>
    <g id="ker1" serif:id="ker">
    </g>
    <g id="ker2" serif:id="ker">
    </g>
    <g id="strom15" serif:id="strom">
    </g>
    <g id="strom16" serif:id="strom">
    </g>
    <g id="ker3" serif:id="ker">
    </g>
    <g id="cesty-velke" serif:id="cesty velke">
        <path d="M185,205.373C138.32,219.821 54.228,229.044 35,228.494C-27.008,226.722 -115.076,224.49 -112.538,185.591C-109.412,137.692 -51.105,191.248 -50.091,146.687C-49.249,109.724 -92.927,139.997 -92.632,111.357C-92.357,84.693 -63.38,104.496 -65,76.357C-66.094,57.359 -90.76,63.177 -88.322,48.279" style="fill:none;stroke:#2d5836;stroke-width:18.67px;stroke-linecap:butt;"/>
        <path d="M-40,657.586C-48.648,654.653 -79.983,646.357 -79.983,646.357C-79.983,646.357 -75.565,633.815 -77.976,621.357C-80.787,606.833 -90.46,592.034 -89.983,591.357C-82.086,580.163 -51.319,544.992 -45,536.948C77.268,381.295 212.404,540.308 280.017,591.357C307.806,612.338 370.358,601.557 380,550C397.845,454.575 269.733,462.44 260.017,351.357C251.808,257.505 309.765,213.215 370.017,201.357C496.517,176.462 450.386,40.069 342.374,63.309C286.476,75.336 239.552,143.877 227.192,236.614C216.476,317.022 105.294,262.56 107.815,227.688" style="fill:none;stroke:#2d5836;stroke-width:18.67px;"/>
        <path d="M221.993,185.895C219.671,183.793 218.048,180.863 202.883,190C198.221,192.809 182.044,196.643 182.044,196.643C182.044,196.643 182.993,203.969 183.495,205.833C184.324,208.912 187.795,214.085 187.795,214.085C187.795,214.085 198.493,211.758 215,203.888C227.9,197.737 225,190 225,190C225,190 224.818,188.45 221.993,185.895Z" style="fill:#2d5836;"/>
        <path d="M121.02,174.131C121.02,174.131 122.532,188.666 88.139,190C82.325,190.226 30.91,185 30.91,185C30.91,185 27.546,188.136 25.812,190C23.64,192.334 20,196.964 20,196.964C20,196.964 56.79,204.587 85,205C140.225,205.808 140.227,174.132 140.227,174.132C140.227,174.132 136.144,173.054 132.811,173.028C128.644,172.995 121.02,174.131 121.02,174.131Z" style="fill:#2d5836;"/>
    </g>
    <g id="strom17" serif:id="strom">
    </g>
    <g id="strom18" serif:id="strom">
    </g>
    <g id="strom19" serif:id="strom">
    </g>
    <g id="strom20" serif:id="strom">
    </g>
    <g id="stromy">
    </g>
    <g id="namesti">
    </g>
    <g id="smrky">
        <g>
            <path d="M22.955,138.481L32.974,181.061L12.936,181.061L22.955,138.481Z" style="fill:#296034;"/>
            <path d="M22.955,138.481L32.974,181.061L20.286,181.061L22.955,138.481Z" style="fill:#4db343;"/>
            <path d="M22.955,175.456L22.955,188.481" style="fill:none;stroke:#4c4c4c;stroke-width:4px;"/>
        </g>
    </g>
    <g id="listnace">
    </g>
    <g id="lanoka">
    </g>
    <g id="strom21" serif:id="strom">
    </g>
    <g id="satelit">
    </g>
    <g id="domky">
        <g id="D1">
        </g>
        <g id="D7">
        </g>
        <g id="D71" serif:id="D7">
            <rect x="20.474" y="197.704" width="12.844" height="17.313" style="fill:#8c8c8c;"/>
            <path d="M40.123,191.617L27.445,191.831L20.474,197.704L33.318,197.704L40.123,191.617Z" style="fill:#8c0008;"/>
            <path d="M46.817,197.704L40.123,191.617L33.318,197.704L33.318,215.016L46.817,215.016L46.817,197.704Z" style="fill:#d9d9d9;"/>
            <rect x="36.792" y="202.213" width="6.55" height="6.55" style="fill:#595959;"/>
        </g>
        <g id="D72" serif:id="D7">
        </g>
        <g id="D73" serif:id="D7">
            <rect x="138.973" y="226.294" width="12.844" height="17.313" style="fill:#d9d9d9;"/>
            <path d="M132.168,220.208L144.845,220.422L151.817,226.294L138.973,226.294L132.168,220.208Z" style="fill:#beed9a;"/>
            <path d="M125.474,226.294L132.168,220.208L138.973,226.294L138.973,243.607L125.474,243.607L125.474,226.294Z" style="fill:#8c8c8c;"/>
            <rect x="128.949" y="230.804" width="6.55" height="6.55" style="fill:#595959;"/>
        </g>
        <g id="D74" serif:id="D7">
        </g>
        <g id="D75" serif:id="D7">
        </g>
        <g id="D76" serif:id="D7">
        </g>
        <g id="D77" serif:id="D7">
        </g>
        <g id="D78" serif:id="D7">
        </g>
        <g id="D79" serif:id="D7">
        </g>
        <g id="D710" serif:id="D7">
            <rect x="150.146" y="241.766" width="12.844" height="17.313" style="fill:#8c8c8c;"/>
            <path d="M169.795,235.679L157.117,235.894L150.146,241.766L162.989,241.766L169.795,235.679Z" style="fill:#0071a7;"/>
            <path d="M176.489,241.766L169.795,235.679L162.989,241.766L162.989,259.079L176.489,259.079L176.489,241.766Z" style="fill:#d9d9d9;"/>
            <rect x="166.464" y="246.276" width="6.55" height="6.55" style="fill:#595959;"/>
        </g>
        <g id="D711" serif:id="D7">
            <rect x="230" y="81.087" width="12.844" height="17.313" style="fill:#8c8c8c;"/>
            <path d="M249.649,75L236.972,75.214L230,81.087L242.844,81.087L249.649,75Z" style="fill:#f88948;"/>
            <path d="M256.343,81.087L249.649,75L242.844,81.087L242.844,98.4L256.343,98.4L256.343,81.087Z" style="fill:#d9d9d9;"/>
            <rect x="246.319" y="85.596" width="6.55" height="6.55" style="fill:#595959;"/>
        </g>
        <g id="D712" serif:id="D7">
        </g>
        <g id="D713" serif:id="D7">
        </g>
        <g id="D714" serif:id="D7">
        </g>
        <g id="D715" serif:id="D7">
        </g>
        <g id="D716" serif:id="D7">
        </g>
        <g id="D2">
        </g>
        <g id="D21" serif:id="D2">
            <path d="M247.83,190.225L270.197,190.225L285.194,183.498L262.923,183.498L247.83,190.225Z" style="fill:#065e7b;"/>
            <rect x="247.83" y="190.225" width="22.358" height="24.791" style="fill:#8c8c8c;"/>
        </g>
        <g id="D10">
        </g>
        <g id="D101" serif:id="D10">
        </g>
        <g id="D102" serif:id="D10">
        </g>
        <g id="D01">
        </g>
    </g>
    <g id="strom22" serif:id="strom">
    </g>
    <g id="strom23" serif:id="strom">
        <g>
            <path d="M107.447,246.646C109.071,246.62 110.407,246.507 111.582,247.275C115.055,249.542 116.983,255.544 116.983,261.694C116.983,268.219 114.527,275.503 110.327,276.558C108.985,276.895 108.801,276.61 107.743,276.61C102.644,276.61 98.504,269.926 98.504,261.694C98.504,253.462 102.348,246.727 107.447,246.646Z" style="fill:#3b7847;"/>
            <ellipse cx="109.717" cy="261.694" rx="7.266" ry="14.916" style="fill:#4db343;"/>
        </g>
    </g>
    <g id="staba">
    </g>
    <g id="chladici-vez" serif:id="chladici vez">
    </g>
    <g id="D22" serif:id="D2">
    </g>
    <g id="D5">
    </g>
    <g id="TOVANA">
    </g>
    <g id="strom24" serif:id="strom">
    </g>
    <g id="strom25" serif:id="strom">
    </g>
    <g id="panelaky">
    </g>
    <g id="strom26" serif:id="strom">
    </g>
    <g id="strom27" serif:id="strom">
    </g>
    <g id="letiste">
    </g>
    <g id="strom28" serif:id="strom">
    </g>
    <g id="strom29" serif:id="strom">
    </g>
    <g id="tunel-s-vlakem" serif:id="tunel s vlakem">
    </g>
    <g id="strom30" serif:id="strom">
    </g>
    <g id="hrad">
        <rect x="173.687" y="108.589" width="10" height="3.846" style="fill:#f7db6b;"/>
        <g>
            <rect x="176.035" y="135.507" width="5.101" height="45.539" style="fill:#8c8c8c;"/>
            <rect x="181.137" y="135.507" width="5.101" height="45.539" style="fill:#bfbfbf;"/>
            <path d="M183.687,112.435L191.339,135.531L186.238,135.531L183.687,112.435Z" style="fill:#009ce5;"/>
            <path d="M183.687,112.435L181.137,135.531L176.035,135.531L183.687,112.435Z" style="fill:#004363;"/>
            <path d="M183.687,112.435L186.238,135.531L181.137,135.531L183.687,112.435Z" style="fill:#0071a7;"/>
            <rect x="186.238" y="135.531" width="5.101" height="45.539" style="fill:#d9d9d9;"/>
        </g>
        <g>
            <rect x="47.22" y="112.302" width="6.434" height="57.437" style="fill:#8c8c8c;"/>
            <rect x="53.654" y="112.302" width="6.434" height="57.437" style="fill:#bfbfbf;"/>
            <path d="M56.871,83.202L66.522,112.333L60.088,112.333L56.871,83.202Z" style="fill:#009ce5;"/>
            <path d="M56.871,83.202L53.654,112.333L47.22,112.333L56.871,83.202Z" style="fill:#004363;"/>
            <path d="M56.871,83.202L60.088,112.333L53.654,112.333L56.871,83.202Z" style="fill:#0071a7;"/>
            <rect x="60.088" y="112.333" width="6.434" height="57.437" style="fill:#d9d9d9;"/>
        </g>
        <rect x="162.694" y="99.776" width="8.334" height="74.356" style="fill:#bfbfbf;"/>
        <rect x="87.708" y="99.736" width="8.334" height="74.396" style="fill:#bfbfbf;"/>
        <rect x="44.605" y="143.001" width="4.605" height="41.109" style="fill:#bfbfbf;"/>
        <rect x="203.032" y="143.001" width="4.605" height="41.109" style="fill:#bfbfbf;"/>
        <rect x="171.028" y="99.776" width="8.334" height="74.356" style="fill:#d9d9d9;"/>
        <path d="M95.484,115.382C95.849,114.242 96.042,112.949 96.042,111.632C96.042,107.493 94.175,104.132 91.875,104.132C89.575,104.132 87.708,107.493 87.708,111.632C87.708,112.949 87.9,114.242 88.266,115.382L95.484,115.382Z" style="fill:#595959;"/>
        <path d="M170.372,115.382C170.738,114.242 170.93,112.949 170.93,111.632C170.93,107.493 169.063,104.132 166.763,104.132C164.463,104.132 162.596,107.493 162.596,111.632C162.596,112.949 162.789,114.242 163.154,115.382L170.372,115.382Z" style="fill:#595959;"/>
        <path d="M166.861,62.044L179.362,99.776L171.028,99.776L166.861,62.044Z" style="fill:#009ce5;"/>
        <path d="M91.875,62.044L104.376,99.776L96.042,99.776L91.875,62.044Z" style="fill:#009ce5;"/>
        <path d="M46.908,122.174L53.815,143.023L49.21,143.023L46.908,122.174Z" style="fill:#009ce5;"/>
        <path d="M205.335,122.174L212.243,143.023L207.637,143.023L205.335,122.174Z" style="fill:#009ce5;"/>
        <path d="M114.491,17.027L121.991,43.502L116.991,43.502L114.491,17.027Z" style="fill:#009ce5;"/>
        <path d="M144.491,17.027L151.991,43.502L146.991,43.502L144.491,17.027Z" style="fill:#009ce5;"/>
        <path d="M166.861,62.044L162.694,99.776L154.36,99.776L166.861,62.044Z" style="fill:#004363;"/>
        <path d="M91.875,62.044L87.708,99.776L79.374,99.776L91.875,62.044Z" style="fill:#004363;"/>
        <path d="M46.908,122.174L44.605,143.023L40,143.023L46.908,122.174Z" style="fill:#004363;"/>
        <path d="M205.335,122.174L203.032,143.023L198.427,143.023L205.335,122.174Z" style="fill:#004363;"/>
        <path d="M114.491,17.027L111.991,43.502L106.991,43.502L114.491,17.027Z" style="fill:#004363;"/>
        <path d="M144.491,17.027L141.991,43.502L136.991,43.502L144.491,17.027Z" style="fill:#004363;"/>
        <path d="M166.861,62.044L171.028,99.776L162.694,99.776L166.861,62.044Z" style="fill:#0071a7;"/>
        <path d="M91.875,62.044L96.042,99.776L87.708,99.776L91.875,62.044Z" style="fill:#0071a7;"/>
        <path d="M46.908,122.174L49.21,143.023L44.605,143.023L46.908,122.174Z" style="fill:#0071a7;"/>
        <path d="M205.335,122.174L207.637,143.023L203.032,143.023L205.335,122.174Z" style="fill:#0071a7;"/>
        <path d="M114.491,17.027L116.991,43.502L111.991,43.502L114.491,17.027Z" style="fill:#0071a7;"/>
        <path d="M144.491,17.027L146.991,43.502L141.991,43.502L144.491,17.027Z" style="fill:#0071a7;"/>
        <rect x="96.042" y="99.776" width="8.334" height="74.396" style="fill:#d9d9d9;"/>
        <rect x="49.21" y="143.023" width="4.605" height="41.109" style="fill:#d9d9d9;"/>
        <rect x="207.637" y="143.023" width="4.605" height="41.109" style="fill:#d9d9d9;"/>
        <rect x="81.875" y="58.198" width="10" height="3.846" style="fill:#f7db6b;"/>
        <rect x="46.871" y="79.356" width="10" height="3.846" style="fill:#f7db6b;"/>
        <rect x="36.908" y="118.328" width="10" height="3.846" style="fill:#f7db6b;"/>
        <rect x="104.491" y="13.181" width="10" height="3.846" style="fill:#f7db6b;"/>
        <rect x="134.51" y="13.161" width="10" height="3.846" style="fill:#f7db6b;"/>
        <rect x="136.991" y="43.502" width="5" height="130.63" style="fill:#8c8c8c;"/>
        <rect x="106.991" y="43.502" width="5" height="130.63" style="fill:#8c8c8c;"/>
        <rect x="141.991" y="43.502" width="5" height="130.63" style="fill:#bfbfbf;"/>
        <rect x="111.991" y="43.502" width="5" height="130.63" style="fill:#bfbfbf;"/>
        <rect x="146.991" y="43.502" width="5" height="130.63" style="fill:#d9d9d9;"/>
        <rect x="116.991" y="43.502" width="5" height="130.63" style="fill:#d9d9d9;"/>
        <rect x="104.356" y="116.404" width="16.668" height="57.728" style="fill:#b3b3b3;"/>
        <rect x="121.991" y="88.481" width="15" height="85.651" style="fill:#d9d9d9;"/>
        <rect x="121.991" y="49.132" width="15" height="8.951" style="fill:#d9d9d9;"/>
        <rect x="121.991" y="45.317" width="15" height="3.815" style="fill:#0071a7;"/>
        <rect x="121.991" y="68.814" width="15" height="8.951" style="fill:#d9d9d9;"/>
        <rect x="121.024" y="116.404" width="33.336" height="57.728" style="fill:#d9d9d9;"/>
        <rect x="104.336" y="108.09" width="50.024" height="8.295" style="fill:#0071a7;"/>
        <rect x="104.336" y="127.861" width="50.024" height="1.575" style="fill:#8c8c8c;"/>
        <rect x="154.36" y="99.776" width="8.334" height="74.376" style="fill:#8c8c8c;"/>
        <rect x="79.374" y="99.736" width="8.334" height="74.396" style="fill:#8c8c8c;"/>
        <rect x="40" y="143.001" width="4.605" height="41.109" style="fill:#8c8c8c;"/>
        <rect x="198.427" y="143.001" width="4.605" height="41.109" style="fill:#8c8c8c;"/>
        <rect x="156.861" y="58.198" width="10" height="3.846" style="fill:#f7db6b;"/>
        <rect x="195.335" y="118.328" width="10" height="3.846" style="fill:#f7db6b;"/>
        <rect x="60.088" y="124.132" width="19.286" height="6.966" style="fill:#ccc;"/>
        <path d="M140.224,174.132C140.392,172.545 140.477,170.921 140.477,169.293C140.477,157.435 136.062,147.809 130.624,147.809C125.186,147.809 120.771,157.435 120.771,169.293C120.771,170.921 120.856,172.545 121.024,174.132L140.224,174.132Z" style="fill:#666;"/>
        <rect x="111.991" y="90.774" width="5" height="4.858" style="fill:#595959;"/>
        <rect x="47.972" y="115.382" width="5" height="4.858" style="fill:#595959;"/>
        <rect x="60.088" y="115.382" width="5" height="8.728" style="fill:#595959;"/>
        <rect x="110.244" y="119.274" width="5" height="4.858" style="fill:#8c8c8c;"/>
        <rect x="121.196" y="119.274" width="5" height="4.858" style="fill:#999;"/>
        <rect x="132.148" y="119.274" width="5" height="4.858" style="fill:#999;"/>
        <rect x="143.1" y="119.274" width="5" height="4.858" style="fill:#999;"/>
        <rect x="141.991" y="90.774" width="5" height="4.858" style="fill:#595959;"/>
        <rect x="111.991" y="70.721" width="5" height="5" style="fill:#595959;"/>
        <rect x="141.991" y="70.639" width="5" height="5" style="fill:#595959;"/>
        <rect x="111.991" y="50.639" width="5" height="5" style="fill:#595959;"/>
        <rect x="141.991" y="50.639" width="5" height="5" style="fill:#595959;"/>
        <rect x="126.991" y="50.639" width="5" height="5" style="fill:#595959;"/>
        <rect x="126.991" y="70.721" width="5" height="5" style="fill:#595959;"/>
        <rect x="121.987" y="90.774" width="15.146" height="5" style="fill:#595959;"/>
        <path d="M173.208,145.736L173.208,140.736L168.208,140.736L168.208,145.736L163.208,145.736L163.208,140.736L158.208,140.736L158.188,145.736L153.208,145.736L153.208,140.736L148.208,140.736L148.208,150.736L183.208,150.736L183.208,140.736L178.208,140.736L178.208,145.736L173.208,145.736Z" style="fill:#999;"/>
        <path d="M97.88,145.736L97.88,140.736L92.88,140.736L92.88,145.736L87.88,145.736L87.88,140.736L82.88,140.736L82.861,145.736L77.88,145.736L77.88,140.736L72.88,140.736L72.88,150.736L107.88,150.736L107.88,140.736L102.88,140.736L102.88,145.736L97.88,145.736Z" style="fill:#999;"/>
        <path d="M175.571,145.736L175.571,140.736L170.571,140.736L170.571,145.736L165.571,145.736L165.571,140.736L160.571,140.736L160.552,145.736L155.571,145.736L155.571,140.736L150.571,140.736L150.571,150.736L185.571,150.736L185.571,140.736L180.571,140.736L180.571,145.736L175.571,145.736Z" style="fill:#d9d9d9;"/>
        <path d="M100.244,145.736L100.244,140.736L95.244,140.736L95.244,145.736L90.244,145.736L90.244,140.736L85.244,140.736L85.224,145.736L80.244,145.736L80.244,140.736L75.244,140.736L75.244,150.736L110.244,150.736L110.244,140.736L105.244,140.736L105.244,145.736L100.244,145.736Z" style="fill:#d9d9d9;"/>
        <path d="M211.474,184.132L146.286,184.132L146.286,169.042C146.286,157.334 135.202,150 123.493,150C112.894,150 101.66,156.285 101.474,169.132C101.474,169.132 101.474,184.132 101.474,184.132L36.474,184.132L36.474,159.019L41.474,159.019L41.474,164.019L46.474,164.019L46.474,159.019L51.474,159.019L51.474,164.019L56.474,164.019L56.474,159.019L61.474,159.019L61.474,164.019L66.474,164.019L66.474,159.019L71.474,159.019L71.474,164.019L76.474,164.019L76.474,159.019L81.474,159.019L81.474,164.019L86.474,164.136C86.517,144.145 108.053,135.355 123.493,135.355C137.684,135.355 160.781,143.52 161.286,169.132L166.478,169.132L166.478,164.132L171.474,164.132L171.474,169.132L176.474,169.132L176.474,164.132L181.474,164.132L181.474,169.132L186.474,169.132L186.474,164.132L191.474,164.132L191.474,169.132L196.456,169.132L196.456,164.132L201.474,164.132L201.474,169.132L206.474,169.132L206.474,164.132L211.474,164.132L211.474,184.132Z" style="fill:#8c8c8c;"/>
        <path d="M215,184.132L149.812,184.132L149.812,169.042C149.812,157.334 138.728,150 127.019,150C116.42,150 105.185,156.285 105,169.132C105,169.132 105,184.132 105,184.132L40,184.132L40,159.019L45,159.019L45,164.019L50,164.019L50,159.019L55,159.019L55,164.019L60,164.019L60,159.019L65,159.019L65,164.019L70,164.019L70,159.019L75,159.019L75,164.019L80,164.019L80,159.019L85,159.019L85,164.019L90,164.136C90.043,144.145 111.578,135.355 127.019,135.355C141.21,135.355 164.307,143.52 164.812,169.132L170.004,169.132L170.004,164.132L175,164.132L175,169.132L180,169.132L180,164.132L185,164.132L185,169.132L190,169.132L190,164.132L195,164.132L195,169.132L199.982,169.132L199.982,164.132L205,164.132L205,169.132L210,169.132L210,164.132L215,164.132L215,184.132Z" style="fill:#d9d9d9;"/>
    </g>
    <g id="auta">
        <path d="M167.899,205.668C174.248,203.936 179.427,202.618 180.718,207.354C182.199,212.782 176.879,213.584 170.53,215.316C164.181,217.047 159.262,218.932 157.71,213.63C155.978,208.058 161.549,207.4 167.899,205.668Z" style="fill:#73b3ce;"/>
    </g>
    <g id="majak">
    </g>
    <g id="vetrna-elektr" serif:id="vetrna elektr">
    </g>
    <g id="osrov-pokladu" serif:id="osrov pokladu">
    </g>
</svg>
