<svg xmlns="http://www.w3.org/2000/svg" xml:space="preserve" fill-rule="evenodd" stroke-linecap="round" stroke-linejoin="round" stroke-miterlimit="1.5" clip-rule="evenodd" viewBox="0 0 250 250"><path fill="none" d="M-750 0H250v1000H-750z"/><path fill="#e2e1bf" d="M-596.3 608c-28.4-54-156-97-148.4-339.5 5-159 106-230.3 181.7-229.3 45.6.6 101.8 7.6 243 67.3 99 42 145.2 52.7 174 41.8 70.2-26.6 78.9-37.6 117.6-57.4 35.8-18.4 73-47 100.4-58 82.3-33 224.3 2.4 138 160-21.7 39.6-3 119.8-26.9 288.5-27 190-78.4 135.4-88.1 180-7 32.1 55.5 144.5 15 220-53 98.6-196.6 64.4-243 61.5-70-4.4-180.9 82-280 50-213.3-69-120.6-265.8-183.3-385Z"/><path fill="#589765" d="M-571 566.7c-48-26.4-127.8-54.8-159-198.6-30.8-142 33.5-287 159-322.3 41.3-11.6 127.3 7.5 260.4 62.2 93.4 38.3 136.9 48.1 164 38.2C-80.5 121.8 42.7 48.7 110 43c50.3-4.2 127.7 20.3 95 118.6-3.2 9.5-14.7 41.6-15 56.7-2 82.5-15.4 249.5-27.5 314.2C140.4 651 45 602 72.9 681.4c22.8 64.7 54.7 159 2.1 210-83.2 80.5-182 20.8-207.2 19.3-66-4-194.5 78.5-288 49.4-93.6-29-110-177.1-107.4-226.2 2.6-49-4.7-146-43.4-167.2Z"/><path fill="#8dcf86" d="M-496.1 246.5c-30-42 7.9-199.4-116.8-134.3-78 40.6-129.2 175.6-105.3 257 69 234.4 197.6 136 200.8 242.3 5.4 179.2 2 301.1 120 329.6 50.4 12.1 141.6 1 178-63.4 19.3-34.1 97.8-106 172-28.2C-24.9 873 11.5 882 37.1 860c28.2-24.3 22.6-64.8 7.2-85-22.4-29.6-46-64.7-36.7-108.3 21.2-98.3 79.8-62.6 100.5-107.9 44.4-97.2-160.1-135-230.5-74.1C-214.2 564-411 365.7-496 246.5Z"/><path fill="#3b7847" d="M3.8 248.2c1.6 0 2.9-.1 4 .6 3.5 2.2 5.4 8.1 5.4 14.2 0 6.4-2.4 13.6-6.6 14.6-1.3.3-1.5 0-2.5 0-5 0-9.1-6.5-9.1-14.6s3.8-14.7 8.8-14.8Z"/><ellipse cx="6" cy="263" fill="#4db343" rx="7.1" ry="14.7"/><path fill="#3b7847" d="M51.7 40c1.5 0 2.6-.1 3.6.6 3 2 4.7 7.1 4.7 12.4 0 5.7-2.1 12-5.8 12.9-1.1.3-1.3 0-2.2 0-4.4 0-8-5.7-8-12.9 0-7 3.3-13 7.7-13Z"/><ellipse cx="53.7" cy="53" fill="#4db343" rx="6.3" ry="12.9"/><path fill="none" stroke="#4c4c4c" stroke-width="4" d="M52 59.2v16"/><path fill="#3b7847" d="M88.3 12.8c1.7 0 3.1-.2 4.4.6 3.6 2.4 5.6 8.6 5.6 15 0 6.9-2.6 14.5-7 15.6-1.3.3-1.5 0-2.6 0-5.4 0-9.7-7-9.7-15.5 0-8.6 4-15.7 9.3-15.7Z"/><ellipse cx="90.7" cy="28.5" fill="#4db343" rx="7.6" ry="15.6"/><path fill="none" stroke="#4c4c4c" stroke-width="4" d="M88.7 36v19.2"/><path fill="#3b7847" d="M128 24.5c1.3 0 2.2-.1 3 .4 2.6 1.7 4 6 4 10.5 0 4.7-1.8 10-4.8 10.8-1 .2-1.1 0-1.9 0-3.7 0-6.7-4.8-6.7-10.8 0-6 2.8-10.9 6.5-11Z"/><ellipse cx="129.7" cy="35.4" fill="#4db343" rx="5.3" ry="10.8"/><path fill="none" stroke="#4c4c4c" stroke-width="4" d="M128.3 40.6V54"/><path fill="#3b7847" d="M167 36.8c1 0 2 0 3 .5 2.4 1.6 3.8 6 3.8 10.4 0 4.8-1.8 10-4.8 10.8-1 .3-1.1 0-1.9 0-3.7 0-6.7-4.8-6.7-10.8 0-6 2.8-10.8 6.5-10.9Z"/><ellipse cx="168.6" cy="47.7" fill="#4db343" rx="5.3" ry="10.8"/><path fill="none" stroke="#4c4c4c" stroke-width="4" d="M167.1 52.9v13.4"/><path fill="#3b7847" d="M192.6 61.5c1.2 0 2.2-.1 3 .4 2.5 1.7 4 6 4 10.5 0 4.7-1.8 10-4.9 10.8-1 .2-1.1 0-1.9 0-3.7 0-6.7-4.8-6.7-10.8 0-6 2.8-10.9 6.5-11Z"/><ellipse cx="194.3" cy="72.4" fill="#4db343" rx="5.3" ry="10.8"/><path fill="none" stroke="#4c4c4c" stroke-width="4" d="M192.8 77.6V91"/><path fill="none" stroke="#2d5836" stroke-width="4" d="M-23.5 244.4c1-.9 1.8-31.7 36.7-22.8a28.5 28.5 0 0 1 21.4 32.5M-95 156.3c1-.9 24.8-36.9 60-29.3 30.4 6.5 12.9-44.2 65-32m100.8 55.8c-1.6 2.2 22.5 49-60.7 63.2-34.7 6-66-6.8-73.8-31.6M-60 281.9a63.6 63.6 0 0 1 0 74.7c-23.1 32.1-70.5 26.1-85 18-26.6-14.7-86.7-42-91.2 9.6-2.8 32.6 74 39.3 91.2 52.6 31 24.2 25 57.1 25 58.2 4 52.8-149.2 98.4-184.5-65"/><path fill="#3b7847" d="M-133.8 154.7c84.5-.7 96.6 27.7 129.7 66.7 1.1 1.3-241.4 4.3-241.4 4.3s18.6-70.2 111.7-71Z"/><path fill="#8dcf86" d="M-133.7 154.7c84.2 8.1 107.6 20.6 129.8 66.7 3 6.1-20.7 6.7-47 7.1-11.9.2-19.6 2.8-34 1.7-8.5-.7-16.2-7.3-25-8-18-1.3-38.8 1.9-54.4 0-34.7-4 24.5-68 30.6-67.5Z"/><path fill="#3b7847" d="M97.7 73.2c42.8-.9 68.7 28.5 74.7 77.7.2 1.4-142.4-1-142.4-1s20.7-75.7 67.7-76.7Z"/><path fill="#8dcf86" d="M105 73.4c41.7 2.8 61.8 31.1 67.4 77.5 0 .4-1.3 8.5-24.8 4.1-40.2-7.5-29 10-47.6 1.4-12.6-5.9-25-2.8-25-3.7-.5-44.4 23.7-79.7 30-79.3Z"/><path fill="none" stroke="#2d5836" stroke-width="18.7" d="M-290 657.6c-8.6-3-40-11.2-40-11.2s4.4-12.6 2-25c-2.8-14.6-12.5-29.4-12-30 8-11.2 38.7-46.4 45-54.5 122.3-155.6 257.4 3.4 325 54.5 27.8 21 90.4 10.2 100-41.4 17.8-95.4-110.3-87.6-120-198.6-8.2-93.9 49.8-138.2 110-150 126.5-25 80.4-161.3-27.6-138-56 12-102.8 80.5-115.2 173.2-10.7 80.4-122 26-119.4-9"/><path fill="#3b7847" d="M154.8 139.5c1.8 0 3.3-.2 4.6.7 3.8 2.4 5.9 9 5.9 15.8 0 7.2-2.7 15.2-7.3 16.3-1.5.4-1.7 0-2.9 0-5.6 0-10.1-7.3-10.1-16.3s4.2-16.5 9.8-16.5Z"/><ellipse cx="157.3" cy="156" fill="#4db343" rx="8" ry="16.4"/><path fill="none" stroke="#4c4c4c" stroke-width="4" d="M155.1 163.8v20.3"/><path fill="#262626" d="M110.4 38.4v.8l6.4 16.4a1.3 1.3 0 0 0 2.5-1l-6.2-16 1.1-5a1.3 1.3 0 0 0-2.3-1.2l-3.2 4-16.8 5.7a1.3 1.3 0 0 0 .9 2.6l17-6c.3 0 .5-.1.6-.3Z"/><path fill="#fff" d="M116.3 25a5 5 0 1 0-3.5 9.3 5 5 0 0 0 3.5-9.3Z"/><path fill="#d9d9d9" d="M88.6 77h35.1v3.7H88.6z"/><path fill="#8c8c8c" d="M80.5 77h8.1v3.7h-8.1zm43.2 0c0-3.8-9.7-7-21.6-7-12 0-21.6 3.2-21.6 7h43.2Z"/><path fill="#d9d9d9" d="M123.7 77c0-3.8-7.8-7-17.5-7s-17.6 3.2-17.6 7h35.1Z"/><path fill="#8c8c8c" d="M101.5 64.2h3.7v5.9h-3.7z"/><path fill="#d9d9d9" d="M103.2 64.2h3.7v5.9h-3.7z"/><path fill="#d9d9d9" d="M121 56.5a17.4 17.4 0 0 1-31.4-15l31.5 15Z"/><path fill="#f88948" d="m-.4 75-12.6.2-7 5.9h12.8L-.4 75Z"/><path fill="#d9d9d9" d="m6.3 81-6.7-6-6.8 6v17.4H6.3V81.1Z"/><path fill="#595959" d="M-3.7 85.6h6.5v6.5h-6.5z"/><path fill="#d9d9d9" d="m50 190-14.8-6.5-15 6.5v25H50v-25Z"/><path fill="#595959" d="M27.6 197.5h14.9v7.5H27.6z"/><path fill="#065e7b" d="M-2.2 190.2h22.4l15-6.7H12.9l-15 6.7Z"/><path fill="#8c8c8c" d="M-2.2 190.2h22.4V215H-2.2z"/><path fill="#595959" d="M5.3 197.5h7.5v7.5H5.3z"/><path fill="#666" d="M190 225c0-1-24.7-6.4-46.3-6.4-67.6 0-122.4 52.5-122.4 117.1 0 64.7 58 110.6 122.5 117.2a463.7 463.7 0 0 0 29.3 2.3s5.2-47.5 9.3-100.2c4-51.5 6.9-108 7.6-130Z"/><path fill="#8c8c8c" d="M190 225c0-1-24.7-6.4-46.3-6.4-67.6 0-122.4 52.5-122.4 117.1 0 64.7 55.4 108.6 122.5 117.2 17.2 2.2 29.3 2.3 29.3 2.3s1.2-10.2 1-10.2C69.9 441.4 29.2 386.9 30 335c1.1-61.2 57.4-127.9 159.6-100 .2 0 .3-6 .4-10Z"/><path fill="#d9d9d9" d="M95.9 239.4h75.3v25H95.9zm0-27.7h75.3v25H95.9z"/><path fill="#8c8c8c" d="M76.2 239.4h19.7v25H76.2zm0-27.7h19.7v25H76.2z"/><path fill="#595959" d="M97.6 244.4h4.7v14.7h-4.7zm0-27.7h4.7v14.7h-4.7zm36.8 27.7h4.7v14.7h-4.7zm0-27.7h4.7v14.7h-4.7zM116 244.4h4.7v14.7H116zm0-27.7h4.7v14.7H116zm36.8 27.7h4.7v14.7h-4.7zm0-27.7h4.7v14.7h-4.7zm-49.1 27.7h4.7v14.7h-4.7zm0-27.7h4.7v14.7h-4.7zm36.8 27.7h4.7v14.7h-4.7zm0-27.7h4.7v14.7h-4.7zm-18.4 27.7h4.7v14.7h-4.7zm0-27.7h4.7v14.7h-4.7zm36.8 27.7h4.7v14.7h-4.7zm0-27.7h4.7v14.7h-4.7zm-49 27.7h4.7v14.7h-4.7zm0-27.7h4.7v14.7h-4.7zm36.8 27.7h4.7v14.7h-4.7zm0-27.7h4.7v14.7h-4.7zm-18.4 27.7h4.7v14.7h-4.7zm0-27.7h4.7v14.7h-4.7zm36.8 27.7h4.7v14.7h-4.7zm0-27.7h4.7v14.7h-4.7z"/><path fill="#fff" d="M76.2 236.6h95v2.8h-95z"/><path fill="#595959" d="M75 208.9h99v2.8H75z"/><path fill="#8c8c8c" d="M121.6 242.2h10.6v25h-10.6z"/><path fill="#fff" d="M135.8 267.2V245h16.5v22.2h3.5v-25h-23.5v25h3.5Z"/><path fill="#595959" d="M121.6 239.5h34.2v2.7h-34.2z"/><path fill="#d9d9d9" d="M60 211.3h35v20H60zm0-60h40v20H60z"/><path fill="#595959" d="M68.3 130h3.4v17.3h-3.4z"/><path fill="#b30000" d="m70 146.3-10 5H40l30-5Z"/><path fill="red" d="m70 146.3 30 5H60l10-5Z"/><path fill="#8c8c8c" d="M45 211.3h15v20H45zm-5-60h20v20H40z"/><path fill="#d9d9d9" d="M65 231.3h20v50H65zm0-60h20v40H65z"/><path fill="#8c8c8c" d="M55 231.3h10v50H55zm0-60h10v40H55z"/><path fill="#595959" d="M61.8 156.3h37v10h-37zm-20.7 0h17.6v10H41.1zm20.7 60h31.8v10H61.8zm-15.9 0h12.8v10H45.9z"/><path fill="#fff" d="M63.2 327h120.2a2 2 0 0 0 0-4H63.2a2 2 0 0 0 0 4Z"/><path fill="#beed9a" d="M156.4 185.9c5.6-3.3 10.3-6 12.8-1.7 2.8 4.9-2.1 7-7.8 10.3-5.7 3.3-10 6.4-12.8 1.7-3.1-5 2-7 7.8-10.3Z"/><path fill="#f7db6b" d="M51.2 76c5-4.4 9-7.9 12.2-4.2 3.8 4.2-.6 7.3-5.5 11.7-4.9 4.4-8.5 8.3-12.2 4.2-4-4.2.6-7.3 5.5-11.7Z"/></svg>