<?xml version="1.0" encoding="UTF-8" standalone="no"?>
<!DOCTYPE svg PUBLIC "-//W3C//DTD SVG 1.1//EN" "http://www.w3.org/Graphics/SVG/1.1/DTD/svg11.dtd">
<svg width="250px" height="250px" version="1.1" xmlns="http://www.w3.org/2000/svg" xmlns:xlink="http://www.w3.org/1999/xlink" xml:space="preserve" xmlns:serif="http://www.serif.com/" style="fill-rule:evenodd;clip-rule:evenodd;stroke-linecap:round;stroke-linejoin:round;stroke-miterlimit:1.5;">
    <rect id="Artboard" x="-750" y="0" width="999.991" height="1000" style="fill:none;"/>
    <g id="background">
    </g>
    <path id="OSTROV" d="M-596.31,607.991C-624.685,554.043 -752.239,510.97 -744.677,268.462C-739.722,109.557 -638.69,38.171 -563.043,39.195C-517.375,39.814 -461.162,46.813 -320.04,106.533C-220.938,148.47 -174.77,159.18 -146.093,148.321C-75.757,121.686 -67.13,110.67 -28.422,90.862C7.384,72.539 44.527,43.846 71.957,32.863C154.286,-0.1 296.284,35.344 210,192.955C188.336,232.527 207.089,312.674 183.144,481.357C156.159,671.461 104.682,616.792 95,661.357C88.009,693.537 150.472,805.911 110,881.357C57.077,980.013 -86.582,945.756 -133.043,942.863C-202.963,938.51 -313.903,1024.89 -413.043,992.863C-626.293,923.984 -533.641,727.142 -596.31,607.991Z" style="fill:#e2e1bf;"/>
    <path id="OSTROV1" serif:id="OSTROV" d="M-571.049,566.685C-619.073,540.278 -698.806,511.876 -730,368.071C-760.788,226.137 -696.46,81.075 -571.049,45.847C-529.659,34.221 -443.661,53.336 -310.642,107.966C-217.231,146.329 -173.713,156.126 -146.683,146.192C-80.387,121.827 42.79,48.654 110.084,42.992C160.37,38.762 237.811,63.31 205.084,161.602C201.933,171.067 190.446,203.204 190.084,218.288C188.105,300.845 174.692,467.81 162.587,532.477C140.392,651.057 45.013,602.078 72.916,681.357C95.701,746.096 127.605,840.415 75,891.357C-8.151,971.881 -106.97,912.249 -132.216,910.724C-198.121,906.742 -326.719,989.181 -420.253,960.149C-513.787,931.117 -530.278,783.003 -527.648,733.926C-525.017,684.849 -532.333,587.973 -571.049,566.685Z" style="fill:#589765;"/>
    <path d="M-496.095,246.528C-526.075,204.578 -488.196,47.053 -612.908,112.161C-690.841,152.848 -742.123,287.801 -718.168,369.234C-649.223,603.603 -520.558,505.153 -517.365,611.528C-511.985,790.746 -515.343,912.637 -397.365,941.087C-347.004,953.231 -255.758,942.058 -219.392,877.748C-200.055,843.552 -121.566,771.669 -47.365,849.46C-24.885,873.028 11.478,882.035 37.055,860C65.287,835.677 59.653,795.206 44.345,775C21.902,745.375 -1.766,710.258 7.635,666.659C28.818,568.426 87.367,604.15 108.066,558.83C152.476,461.597 -52.047,423.8 -122.365,484.659C-214.199,564.139 -410.951,365.669 -496.095,246.528Z" style="fill:#8dcf86;"/>
    <g id="pole">
    </g>
    <g id="kere">
    </g>
    <g>
        <g>
            <g id="strom">
            </g>
            <g id="strom1" serif:id="strom">
            </g>
            <g id="strom2" serif:id="strom">
            </g>
            <g id="strom3" serif:id="strom">
            </g>
            <g id="strom4" serif:id="strom">
            </g>
            <g id="strom5" serif:id="strom">
            </g>
            <g id="strom6" serif:id="strom">
            </g>
            <g id="strom7" serif:id="strom">
                <g>
                    <path d="M3.791,248.196C5.388,248.17 6.701,248.059 7.857,248.814C11.271,251.043 13.166,256.943 13.166,262.989C13.166,269.404 10.752,276.565 6.623,277.602C5.303,277.934 5.123,277.653 4.083,277.653C-0.93,277.653 -5,271.083 -5,262.989C-5,254.896 -1.221,248.275 3.791,248.196Z" style="fill:#3b7847;"/>
                    <ellipse cx="6.023" cy="262.989" rx="7.143" ry="14.664" style="fill:#4db343;"/>
                </g>
            </g>
            <g id="strom8" serif:id="strom">
                <g>
                    <path d="M51.748,40.018C53.154,39.996 54.31,39.898 55.327,40.562C58.332,42.524 60,47.718 60,53.039C60,58.686 57.875,64.989 54.241,65.902C53.079,66.194 52.92,65.947 52.005,65.947C47.593,65.947 44.01,60.163 44.01,53.039C44.01,45.916 47.337,40.088 51.748,40.018Z" style="fill:#3b7847;"/>
                    <ellipse cx="53.713" cy="53.039" rx="6.287" ry="12.907" style="fill:#4db343;"/>
                </g>
                <path d="M52.005,59.212L52.005,75.208" style="fill:none;stroke:#4c4c4c;stroke-width:4px;"/>
            </g>
            <g id="strom9" serif:id="strom">
                <g>
                    <path d="M88.346,12.752C90.042,12.725 91.436,12.607 92.664,13.408C96.289,15.775 98.302,22.041 98.302,28.462C98.302,35.274 95.738,42.879 91.354,43.98C89.952,44.332 89.76,44.034 88.656,44.034C83.332,44.034 79.01,37.057 79.01,28.462C79.01,19.867 83.023,12.836 88.346,12.752Z" style="fill:#3b7847;"/>
                    <ellipse cx="90.716" cy="28.462" rx="7.585" ry="15.573" style="fill:#4db343;"/>
                </g>
                <path d="M88.656,35.909L88.656,55.208" style="fill:none;stroke:#4c4c4c;stroke-width:4px;"/>
            </g>
            <g id="strom10" serif:id="strom">
                <g>
                    <path d="M128.08,24.464C129.259,24.445 130.228,24.363 131.081,24.92C133.601,26.565 135,30.921 135,35.383C135,40.118 133.218,45.404 130.171,46.17C129.196,46.414 129.063,46.207 128.296,46.207C124.595,46.207 121.591,41.357 121.591,35.383C121.591,29.409 124.381,24.522 128.08,24.464Z" style="fill:#3b7847;"/>
                    <ellipse cx="129.728" cy="35.383" rx="5.272" ry="10.824" style="fill:#4db343;"/>
                </g>
                <path d="M128.296,40.56L128.296,53.974" style="fill:none;stroke:#4c4c4c;stroke-width:4px;"/>
            </g>
            <g id="strom11" serif:id="strom">
                <g>
                    <path d="M166.907,36.806C168.085,36.787 169.055,36.705 169.908,37.262C172.428,38.907 173.827,43.263 173.827,47.726C173.827,52.46 172.045,57.746 168.997,58.512C168.023,58.757 167.89,58.55 167.122,58.55C163.422,58.55 160.418,53.7 160.418,47.726C160.418,41.752 163.207,36.865 166.907,36.806Z" style="fill:#3b7847;"/>
                    <ellipse cx="168.554" cy="47.726" rx="5.272" ry="10.824" style="fill:#4db343;"/>
                </g>
                <path d="M167.122,52.902L167.122,66.316" style="fill:none;stroke:#4c4c4c;stroke-width:4px;"/>
            </g>
            <g id="strom12" serif:id="strom">
                <g>
                    <path d="M192.62,61.491C193.798,61.472 194.768,61.39 195.621,61.947C198.141,63.592 199.54,67.947 199.54,72.41C199.54,77.145 197.758,82.431 194.71,83.197C193.736,83.441 193.603,83.234 192.835,83.234C189.135,83.234 186.131,78.384 186.131,72.41C186.131,66.436 188.92,61.549 192.62,61.491Z" style="fill:#3b7847;"/>
                    <ellipse cx="194.267" cy="72.41" rx="5.272" ry="10.824" style="fill:#4db343;"/>
                </g>
                <path d="M192.835,77.587L192.835,91.001" style="fill:none;stroke:#4c4c4c;stroke-width:4px;"/>
            </g>
            <g id="strom13" serif:id="strom">
            </g>
            <g id="strom14" serif:id="strom">
            </g>
        </g>
    </g>
    <g id="male-cesty" serif:id="male cesty">
        <g id="les">
        </g>
        <path d="M-23.536,244.402C-22.459,243.541 -21.688,212.696 13.165,221.618C27.723,225.345 36.964,238.765 34.644,254.096" style="fill:none;stroke:#2d5836;stroke-width:4px;"/>
        <path d="M-95,156.28C-93.923,155.418 -70.177,119.415 -35,126.963C-4.622,133.481 -22.119,82.771 30,95" style="fill:none;stroke:#2d5836;stroke-width:4px;"/>
        <path d="M130.771,150.827C129.152,152.969 153.263,199.737 70.113,213.984C35.382,219.934 4.094,207.169 -3.684,182.391" style="fill:none;stroke:#2d5836;stroke-width:4px;"/>
        <path d="M-60,281.877C-39.52,313.415 -48.852,341.147 -60,356.629C-83.098,388.708 -130.545,382.719 -145,374.681C-171.597,359.891 -231.713,332.572 -236.176,384.186C-238.994,416.772 -162.185,423.471 -145,436.822C-113.934,460.958 -120.083,493.9 -120,495C-116.024,547.767 -269.245,593.416 -304.521,430" style="fill:none;stroke:#2d5836;stroke-width:4px;"/>
    </g>
    <g id="hory">
        <path id="hora" d="M-133.798,154.685C-49.267,153.967 -37.196,182.375 -4.114,221.357C-2.951,222.727 -245.464,225.665 -245.464,225.665C-245.464,225.665 -226.856,155.476 -133.798,154.685Z" style="fill:#3b7847;"/>
        <path id="hora1" serif:id="hora" d="M-133.743,154.685C-49.48,162.823 -26.09,175.295 -3.867,221.357C-0.888,227.531 -24.599,228.056 -50.816,228.52C-62.782,228.731 -70.514,231.309 -84.869,230.204C-93.431,229.544 -101.051,222.922 -109.905,222.263C-127.974,220.918 -148.704,224.055 -164.31,222.263C-199.007,218.281 -139.752,154.105 -133.743,154.685Z" style="fill:#8dcf86;"/>
        <path id="hora2" serif:id="hora" d="M97.734,73.228C140.495,72.328 166.435,101.688 172.383,150.895C172.558,152.339 30,149.939 30,149.939C30,149.939 50.659,74.22 97.734,73.228Z" style="fill:#3b7847;"/>
        <path id="hora3" serif:id="hora" d="M105,73.375C146.724,76.16 166.78,104.542 172.383,150.895C172.426,151.251 171.077,159.367 147.647,155C107.419,147.502 118.656,165.037 100,156.387C87.395,150.542 75.009,153.558 75,152.712C74.516,108.314 98.655,72.951 105,73.375Z" style="fill:#8dcf86;"/>
    </g>
    <g id="ker">
    </g>
    <g id="ker1" serif:id="ker">
    </g>
    <g id="ker2" serif:id="ker">
    </g>
    <g id="strom15" serif:id="strom">
    </g>
    <g id="strom16" serif:id="strom">
    </g>
    <g id="ker3" serif:id="ker">
    </g>
    <g id="cesty-velke" serif:id="cesty velke">
        <path d="M-290,657.586C-298.648,654.653 -329.983,646.357 -329.983,646.357C-329.983,646.357 -325.565,633.815 -327.976,621.357C-330.787,606.833 -340.46,592.034 -339.983,591.357C-332.086,580.163 -301.319,544.992 -295,536.948C-172.732,381.295 -37.596,540.308 30.017,591.357C57.806,612.338 120.358,601.557 130,550C147.845,454.575 19.733,462.44 10.017,351.357C1.808,257.505 59.765,213.215 120.017,201.357C246.517,176.462 200.386,40.069 92.374,63.309C36.476,75.336 -10.448,143.877 -22.808,236.614C-33.524,317.022 -144.706,262.56 -142.185,227.688" style="fill:none;stroke:#2d5836;stroke-width:18.67px;"/>
    </g>
    <g id="strom17" serif:id="strom">
        <g>
            <path d="M154.823,139.459C156.607,139.431 158.075,139.307 159.367,140.15C163.181,142.64 165.299,149.234 165.299,155.99C165.299,163.157 162.601,171.159 157.988,172.318C156.513,172.688 156.311,172.375 155.149,172.375C149.548,172.375 145,165.033 145,155.99C145,146.946 149.223,139.548 154.823,139.459Z" style="fill:#3b7847;"/>
            <ellipse cx="157.317" cy="155.99" rx="7.981" ry="16.386" style="fill:#4db343;"/>
        </g>
        <path d="M155.149,163.825L155.149,184.132" style="fill:none;stroke:#4c4c4c;stroke-width:4px;"/>
    </g>
    <g id="strom18" serif:id="strom">
    </g>
    <g id="strom19" serif:id="strom">
    </g>
    <g id="strom20" serif:id="strom">
    </g>
    <g id="stromy">
    </g>
    <g id="namesti">
    </g>
    <g id="smrky">
    </g>
    <g id="listnace">
    </g>
    <g id="lanoka">
    </g>
    <g id="strom21" serif:id="strom">
    </g>
    <g id="satelit">
        <path d="M110.43,38.447L110.429,38.451C110.375,38.704 110.395,38.968 110.489,39.21L116.804,55.614C117.069,56.301 117.841,56.644 118.528,56.379C119.215,56.115 119.557,55.343 119.293,54.656L113.12,38.623C113.12,38.623 114.213,33.538 114.213,33.538C114.343,32.934 114.041,32.321 113.484,32.055C112.927,31.789 112.26,31.94 111.872,32.421L108.664,36.396C108.664,36.396 91.912,42.13 91.912,42.13C91.216,42.369 90.844,43.127 91.082,43.824C91.321,44.52 92.079,44.892 92.776,44.653L109.892,38.794C110.097,38.724 110.282,38.605 110.43,38.447Z" style="fill:#262626;"/>
        <path d="M116.299,24.988C113.728,24.01 110.848,25.304 109.87,27.875C108.893,30.446 110.187,33.326 112.758,34.303C115.328,35.28 118.209,33.987 119.186,31.416C120.163,28.845 118.869,25.965 116.299,24.988Z" style="fill:#fff;"/>
        <rect x="88.614" y="77.046" width="35.105" height="3.689" style="fill:#d9d9d9;"/>
        <rect x="80.513" y="77.046" width="8.101" height="3.689" style="fill:#b3b3b3;"/>
        <path d="M123.72,77.046C123.72,73.184 114.047,70.054 102.116,70.054C90.185,70.054 80.513,73.184 80.513,77.046L123.72,77.046Z" style="fill:#b3b3b3;"/>
        <path d="M123.72,77.046C123.72,73.184 115.861,70.054 106.167,70.054C96.473,70.054 88.614,73.184 88.614,77.046L123.72,77.046Z" style="fill:#d9d9d9;"/>
        <rect x="101.456" y="64.239" width="3.689" height="5.903" style="fill:#b3b3b3;"/>
        <rect x="103.162" y="64.239" width="3.689" height="5.931" style="fill:#d9d9d9;"/>
        <path d="M121.066,56.458C116.942,65.15 106.552,68.854 97.859,64.73C89.167,60.606 85.463,50.216 89.587,41.524L121.066,56.458Z" style="fill:#b3b3b3;"/>
    </g>
    <g id="domky">
        <g id="D1">
        </g>
        <g id="D7">
        </g>
        <g id="D71" serif:id="D7">
        </g>
        <g id="D72" serif:id="D7">
        </g>
        <g id="D73" serif:id="D7">
        </g>
        <g id="D74" serif:id="D7">
        </g>
        <g id="D75" serif:id="D7">
        </g>
        <g id="D76" serif:id="D7">
        </g>
        <g id="D77" serif:id="D7">
        </g>
        <g id="D78" serif:id="D7">
        </g>
        <g id="D79" serif:id="D7">
        </g>
        <g id="D710" serif:id="D7">
        </g>
        <g id="D711" serif:id="D7">
            <path d="M-0.351,75L-13.028,75.214L-20,81.087L-7.156,81.087L-0.351,75Z" style="fill:#f88948;"/>
            <path d="M6.343,81.087L-0.351,75L-7.156,81.087L-7.156,98.4L6.343,98.4L6.343,81.087Z" style="fill:#d9d9d9;"/>
            <rect x="-3.681" y="85.596" width="6.55" height="6.55" style="fill:#595959;"/>
        </g>
        <g id="D712" serif:id="D7">
        </g>
        <g id="D713" serif:id="D7">
        </g>
        <g id="D714" serif:id="D7">
        </g>
        <g id="D715" serif:id="D7">
        </g>
        <g id="D716" serif:id="D7">
        </g>
        <g id="D2">
        </g>
        <g id="D21" serif:id="D2">
            <path d="M50,190.048L35.194,183.498L20.189,190.048L20.189,215.016L50,215.016L50,190.048Z" style="fill:#d9d9d9;"/>
            <rect x="27.606" y="197.501" width="14.906" height="7.453" style="fill:#595959;"/>
            <path d="M-2.17,190.225L20.197,190.225L35.194,183.498L12.923,183.498L-2.17,190.225Z" style="fill:#065e7b;"/>
            <rect x="-2.17" y="190.225" width="22.358" height="24.791" style="fill:#8c8c8c;"/>
            <rect x="5.338" y="197.501" width="7.498" height="7.453" style="fill:#595959;"/>
        </g>
        <g id="D10">
        </g>
        <g id="D101" serif:id="D10">
        </g>
        <g id="D102" serif:id="D10">
        </g>
        <g id="D01">
        </g>
    </g>
    <g id="strom22" serif:id="strom">
    </g>
    <g id="strom23" serif:id="strom">
    </g>
    <g id="staba">
    </g>
    <g id="chladici-vez" serif:id="chladici vez">
    </g>
    <g id="D22" serif:id="D2">
    </g>
    <g id="D5">
    </g>
    <g id="TOVANA">
    </g>
    <g id="strom24" serif:id="strom">
    </g>
    <g id="strom25" serif:id="strom">
    </g>
    <g id="panelaky">
    </g>
    <g id="strom26" serif:id="strom">
    </g>
    <g id="strom27" serif:id="strom">
    </g>
    <g id="letiste">
        <path d="M190,225C190.036,223.937 165.253,218.562 143.75,218.562C76.14,218.562 21.25,271.063 21.25,335.729C21.25,400.396 79.309,446.292 143.75,452.897C158.582,454.417 171.325,455.253 172.78,455.182C172.904,455.176 173.114,455.186 173.113,455.189C173.104,455.21 178.295,407.713 182.383,355C186.378,303.488 189.263,246.995 190,225Z" style="fill:#666;"/>
        <path d="M190,225C190.036,223.937 165.253,218.562 143.75,218.562C76.14,218.562 21.25,271.063 21.25,335.729C21.25,400.396 76.689,444.302 143.75,452.897C161.037,455.112 173.119,455.172 173.113,455.189C173.093,455.248 174.33,445.005 174.187,445C69.827,441.398 29.049,386.889 30,335C31.122,273.773 87.426,207.142 189.625,235C189.767,235.039 189.863,229.09 190,225Z" style="fill:#8c8c8c;"/>
        <g>
            <rect x="95.895" y="239.415" width="75.277" height="25" style="fill:#d9d9d9;"/>
            <rect x="95.895" y="211.719" width="75.322" height="25" style="fill:#d9d9d9;"/>
            <rect x="76.172" y="239.415" width="19.723" height="25" style="fill:#8c8c8c;"/>
            <rect x="76.172" y="211.719" width="19.723" height="25" style="fill:#8c8c8c;"/>
            <rect x="97.584" y="244.415" width="4.723" height="14.747" style="fill:#595959;"/>
            <rect x="97.584" y="216.719" width="4.723" height="14.747" style="fill:#595959;"/>
            <rect x="134.4" y="244.415" width="4.723" height="14.747" style="fill:#595959;"/>
            <rect x="134.4" y="216.719" width="4.723" height="14.747" style="fill:#595959;"/>
            <rect x="115.992" y="244.415" width="4.723" height="14.747" style="fill:#595959;"/>
            <rect x="115.992" y="216.719" width="4.723" height="14.747" style="fill:#595959;"/>
            <rect x="152.809" y="244.415" width="4.723" height="14.747" style="fill:#595959;"/>
            <rect x="152.809" y="216.719" width="4.723" height="14.747" style="fill:#595959;"/>
            <rect x="103.72" y="244.415" width="4.723" height="14.747" style="fill:#595959;"/>
            <rect x="103.72" y="216.719" width="4.723" height="14.747" style="fill:#595959;"/>
            <rect x="140.536" y="244.415" width="4.723" height="14.747" style="fill:#595959;"/>
            <rect x="140.536" y="216.719" width="4.723" height="14.747" style="fill:#595959;"/>
            <rect x="122.128" y="244.415" width="4.723" height="14.747" style="fill:#595959;"/>
            <rect x="122.128" y="216.719" width="4.723" height="14.747" style="fill:#595959;"/>
            <rect x="158.945" y="244.415" width="4.723" height="14.747" style="fill:#595959;"/>
            <rect x="158.945" y="216.719" width="4.723" height="14.747" style="fill:#595959;"/>
            <rect x="109.856" y="244.415" width="4.723" height="14.747" style="fill:#595959;"/>
            <rect x="109.856" y="216.719" width="4.723" height="14.747" style="fill:#595959;"/>
            <rect x="146.673" y="244.415" width="4.723" height="14.747" style="fill:#595959;"/>
            <rect x="146.673" y="216.719" width="4.723" height="14.747" style="fill:#595959;"/>
            <rect x="128.264" y="244.415" width="4.723" height="14.747" style="fill:#595959;"/>
            <rect x="128.264" y="216.719" width="4.723" height="14.747" style="fill:#595959;"/>
            <rect x="165.081" y="244.415" width="4.723" height="14.747" style="fill:#595959;"/>
            <rect x="165.081" y="216.719" width="4.723" height="14.747" style="fill:#595959;"/>
            <rect x="76.172" y="236.577" width="95" height="2.838" style="fill:#fff;"/>
            <rect x="75" y="208.935" width="98.98" height="2.838" style="fill:#595959;"/>
        </g>
        <rect x="121.583" y="242.198" width="10.649" height="25" style="fill:#8c8c8c;"/>
        <path d="M135.776,267.198L135.776,245.037L152.315,245.037L152.315,267.198L155.809,267.198L155.809,242.198L132.283,242.198L132.283,267.198L135.776,267.198Z" style="fill:#fff;"/>
        <rect x="121.583" y="239.502" width="34.226" height="2.696" style="fill:#595959;"/>
        <g id="letiste1" serif:id="letiste">
            <rect x="60" y="211.274" width="35" height="20" style="fill:#d9d9d9;"/>
            <rect x="60" y="151.274" width="40" height="20" style="fill:#d9d9d9;"/>
            <rect x="68.275" y="130" width="3.446" height="17.26" style="fill:#595959;"/>
            <path d="M70,146.274L59.966,151.308L40,151.274L70,146.274Z" style="fill:#b30000;"/>
            <path d="M70,146.274L100,151.274L59.966,151.308L70,146.274Z" style="fill:#f00;"/>
            <rect x="45" y="211.274" width="15" height="20" style="fill:#8c8c8c;"/>
            <rect x="40" y="151.274" width="20" height="20" style="fill:#8c8c8c;"/>
            <rect x="65" y="231.274" width="20" height="50" style="fill:#d9d9d9;"/>
            <rect x="65" y="171.274" width="20" height="40.034" style="fill:#d9d9d9;"/>
            <rect x="55" y="231.274" width="10" height="50" style="fill:#8c8c8c;"/>
            <rect x="55" y="171.274" width="10" height="40.034" style="fill:#8c8c8c;"/>
            <rect x="61.827" y="156.274" width="36.97" height="10" style="fill:#595959;"/>
            <rect x="41.121" y="156.274" width="17.597" height="10" style="fill:#595959;"/>
            <rect x="61.827" y="216.274" width="31.839" height="10" style="fill:#595959;"/>
            <rect x="45.89" y="216.274" width="12.828" height="10" style="fill:#595959;"/>
        </g>
        <g>
            <path d="M63.213,327L183.354,327C184.458,327 185.354,326.104 185.354,325C185.354,323.896 184.458,323 183.354,323L63.213,323C62.11,323 61.213,323.896 61.213,325C61.213,326.104 62.11,327 63.213,327Z" style="fill:#fff;"/>
        </g>
    </g>
    <g id="strom28" serif:id="strom">
    </g>
    <g id="strom29" serif:id="strom">
    </g>
    <g id="tunel-s-vlakem" serif:id="tunel s vlakem">
    </g>
    <g id="strom30" serif:id="strom">
    </g>
    <g id="hrad">
    </g>
    <g id="auta">
        <path d="M156.357,185.874C162.049,182.57 166.715,179.965 169.18,184.211C172.005,189.076 167.07,191.218 161.379,194.522C155.687,197.827 151.418,200.911 148.556,196.186C145.451,191.246 150.666,189.179 156.357,185.874Z" style="fill:#beed9a;"/>
        <path d="M51.217,76.034C56.116,71.639 60.154,68.139 63.432,71.793C67.189,75.981 62.794,79.083 57.895,83.478C52.996,87.872 49.445,91.762 45.68,87.719C41.634,83.515 46.319,80.429 51.217,76.034Z" style="fill:#f7db6b;"/>
    </g>
    <g id="majak">
    </g>
    <g id="vetrna-elektr" serif:id="vetrna elektr">
    </g>
    <g id="osrov-pokladu" serif:id="osrov pokladu">
    </g>
</svg>
