<svg xmlns="http://www.w3.org/2000/svg" xml:space="preserve" fill-rule="evenodd" stroke-linejoin="round" stroke-miterlimit="1.5" clip-rule="evenodd" viewBox="0 0 250 250"><path fill="none" d="M0-250h1000V750H0z"/><path fill="#e2e1bf" d="M153.7 358C125.3 304-2.3 261 5.3 18.5c5-159 106-230.3 181.7-229.3 45.6.6 101.8 7.6 243 67.3 99 42 145.2 52.7 174 41.8 70.2-26.6 78.9-37.6 117.6-57.4 35.8-18.4 73-47 100.4-58 82.3-33 224.3 2.4 138 160-21.7 39.6-3 119.8-26.9 288.5-27 190-78.4 135.4-88.1 180-7 32.1 55.5 144.5 15 220-53 98.6-196.6 64.4-243 61.5-70-4.4-180.9 82-280 50-213.3-69-120.6-265.8-183.3-385Z"/><path fill="#589765" d="M179 316.7C131 290.3 51.2 261.9 20 118-10.8-24 53.5-169 179-204.2c41.3-11.6 127.3 7.5 260.4 62.2 93.4 38.3 136.9 48.1 164 38.2C669.5-128.2 792.7-201.3 860-207c50.3-4.2 127.7 20.3 95 118.6-3.2 9.5-14.7 41.6-15 56.7-2 82.5-15.4 249.5-27.5 314.2C890.4 401 795 352 822.9 431.4c22.8 64.7 54.7 159 2.1 210-83.2 80.5-182 20.8-207.2 19.3-66-4-194.5 78.5-288 49.4-93.6-29-110-177.1-107.4-226.2 2.6-49-4.7-146-43.4-167.2Z"/><path fill="#8dcf86" d="M254-3.5c-30-42 7.8-199.4-117-134.3C59.3-97.2 8 37.8 31.9 119.2c69 234.4 197.6 136 200.8 242.3 5.4 179.2 2 301.1 120 329.6 50.4 12.1 141.6 1 178-63.4 19.3-34.1 97.8-106 172-28.2 22.5 23.5 58.9 32.5 84.5 10.5 28.2-24.3 22.6-64.8 7.2-85-22.4-29.6-46-64.7-36.7-108.3 21.2-98.3 79.8-62.6 100.5-107.9 44.4-97.2-160.1-135-230.5-74.1C535.8 314 339 115.7 254-3.5Z"/><path fill="#f7db6b" d="m152.3 248.8 7.7 6.2 3.4 2.2c6.8-.1 13.5.3 19.5 1l3.2-8.2c-9.8-1.5-22-2.5-33.8-1.2Zm-17-13.5a100 100 0 0 1 43-2l1.7 1.7 3 5.4.8 2.6c-11-1.8-25.2-2.9-39.4-.5l-9-7.2ZM122.1 222l7 7a109 109 0 0 1 42.7-2.3L165 220l-2.3-3.2a94 94 0 0 0-39.8 5l-.8.3Zm36-11.5c-12.5-1-28.6 1-42 5.7l-1.1.5-5.2-7.3.7-.3c13.7-6 29.3-8.6 41.6-8 .6 1.3 1.5 3 2.9 5.2l3.1 4.2ZM150 195l-1-9.2a102.1 102.1 0 0 0-51.4 10.4l6 6.6 1.8-.7c13.7-5.8 31.5-8 44.6-7.1Zm-1.6-15.1.6-9a93 93 0 0 0-59.6 11.3l-1.8 1.2 5.6 6.5 2.4-1.4a93 93 0 0 1 52.8-8.6ZM79 169.4l4.3 7.4 3.5-2.3c21.6-13 41.6-12.2 62.6-8.9l.6-8.7a94.2 94.2 0 0 0-71 12.5Zm-8.5-14 4.5 7.3 5.4-3.6c25.2-15.2 58-10.6 74.5-6.8l2.5-2.3-15.4-8.9a93.6 93.6 0 0 0-71.5 14.4ZM64.2 140l-.4 5.1 2.5 4c2.5-2 5-3.8 7.7-5.3 19.8-12 44.3-11.7 62-9.2l-6-8-3.8-2.1h-.5A90.3 90.3 0 0 0 64.2 140Zm42.2-24.9 6.9 2.7s-.6.3-1.7.1c-10.5-2-31.7 3-44 10.5L65 130l10-9.9 15-5h16.4Z"/><path fill="#3b7847" d="M120.1 121c-.2-.8 0-1.5 0-2.4 0-5.1 2.3-9.3 5.5-9.4 1 0 1.8 0 2.6.4 2.1 1.4 3.3 5.2 3.3 9 0 .9 0 1.6-.2 2.5 0 0-5 .4-6.7.4-1.5 0-4.5-.5-4.5-.5Z"/><path fill="#4db343" d="M130 127.5c.1-.9 1.4-3.4 1.5-9 0-4.7-1.7-8.6-4-9.2h-.5c-2.5 0-4.5 4.2-4.5 9.3 0 .9 0 1.9.2 2.7 0 0 3 3.5 5 3.3 1.4-.1 2.3 2.9 2.3 2.9Z"/><path fill="#3b7847" d="M155.1 149.5c-.2-.9 0-1.5 0-2.5 0-5.1 2.3-9.3 5.5-9.3 1 0 1.8-.1 2.6.4 2.1 1.4 3.3 5.1 3.3 9 0 .8 0 1.5-.2 2.4 0 0-5 .5-6.7.4-1.5 0-4.5-.4-4.5-.4Z"/><path fill="#4db343" d="M166.3 149.5c.2-.9.2-1.6.2-2.5 0-4.7-1.7-8.7-4-9.2h-.5c-2.5 0-4.5 4.1-4.5 9.2 0 1 0 2 .2 2.8 0 0 2.5.3 4.6.1l4-.4Z"/><path fill="#3b7847" d="M96 114c-.3-1.5-.4-3.2-.4-4.8 0-8.6 4-15.7 9.4-15.8 1.7 0 3.1-.1 4.3.7 3.7 2.4 5.7 8.7 5.7 15.1 0 1.5 0 2.7-.3 4.2 0 0-8.4.7-11.3.7L96 114Z"/><path fill="#4db343" d="M114.6 116c.3-1.7.4-5.3.4-6.8 0-8-3-14.7-6.7-15.6h-1c-4.1 0-7.5 7-7.5 15.6 0 1.5.2 3.4.4 4.9h7.7c2.3 0 6.7 1.8 6.7 1.8Z"/><path fill="#3b7847" d="M224 106.3c-.5-1.4-.7-3.1-.8-4.7-.6-8.6 3-15.9 8.3-16.3 1.7-.2 3-.4 4.4.3 3.8 2.1 6.2 8.3 6.7 14.7v4.2s-8.4 1.3-11.3 1.5c-2.4.2-7.4.3-7.4.3Z"/><path fill="#4db343" d="M242.5 104.5c.1-1.5.2-2.7 0-4.2-.5-8-4-14.5-7.7-15h-1c-4.1.2-7 7.4-6.4 16 0 1.6.4 3.4.7 4.9l7.7-.5c2.3-.2 6.7-1.2 6.7-1.2Z"/><path fill="#3b7847" d="M245.5 104c-.3-.8-.2-1.3-.4-2.2-.6-5 1.2-9.5 4.3-10 1-.2 1.8-.3 2.6 0 2.3 1.2 4 4.7 4.5 8.5.2.9.2 1.4.2 2.3 0 0-4.9 1.3-6.6 1.5-1.5.2-4.6 0-4.6 0Z"/><path fill="#4db343" d="M256.7 102.6c0-.9 0-1.4-.2-2.3-.6-4.7-2.9-8.4-5.2-8.7h-.5c-2.4.4-3.9 4.8-3.2 9.9l.5 2.6s2.6.1 4.6-.4l4-1.1Z"/><path fill="none" stroke="#2d5836" stroke-width="4" d="M90.3 115C71 5.3 116.7-40.3 208.5-3.2c67.2 27.1 91.4 66.6 94.9 73.2 16.6 31.6 60.3 37.6 70.2 21.7M112.4-44.5C93.3-154.2 191.1-209.2 283-172c37.1 15 123.5 24.6 178.3 62.4C506.6-78.3 553.4-78 555-75"/><path fill="none" stroke="#2d5836" stroke-width="4" d="M65 161.6c-17.5-44.6 39.9-64 66.5-31.6 44.8 54.6 77.6-11.7 68.5-35"/><path fill="none" stroke="#2d5836" stroke-linecap="round" stroke-width="4" d="M250 235c-74.6 31.5-123.5-46-95.3-85"/><path fill="none" stroke="#2d5836" stroke-linecap="round" stroke-width="4" d="M168.4 224c27.9 19.5 17.7 45.5-.7 41.7"/><path fill="#3b7847" d="M161 215c1.9 0 3.3-.1 4.6.7 3.9 2.5 6 9.2 6 16 0 7.2-2.7 15.2-7.3 16.4-1.5.4-1.7 0-2.9 0-5.6 0-10.2-7.3-10.2-16.4 0-9.1 4.2-16.6 9.9-16.7Z"/><ellipse cx="163.6" cy="231.7" fill="#4db343" rx="8" ry="16.5"/><path fill="none" stroke="#4c4c4c" stroke-linecap="round" stroke-width="4" d="M161.4 239.6V260"/><path fill="#3b7847" d="M208 229c2.4 0 4.3-.2 6 1 5 3.2 7.9 12 7.9 21 0 9.4-3.6 20-9.7 21.5-2 .5-2.2.1-3.8.1-7.4 0-13.4-9.7-13.4-21.7s5.6-21.8 13-21.9Z"/><ellipse cx="211.3" cy="250.9" fill="#4db343" rx="10.6" ry="21.7"/><path fill="#e2e1bf" d="M120 41.8c5.5-17 5.1-25.2 24.4-25.4 10.2-.1 43 .2 52 .1 13.2-.1 25.2 1.9 25.4 12.7.2 17.3 9.3 25.6 21.2 25.4 39.6-.5 43.3.6 43.4 29.4 0 18.2-33.2 18.4-43.2 20.3C198 113.2 103 94.1 120 41.8Z"/><path fill="#73b3ce" d="M131.5 43.9c-.2-15.3 4.6-20 21.8-20 9-.2 38.3 0 46.4 0 11.8 0 21.9 1.5 22.6 10 1.2 13.6 9.7 20.3 19 20.2 35.4-.5 38.6.4 38.7 23.2 0 14.4-22.7 24-55.7 22.7-82.6-3.4-92.5-36.9-92.8-56.1Z"/><path fill="#065e7b" d="M161.8 45c0-11 4.7-13.2 15-13.1h29.8c12.5.1 14.2 6.5 15.2 11.2.3 1.4.5 8.9 10 12.5 4.2 1.6 14.2 1.3 20 1.3 7.9 0 8 12.6 0 15-80.5 23.5-90-17.7-90-27Z"/><path fill="none" stroke="#065e7b" stroke-linecap="round" stroke-width="27.5" d="M671.7 71.4c-36.4 52.7-47.9 23-105.6 7.8-41.7-11-89.5 12-109.9 46-19.7 33-39 68.2-59 103.8-15.5 27.6-23 60.1-42.5 81.9a208.6 208.6 0 0 1-46.7 35.7c-16.1 9-22 32.7-32 43.8-4.1 4.5-12.1 7-14.6 11.6-5 9.2-3.1 24.2-7.3 33.4-7 15.7-17 44.6-32 53-5.7 3.2-12.2 1.6-17.7 4.7"/><path fill="none" stroke="#73b3ce" stroke-linecap="round" stroke-width="9.3" d="M660 83.6a33.9 33.9 0 0 1-27.7 19.6c-21.8 2.2-69-35.3-110.6-25-30 7.3-51.6 28.2-65.9 50.9-20.3 32.3-37 67.6-57 103.3-15.5 27.6-26.4 60.9-46 82.6-11.7 13.2-35 28.6-48.6 36.2-16.1 9-17.8 30.2-27.8 41.3-4 4.5-11.4 5.8-13.9 10.4-5 9.2-4.8 27-9 36.2-7 15.7-17.6 43.1-32.7 51.6-5.6 3.1-13 2.1-18.5 5.2l-14.4 7.5"/><path fill="none" stroke="#2d5836" stroke-linecap="round" stroke-width="18.7" d="M403-37.4c-6 9-21.2 35.9-127.6 25C201.7-20 171-58.8 113.8-44.8 39-26.5 11.8 96.6 95 206.4c30.3 40 138.3 113.6 195 116"/><path fill="#8c8c8c" d="M128.7-22h18.6v32.5h-18.6z"/><path fill="#d9d9d9" d="m172-37.1 8.2 15.7v31.9h-33V-22l8.3-15.1H172Z"/><path fill="#595959" d="M134.3-2.3h6.5v12.8h-6.5zm32.5.2h6.5v6.5h-6.5zm-12.9-.2h6.5v6.5h-6.5z"/><path fill="#d9d9d9" d="M240.2 22.5H253v17.3h-12.8z"/><path fill="#f88948" d="m233.4 16.4 12.7.2 7 6h-13l-6.7-6.2Z"/><path fill="#8c8c8c" d="m226.7 22.5 6.7-6 6.8 6v17.3h-13.5V22.5Z"/><path fill="#595959" d="M230.2 27h6.5v6.5h-6.5z"/><path fill="#8c8c8c" d="M72.7 35.5h12.8v17.3H72.7z"/><path fill="#0071a7" d="m92.4 29.4-12.7.2-7 6h12.9l6.8-6.2Z"/><path fill="#d9d9d9" d="m99 35.5-6.6-6-6.8 6v17.3H99V35.5Z"/><path fill="#595959" d="M89.1 40h6.5v6.5h-6.5z"/><path fill="#d9d9d9" d="M82.2 6.1H95v17.3H82.2z"/><path fill="red" d="M75.4 0 88 .2l7 5.9H82.2L75.4 0Z"/><path fill="#8c8c8c" d="m68.7 6 6.7-6 6.8 6v17.4H68.7V6.1Z"/><path fill="#595959" d="M72.1 10.6h6.5v6.5h-6.5z"/><path fill="#3b7847" d="M148.6 16.8c-.2-.9-.1-1.6-.1-2.5 0-5.1 2.4-9.3 5.6-9.4 1 0 1.8 0 2.5.4 2.2 1.4 3.4 5.2 3.4 9 0 .9 0 1.6-.2 2.5 0 0-5 .5-6.7.4-1.5 0-4.5-.4-4.5-.4Z"/><path fill="#4db343" d="m159.8 16.8.2-2.5c0-4.7-1.8-8.7-4-9.2h-.5c-2.5 0-4.5 4-4.5 9.2l.1 2.8s2.6.3 4.7.1l4-.4Z"/><path fill="#3b7847" d="M164 16.8c-.2-.9-.2-1.6-.2-2.5 0-5.1 2.4-9.3 5.6-9.4 1 0 1.8 0 2.6.4 2.1 1.4 3.3 5.2 3.3 9 0 .9 0 1.6-.2 2.5 0 0-5 .5-6.7.4-1.5 0-4.5-.4-4.5-.4Z"/><path fill="#4db343" d="M175.1 16.8c.2-.9.2-1.6.2-2.5 0-4.7-1.7-8.7-4-9.2h-.5c-2.5 0-4.5 4-4.5 9.2 0 1 0 2 .2 2.8 0 0 2.5.3 4.6.1l4-.4Z"/><path fill="#3b7847" d="M179.2 16.8v-2.5c0-5.1 2.4-9.3 5.5-9.4 1 0 1.9 0 2.6.4 2.2 1.4 3.4 5.2 3.4 9 0 .9 0 1.6-.2 2.5 0 0-5 .5-6.7.4-1.6 0-4.6-.4-4.6-.4Z"/><path fill="#4db343" d="m190.5 16.8.2-2.5c0-4.7-1.8-8.7-4-9.2h-.6c-2.5 0-4.5 4-4.5 9.2 0 1 0 2 .2 2.8 0 0 2.5.3 4.6.1l4-.4Z"/><path fill="#e2e1bf" d="m191.7 16.5-45-.1v5.3h45v-5.2Z"/><path fill="#d9d9d9" d="M244.1 150.5h40.3v20.2h-40.3z"/><path fill="#8c8c8c" d="M226.8 150.5h17.3v20.2h-17.3z"/><path fill="#8c8c8c" d="M212.4 159h17.3v20.2h-17.3z"/><path fill="#595959" d="M249.6 153.4h4v6.4h-4z"/><path fill="#a6a6a6" d="M229.7 159H270v20.2h-40.3z"/><path fill="#8c8c8c" d="M190.7 185.1h18.6v32.5h-18.6z"/><path fill="#595959" d="M196.2 204.8h6.5v12.8h-6.5z"/><path fill="#065e7b" d="M190.7 185.1h18.5L234 170h-20.3l-23 15.1Z"/><path fill="#d9d9d9" d="M242 185.1h47v32.5h-79.7V185l24.7-15 8.2 15.1Z"/><path fill="#595959" d="M228.8 191.7h6.5v6.5h-6.5zm14.8-1.6h6.5v10h-6.5zm0 13.2h6.5v10h-6.5zm-14.8 1.7h6.5v6.5h-6.5zm-13-13.4h6.5v6.5h-6.5zm0 13.2h6.5v6.5h-6.5zm-19.5-13.1h6.5v6.5h-6.5zm45.4-8.4h49.5v2.5h-49.5z"/><path fill="#8c8c8c" d="M264.2 201.5h-19.3l-8.6 51.4h27.9v-51.4Z"/><path fill="#b3b3b3" d="M262.9 201.5h-11.3l-5.8 51.4h17.4l-.3-51.4Z"/><path fill="#d9d9d9" d="M248.9 240.9h87.8v31.9h-87.8z"/><path fill="#8c8c8c" d="M232.9 240.9h16v31.9h-16z"/><path fill="#73b3ce" d="M57 127.1c2 6.3 3.6 11.4-1 12.9-5.4 1.8-6.5-3.5-8.5-9.8-2-6.2-4.2-11 1-12.9 5.5-2 6.4 3.6 8.5 9.8Z"/><path fill="#d9d9d9" d="M103.3 310.8h-31l7.8-198h15.5l7.7 198Z"/><path fill="#8c8c8c" d="M83.1 310.7H72.3l7.8-197.9h6l-3 197.9Z"/></svg>