<svg xmlns="http://www.w3.org/2000/svg" xml:space="preserve" fill-rule="evenodd" stroke-linecap="round" stroke-linejoin="round" stroke-miterlimit="1.5" clip-rule="evenodd" viewBox="0 0 250 250"><path fill="none" d="M-250-250H750V750H-250z"/><path fill="#e2e1bf" d="M-96.3 358c-28.4-54-156-97-148.4-339.5 5-159 106-230.3 181.7-229.3 45.6.6 101.8 7.6 243 67.3 99 42 145.2 52.7 174 41.8 70.2-26.6 78.9-37.6 117.6-57.4 35.8-18.4 73-47 100.4-58 82.3-33 224.3 2.4 138 160-21.7 39.6-3 119.8-26.9 288.5-27 190-78.4 135.4-88.1 180-7 32.1 55.5 144.5 15 220-53 98.6-196.6 64.4-243 61.5-70-4.4-180.9 82-280 50-213.3-69-120.6-265.8-183.3-385Z"/><path fill="#589765" d="M-71 316.7c-48-26.4-127.8-54.8-159-198.6-30.8-142 33.5-287 159-322.3 41.3-11.6 127.3 7.5 260.4 62.2 93.4 38.3 136.9 48.1 164 38.2C419.5-128.2 542.7-201.3 610-207c50.3-4.2 127.7 20.3 95 118.6-3.2 9.5-14.7 41.6-15 56.7-2 82.5-15.4 249.5-27.5 314.2C640.4 401 545 352 572.9 431.4c22.8 64.7 54.7 159 2.1 210-83.2 80.5-182 20.8-207.2 19.3-66-4-194.5 78.5-288 49.4-93.6-29-110-177.1-107.4-226.2 2.6-49-4.7-146-43.4-167.2Z"/><path fill="#8dcf86" d="M3.9-3.5c-30-42 7.9-199.4-116.8-134.3-78 40.6-129.2 175.6-105.3 257 69 234.4 197.6 136 200.8 242.3 5.4 179.2 2 301.1 120 329.6 50.4 12.1 141.6 1 178-63.4 19.3-34.1 97.8-106 172-28.2 22.5 23.5 58.9 32.5 84.5 10.5 28.2-24.3 22.6-64.8 7.2-85-22.4-29.6-46-64.7-36.7-108.3 21.2-98.3 79.8-62.6 100.5-107.9 44.4-97.2-160.1-135-230.5-74.1C285.8 314 89 115.7 4-3.5Z"/><path fill="#8dcf86" d="M301.2 50h-6.4L303.3.9l6.4-.4-8.5 49.5Zm13 0h-6.5L316.3.1l6.4-.3-8.6 50.2Zm-25.8-.4-6.3-.3 8.2-47.6 6.4-.4-8.3 48.3Zm38.9-1.4-6.6 1.2 8.6-50 6.4-.4-8.4 49.2Zm-46-46 2.4-.2-8 46.7-6.2-1.2L277.3 2l4 .2ZM348 3.4l-7.2 42-1.2.6-5.5 1 8.3-48.4h2l3.6 4.8Zm-91 41.5 7.5-43.6 6.3.3-7.7 44.7-5.2-1-1-.4Zm1-44L251 43l-6-2L251.7.7l6.3.3Zm95.2 9 3 2.5 2.3 3.7-3.9 22.4-6.6 3.3h-.3l5.5-32ZM245.3.1 238.8 39l-6-2.3L239 0l6.4.3ZM361.2 38l3-16.4 5.5 5.4-1 5.1L361 38ZM232.6-.5l-5.9 34.3-5.7-3.6 5.3-31 6.3.3ZM209.8 20l3.7-21.4 6.3.3-4.7 27.7-5.3-6.6Zm-8.7-23.8 6.2 1-2.8 16.1-4.5-11 .7-4.1.4-2Z"/><path fill="#589765" d="m307.5 293 7.7.6-.5-3.4c-1.2-8.2-5.6-33.7-20-64l-7.5 4.7a295.6 295.6 0 0 1 20.3 62Zm17.2-.7 7.1-1.8-.3-2.5c-1.1-8-5.4-32.8-19.1-62.4l-9.6.3a296.3 296.3 0 0 1 21.9 66.4Zm-34.8-1 7.9.7c-1.1-7.8-5-30-16.9-57l-7.6 4.7a296.4 296.4 0 0 1 16.6 51.6Zm-19-6.7 9.1 4a233 233 0 0 0-13.3-45.3l-7.9 4.4c6 15 9.9 28.1 12.1 36.9Zm70.2 3.4 3.9-1 3.2-2a230 230 0 0 0-18-59.7l-1.7-.3-8.2.3a295.9 295.9 0 0 1 20.8 62.7Zm-92.3-15.9 6.7 5.5 5.4 2.5c-1.8-7.8-4.6-17.5-8.7-28.4l-8 6 4.6 14.4Zm108 8 7-4.4c-1.9-10.1-6-26.8-14-46.2l-10.7-2.3a302 302 0 0 1 17.6 52.8Zm14.3-12.4 5.9-7.5-5-18.8-.7-2-5.1-5.6-6.6-1.8c4.6 11 8.7 25.2 11.5 35.7Z"/><path fill="#3b7847" d="M100 60.3c1.5 0 2.9-.1 4 .7 3.5 2.2 5.4 8.1 5.4 14.2 0 6.4-2.5 13.6-6.6 14.7-1.3.3-1.5 0-2.6 0-5 0-9-6.6-9-14.7s3.7-14.8 8.7-14.9Z"/><ellipse cx="102.2" cy="75.2" fill="#4db343" rx="7.2" ry="14.7"/><path fill="none" stroke="#4c4c4c" stroke-width="4" d="M100.2 82.2v18.3"/><path fill="#3b7847" d="M215.6 36c1.6-.1 3-.2 4 .5 3.5 2.3 5.4 8.2 5.4 14.2 0 6.4-2.4 13.6-6.5 14.6-1.4.3-1.5 0-2.6 0-5 0-9-6.5-9-14.6 0-8 3.7-14.7 8.7-14.8Z"/><ellipse cx="217.9" cy="50.7" fill="#4db343" rx="7.1" ry="14.7"/><path fill="none" stroke="#4c4c4c" stroke-width="4" d="M216 57.7V76"/><path fill="#3b7847" d="M-4.5 104c-.3-.8-.2-1.3-.4-2.2-.6-5 1.2-9.5 4.3-10 1-.2 1.8-.3 2.6 0 2.3 1.2 4 4.7 4.5 8.5.2.9.2 1.4.2 2.3 0 0-4.9 1.3-6.6 1.5-1.5.2-4.6 0-4.6 0Z"/><path fill="#4db343" d="M6.7 102.6c0-.9 0-1.4-.2-2.3-.6-4.7-2.9-8.4-5.2-8.7H.8c-2.4.4-3.9 4.8-3.2 9.9l.5 2.6s2.6.1 4.6-.4l4-1.1Z"/><path fill="none" stroke="#2d5836" stroke-linecap="butt" stroke-width="4" d="M68.6-32.1c88.5 11.4 46.6 61.6 47.1 93.7.8 45.4 42.6 65 65.9 61.2M71.8 88.7c-41.5 98.2 73 108.2 85.2 88.3"/><path fill="none" stroke="#2d5836" stroke-linecap="butt" stroke-width="4" d="M-159.7 115C-179 5.3-133.3-40.3-41.5-3.2 25.7 23.9 49.9 63.4 53.4 70c16.6 31.6 60.3 37.6 70.2 21.7M-137.6-44.5C-156.7-154.2-58.9-209.2 33-172c37.1 15 123.5 24.6 178.3 62.4C256.6-78.3 303.4-78 305-75"/><path fill="none" stroke="#2d5836" stroke-linecap="butt" stroke-width="4" d="M22 320c15.8-24.6 31-40.5 22.2-64.4C39.6 243 38 235 32 227.4-10.4 173.9 21.8 115.7 15 100"/><path fill="none" stroke="#2d5836" stroke-width="4" d="M238.8 121c1.2 2.4 44 16.7 21.2 54-10.5 17.2-34 21-62.4 6M0 235c-74.6 31.5-123.5-46-95.3-85M260 45.6c-6.4 12.9-6 24-35 29.4-28.9 5.4-87.2-15.1-65-106"/><path fill="none" stroke="#2d5836" stroke-width="4" d="M393.4-16.9c-4.3 3.3 4.8 48.5-59.1 63.6C270.5 62 187 31 188.3-24M440 31.9a63.6 63.6 0 0 1 0 74.7c-23.1 32.1-70.5 26.1-85 18-26.6-14.7-86.7-42-91.2 9.6-2.8 32.6 74 39.3 91.2 52.6 31 24.2 25 57.1 25 58.2 4 52.8-149.2 98.4-184.5-65"/><path fill="#e2e1bf" d="M-130 41.8c5.5-17 5.1-25.2 24.4-25.4 10.2-.1 43 .2 52 .1 13.2-.1 25.2 1.9 25.4 12.7C-28 46.5-19 54.8-7 54.6c39.6-.5 43.3.6 43.4 29.4 0 18.2-33.2 18.4-43.2 20.3C-52 113.2-147 94.1-130 41.8Z"/><path fill="#73b3ce" d="M-118.5 43.9c-.2-15.3 4.6-20 21.8-20 9-.2 38.3 0 46.4 0 11.8 0 21.9 1.5 22.6 10 1.2 13.6 9.7 20.3 19 20.2 35.4-.5 38.6.4 38.7 23.2 0 14.4-22.7 24-55.7 22.7-82.5-3.4-92.5-36.9-92.8-56.1Z"/><path fill="#065e7b" d="M-88.2 45c0-11 4.7-13.2 15-13.1h29.8c12.5.1 14.2 6.5 15.2 11.2.3 1.4.5 8.9 10 12.5C-14 57.2-4 57 1.8 57c7.9 0 8 12.6 0 15-80.5 23.5-90-17.7-90-27Z"/><path fill="none" stroke="#065e7b" stroke-width="27.5" d="M421.7 71.4c-36.4 52.7-47.9 23-105.6 7.8-41.7-11-89.5 12-109.9 46-19.7 33-39 68.2-59 103.8-15.5 27.6-23 60.1-42.5 81.9A208.6 208.6 0 0 1 58 346.6c-16.1 9-22 32.7-32 43.8-4.1 4.5-12.1 7-14.6 11.6-5 9.2-3.1 24.2-7.3 33.4-7 15.7-17 44.6-32 53-5.7 3.2-12.2 1.6-17.7 4.7"/><path fill="none" stroke="#73b3ce" stroke-width="9.3" d="M410 83.6a33.9 33.9 0 0 1-27.7 19.6c-21.8 2.2-69-35.3-110.7-25-30 7.3-51.5 28.2-65.8 50.9-20.3 32.3-37 67.6-57 103.3-15.5 27.6-26.4 60.9-46 82.6-11.7 13.2-35 28.6-48.6 36.2-16.1 9-17.8 30.2-27.8 41.3-4 4.5-11.4 5.8-13.9 10.4-5 9.2-4.8 27-9 36.2-7 15.7-17.6 43.1-32.7 51.6-5.6 3.1-13 2.1-18.5 5.2l-14.4 7.5"/><path fill="none" stroke="#2d5836" stroke-width="18.7" d="M210 407.6c-8.6-3-40-11.2-40-11.2s4.4-12.6 2-25c-2.8-14.6-12.5-29.4-12-30 8-11.2 38.7-46.4 45-54.5 122.3-155.6 257.4 3.4 325 54.5 27.8 21 90.4 10.2 100-41.4 17.8-95.4-110.3-87.6-120-198.6-8.2-93.9 49.8-138.2 110-150 126.5-25 80.4-161.3-27.6-138-56 12-102.8 80.5-115.2 173.2-10.7 80.4-122 26-119.4-9M153-37.4c-6 9-21.2 35.9-127.6 25C-48.3-20-79-58.8-136.2-44.8-211-26.5-238.2 96.6-155 206.4c30.3 40 138.3 113.6 195 116"/><path fill="#d9d9d9" d="M-9.8 22.5H3v17.3H-9.8z"/><path fill="#f88948" d="m-16.6 16.4 12.7.2 7 6h-13l-6.7-6.2Z"/><path fill="#d9d9d9" d="m22.2 35.4 12.8.1v17.3H22.2V35.4Z"/><path fill="#f7db6b" d="m15.4 29.4 12.6.2 7 6H22.2l-6.8-6.2Z"/><path fill="#8c8c8c" d="m8.7 35.5 6.7-6 6.8 6v17.3H8.7V35.5Z"/><path fill="#595959" d="M12.1 40h6.5v6.5h-6.5z"/><path fill="#ccc" d="M138 67.7h29.8v25H138z"/><path fill="#595959" d="M145.4 75.2h14.9v7.5h-14.9z"/><path fill="#ccc" d="m153 61.2 14.9 6.7H138l14.9-6.7Z"/><path fill="#065e7b" d="M115.5 68h22.4l15-6.8h-22.3l-15.1 6.7Z"/><path fill="#7a747a" d="M115.5 67.7h22.4v25h-22.4z"/><path fill="#595959" d="M123.1 75.2h7.5v7.5h-7.5z"/><path fill="#8c8c8c" d="m123.3-30-12.8 6.7V7.5h13l-.2-37.6Z"/><path fill="#d9d9d9" d="m135.2-36.4-13.1 7V7.5h13.7l-.6-43.9Z"/><path fill="#8c8c8c" d="M160.8-20 148-13.4v30.8h13l-.2-37.6Z"/><path fill="#d9d9d9" d="m172.7-26.4-13.1 7v36.9h13.7l-.6-43.9Z"/><path fill="#595959" d="M163.5-.5h6.5V6h-6.5zm-12.3 0h6.5V6h-6.5z"/><path fill="#8c8c8c" d="m198.3-9-12.8 6.7v30.8h13l-.2-37.6Z"/><path fill="#d9d9d9" d="m210.2-15.4-13.1 7v36.9h13.7l-.6-43.9Z"/><path fill="#595959" d="M201 .1h6.5v6.5H201zm-12.3 0h6.5v6.5h-6.5zM201 10.5h6.5V17H201zm-12.3 0h6.5V17h-6.5z"/><path fill="#3b7847" d="M166.6 65c2.3 0 4.2-.2 5.8 1 4.9 3.1 7.6 11.5 7.6 20.2 0 9.2-3.5 19.4-9.4 20.9-1.8.5-2.1 0-3.6 0-7.2 0-13-9.3-13-21 0-11.5 5.4-21 12.6-21Z"/><ellipse cx="169.8" cy="86.2" fill="#4db343" rx="10.2" ry="21"/><path fill="none" stroke="#4c4c4c" stroke-width="4" d="M167 96.2v26"/><path fill="#2d5836" d="m170.7 121.1-6.5-1.1-.6 3.4 6.7 1.6.4-3.9Z"/><path fill="#d9d9d9" d="M-6 150.5h40.3v20.2H-6z"/><path fill="#595959" d="M-.4 153.4h4v6.4h-4zm26.1.1h-4v6.4h4v-6.4Zm-14.8-.1H7v6.4h4v-6.4Zm7.4 0h-4v6.4h4v-6.4Zm14.8 0h-4v6.4h4v-6.4Z"/><path fill="#a6a6a6" d="M-20.3 159H20v20.2h-40.3z"/><path fill="#d9d9d9" d="M129.7 129.8H170V150h-40.3z"/><path fill="#a6a6a6" d="M112.4 129.8h17.3V150h-17.3z"/><path fill="#595959" d="M159.4 141.3h-4v6.4h4v-6.4Zm-22.1-.1h-4v6.4h4v-6.4Zm14.7 0h-4v6.4h4v-6.4Zm14.8 0h-4v6.4h4v-6.4Zm-22.1 0h-4v6.4h4v-6.4Zm14.7-8.5h-4v6.5h4v-6.5Zm-22.1 0h-4v6.4h4v-6.4Zm14.7 0h-4v6.4h4v-6.4Zm14.8 0h-4v6.4h4v-6.4Zm-22.1 0h-4v6.4h4v-6.4Z"/><path fill="#d9d9d9" d="M124.1 192.8H16.5L43.4 74.3h53.8l27 118.5Z"/><path fill="red" d="M103 100H54.7l1.6-15h43.3l3.4 15Zm5.7 25H52.1l1.6-15h51.6l3.4 15Z"/><path fill="#8c8c8c" d="M57.4 74.3 45 192.8H16.5L43.4 74.3h14Z"/><path fill="#8c0008" d="m56.3 85-1.6 15H37.5L41 85h15.4Zm-2.6 25L52 125H32l3.4-15h18.4Z"/><path fill="#d9d9d9" d="M-8 185.1h47v32.5h-79.7V185l24.7-15 8.2 15.1Z"/><path fill="#595959" d="M-6.4 190.1H.1v10h-6.5zm0 13.2H.1v10h-6.5zM2 190.1h6.5v10H2zm0 13.1h6.5v10H2zm8.4-13.1h6.5v10h-6.5zm0 13.1h6.5v10h-6.5zm8.4-13.1h6.5v10h-6.5zm0 13.1h6.5v10h-6.5zm8.3-13.1h6.5v10h-6.5zm0 13.1h6.5v10h-6.5zm-35.4-19.9h49.5v2.5H-8.3z"/><path fill="#8c8c8c" d="M166.5 218.4h14.2v24.8h-14.2z"/><path fill="#005f8c" d="M166.5 218.4h14.2l18.8-11.5H184l-17.5 11.5Zm18.5 0h14.2L218 207h-15.5L185 218.4Zm18.5 0h14.2l18.8-11.5H221l-17.5 11.5Z"/><path fill="#d9d9d9" d="M236.5 243.2v-36.3L218 218.2l-.1-11.3-18.5 11.3V207l-18.8 11.5v24.8h55.8Z"/><path fill="#595959" d="M170.8 233.4h5v9.7h-5zm13.2-12h5v20.3h-5zm6.2 0h5v20.3h-5zm6.3 0h5v20.3h-5zm6.2.1h5v20.3h-5zm6.2 0h5v20.3h-5zm6.3.1h5v20.3h-5zm6.2 0h5v20.3h-5zm6.3 0h5v20.3h-5zm-57 2h5v5h-5z"/><path fill="#d9d9d9" d="M69 206.7h40.3v20.2H69z"/><path fill="#a6a6a6" d="M54.7 216.1H95v20.2H54.7z"/><path fill="#8c8c8c" d="M51.8 206.7h17.3v20.2H51.8z"/><path fill="#8c8c8c" d="M37.4 216.1h17.3v20.2H37.4z"/><path fill="#595959" d="M100.7 209.7h-4v6.4h4v-6.4Zm-22.2-.1h-4v6.4h4v-6.4Zm7.4 0h-4v6.4h4v-6.4Zm7.4 0h-4v6.4h4v-6.4Zm14.8 0h-4v6.4h4v-6.4Z"/><path fill="#d9d9d9" d="M104.7 178.1H145v20.2h-40.3z"/><path fill="#a6a6a6" d="M87.4 178.1h17.3v20.2H87.4z"/><path fill="#595959" d="M134.4 189.5h-4v6.4h4v-6.4Zm-22.1 0h-4v6.4h4v-6.5Zm14.7 0h-4v6.4h4v-6.5Zm14.8 0h-4v6.4h4v-6.5Zm-22.1 0h-4v6.4h4v-6.5Zm14.7-8.5h-4v6.4h4V181Zm-22.1 0h-4v6.3h4V181Zm14.7 0h-4v6.3h4V181Zm14.8 0h-4v6.3h4V181Zm-22.1 0h-4v6.3h4V181Z"/><path fill="#bfbfbf" d="M90.3 186.6h40.3v20.2H90.3z"/><path fill="#595959" d="M121.3 199.1h-4v6.4h4v-6.4Zm-22.2 0h-4v6.4h4V199Zm14.8 0h-4v6.4h4V199Zm14.8 0h-4v6.4h4V199Zm-22.2 0h-4v6.4h4V199Zm14.8-9.9h-4v6.5h4v-6.5Zm-22.2 0h-4v6.4h4V189Zm14.8 0h-4v6.4h4V189Zm14.8 0h-4v6.4h4V189Zm-22.2 0h-4v6.4h4V189Z"/><path fill="#8c8c8c" d="M73 186.6h17.3v20.2H73z"/><path fill="#d9d9d9" d="M73 185.9h61.4v2H73z"/><path fill="#8c8c8c" d="M14.2 201.5H-5.1l-8.6 51.4h27.9v-51.4Z"/><path fill="#d9d9d9" d="M22.8 201.5H5L3 253h27.9l-8-51.4Z"/><path fill="#b3b3b3" d="M12.9 201.5H1.6L-4.2 253h17.4l-.3-51.4Z"/><path fill="#d9d9d9" d="M33.2 218.1h20v34.7h-20zm27.1 0h20v34.7h-20z"/><path fill="#8c8c8c" d="M33.2 218.1h7.4v34.7h-7.4zm27.1 0h7.4v34.7h-7.4z"/><path fill="#d9d9d9" d="M-1.1 240.9h87.8v31.9H-1.1z"/><path fill="#595959" d="M3.2 247.8h5v9.5h-5zm9.3 0h5v9.5h-5zm9.3 0h5v9.5h-5zm9.3 0h5v9.5h-5zm9.4 0h5v9.5h-5zm9.3 0h5v9.5h-5zm9.3 0h5v9.5h-5zm9.3.1h5v9.5h-5zm9.3-.1h5v9.5h-5z"/><path fill="#8c8c8c" d="M175.5 205.7ZM151 180a25 25 0 0 1 24.5-25.7 25 25 0 0 1 24.4 25.7h-7.7c0-9.8-7.5-17.7-16.7-17.7-9.3 0-16.8 8-16.8 17.7H151Z"/><path fill="#d9d9d9" d="M172.1 211.5Zm-24.4-25.7a25 25 0 0 1 24.4-25.7 25 25 0 0 1 24.4 25.7H189c0-9.7-7.5-17.6-16.8-17.6-9.2 0-16.7 7.9-16.7 17.6h-7.7Z"/><path fill="#8dcf86" d="m162.1 174.3-2.4-.3s-1.9 2.4-2.5 3.8c-2 4.3-2 8.5-2 8.5l7-12Z"/><path fill="#8c8c8c" d="M213.2 146.4Zm-29.6-26.7c.4-14.2 14.5-25.2 31.3-24.7 16.8.6 30 12.6 29.6 26.7l-9.6-.3c.4-9.7-8.7-18-20.3-18.3-11.5-.4-21.1 7.2-21.5 16.9l-9.5-.3Z"/><path fill="#d9d9d9" d="M208.8 152Zm-29.6-26.6c.5-14.2 14.5-25.2 31.3-24.7 16.8.6 30.1 12.6 29.6 26.7l-9.5-.3c.3-9.7-8.8-18-20.3-18.3-11.6-.4-21.2 7.2-21.5 16.9l-9.6-.3Z"/><path fill="#589765" d="M197 114.2h-2.5s-2.3 2.1-3.1 3.4c-2.9 4.5-2.6 8.7-2.6 8.7l8.1-12.1Z"/><path fill="#f7db6b" d="m42.4 246.8 12.4 32.7H30l12.4-32.7Z"/><path fill="#f88948" d="m42.4 246.8-4.1 32.7H30l12.4-32.7Z"/><path fill="#f7db6b" d="m122.4 246.8 12.4 32.7H110l12.4-32.7Z"/><path fill="#f88948" d="m122.4 246.8-4.1 32.7H110l12.4-32.7Z"/></svg>