<svg xmlns="http://www.w3.org/2000/svg" xml:space="preserve" fill-rule="evenodd" stroke-linecap="round" stroke-linejoin="round" stroke-miterlimit="1.5" clip-rule="evenodd" viewBox="0 0 250 250"><path fill="none" d="M-500-250H500V750H-500z"/><path fill="#e2e1bf" d="M-346.3 358c-28.4-54-156-97-148.4-339.5 5-159 106-230.3 181.7-229.3 45.6.6 101.8 7.6 243 67.3 99 42 145.2 52.7 174 41.8 70.2-26.6 78.9-37.6 117.6-57.4 35.8-18.4 73-47 100.4-58 82.3-33 224.3 2.4 138 160-21.7 39.6-3 119.8-26.9 288.5-27 190-78.4 135.4-88.1 180-7 32.1 55.5 144.5 15 220-53 98.6-196.6 64.4-243 61.5-70-4.4-180.9 82-280 50-213.3-69-120.6-265.8-183.3-385Z"/><path fill="#589765" d="M-321 316.7c-48-26.4-127.8-54.8-159-198.6-30.8-142 33.5-287 159-322.3 41.3-11.6 127.3 7.5 260.4 62.2 93.4 38.3 136.9 48.1 164 38.2C169.5-128.2 292.7-201.3 360-207c50.3-4.2 127.7 20.3 95 118.6-3.2 9.5-14.7 41.6-15 56.7-2 82.5-15.4 249.5-27.5 314.2C390.4 401 295 352 322.9 431.4c22.8 64.7 54.7 159 2.1 210-83.2 80.5-182 20.8-207.2 19.3-66-4-194.5 78.5-288 49.4-93.6-29-110-177.1-107.4-226.2 2.6-49-4.7-146-43.4-167.2Z"/><path fill="#8dcf86" d="M-246-3.5c-30-42 7.8-199.4-117-134.3-77.8 40.6-129.1 175.6-105.2 257 69 234.4 197.6 136 200.8 242.3 5.4 179.2 2 301.1 120 329.6 50.4 12.1 141.6 1 178-63.4 19.3-34.1 97.8-106 172-28.2 22.5 23.5 58.9 32.5 84.5 10.5 28.2-24.3 22.6-64.8 7.2-85-22.4-29.6-46-64.7-36.7-108.3 21.2-98.3 79.8-62.6 100.5-107.9 44.4-97.2-160.1-135-230.5-74.1C35.8 314-161 115.7-246-3.5Z"/><path fill="#8dcf86" d="M51.2 50h-6.4L53.3.9l6.4-.4L51.2 50Zm13 0h-6.5L66.3.1l6.4-.3L64.1 50Zm-25.8-.4-6.3-.3 8.2-47.6 6.4-.4-8.3 48.3Zm38.9-1.4-6.6 1.2 8.6-50 6.4-.4-8.4 49.2Zm-46-46 2.4-.2-8 46.7-6.2-1.2L27.3 2l4 .2ZM98 3.4l-7.2 42-1.2.6-5.5 1 8.3-48.4h2L98 3.4ZM7 44.9l7.5-43.6 6.3.3-7.7 44.7-5.2-1-1-.4ZM8 1 1 43l-6-2L1.7.7 8 1Zm95.2 9 3 2.5 2.3 3.7-3.9 22.4-6.6 3.3h-.3l5.5-32ZM-4.7.1-11.2 39l-6-2.3L-11 0l6.4.3ZM111.2 38l3-16.4 5.5 5.4-1 5.1L111 38ZM-17.4-.5l-5.9 34.3-5.7-3.6 5.3-31 6.3.3ZM-40.2 20l3.7-21.4 6.3.3-4.7 27.7-5.3-6.6Zm-8.7-23.8 6.2 1-2.8 16.1-4.5-11 .7-4.1.4-2Zm293.2 127.6c.5 2.4 1 4.8 1.7 7.2l-27.8-7.5-7.5-6.6-1.2-2.4 34.8 9.3Zm-2.3-14 1 7-37.6-10.1-1.9-7.2 38.5 10.3Zm-1-13.7.4 6.8-39.8-10.7.8-6.4L241 96Zm.3-13.4-.3 6.6-37.7-10 1.5-6.3 36.5 9.7Zm1.2-13-.7 6.4-35.5-9.5 1.3-5.2.4-1 34.5 9.2Zm2.4-12.9c-.5 2.1-1 4.2-1.3 6.3l-32.9-8.7 7.5-4.7 26.7 7.1Zm3.5-12.5-1.9 6.2-20-5.4 4.6-2.5 6.2-1.2 11 3Z"/><path fill="#589765" d="m57.5 293 7.7.6-.5-3.4c-1.2-8.2-5.6-33.7-20-64l-7.5 4.7a295.6 295.6 0 0 1 20.3 62Zm17.2-.7 7.1-1.8-.3-2.5c-1.1-8-5.4-32.8-19.1-62.4l-9.6.3a296.3 296.3 0 0 1 21.9 66.4Zm-34.8-1 7.9.7c-1.1-7.8-5-30-16.9-57l-7.6 4.7a296.4 296.4 0 0 1 16.6 51.6Zm-19-6.7 9.1 4a233 233 0 0 0-13.3-45.3l-7.9 4.4c6 15 9.9 28.1 12.1 36.9Zm70.2 3.4 3.9-1 3.2-2a230 230 0 0 0-18-59.7l-1.7-.3-8.2.3A295.9 295.9 0 0 1 91.1 288Zm-92.3-15.9 6.7 5.5 5.4 2.5c-1.8-7.8-4.6-17.5-8.7-28.4l-8 6 4.6 14.4Zm108 8 7-4.4c-1.9-10.1-6-26.8-14-46.2L89 227.2a302 302 0 0 1 17.6 52.8Zm14.3-12.4 5.9-7.5-5-18.8-.7-2-5.1-5.6-6.6-1.8c4.6 11 8.7 25.2 11.5 35.7Z"/><path fill="#589765" d="M209.1 307.2c-12 8.5-31.9 21.3-47.3 25.7l-8.4 2.2 8.7.3 14.5-2.4 13.4-5 10-6.7 8.6-11.3.5-2.8Zm2.1-10.9-1-6c-10.7 8-34.4 24.2-52.2 29.2a266.6 266.6 0 0 1-39.6 8.3l1.6.8 17 4.5a244 244 0 0 0 24.2-6c16.3-4.9 37.7-19 49.3-27.3l.7-3.5ZM200 281.6c-12.2 8.5-31 20.4-45.7 24.6a234.3 234.3 0 0 1-56.8 9.5l2.7 2.6 8.9 4.6c13-.9 29.2-3.4 48.3-9.1 16.4-5 37.9-19.2 49.5-27.4l-7-4.8Zm-11.7-8a156.8 156.8 0 0 1-37.8 19.2 212.3 212.3 0 0 1-67.1 9.4l4.7 4.4 3.4 3.3c14.5.3 35.5-1.5 62.2-9.5 13.2-4 29.7-14 41.6-22l-7-4.8Zm-11.9-8.3a130.7 130.7 0 0 1-29.6 14.1c-25.5 7.2-45 9.4-58.7 9.6l-5.5 1.7-1 5.6c14.4.9 37.6 0 68.3-9.3 10.5-3.1 23-10 33.7-16.7l-7.2-5Zm-7.7-5.3-4.8-3c-7.1 3.9-14.4 7.2-20.8 9a280 280 0 0 1-25.2 6l-3.3 3-7.9 5-4.7 2.5a222 222 0 0 0 44.2-8.9c7.8-2.3 16.8-6.8 25.3-11.7l-2.8-1.9Zm-18.5-11.4a81 81 0 0 1-10.9 4l-10.7 2.9-3.8 9.4c5.6-1.3 11.5-2.8 17.7-4.6 5-1.5 10.4-3.9 15.9-6.7l-8.2-5Zm-18.7-8.2-1 .3h-.2l-.7 8.8a256.5 256.5 0 0 0 14.5-4.5l-12.6-4.6Z"/><path fill="#3b7847" d="M50.6 10c1.6 0 3-.1 4 .6C58.2 13 60 18.8 60 24.8c0 6.4-2.4 13.6-6.5 14.6-1.4.4-1.5 0-2.6 0-5 0-9-6.5-9-14.6 0-8 3.7-14.7 8.7-14.8Z"/><ellipse cx="52.9" cy="24.8" fill="#4db343" rx="7.1" ry="14.7"/><path fill="none" stroke="#4c4c4c" stroke-width="4" d="M51 31.8V50"/><path fill="#3b7847" d="M232.6 72.8c2.3 0 4.1-.2 5.8.9 4.9 3.2 7.6 11.6 7.6 20.3 0 9.1-3.5 19.4-9.4 20.9-1.9.4-2.1 0-3.6 0-7.2 0-13-9.4-13-21 0-11.5 5.4-21 12.6-21.1Z"/><ellipse cx="235.8" cy="94" fill="#4db343" rx="10.2" ry="21"/><path fill="none" stroke="#4c4c4c" stroke-width="4" d="M233 104v26"/><path fill="#3b7847" d="M253.8-1.8c1.6 0 2.9-.1 4 .6 3.5 2.2 5.4 8.1 5.4 14.2 0 6.4-2.4 13.6-6.6 14.6-1.3.3-1.5 0-2.5 0-5 0-9.1-6.5-9.1-14.6s3.8-14.7 8.8-14.8Z"/><ellipse cx="256" cy="13" fill="#4db343" rx="7.1" ry="14.7"/><path fill="#3b7847" d="M25.6 179c1.7 0 3.2-.1 4.4.7 3.8 2.5 5.9 9 5.9 15.6 0 7-2.7 15-7.2 16.1-1.5.4-1.7 0-2.8 0-5.5 0-10-7.2-10-16 0-9 4.1-16.3 9.7-16.4Z"/><ellipse cx="28" cy="195.3" fill="#4db343" rx="7.9" ry="16.1"/><path fill="none" stroke="#4c4c4c" stroke-width="4" d="M25.9 203v20"/><path fill="none" stroke="#2d5836" stroke-linecap="butt" stroke-width="4" d="M-387.6-44.5C-406.7-154.2-308.9-209.2-217-172c37.1 15 123.5 24.6 178.3 62.4C6.6-78.3 53.4-78 55-75"/><path fill="none" stroke="#2d5836" stroke-width="4" d="M-11.2 121c1.2 2.4 44 16.7 21.2 54-10.5 17.2-34 21-62.4 6m312.6-46c-2-1.6-65.2 3.3-59-55 2.6-24.4 26.8-42 58.8-41.3M226.5-5.6c1-.9 1.8-31.7 36.7-22.8a28.5 28.5 0 0 1 21.4 32.5M10 45.6C3.6 58.5 4 69.6-25 75c-28.9 5.4-87.2-15.1-65-106"/><path fill="none" stroke="#2d5836" stroke-width="4" d="M143.4-16.9c-4.3 3.3 4.8 48.5-59.1 63.6C20.5 62-63 31-61.7-24M190 31.9a63.6 63.6 0 0 1 0 74.7c-23.1 32.1-70.5 26.1-85 18-26.6-14.7-86.7-42-91.2 9.6-2.8 32.6 74 39.3 91.2 52.6 31 24.2 25 57.1 25 58.2 4 52.8-149.2 98.4-184.5-65m321.4 63.2c1.8 3.3 61.5-22.8 79.5 26.8 8.9 24.7-14.4 52.3-31.4 60-10.8 4.9-74 35.4-67.8-90"/><path fill="none" stroke="#2d5836" stroke-width="4" d="M205.6 278.1c32 57.8-81.8 84.3-128 14"/><path fill="none" stroke="#065e7b" stroke-width="27.5" d="M171.7 71.4c-36.4 52.7-47.9 23-105.6 7.8-41.7-11-89.5 12-109.9 46-19.7 33-39 68.2-59 103.8-15.5 27.6-23 60.1-42.5 81.9a208.6 208.6 0 0 1-46.7 35.7c-16.1 9-22 32.7-32 43.8-4.1 4.5-12.1 7-14.6 11.6-5 9.2-3.1 24.2-7.3 33.4-7 15.7-17 44.6-32 53-5.7 3.2-12.2 1.6-17.7 4.7"/><circle cx="171.8" cy="71.3" r="13.7" fill="#065e7b"/><path fill="none" stroke="#73b3ce" stroke-width="9.3" d="M160 83.6a33.9 33.9 0 0 1-27.7 19.6c-21.8 2.2-69-35.3-110.7-25-30 7.3-51.5 28.2-65.8 50.9-20.3 32.3-37 67.6-57 103.3-15.5 27.6-26.4 60.9-46 82.6-11.7 13.2-35 28.6-48.6 36.2-16.1 9-17.8 30.2-27.8 41.3-4 4.5-11.4 5.8-13.9 10.4-5 9.2-4.8 27-9 36.2-7 15.7-17.6 43.1-32.7 51.6-5.6 3.1-13 2.1-18.5 5.2l-14.4 7.5"/><path fill="none" stroke="#2d5836" stroke-width="18.7" d="M-40 407.6c-8.6-3-40-11.2-40-11.2s4.4-12.6 2-25c-2.8-14.6-12.5-29.4-12-30 8-11.2 38.7-46.4 45-54.5 122.3-155.6 257.4 3.4 325 54.5 27.8 21 90.4 10.2 100-41.4 17.8-95.4-110.3-87.6-120-198.6-8.2-93.9 49.8-138.2 110-150 126.5-25 80.4-161.3-27.6-138-56 12-102.8 80.5-115.2 173.2-10.7 80.4-122 26-119.4-9"/><path fill="#3b7847" d="M133.8 90.2c1.5 0 2.9-.2 4 .6 3.4 2.2 5.3 8 5.3 14.1 0 6.4-2.4 13.5-6.5 14.6-1.3.3-1.5 0-2.6 0-5 0-9-6.5-9-14.6 0-8 3.8-14.6 8.8-14.7Z"/><ellipse cx="136" cy="104.9" fill="#4db343" rx="7.1" ry="14.6"/><path fill="none" stroke="#4c4c4c" stroke-width="4" d="M134 111.9V130"/><path fill="#3b7847" d="M25 51.9c2.2 0 4-.2 5.7.9 5 3.2 7.6 11.6 7.6 20.2 0 9.2-3.4 19.5-9.3 21-2 .4-2.2 0-3.7 0-7.1 0-13-9.4-13-21 0-11.5 5.5-21 12.6-21.1Z"/><ellipse cx="28.1" cy="73" fill="#4db343" rx="10.2" ry="21"/><path fill="none" stroke="#4c4c4c" stroke-width="4" d="M25.3 83v26"/><path fill="#2d5836" d="M27.7 105.8c-1.6.2-4.5 2.6-5.4 3.9-1 1.2 1.7 3.1 1.7 3.1l6.6-5.5s-1.4-1.6-3-1.5ZM137.3 129c-1.7.1-5.4 0-7.3-.2v3.6l7.3.2v-3.5Z"/><path fill="#3b7847" d="M80 125c2 0 3.6-.1 5 .8 4.4 2.8 6.8 10.3 6.8 18 0 8-3 17.1-8.3 18.5-1.7.4-1.9 0-3.2 0-6.3 0-11.5-8.3-11.5-18.5 0-10.3 4.8-18.7 11.1-18.8Z"/><ellipse cx="82.8" cy="143.8" fill="#4db343" rx="9" ry="18.6"/><path fill="none" stroke="#4c4c4c" stroke-width="4" d="M80.3 152.6v23"/><path fill="#2d5836" d="m82.5 175.3-5.9-1.8-1 3.4 7.6 2.1-.7-3.7Z"/><path fill="#d9d9d9" d="M90.3 9.8h12.8v17.3H90.3z"/><path fill="#f88948" d="m83.5 3.7 12.7.2 7 5.9H90.3l-6.8-6.1Z"/><path fill="#8c8c8c" d="m76.9 9.8 6.6-6.1 6.8 6v17.4H77V9.8Z"/><path fill="#595959" d="M80.3 14.3h6.5v6.5h-6.5z"/><path fill="#8c8c8c" d="M119.1 21.3h12.8v17.3h-12.8z"/><path fill="#73b3ce" d="m138.8 15.2-12.7.2-7 5.9H132l6.8-6Z"/><path fill="#d9d9d9" d="m145.5 21.3-6.7-6-6.8 6v17.3h13.5V21.3Z"/><path fill="#595959" d="M135.4 25.8h6.5v6.5h-6.5z"/><path fill="#8c8c8c" d="M150.1-8.2h12.8V9.1h-12.8z"/><path fill="#d9d9d9" d="m176.5-8.2-6.7-6.1-6.8 6V9.2h13.5V-8.2Z"/><path fill="#595959" d="M166.5-3.7h6.5v6.5h-6.5z"/><path fill="#3b7847" d="M107.4-3.4c1.7 0 3 0 4.2.7C115-.5 117 5.5 117 11.7c0 6.5-2.5 13.8-6.7 14.9-1.3.3-1.5 0-2.6 0-5 0-9.2-6.7-9.2-15 0-8.1 3.8-14.9 9-15Z"/><ellipse cx="109.7" cy="11.7" fill="#4db343" rx="7.3" ry="14.9"/><path fill="none" stroke="#4c4c4c" stroke-width="4" d="M107.7 18.8v18.5"/><path fill="#d9d9d9" d="M75 180.7h50v5H75zm5 5h50v5H80zm10.5 6.5h50v5h-50z"/><path fill="#d9d9d9" d="M96.4 187.2h50v5h-50z"/><path fill="#d9d9d9" d="M102.3 192.1h50v5h-50zm-13.8-9.9h50v5h-50z"/><path fill="#999" d="M70 180.7h5v5h-5z"/><path fill="#a6a6a6" d="M75 185.7h5v5h-5zm10.5 6.5h5v5h-5zm5.9-5h5v5h-5zm5.9 4.9h5v5h-5zm-13.8-9.9h5v5h-5z"/><path fill="#e2e1bf" d="M148.8 175h-45l11.3-20h22.5l11.2 20Z"/><path fill="#f7db6b" d="M148.8 175h-30l5-20h13.8l11.2 20Z"/><path fill="#e2e1bf" d="M179.1 180h-45l11.3-20h22.5l11.2 20Z"/><path fill="#f7db6b" d="M179.1 180h-30l5-20H168l11.2 20Z"/><path fill="#8c8c8c" d="M136.2 194.7h12.3v15h-12.3z"/><path fill="#d9d9d9" d="M140.6 194.7h8v15h-8z"/><path fill="#8c8c8c" d="M123.4 195.6h12.3v15h-12.3z"/><path fill="#d9d9d9" d="M127.7 195.6h8v15h-8z"/><path fill="#8c8c8c" d="M142.8 200.4h12.3v15h-12.3z"/><path fill="#d9d9d9" d="M147.2 200.4h8v15h-8z"/><path fill="#8c8c8c" d="M129.9 201.3h12.3v15h-12.3z"/><path fill="#d9d9d9" d="M134.3 201.3h8v15h-8z"/><path fill="#8c8c8c" d="M150.9 207.6h12.3v15h-12.3z"/><path fill="#d9d9d9" d="M155.2 207.6h8v15h-8z"/><path fill="#8c8c8c" d="M138 208.5h12.3v15H138z"/><path fill="#d9d9d9" d="M142.4 208.5h8v15h-8z"/><path fill="none" stroke="#000" stroke-width="4" d="M221.3 248V133m-44.5 100.2v-76m26.7 90.6v-115m-39.7 100.4v-74.6m82 89.4V133m-53.7 100.2v-76m14.9 76v-76"/><path fill="#737373" d="M161.3 174.2v61.3h47.6v-61.3h-47.6Zm19 44.1h-14.2v13.8h14.2v-13.8Zm23.9 0h-14.3v13.8h14.3v-13.8Zm-23.9-20.5h-14.2v13.7h14.2v-13.7Zm23.9 0h-14.3v13.7h14.3v-13.7Zm-23.9-20.2h-14.2v13.7h14.2v-13.7Zm23.9 0h-14.3v13.7h14.3v-13.7Z"/><path fill="#d9d9d9" d="M176 176.5v59h31v-59h-31Zm12.3 42.5H179v13.2h9.3V219Zm15.5 0h-9.3v13.2h9.3V219Zm-15.5-19.8H179v13.2h9.3v-13.2Zm15.5 0h-9.3v13.2h9.3v-13.2Zm-15.5-19.4H179V193h9.3v-13.2Zm15.5 0h-9.3V193h9.3v-13.2Z"/><path fill="#737373" d="M201.3 158.6V248h70v-89.4h-70Zm28 64.4h-21v20h21v-20Zm35 0h-21v20h21v-20Zm-35-30h-21v20h21v-20Zm35 0h-21v20h21v-20Zm-35-29.4h-21v20h21v-20Zm35 0h-21v20h21v-20Z"/><path fill="#d9d9d9" d="M221.3 160.6V250h50v-89.4h-50Zm20 64.4h-15v20h15v-20Zm25 0h-15v20h15v-20Zm-25-30h-15v20h15v-20Zm25 0h-15v20h15v-20Zm-25-29.4h-15v20h15v-20Zm25 0h-15v20h15v-20Z"/><path fill="#a6a6a6" d="M221.8 250v-89.4h-20.5V250h20.5Zm-2.9-25h-14.7v20h14.7v-20Zm0-30h-14.7v20h14.7v-20Zm0-29.4h-14.7v20h14.7v-20Zm-56.2 10.9v59h13.7v-59h-13.7Zm11.8 42.5h-9.9v13.2h9.9V219Zm0-19.8h-9.9v13.2h9.9v-13.2Zm0-19.4h-9.9V193h9.9v-13.2Z"/><path fill="#8c8c8c" d="M12.1 80h20.1v21.9H12.1z"/><path fill="red" d="M72.5 116.1h12.3v8.6H72.5z"/><path fill="none" stroke="#f7db6b" stroke-width="4" d="m70.6 86.8-5-50.3h-10l-5 50.3v173.3l-10 11.1h40l-10-11.1V86.8Z"/><path fill="none" stroke="#f7db6b" stroke-width="3.3" d="m70.6 260-20-16.7 20-16.8-20-16.7 20-16.8-20-16.8 20-16.7-20-16.8 20-17.7 14.4 1 4-26-2.4 15.4-16.6-1V125l-19.4-15.8 20-16.8-18.9-16.8L67.8 59 55.6 42l5-11.2 5 11.2-12.2 16.8 16 16.7-18.8 16.8 20 16.8-20 16.7 20 16.8-20 16.8 20 16.7-20 16.8 20 16.8-20 16.7 20 16.8-20 16.8 10 11.1 10-11.1Z"/><path fill="none" stroke="#f7db6b" stroke-width="4" d="M20 76.9h10l5 5h178l11.4 15H35l-5 5H20v-25Z"/><path fill="none" stroke="#f7db6b" stroke-width="3.2" d="M35 96.9v-15l-15 7.8L35 97l14.8-15 1.9 9.5L60 83l10-1.1 15.4 14.5L100.8 81l14 14 13.4-13.2 14.6 14.7 14.9-14.8 14.7 14.7 15-15L201.2 95l12.4-12.4"/><path fill="#3b7847" d="M223.4 228c2.1 0 4-.2 5.5.8 4.6 3.2 7.2 11.6 7.2 20.3 0 9.1-3.3 19.3-8.9 20.8-1.8.5-2 0-3.5 0-6.8 0-12.3-9.3-12.3-20.8 0-11.6 5.1-21 12-21.1Z"/><ellipse cx="226.4" cy="249.1" fill="#4db343" rx="9.7" ry="20.9"/><path fill="#f88948" d="M194.5 23.5c6.5-1.3 11.7-2.2 12.7 2.6 1.1 5.5-4.2 6-10.7 7.2-6.4 1.4-11.5 2.9-12.7-2.5-1.3-5.7 4.3-6 10.7-7.3Z"/><path fill="#beed9a" d="M185.7 260.8c5.8 3.3 10.3 6 8 10.3-2.9 4.8-7.2 1.6-13-1.6-5.6-3.3-10.4-5.4-7.8-10.3 2.7-5.1 7.1-1.7 12.8 1.6Z"/></svg>