<?xml version="1.0" encoding="UTF-8" standalone="no"?>
<!DOCTYPE svg PUBLIC "-//W3C//DTD SVG 1.1//EN" "http://www.w3.org/Graphics/SVG/1.1/DTD/svg11.dtd">
<svg width="250px" height="250px" version="1.1" xmlns="http://www.w3.org/2000/svg" xmlns:xlink="http://www.w3.org/1999/xlink" xml:space="preserve" xmlns:serif="http://www.serif.com/" style="fill-rule:evenodd;clip-rule:evenodd;stroke-linecap:round;stroke-linejoin:round;stroke-miterlimit:1.5;">
    <rect id="Artboard" x="-500" y="-250" width="999.991" height="1000" style="fill:none;"/>
    <g id="background">
    </g>
    <path id="OSTROV" d="M-346.31,357.991C-374.685,304.043 -502.239,260.97 -494.677,18.462C-489.722,-140.443 -388.69,-211.829 -313.043,-210.805C-267.375,-210.186 -211.162,-203.187 -70.04,-143.467C29.062,-101.53 75.23,-90.82 103.907,-101.679C174.243,-128.314 182.87,-139.33 221.578,-159.138C257.384,-177.461 294.527,-206.154 321.957,-217.137C404.286,-250.1 546.284,-214.656 460,-57.045C438.336,-17.473 457.089,62.674 433.144,231.357C406.159,421.461 354.682,366.792 345,411.357C338.009,443.537 400.472,555.911 360,631.357C307.077,730.013 163.418,695.756 116.957,692.863C47.037,688.51 -63.903,774.886 -163.043,742.863C-376.293,673.984 -283.641,477.142 -346.31,357.991Z" style="fill:#e2e1bf;"/>
    <path id="OSTROV1" serif:id="OSTROV" d="M-321.049,316.685C-369.073,290.278 -448.806,261.876 -480,118.071C-510.788,-23.863 -446.46,-168.925 -321.049,-204.153C-279.659,-215.779 -193.661,-196.664 -60.642,-142.034C32.769,-103.671 76.287,-93.874 103.317,-103.808C169.613,-128.173 292.79,-201.346 360.084,-207.008C410.37,-211.238 487.811,-186.69 455.084,-88.398C451.933,-78.933 440.446,-46.796 440.084,-31.712C438.105,50.845 424.692,217.81 412.587,282.477C390.392,401.057 295.013,352.078 322.916,431.357C345.701,496.096 377.605,590.415 325,641.357C241.849,721.881 143.03,662.249 117.784,660.724C51.879,656.742 -76.719,739.181 -170.253,710.149C-263.787,681.117 -280.278,533.003 -277.648,483.926C-275.017,434.849 -282.333,337.973 -321.049,316.685Z" style="fill:#589765;"/>
    <path d="M-246.095,-3.472C-276.075,-45.422 -238.196,-202.947 -362.908,-137.839C-440.841,-97.152 -492.123,37.801 -468.168,119.234C-399.223,353.603 -270.558,255.153 -267.365,361.528C-261.985,540.746 -265.343,662.637 -147.365,691.087C-97.004,703.231 -5.758,692.058 30.608,627.748C49.945,593.552 128.434,521.669 202.635,599.46C225.115,623.028 261.478,632.035 287.055,610C315.287,585.677 309.653,545.206 294.345,525C271.902,495.375 248.234,460.258 257.635,416.659C278.818,318.426 337.367,354.15 358.066,308.83C402.476,211.597 197.953,173.8 127.635,234.659C35.801,314.139 -160.951,115.669 -246.095,-3.472Z" style="fill:#8dcf86;"/>
    <g id="pole">
        <path d="M51.227,50L44.843,50L53.269,0.896L59.717,0.517L51.227,50ZM64.108,50L57.724,50L66.281,0.131L72.73,-0.248L64.108,50ZM38.409,49.634L32.087,49.271L40.256,1.661L46.705,1.282L38.409,49.634ZM77.299,48.192L70.714,49.362L79.293,-0.634L85.742,-1.013L77.299,48.192ZM31.368,2.183L33.693,2.047L25.682,48.731L19.509,47.508L27.323,1.964L31.368,2.183ZM97.873,3.357L90.652,45.439L89.473,46.028L84.001,47.001L92.305,-1.399L94.206,-1.414L97.873,3.357ZM7.07,44.93L14.561,1.272L20.886,1.615L13.225,46.263L8.047,45.237L7.07,44.93ZM8.124,0.923L0.905,42.996L-5.153,41.095L1.799,0.581L8.124,0.923ZM103.256,9.848L106.318,12.368L108.573,16.065L104.723,38.507L98.095,41.776L97.758,41.893L103.256,9.848ZM-4.639,0.232L-11.291,39.003L-17.282,36.715L-10.963,-0.111L-4.639,0.232ZM111.134,37.872L114.137,21.509L119.603,26.857L118.521,32.025L111.134,37.872ZM-17.401,-0.46L-23.288,33.849L-29.045,30.199L-23.726,-0.803L-17.401,-0.46ZM-40.161,19.91L-36.488,-1.495L-30.163,-1.152L-34.905,26.484L-40.161,19.91ZM-48.935,-3.924L-42.74,-2.925L-45.51,13.218L-50,2.183L-49.297,-1.911L-48.935,-3.924Z" style="fill:#8dcf86;"/>
        <path d="M244.286,123.847C244.789,126.245 245.347,128.613 245.959,130.953L218.227,123.542L210.702,116.932L209.461,114.54L244.286,123.847ZM242.021,109.807C242.287,112.134 242.603,114.439 242.969,116.718L205.376,106.672L203.525,99.519L242.021,109.807ZM241.059,96.114C241.12,98.376 241.229,100.622 241.384,102.859L201.642,92.238L202.364,85.773L241.059,96.114ZM241.254,82.73C241.13,84.914 241.052,87.113 241.018,89.326L203.259,79.235L204.791,72.985L241.254,82.73ZM242.541,69.639C242.24,71.769 241.982,73.92 241.768,76.091L206.349,66.625L207.634,61.384L207.984,60.403L242.541,69.639ZM244.91,56.836C244.431,58.915 243.994,61.018 243.6,63.145L210.705,54.354L218.227,49.705L244.91,56.836ZM248.378,44.327C247.717,46.353 247.097,48.407 246.519,50.489L226.516,45.143L231.078,42.633L237.281,41.362L248.378,44.327Z" style="fill:#8dcf86;"/>
        <path d="M57.483,292.924L65.209,293.63C64.924,291.907 64.713,290.6 64.652,290.16C63.527,282.004 59.104,256.537 44.774,226.161L37.229,230.927C50.389,259.86 55.921,284.986 56.986,290.202C57.015,290.346 57.205,291.388 57.483,292.924ZM74.693,292.314L81.809,290.46C81.768,290.069 81.673,289.225 81.5,287.972C80.394,279.957 76.104,255.229 62.362,225.555L52.759,225.886C66.869,256.006 72.734,282.627 73.834,288.013C73.947,288.57 74.529,291.487 74.693,292.314ZM39.914,291.319L47.76,292.036C46.655,284.181 42.723,261.98 30.909,234.919L23.29,239.731C33.689,264.207 38.546,284.896 39.914,291.319ZM20.943,284.563L30.009,288.627C28.311,279.195 24.557,262.812 16.685,243.348L8.81,247.66C14.821,262.671 18.694,275.849 20.943,284.563ZM91.124,288.035L95,287.025L98.249,285.085C97.028,276.607 92.777,253.334 80.118,225.35L78.458,225L70.343,225.28C83.921,254.743 89.601,280.533 90.681,285.825C90.742,286.12 90.933,287.077 91.124,288.035ZM-1.175,272.148L5.503,277.642L10.906,280.064C9.058,272.288 6.301,262.578 2.231,251.69L-5.888,257.642C-4.454,262.033 -2.799,267.117 -1.175,272.148ZM106.741,280.015L113.888,275.748C111.943,265.586 107.876,248.936 99.721,229.486L89.06,227.237C99.402,250.659 104.721,271.18 106.741,280.015ZM121.075,267.734L126.954,260.162L126.959,260.152C124.464,250.543 121.998,241.442 121.998,241.442L121.295,239.454L116.202,233.823L109.642,232.038C114.217,242.946 118.343,257.231 121.075,267.734Z" style="fill:#589765;"/>
        <path d="M209.108,307.197C197.081,315.685 177.241,328.535 161.77,332.897C158.921,333.7 156.148,334.441 153.449,335.124L162.144,335.392L176.615,333.039L190,328.014L200,321.274L208.565,310L209.108,307.197ZM211.217,296.319L210.253,290.313C199.452,298.225 175.844,314.502 158.03,319.525C142.638,323.865 129.463,326.389 118.404,327.752L120,328.579L136.97,333.103C144.416,331.675 152.49,329.732 161.155,327.131C177.526,322.217 198.898,308.075 210.541,299.804L211.217,296.319ZM199.981,281.608C187.845,290.066 169.072,301.985 154.289,306.153C129.946,313.017 111.149,315.339 97.499,315.71L100.184,318.307L109.064,322.911C122.069,322.031 138.304,319.495 157.414,313.759C173.822,308.834 195.252,294.64 206.88,286.376L199.981,281.608ZM188.349,273.57C176.84,281.103 162.41,289.436 150.549,292.781C119.301,301.592 97.193,302.919 83.372,302.241L88.125,306.642L91.495,309.902C106.008,310.158 127.049,308.379 153.674,300.387C166.884,296.422 183.35,286.448 195.335,278.398L188.349,273.57ZM176.448,265.345C166.73,271.231 155.998,276.818 146.808,279.409C121.293,286.603 101.871,288.808 88.079,289.006L82.631,290.743L81.555,296.285C95.961,297.186 119.237,296.229 149.934,287.015C160.382,283.879 172.866,276.984 183.556,270.258L176.448,265.345ZM168.714,260L163.91,257.034C156.794,260.894 149.548,264.21 143.068,266.037C133.888,268.626 125.496,270.568 117.872,272.003L114.636,275L106.741,280.015L101.964,282.468C114.226,281.358 129.053,278.788 146.193,273.643C154.019,271.294 162.988,266.836 171.49,261.919L168.714,260ZM150.247,248.599C146.479,250.284 142.794,251.688 139.328,252.665C135.613,253.713 132.027,254.654 128.568,255.5L124.849,264.879C130.41,263.642 136.281,262.123 142.453,260.271C147.444,258.773 152.899,256.417 158.4,253.633L150.247,248.599ZM131.516,240.413L130.587,240.661L130.332,240.728L129.619,249.45C132.574,248.68 135.605,247.832 138.712,246.899C140.458,246.375 142.261,245.746 144.102,245.03L131.516,240.413Z" style="fill:#589765;"/>
    </g>
    <g id="kere">
        <g id="ker">
        </g>
        <g id="ker1" serif:id="ker">
        </g>
        <g id="ker2" serif:id="ker">
        </g>
        <g id="ker3" serif:id="ker">
        </g>
        <g id="ker4" serif:id="ker">
        </g>
        <g id="ker5" serif:id="ker">
        </g>
        <g id="ker6" serif:id="ker">
        </g>
        <g id="ker7" serif:id="ker">
        </g>
        <g id="ker8" serif:id="ker">
        </g>
        <g id="ker9" serif:id="ker">
        </g>
        <g id="ker10" serif:id="ker">
        </g>
        <g id="ker11" serif:id="ker">
        </g>
        <g id="ker12" serif:id="ker">
        </g>
        <g id="ker13" serif:id="ker">
        </g>
        <g id="ker14" serif:id="ker">
        </g>
        <g id="ker15" serif:id="ker">
        </g>
        <g id="ker16" serif:id="ker">
        </g>
        <g id="ker17" serif:id="ker">
        </g>
        <g id="ker18" serif:id="ker">
        </g>
    </g>
    <g>
        <g>
            <g>
                <path d="M50.625,10.021C52.222,9.995 53.535,9.884 54.691,10.639C58.105,12.867 60,18.768 60,24.814C60,31.229 57.586,38.39 53.457,39.427C52.137,39.759 51.957,39.478 50.917,39.478C45.904,39.478 41.834,32.907 41.834,24.814C41.834,16.721 45.613,10.1 50.625,10.021Z" style="fill:#3b7847;"/>
                <ellipse cx="52.857" cy="24.814" rx="7.143" ry="14.664" style="fill:#4db343;"/>
                <g id="strom">
                    <path d="M50.917,31.827L50.917,50" style="fill:none;stroke:#4c4c4c;stroke-width:4px;"/>
                </g>
            </g>
            <g id="strom1" serif:id="strom">
            </g>
            <g id="strom2" serif:id="strom">
            </g>
            <g id="strom3" serif:id="strom">
            </g>
            <g id="strom4" serif:id="strom">
            </g>
            <g id="strom5" serif:id="strom">
            </g>
            <g id="strom6" serif:id="strom">
            </g>
            <g id="strom7" serif:id="strom">
                <g>
                    <path d="M232.577,72.802C234.862,72.766 236.741,72.607 238.395,73.687C243.279,76.875 245.99,85.317 245.99,93.967C245.99,103.144 242.536,113.39 236.629,114.873C234.741,115.348 234.483,114.947 232.995,114.947C225.823,114.947 220,105.546 220,93.967C220,82.388 225.407,72.916 232.577,72.802Z" style="fill:#3b7847;"/>
                    <ellipse cx="235.771" cy="93.967" rx="10.219" ry="20.98" style="fill:#4db343;"/>
                </g>
                <path d="M232.995,104L232.995,130" style="fill:none;stroke:#4c4c4c;stroke-width:4px;"/>
            </g>
            <g id="strom8" serif:id="strom">
                <g>
                    <path d="M253.791,-1.804C255.388,-1.83 256.701,-1.941 257.857,-1.186C261.271,1.043 263.166,6.943 263.166,12.989C263.166,19.404 260.752,26.565 256.623,27.602C255.303,27.934 255.123,27.653 254.083,27.653C249.07,27.653 245,21.083 245,12.989C245,4.896 248.779,-1.725 253.791,-1.804Z" style="fill:#3b7847;"/>
                    <ellipse cx="256.023" cy="12.989" rx="7.143" ry="14.664" style="fill:#4db343;"/>
                </g>
            </g>
            <g id="strom9" serif:id="strom">
            </g>
            <g id="strom10" serif:id="strom">
            </g>
            <g id="strom11" serif:id="strom">
            </g>
            <g id="strom12" serif:id="strom">
            </g>
            <g id="strom13" serif:id="strom">
            </g>
            <g id="strom14" serif:id="strom">
                <g>
                    <path d="M25.557,179.039C27.315,179.011 28.761,178.889 30.034,179.72C33.792,182.173 35.879,188.669 35.879,195.326C35.879,202.388 33.221,210.273 28.675,211.414C27.222,211.779 27.023,211.471 25.879,211.471C20.359,211.471 15.879,204.236 15.879,195.326C15.879,186.416 20.039,179.126 25.557,179.039Z" style="fill:#3b7847;"/>
                    <ellipse cx="28.015" cy="195.326" rx="7.864" ry="16.145" style="fill:#4db343;"/>
                </g>
                <path d="M25.879,203.047L25.879,223.055" style="fill:none;stroke:#4c4c4c;stroke-width:4px;"/>
            </g>
            <g id="strom15" serif:id="strom">
            </g>
        </g>
    </g>
    <g id="male-cesty" serif:id="male cesty">
        <path d="M-387.565,-44.467C-406.724,-154.195 -308.894,-209.171 -217.081,-172.081C-179.973,-157.09 -93.628,-147.498 -38.823,-109.689C6.63,-78.333 53.439,-78.069 55,-75.11" style="fill:none;stroke:#2d5836;stroke-width:4px;stroke-linecap:butt;"/>
        <path d="M-11.249,121.01C-10.048,123.366 32.839,137.682 10,175C-0.532,192.209 -24.053,195.971 -52.407,181.091" style="fill:none;stroke:#2d5836;stroke-width:4px;"/>
        <g id="les">
        </g>
        <path d="M260.236,135C258.112,133.424 195.04,138.303 201.241,80C203.831,55.647 227.986,37.992 260,38.708" style="fill:none;stroke:#2d5836;stroke-width:4px;"/>
        <path d="M226.464,-5.598C227.541,-6.459 228.312,-37.304 263.165,-28.382C277.723,-24.655 286.964,-11.235 284.644,4.096" style="fill:none;stroke:#2d5836;stroke-width:4px;"/>
        <path d="M10,45.585C3.562,58.473 3.921,69.615 -25,75C-53.873,80.376 -112.229,59.88 -90,-30.972" style="fill:none;stroke:#2d5836;stroke-width:4px;"/>
        <path d="M143.392,-16.857C139.08,-13.55 148.177,31.557 84.288,46.749C20.504,61.916 -62.893,30.966 -61.724,-24.009" style="fill:none;stroke:#2d5836;stroke-width:4px;"/>
        <path d="M190,31.877C210.48,63.415 201.148,91.147 190,106.629C166.902,138.708 119.455,132.719 105,124.681C78.403,109.891 18.287,82.572 13.824,134.186C11.006,166.772 87.815,173.471 105,186.822C136.066,210.958 129.917,243.9 130,245C133.976,297.767 -19.245,343.416 -54.521,180" style="fill:none;stroke:#2d5836;stroke-width:4px;"/>
        <path d="M266.883,243.191C268.727,246.53 328.395,220.387 346.356,270C355.294,294.686 332.013,322.319 315,330C304.216,334.869 240.971,365.417 247.194,240" style="fill:none;stroke:#2d5836;stroke-width:4px;"/>
        <path d="M205.645,278.102C237.57,335.945 123.803,362.417 77.62,292.135" style="fill:none;stroke:#2d5836;stroke-width:4px;"/>
    </g>
    <g id="hory">
    </g>
    <g id="ker19" serif:id="ker">
    </g>
    <g id="ker20" serif:id="ker">
    </g>
    <g id="ker21" serif:id="ker">
    </g>
    <g id="strom16" serif:id="strom">
    </g>
    <g id="strom17" serif:id="strom">
    </g>
    <path d="M171.694,71.357C135.296,124.136 123.8,94.475 66.051,79.167C24.391,68.123 -23.37,91.206 -43.788,125.282C-63.471,158.13 -82.852,193.437 -102.853,229.042C-118.328,256.59 -125.775,289.132 -145.338,310.897C-157.163,324.054 -178.225,338.992 -191.968,346.637C-208.126,355.626 -214.09,379.32 -224.09,390.446C-228.135,394.947 -236.103,397.416 -238.597,401.975C-243.637,411.188 -241.707,426.187 -245.851,435.409C-252.914,451.125 -262.806,480.004 -277.974,488.442C-283.59,491.566 -290.109,490.005 -295.589,493.053C-299.539,495.251 -320.725,507.594 -324.605,507.594" style="fill:none;stroke:#065e7b;stroke-width:27.47px;"/>
    <ellipse cx="171.798" cy="71.345" rx="13.736" ry="13.655" style="fill:#065e7b;"/>
    <path d="M159.98,83.624C156.283,93.149 145.302,101.936 132.258,103.233C110.518,105.396 63.303,67.919 21.65,78.121C-8.362,85.472 -29.877,106.391 -44.159,129.064C-64.533,161.409 -81.241,196.735 -101.227,232.386C-116.692,259.971 -127.619,293.251 -147.132,315.044C-158.927,328.218 -182.145,343.552 -195.832,351.207C-211.926,360.208 -213.638,381.395 -223.613,392.536C-227.648,397.042 -234.983,398.303 -237.476,402.869C-242.512,412.093 -242.342,429.841 -246.488,439.076C-253.555,454.812 -264.111,482.244 -279.217,490.693C-284.811,493.821 -292.219,492.806 -297.677,495.859C-301.611,498.059 -321.896,508.768 -330,511.357" style="fill:none;stroke:#73b3ce;stroke-width:9.33px;"/>
    <g id="ker22" serif:id="ker">
    </g>
    <g id="cesty-velke" serif:id="cesty velke">
        <path d="M-40,407.586C-48.648,404.653 -79.983,396.357 -79.983,396.357C-79.983,396.357 -75.565,383.815 -77.976,371.357C-80.787,356.833 -90.46,342.034 -89.983,341.357C-82.086,330.163 -51.319,294.992 -45,286.948C77.268,131.295 212.404,290.308 280.017,341.357C307.806,362.338 370.358,351.557 380,300C397.845,204.575 269.733,212.44 260.017,101.357C251.808,7.505 309.765,-36.785 370.017,-48.643C496.517,-73.538 450.386,-209.931 342.374,-186.691C286.476,-174.664 239.552,-106.123 227.192,-13.386C216.476,67.022 105.294,12.56 107.815,-22.312" style="fill:none;stroke:#2d5836;stroke-width:18.67px;"/>
    </g>
    <g id="strom18" serif:id="strom">
    </g>
    <g id="strom19" serif:id="strom">
        <g>
            <path d="M133.757,90.178C135.347,90.153 136.655,90.042 137.807,90.794C141.207,93.013 143.095,98.891 143.095,104.913C143.095,111.302 140.69,118.436 136.578,119.469C135.263,119.799 135.083,119.52 134.047,119.52C129.054,119.52 125,112.975 125,104.913C125,96.852 128.764,90.257 133.757,90.178Z" style="fill:#3b7847;"/>
            <ellipse cx="135.98" cy="104.913" rx="7.115" ry="14.606" style="fill:#4db343;"/>
        </g>
        <path d="M134.047,111.898L134.047,130" style="fill:none;stroke:#4c4c4c;stroke-width:4px;"/>
    </g>
    <g id="strom20" serif:id="strom">
        <g>
            <path d="M24.931,51.883C27.215,51.847 29.095,51.688 30.748,52.768C35.633,55.956 38.344,64.398 38.344,73.048C38.344,82.225 34.89,92.471 28.983,93.955C27.095,94.429 26.837,94.028 25.349,94.028C18.177,94.028 12.354,84.627 12.354,73.048C12.354,61.469 17.761,51.997 24.931,51.883Z" style="fill:#3b7847;"/>
            <ellipse cx="28.125" cy="73.048" rx="10.219" ry="20.98" style="fill:#4db343;"/>
        </g>
        <path d="M25.349,83.081L25.349,109.081" style="fill:none;stroke:#4c4c4c;stroke-width:4px;"/>
    </g>
    <g id="strom21" serif:id="strom">
    </g>
    <path d="M27.663,105.829C26.089,105.972 23.239,108.424 22.277,109.678C21.317,110.929 24.032,112.838 24.032,112.838L30.608,107.262C30.608,107.262 29.233,105.685 27.663,105.829Z" style="fill:#2d5836;"/>
    <path d="M137.294,129.055C135.627,129.14 131.864,128.965 130,128.786C129.981,128.784 130,132.357 130,132.357L137.315,132.638C137.315,132.638 137.313,129.054 137.294,129.055Z" style="fill:#2d5836;"/>
    <g id="stromy">
    </g>
    <g id="namesti">
    </g>
    <g id="smrky">
    </g>
    <g id="listnace">
        <g id="strom22" serif:id="strom">
            <g>
                <path d="M79.93,125.026C81.952,124.994 83.614,124.853 85.078,125.809C89.4,128.63 91.799,136.1 91.799,143.755C91.799,151.876 88.743,160.942 83.516,162.255C81.845,162.675 81.616,162.32 80.3,162.32C73.953,162.32 68.801,154.001 68.801,143.755C68.801,133.509 73.585,125.127 79.93,125.026Z" style="fill:#3b7847;"/>
                <ellipse cx="82.756" cy="143.755" rx="9.043" ry="18.565" style="fill:#4db343;"/>
            </g>
            <path d="M80.3,152.633L80.3,175.641" style="fill:none;stroke:#4c4c4c;stroke-width:4px;"/>
        </g>
        <path d="M82.482,175.271L76.638,173.48L75.537,176.944L83.193,179.014L82.482,175.271Z" style="fill:#2d5836;"/>
    </g>
    <g id="lanoka">
    </g>
    <g id="strom23" serif:id="strom">
    </g>
    <g id="satelit">
    </g>
    <g id="domky">
        <g id="D1">
        </g>
        <g id="D7">
        </g>
        <g id="D71" serif:id="D7">
        </g>
        <g id="D72" serif:id="D7">
            <rect x="90.35" y="9.776" width="12.844" height="17.313" style="fill:#d9d9d9;"/>
            <path d="M83.545,3.689L96.222,3.904L103.194,9.776L90.35,9.776L83.545,3.689Z" style="fill:#f88948;"/>
            <path d="M76.851,9.776L83.545,3.689L90.35,9.776L90.35,27.089L76.851,27.089L76.851,9.776Z" style="fill:#8c8c8c;"/>
            <rect x="80.326" y="14.286" width="6.55" height="6.55" style="fill:#595959;"/>
        </g>
        <g id="D73" serif:id="D7">
        </g>
        <g id="D74" serif:id="D7">
        </g>
        <g id="D75" serif:id="D7">
        </g>
        <g id="D76" serif:id="D7">
        </g>
        <g id="D77" serif:id="D7">
            <rect x="119.131" y="21.294" width="12.844" height="17.313" style="fill:#8c8c8c;"/>
            <path d="M138.78,15.208L126.102,15.422L119.131,21.294L131.974,21.294L138.78,15.208Z" style="fill:#73b3ce;"/>
            <path d="M145.474,21.294L138.78,15.208L131.974,21.294L131.974,38.607L145.474,38.607L145.474,21.294Z" style="fill:#d9d9d9;"/>
            <rect x="135.449" y="25.804" width="6.55" height="6.55" style="fill:#595959;"/>
        </g>
        <g id="D78" serif:id="D7">
        </g>
        <g id="D79" serif:id="D7">
        </g>
        <g id="D710" serif:id="D7">
            <rect x="150.146" y="-8.234" width="12.844" height="17.313" style="fill:#8c8c8c;"/>
            <path d="M176.489,-8.234L169.795,-14.321L162.989,-8.234L162.989,9.079L176.489,9.079L176.489,-8.234Z" style="fill:#d9d9d9;"/>
            <rect x="166.464" y="-3.724" width="6.55" height="6.55" style="fill:#595959;"/>
        </g>
        <g id="D711" serif:id="D7">
        </g>
        <g id="D712" serif:id="D7">
        </g>
        <g id="D713" serif:id="D7">
        </g>
        <g id="D714" serif:id="D7">
        </g>
        <g id="D715" serif:id="D7">
        </g>
        <g id="D716" serif:id="D7">
        </g>
        <g id="D2">
        </g>
        <g id="D21" serif:id="D2">
        </g>
        <g id="D10">
        </g>
        <g id="D101" serif:id="D10">
        </g>
        <g id="D102" serif:id="D10">
        </g>
        <g id="D01">
        </g>
    </g>
    <g id="strom24" serif:id="strom">
    </g>
    <g id="strom25" serif:id="strom">
        <g>
            <path d="M107.447,-3.354C109.071,-3.38 110.407,-3.493 111.582,-2.725C115.055,-0.458 116.983,5.544 116.983,11.694C116.983,18.219 114.527,25.503 110.327,26.558C108.985,26.895 108.801,26.61 107.743,26.61C102.644,26.61 98.504,19.926 98.504,11.694C98.504,3.462 102.348,-3.273 107.447,-3.354Z" style="fill:#3b7847;"/>
            <ellipse cx="109.717" cy="11.694" rx="7.266" ry="14.916" style="fill:#4db343;"/>
        </g>
        <path d="M107.743,18.827L107.743,37.313" style="fill:none;stroke:#4c4c4c;stroke-width:4px;"/>
    </g>
    <g id="staba">
        <g>
            <rect x="75" y="180.732" width="50" height="5" style="fill:#d9d9d9;"/>
            <rect x="80" y="185.732" width="50" height="5" style="fill:#d9d9d9;"/>
            <rect x="90.497" y="192.18" width="50" height="5" style="fill:#d9d9d9;"/>
            <rect x="96.352" y="187.19" width="50" height="5" style="fill:#d9d9d9;"/>
            <rect x="102.302" y="192.084" width="50" height="5" style="fill:#d9d9d9;"/>
            <rect x="88.542" y="182.19" width="50" height="5" style="fill:#d9d9d9;"/>
            <rect x="70" y="180.732" width="5" height="5" style="fill:#999;"/>
            <rect x="75" y="185.732" width="5" height="5" style="fill:#a6a6a6;"/>
            <rect x="85.497" y="192.18" width="5" height="5" style="fill:#a6a6a6;"/>
            <rect x="91.352" y="187.19" width="5" height="5" style="fill:#a6a6a6;"/>
            <rect x="97.302" y="192.084" width="5" height="5" style="fill:#a6a6a6;"/>
            <rect x="83.542" y="182.19" width="5" height="5" style="fill:#a6a6a6;"/>
        </g>
        <g>
            <path d="M148.823,175L103.823,175L115.073,155L137.573,155L148.823,175Z" style="fill:#e2e1bf;"/>
            <path d="M148.823,175L118.823,175L123.823,155L137.573,155L148.823,175Z" style="fill:#f7db6b;"/>
        </g>
        <g>
            <path d="M179.122,180L134.122,180L145.372,160L167.872,160L179.122,180Z" style="fill:#e2e1bf;"/>
            <path d="M179.122,180L149.122,180L154.122,160L167.872,160L179.122,180Z" style="fill:#f7db6b;"/>
        </g>
        <g>
            <rect x="136.235" y="194.715" width="12.329" height="15" style="fill:#8c8c8c;"/>
            <rect x="140.588" y="194.715" width="7.976" height="15" style="fill:#d9d9d9;"/>
        </g>
        <g>
            <rect x="123.361" y="195.599" width="12.329" height="15" style="fill:#8c8c8c;"/>
            <rect x="127.714" y="195.599" width="7.976" height="15" style="fill:#d9d9d9;"/>
        </g>
        <g>
            <rect x="142.82" y="200.415" width="12.329" height="15" style="fill:#8c8c8c;"/>
            <rect x="147.173" y="200.415" width="7.976" height="15" style="fill:#d9d9d9;"/>
        </g>
        <g>
            <rect x="129.946" y="201.299" width="12.329" height="15" style="fill:#8c8c8c;"/>
            <rect x="134.298" y="201.299" width="7.976" height="15" style="fill:#d9d9d9;"/>
        </g>
        <g>
            <rect x="150.879" y="207.589" width="12.329" height="15" style="fill:#8c8c8c;"/>
            <rect x="155.231" y="207.589" width="7.976" height="15" style="fill:#d9d9d9;"/>
        </g>
        <g>
            <rect x="138.004" y="208.473" width="12.329" height="15" style="fill:#8c8c8c;"/>
            <rect x="142.357" y="208.473" width="7.976" height="15" style="fill:#d9d9d9;"/>
        </g>
        <path d="M221.29,248L221.29,133" style="fill:none;stroke:#000;stroke-width:4px;"/>
        <path d="M176.841,233.178L176.841,157.265" style="fill:none;stroke:#000;stroke-width:4px;"/>
        <path d="M203.451,247.832L203.451,132.832" style="fill:none;stroke:#000;stroke-width:4px;"/>
        <path d="M163.753,233.178L163.753,158.645" style="fill:none;stroke:#000;stroke-width:4px;"/>
        <path d="M245.846,248L245.846,133" style="fill:none;stroke:#000;stroke-width:4px;"/>
        <path d="M192.122,233.178L192.122,157.265" style="fill:none;stroke:#000;stroke-width:4px;"/>
        <path d="M206.938,233.178L206.938,157.265" style="fill:none;stroke:#000;stroke-width:4px;"/>
        <path d="M161.303,174.193L161.303,235.498L208.918,235.498L208.918,174.193L161.303,174.193ZM180.349,218.346L166.065,218.346L166.065,232.068L180.349,232.068L180.349,218.346ZM204.157,218.346L189.872,218.346L189.872,232.068L204.157,232.068L204.157,218.346ZM180.349,197.764L166.065,197.764L166.065,211.485L180.349,211.485L180.349,197.764ZM204.157,197.764L189.872,197.764L189.872,211.485L204.157,211.485L204.157,197.764ZM180.349,177.624L166.065,177.624L166.065,191.345L180.349,191.345L180.349,177.624ZM204.157,177.624L189.872,177.624L189.872,191.345L204.157,191.345L204.157,177.624Z" style="fill:#737373;"/>
        <path d="M175.912,176.514L175.912,235.498L206.938,235.498L206.938,176.514L175.912,176.514ZM188.322,218.995L179.015,218.995L179.015,232.198L188.322,232.198L188.322,218.995ZM203.835,218.995L194.528,218.995L194.528,232.198L203.835,232.198L203.835,218.995ZM188.322,199.192L179.015,199.192L179.015,212.394L188.322,212.394L188.322,199.192ZM203.835,199.192L194.528,199.192L194.528,212.394L203.835,212.394L203.835,199.192ZM188.322,179.814L179.015,179.814L179.015,193.016L188.322,193.016L188.322,179.814ZM203.835,179.814L194.528,179.814L194.528,193.016L203.835,193.016L203.835,179.814Z" style="fill:#d9d9d9;"/>
        <path d="M201.29,158.645L201.29,248L271.29,248L271.29,158.645L201.29,158.645ZM229.29,223L208.29,223L208.29,243L229.29,243L229.29,223ZM264.29,223L243.29,223L243.29,243L264.29,243L264.29,223ZM229.29,193L208.29,193L208.29,213L229.29,213L229.29,193ZM264.29,193L243.29,193L243.29,213L264.29,213L264.29,193ZM229.29,163.645L208.29,163.645L208.29,183.645L229.29,183.645L229.29,163.645ZM264.29,163.645L243.29,163.645L243.29,183.645L264.29,183.645L264.29,163.645Z" style="fill:#737373;"/>
        <path d="M221.29,160.645L221.29,250L271.29,250L271.29,160.645L221.29,160.645ZM241.29,225L226.29,225L226.29,245L241.29,245L241.29,225ZM266.29,225L251.29,225L251.29,245L266.29,245L266.29,225ZM241.29,195L226.29,195L226.29,215L241.29,215L241.29,195ZM266.29,195L251.29,195L251.29,215L266.29,215L266.29,195ZM241.29,165.645L226.29,165.645L226.29,185.645L241.29,185.645L241.29,165.645ZM266.29,165.645L251.29,165.645L251.29,185.645L266.29,185.645L266.29,165.645Z" style="fill:#d9d9d9;"/>
        <path d="M221.766,250L221.766,160.645L201.29,160.645L201.29,250L221.766,250ZM218.934,225L204.192,225L204.192,245L218.934,245L218.934,225ZM218.934,195L204.192,195L204.192,215L218.934,215L218.934,195ZM218.934,165.645L204.192,165.645L204.192,185.645L218.934,185.645L218.934,165.645Z" style="fill:#a6a6a6;"/>
        <path d="M162.71,176.514L162.71,235.498L176.382,235.498L176.382,176.514L162.71,176.514ZM174.491,218.995L164.648,218.995L164.648,232.198L174.491,232.198L174.491,218.995ZM174.491,199.192L164.648,199.192L164.648,212.394L174.491,212.394L174.491,199.192ZM174.491,179.814L164.648,179.814L164.648,193.016L174.491,193.016L174.491,179.814Z" style="fill:#a6a6a6;"/>
        <rect x="12.103" y="80" width="20.09" height="21.903" style="fill:#8c8c8c;"/>
        <rect x="72.544" y="116.089" width="12.329" height="8.566" style="fill:#f00;"/>
        <path id="jerab" d="M70.593,86.811L65.593,36.509L55.593,36.509L50.593,86.811L50.593,260.071L40.593,271.249L80.593,271.249L70.593,260.071L70.66,97.989L70.593,86.811Z" style="fill:none;stroke:#f7db6b;stroke-width:4px;"/>
        <path id="jerab1" serif:id="jerab" d="M70.593,260.071L50.593,243.304L70.593,226.536L50.593,209.769L70.593,193.002L50.593,176.235L70.593,159.468L50.593,142.701L70.649,125.046L85,126.056L88.994,100L86.641,115.351L70,114.381L70,125L50.593,109.167L70.593,92.4L51.705,75.633L67.816,58.865L55.593,42.098L60.593,30.92L65.593,42.098L53.371,58.865L69.482,75.633L50.593,92.4L70.593,109.167L50.593,125.934L70.593,142.701L50.593,159.468L70.593,176.235L50.593,193.002L70.593,209.769L50.593,226.536L70.593,243.304L50.593,260.071L60.593,271.249L70.593,260.071Z" style="fill:none;stroke:#f7db6b;stroke-width:3.25px;"/>
        <path d="M20,76.903L30,76.903L35,81.903L213.025,81.903L224.387,96.903L35,96.903L30,101.903L20,101.903L20,76.903Z" style="fill:none;stroke:#f7db6b;stroke-width:4px;"/>
        <path d="M35,96.903L35,81.903L20,89.711L35,96.903L49.825,81.903L51.666,91.448L60,82.996L70,81.903L85.396,96.367L100.773,80.991L114.877,95.095L128.167,81.805L142.839,96.477L157.667,81.65L172.385,96.367L187.432,81.32L201.166,95.055L213.563,82.658" style="fill:none;stroke:#f7db6b;stroke-width:3.2px;"/>
    </g>
    <g id="chladici-vez" serif:id="chladici vez">
    </g>
    <g id="D22" serif:id="D2">
    </g>
    <g id="D5">
    </g>
    <g id="TOVANA">
    </g>
    <g id="strom26" serif:id="strom">
    </g>
    <g id="strom27" serif:id="strom">
    </g>
    <g id="panelaky">
        <g id="D6">
        </g>
        <g id="D3">
        </g>
        <g id="D9">
        </g>
        <g id="D91" serif:id="D9">
        </g>
        <g id="D92" serif:id="D9">
        </g>
        <g id="D93" serif:id="D9">
        </g>
        <g id="D717" serif:id="D7">
        </g>
    </g>
    <g id="strom28" serif:id="strom">
    </g>
    <g id="strom29" serif:id="strom">
        <g>
            <path d="M223.352,227.955C225.523,227.919 227.309,227.761 228.881,228.837C233.524,232.017 236.102,240.437 236.102,249.064C236.102,258.216 232.818,268.434 227.203,269.914C225.408,270.387 225.163,269.987 223.748,269.987C216.93,269.987 211.395,260.612 211.395,249.064C211.395,237.516 216.535,228.069 223.352,227.955Z" style="fill:#3b7847;"/>
            <ellipse cx="226.387" cy="249.064" rx="9.715" ry="20.923" style="fill:#4db343;"/>
        </g>
    </g>
    <g id="letiste">
    </g>
    <g id="strom30" serif:id="strom">
    </g>
    <g id="strom31" serif:id="strom">
    </g>
    <g id="tunel-s-vlakem" serif:id="tunel s vlakem">
    </g>
    <g id="strom32" serif:id="strom">
    </g>
    <g id="hrad">
    </g>
    <g id="auta">
        <path d="M194.519,23.545C200.97,22.24 206.225,21.27 207.198,26.082C208.313,31.596 202.952,32.042 196.501,33.346C190.05,34.651 185.017,36.203 183.822,30.809C182.466,25.134 188.068,24.849 194.519,23.545Z" style="fill:#f88948;"/>
        <path d="M185.743,260.802C191.455,264.07 196.048,266.802 193.61,271.063C190.816,275.946 186.489,272.75 180.777,269.482C175.064,266.213 170.256,264.066 172.91,259.22C175.627,254.058 180.03,257.534 185.743,260.802Z" style="fill:#beed9a;"/>
    </g>
    <g id="majak">
    </g>
    <g id="vetrna-elektr" serif:id="vetrna elektr">
    </g>
    <g id="osrov-pokladu" serif:id="osrov pokladu">
    </g>
</svg>
