<svg xmlns="http://www.w3.org/2000/svg" xml:space="preserve" fill-rule="evenodd" stroke-linecap="round" stroke-linejoin="round" stroke-miterlimit="1.5" clip-rule="evenodd" viewBox="0 0 250 250"><path fill="none" d="M-750-250H250V750H-750z"/><path fill="#e2e1bf" d="M-596.3 358c-28.4-54-156-97-148.4-339.5 5-159 106-230.3 181.7-229.3 45.6.6 101.8 7.6 243 67.3 99 42 145.2 52.7 174 41.8 70.2-26.6 78.9-37.6 117.6-57.4 35.8-18.4 73-47 100.4-58 82.3-33 224.3 2.4 138 160-21.7 39.6-3 119.8-26.9 288.5-27 190-78.4 135.4-88.1 180-7 32.1 55.5 144.5 15 220-53 98.6-196.6 64.4-243 61.5-70-4.4-180.9 82-280 50-213.3-69-120.6-265.8-183.3-385Z"/><path fill="#589765" d="M-571 316.7c-48-26.4-127.8-54.8-159-198.6-30.8-142 33.5-287 159-322.3 41.3-11.6 127.3 7.5 260.4 62.2 93.4 38.3 136.9 48.1 164 38.2C-80.5-128.2 42.7-201.3 110-207c50.3-4.2 127.7 20.3 95 118.6-3.2 9.5-14.7 41.6-15 56.7-2 82.5-15.4 249.5-27.5 314.2C140.4 401 45 352 72.9 431.4c22.8 64.7 54.7 159 2.1 210-83.2 80.5-182 20.8-207.2 19.3-66-4-194.5 78.5-288 49.4-93.6-29-110-177.1-107.4-226.2 2.6-49-4.7-146-43.4-167.2Z"/><path fill="#8dcf86" d="M-496.1-3.5c-30-42 7.9-199.4-116.8-134.3-78 40.6-129.2 175.6-105.3 257 69 234.4 197.6 136 200.8 242.3 5.4 179.2 2 301.1 120 329.6 50.4 12.1 141.6 1 178-63.4 19.3-34.1 97.8-106 172-28.2C-24.9 623 11.5 632 37.1 610c28.2-24.3 22.6-64.8 7.2-85-22.4-29.6-46-64.7-36.7-108.3 21.2-98.3 79.8-62.6 100.5-107.9 44.4-97.2-160.1-135-230.5-74.1C-214.2 314-411 115.7-496-3.5Z"/><path fill="#3b7847" d="M3.8-1.8c1.6 0 2.9-.1 4 .6C11.4 1 13.3 7 13.3 13c0 6.4-2.4 13.6-6.6 14.6-1.3.3-1.5 0-2.5 0C-1 27.7-5 21.2-5 13S-1.2-1.7 3.8-1.8Z"/><ellipse cx="6" cy="13" fill="#4db343" rx="7.1" ry="14.7"/><path fill="none" stroke="#4c4c4c" stroke-width="4" d="M4 20v18.2"/><path fill="none" stroke="#2d5836" stroke-width="4" d="M10.2 135c-2-1.6-65.2 3.3-59-55C-46.2 55.6-22 38 10 38.7M-23.5-5.6c1-.9 1.8-31.7 36.7-22.8A28.5 28.5 0 0 1 34.6 4.1"/><path fill="none" stroke="#2d5836" stroke-width="4" d="M-60 31.9a63.6 63.6 0 0 1 0 74.7c-23.1 32.1-70.5 26.1-85 18-26.6-14.7-86.7-42-91.2 9.6-2.8 32.6 74 39.3 91.2 52.6 31 24.2 25 57.1 25 58.2 4 52.8-149.2 98.4-184.5-65m321.4 63.2c1.8 3.3 61.5-22.8 79.5 26.8 8.9 24.7-14.4 52.3-31.4 60-10.8 4.9-74 35.4-67.8-90"/><path fill="none" stroke="#2d5836" stroke-width="18.7" d="M-290 407.6c-8.6-3-40-11.2-40-11.2s4.4-12.6 2-25c-2.8-14.6-12.5-29.4-12-30 8-11.2 38.7-46.4 45-54.5 122.3-155.6 257.4 3.4 325 54.5 27.8 21 90.4 10.2 100-41.4 17.8-95.4-110.3-87.6-120-198.6C1.8 7.5 59.8-36.8 120-48.6c126.5-25 80.4-161.3-27.6-138-56 12-102.8 80.5-115.2 173.2-10.7 80.4-122 26-119.4-9"/><path fill="none" stroke="#000" stroke-width="4" d="M18.3 248V133"/><path fill="#737373" d="M-48.7 158.6V248h70v-89.4h-70Zm28 64.4h-21v20h21v-20Zm35 0h-21v20h21v-20Zm-35-30h-21v20h21v-20Zm35 0h-21v20h21v-20Zm-35-29.4h-21v20h21v-20Zm35 0h-21v20h21v-20Z"/><path fill="#d9d9d9" d="M-28.7 160.6V250h50v-89.4h-50Zm20 64.4h-15v20h15v-20Zm25 0h-15v20h15v-20Zm-25-30h-15v20h15v-20Zm25 0h-15v20h15v-20Zm-25-29.4h-15v20h15v-20Zm25 0h-15v20h15v-20Zm63 145.2V195l-43.5 11.6v104.2h43.5Z"/><path fill="#8c8c8c" d="M35.8 310.8V206.6h-19v104.2h19Z"/><path fill="#595959" d="M72.4 216.9v-9.5h-10v9.5h10Zm-13.1 0v-9.5h-9.9v9.5h10Zm13.2 12.2v-9.5h-10v9.5h10Zm-13.1 0v-9.5h-10v9.5h10Zm13.1 12.3v-9.5h-10v9.5h10Zm-13.1 0v-9.5h-10v9.5h10Zm13.1 12.2v-9.5h-10v9.5h10Zm-13.1 0v-9.5h-10v9.5h10Z"/><path fill="#8c0008" d="m16.7 206.8 19.1-.2L79.3 195h-21l-41.6 11.8Z"/><path fill="#666" d="M190-25c0-1-24.7-6.4-46.3-6.4C76.2-31.4 21.3 21 21.3 85.7c0 64.7 58 110.6 122.5 117.2a463.7 463.7 0 0 0 29.3 2.3s5.2-47.5 9.3-100.2c4-51.5 6.9-108 7.6-130Z"/><path fill="#8c8c8c" d="M190-25c0-1-24.7-6.4-46.3-6.4C76.2-31.4 21.3 21 21.3 85.7c0 64.7 55.4 108.6 122.5 117.2 17.2 2.2 29.3 2.3 29.3 2.3s1.2-10.2 1-10.2C69.9 191.4 29.2 136.9 30 85 31.1 23.8 87.4-42.9 189.6-15c.2 0 .3-6 .4-10Z"/><path fill="#d9d9d9" d="M95.9-10.6h75.3v25H95.9z"/><path fill="#8c8c8c" d="M76.2-10.6h19.7v25H76.2z"/><path fill="#595959" d="M97.6-5.6h4.7V9.1h-4.7zm36.8 0h4.7V9.1h-4.7zm-18.4 0h4.7V9.1H116zm36.8 0h4.7V9.1h-4.7zm-49.1 0h4.7V9.1h-4.7zm36.8 0h4.7V9.1h-4.7zm-18.4 0h4.7V9.1h-4.7zm36.8 0h4.7V9.1h-4.7zm-49 0h4.7V9.1h-4.7zm36.8 0h4.7V9.1h-4.7zm-18.4 0h4.7V9.1h-4.7zm36.8 0h4.7V9.1h-4.7z"/><path fill="#8c8c8c" d="M121.6-7.8h10.6v25h-10.6z"/><path fill="#fff" d="M135.8 17.2V-5h16.5v22.2h3.5v-25h-23.5v25h3.5Z"/><path fill="#d9d9d9" d="M60 31.3h40v10H60z"/><path fill="#8c8c8c" d="M40 31.3h20v10H40z"/><path fill="#d9d9d9" d="M65-18.7h20v50H65z"/><path fill="#8c8c8c" d="M55-18.7h10v50H55z"/><path fill="#595959" d="M72.3 16.3h6.2v15h-6.2z"/><path fill="#fff" d="M60 121.2h120.1a2 2 0 0 0 0-4H60a2 2 0 0 0 0 4ZM63.2 77h120.2a2 2 0 0 0 0-4H63.2a2 2 0 0 0 0 4Zm0 22.2h12.6a2 2 0 0 0 0-4H63.2a2 2 0 0 0 0 4Zm63.8-.1h12.6a2 2 0 0 0 0-4H127a2 2 0 0 0 0 4Zm21.3 0h12.6a2 2 0 0 0 0-4h-12.6a2 2 0 0 0 0 4Zm21.2.1h12.6a2 2 0 0 0 0-4h-12.6a2 2 0 0 0 0 4Zm-85-.2H97a2 2 0 0 0 0-4H84.5a2 2 0 0 0 0 4Zm21.2 0h12.6a2 2 0 0 0 0-4h-12.6a2 2 0 0 0 0 4Z"/><path fill="#3b7847" d="M96 170c1.5 0 2.7-.1 3.9.6 3.3 2.2 5.1 7.9 5.1 13.7 0 6.2-2.3 13.2-6.3 14.2-1.3.3-1.5 0-2.5 0-4.8 0-8.8-6.3-8.8-14.2 0-7.8 3.7-14.2 8.5-14.3Z"/><ellipse cx="98.1" cy="184.3" fill="#4db343" rx="6.9" ry="14.2"/><path fill="none" stroke="#4c4c4c" stroke-width="4" d="M96.2 191.1v17.6"/><path fill="#3b7847" d="M119.5 175.2c2.3 0 4.2-.2 5.9.9 4.8 3.2 7.6 11.6 7.6 20.3 0 9.2-3.5 19.4-9.4 20.9-1.9.5-2.2 0-3.6 0-7.2 0-13-9.3-13-21 0-11.5 5.4-21 12.5-21Z"/><ellipse cx="122.7" cy="196.4" fill="#4db343" rx="10.2" ry="21"/><path fill="none" stroke="#4c4c4c" stroke-width="4" d="M120 206.4v26"/><path fill="#2d5836" d="M110 218.7C105 214 93.5 205 93.5 205l-3.5 5 31 30 4-5s-5.3-7.2-15-16.3Z"/></svg>