<svg xmlns="http://www.w3.org/2000/svg" xml:space="preserve" fill-rule="evenodd" stroke-linejoin="round" stroke-miterlimit="1.5" clip-rule="evenodd" viewBox="0 0 250 250"><path fill="none" d="M0-500h1000V500H0z"/><path fill="#e2e1bf" d="M153.7 108C125.3 54-2.3 11 5.3-231.5c5-159 106-230.3 181.7-229.3 45.6.6 101.8 7.6 243 67.3 99 42 145.2 52.7 174 41.8 70.2-26.6 78.9-37.6 117.6-57.4 35.8-18.4 73-47 100.4-58 82.3-33 224.3 2.4 138 160-21.7 39.6-3 119.8-26.9 288.5-27 190-78.4 135.4-88.1 180-7 32.1 55.5 144.5 15 220-53 98.6-196.6 64.4-243 61.5-70-4.4-180.9 82-280 50-213.3-69-120.6-265.8-183.3-385Z"/><path fill="#589765" d="M179 66.7C131 40.3 51.2 11.9 20-132c-30.8-142 33.5-287 159-322.3 41.3-11.6 127.3 7.5 260.4 62.2 93.4 38.3 136.9 48.1 164 38.2C669.5-378.2 792.7-451.3 860-457c50.3-4.2 127.7 20.3 95 118.6-3.2 9.5-14.7 41.6-15 56.7-2 82.5-15.4 249.5-27.5 314.2C890.4 151 795 102 822.9 181.4c22.8 64.7 54.7 159 2.1 210-83.2 80.5-182 20.8-207.2 19.3-66-4-194.5 78.5-288 49.4-93.6-29-110-177.1-107.4-226.2 2.6-49-4.7-146-43.4-167.2Z"/><path fill="#8dcf86" d="M254-253.5c-30-42 7.8-199.4-117-134.3-77.7 40.6-129 175.6-105.1 257 69 234.4 197.6 136 200.8 242.3 5.4 179.2 2 301.1 120 329.6 50.4 12.1 141.6 1 178-63.4 19.3-34.1 97.8-106 172-28.2 22.5 23.5 58.9 32.5 84.5 10.5 28.2-24.3 22.6-64.8 7.2-85-22.4-29.6-46-64.7-36.7-108.3 21.2-98.3 79.8-62.5 100.5-107.9 44.4-97.2-160.1-135-230.5-74.1C535.8 64 339-134.3 254-253.5Z"/><path fill="#f7db6b" d="M152.3-1.2 160 5l3.4 2.2c6.8-.1 13.5.3 19.5 1l3.2-8.2c-9.8-1.5-22-2.5-33.8-1.2Zm-17-13.5a100 100 0 0 1 43-2L180-15l3 5.4.8 2.6c-11-1.8-25.2-2.9-39.4-.5l-9-7.2ZM122.1-28l7 7a109 109 0 0 1 42.7-2.3L165-30l-2.3-3.2a94 94 0 0 0-39.8 5l-.8.3Zm36-11.5c-12.5-1-28.6 1-42 5.7l-1.1.5-5.2-7.3.7-.3c13.7-6 29.3-8.6 41.6-8 .6 1.3 1.5 3 2.9 5.2l3.1 4.2ZM150-54.9l-1-9.2c-14.3-1-33.8 1.6-50.2 9.8l-1.2.6 6 6.6 1.8-.7c13.7-5.8 31.5-8 44.6-7.1ZM148.4-70l.6-9a93 93 0 0 0-59.6 11.3l-1.8 1.2 5.6 6.5 2.4-1.4a93 93 0 0 1 52.8-8.6ZM79-80.6l4.3 7.4 3.5-2.3c21.6-13 41.6-12.2 62.6-8.9l.6-8.7a94.2 94.2 0 0 0-71 12.5Zm-8.5-14 4.5 7.3 5.4-3.6c25.2-15.2 58-10.6 74.5-6.8l2.5-2.3-15.4-8.9a93.6 93.6 0 0 0-71.5 14.4ZM64.2-110l-.4 5.1 2.5 4c2.5-2 5-3.8 7.7-5.3 19.8-12 44.3-11.7 62-9.2l-6-8-3.8-2.1h-.5A90.3 90.3 0 0 0 64.2-110Zm42.2-24.9 6.9 2.7s-.6.3-1.7.1c-10.5-2-31.7 3-44 10.5L65-120l10-9.9 15-5h16.4Z"/><path fill="#589765" d="M230.8 256.5c4.1.4 12.3 1 22.3 1.4l11.9.2c4.8.1-16.9 3.3-16.9 3.3s-13.7 4.2-16.3 4l-1-9Zm55.6-12.4-6.4 5.7c-3.8.8-7 1.3-9.6 1.4a302 302 0 0 1-38.6-.5l6.7-10.8c8 .6 19.5 1.1 32 .9 4.7-.1 11.7-1.5 20-3.3l-4.1 6.6Zm17-26.7L296 229c-11 2.5-20.2 4.6-25.9 5-10.7.6-20.9.4-28.6 0l4.7-10.8c7 .3 15.2.5 24 .3 7-.1 19-3 33.3-6Zm35.2-19.7-16.7 8.6c-22.4 4-42.3 9.9-52 10.4-7.5.5-14.8.5-21 .4l4.6-10.9c5.1.2 10.6.2 16.3.1 15-.3 52.3-13 86.9-13.7l-18 5.1Zm-77.6-8.5 8.5-.1c16.4-.3 59.4-15.5 96.4-13.6a86 86 0 0 1 26.2 6l-.8 1.2-15 4.3a54 54 0 0 0-10.8-1.6c-37-1.8-80 13.2-96 14.1-4.5.3-9 .4-13.2.4l4.7-10.7Zm6.1-17.3h2.1c16.4-.4 59.4-15.6 96.4-13.6 13.3.6 26.2 5.5 35 9.7l-5.5 8.8c-8-4-18.7-8-29.9-8.6-37-1.8-80 13.2-96 14l-5.4.3 3.3-10.6Zm5.5-17.5c18.5-2 58.3-15.2 92.7-13.4a105 105 0 0 1 43.5 14.2l-5.7 9a86 86 0 0 0-38.2-13.3c-36.6-1.7-79.4 13-95.6 14.1l3.3-10.6Zm18.1-20.7c20.6-4.4 48.9-11.2 74.3-9.9 24 1.2 46.4 16 46.4 16l-4.6 9.8s-20.3-14.8-42.2-15.9c-30.9-1.5-66.1 8.8-86.2 12.7l12.3-12.7Z"/><path fill="#3b7847" d="M245.8 261.6a36 36 0 0 1-.3-4.7c0-8.6 4-15.7 9.3-15.8 1.7 0 3.1-.1 4.4.7 3.6 2.3 5.6 8.6 5.6 15 0 1.6 0 2.8-.3 4.3 0 0-8.4.7-11.3.7l-7.4-.2Z"/><path fill="#4db343" d="M264.6 260.6c.3-1.6.2-2.2.2-3.7 0-8-3-14.7-6.7-15.6h-.9c-4.2 0-7.6 7-7.6 15.6 0 1.5.2 3.4.4 4.8 0 0 4.1-1.1 7.6-1.2l7 .1Z"/><path fill="#3b7847" d="M231.7 123.9a20 20 0 0 1-.3-3.5c0-6.3 3-11.5 7-11.5 1.2 0 2.2-.2 3.1.4 2.7 1.8 4.2 6.4 4.2 11 0 1.2 0 2-.3 3.1 0 0-6.1.6-8.3.6l-5.4-.1Z"/><path fill="#4db343" d="M245.3 124.6c.3-1.2.4-3.1.4-4.2 0-5.9-2.2-10.7-5-11.4h-.6c-3.1 0-5.6 5-5.6 11.4 0 1.1.1 2.5.3 3.5h5.6c1.7 0 5 .7 5 .7Z"/><path fill="#3b7847" d="M251.2 124.7a30 30 0 0 1-.3-4.3c0-7.7 3.6-14 8.4-14 1.5-.1 2.7-.2 3.8.5 3.3 2.1 5.1 7.8 5.1 13.5 0 1.3 0 2.4-.3 3.7 0 0-7.5.7-10 .7l-6.7-.1Z"/><path fill="none" stroke="#2d5836" stroke-width="4" d="M213 125c5-1.3 62.9 5.5 101.2-4.4C424.2 92 477.6 194.7 505 216"/><path fill="none" stroke="#2d5836" stroke-linecap="round" stroke-width="4" d="M250-15c-74.6 31.5-123.5-46-95.3-85"/><path fill="none" stroke="#2d5836" stroke-linecap="round" stroke-width="4" d="M168.4-26c27.9 19.5 17.7 45.5-.7 41.7"/><path fill="none" stroke="#4c4c4c" stroke-linecap="round" stroke-width="4" d="M161.4-10.4V10"/><path fill="#3b7847" d="M208-21c2.4 0 4.3-.2 6 1 5 3.2 7.9 12 7.9 21 0 9.4-3.6 20-9.7 21.5-2 .5-2.2.1-3.8.1C201 22.6 195 13 195 1s5.6-21.8 13-21.9Z"/><ellipse cx="211.3" cy=".9" fill="#4db343" rx="10.6" ry="21.7"/><path fill="none" stroke="#4c4c4c" stroke-linecap="round" stroke-width="4" d="M208.4 11.3v26.9"/><path fill="#065e7b" d="M211.3 255 200 230l-18.7 10 2 28.5 28-13.5Z"/><path fill="none" stroke="#065e7b" stroke-linecap="round" stroke-width="27.5" d="M671.7-178.6c-36.4 52.7-47.9 23-105.6 7.8-41.7-11-89.5 12-109.9 46-19.7 33-39 68.2-59 103.8-15.5 27.6-23 60.1-42.5 81.9A208.6 208.6 0 0 1 308 96.6c-16.1 9-22 32.7-32 43.8-4.1 4.5-12.1 7-14.6 11.6-5 9.2-3.1 24.2-7.3 33.4-7 15.7-17 44.6-32 53-5.7 3.2-12.2 1.6-17.7 4.7"/><path fill="none" stroke="#73b3ce" stroke-linecap="round" stroke-width="9.3" d="M660-166.4a33.9 33.9 0 0 1-27.7 19.6c-21.8 2.2-69-35.3-110.6-25-30 7.3-51.6 28.2-65.9 50.9-20.3 32.3-37 67.6-57 103.3-15.5 27.6-26.4 60.9-46 82.6-11.7 13.2-35 28.6-48.6 36.2-16.1 9-17.8 30.2-27.8 41.3-4 4.5-11.4 5.8-13.9 10.4-5 9.2-4.8 27-9 36.2-7 15.7-17.6 43.1-32.7 51.6-5.6 3.1-13 2.1-18.5 5.2l-14.4 7.5"/><path fill="none" stroke="#2d5836" stroke-linecap="round" stroke-width="18.7" d="M403-287.4c-6 9-21.2 35.9-127.6 25-73.7-7.6-104.5-46.4-161.6-32.4C39-276.5 11.8-153.4 95-43.6c30.3 40 138.3 113.6 195 116"/><path fill="#8c8c8c" d="M264.2-48.5h-19.3L236.3 3h27.9v-51.4Z"/><path fill="#b3b3b3" d="M262.9-48.5h-11.3L245.8 3h17.4l-.3-51.4Z"/><path fill="#d9d9d9" d="M248.9-9.1h87.8v31.9h-87.8z"/><path fill="#8c8c8c" d="M232.9-9.1h16v31.9h-16z"/><path fill="#3b7847" d="M253.2 15c1.7 0 3.2-.1 4.4.7 3.8 2.4 5.8 9 5.8 15.5 0 7-2.6 15-7.1 16-1.5.4-1.7.1-2.8.1-5.5 0-10-7.2-10-16 0-9 4.2-16.2 9.7-16.3Z"/><ellipse cx="255.6" cy="31.2" fill="#4db343" rx="7.8" ry="16.1"/><path fill="#2d5836" d="M259.8 58.2 249.4 54l-2.5 7.2 10.6 3.8 2.3-6.8Z"/><path fill="#73b3ce" d="m195 255-4.3-8.2-8.6 4.2.7 10.2L195 255Z"/><path fill="#589765" d="M188.6 29.1c5.7 3.2 10.3 5.9 8 10.2-2.8 4.9-7.1 1.7-12.9-1.5-5.7-3.2-10.6-5.2-8-10.1 2.7-5.2 7.1-1.8 12.9 1.4Z"/><path fill="#d9d9d9" d="M103.3 60.8h-31l7.8-198h15.5l7.7 198Z"/><path fill="#8c8c8c" d="M83.1 60.7H72.3l7.8-197.9h6l-3 197.9Z"/></svg>