<svg xmlns="http://www.w3.org/2000/svg" xml:space="preserve" fill-rule="evenodd" stroke-linecap="round" stroke-linejoin="round" stroke-miterlimit="1.5" clip-rule="evenodd" viewBox="0 0 800 800"><path fill="#73b3ce" d="M461 78c176 21 50 72 122 117 85 53 174 87 196 216 5 32-6 113-45 174-53 81-138 134-192 138-68 5-101-2-163-1-93 3-166 63-259 26-175-69-104-164-3-300 40-54 48-198 114-283 53-70 159-95 230-87Z"/><path fill="#e2e1bf" d="M451 119c161 19 46 65 112 105 78 48 178 94 179 195 1 33-9 102-49 161-46 69-125 125-168 120-61-8-92-3-149-2-85 3-151 57-236 24-160-63-96-148-4-271 37-49 44-178 104-255 49-62 147-85 211-77Z"/><path fill="red" d="M694 548h-38l-5 10h38l5-10Z"/><path fill="none" stroke="#4c4c4c" stroke-width="5" d="m715 477 4-36"/><path fill="#f7db6b" d="m719 437 23 8-5 3-18-11Z"/><path fill="#beed9a" d="m719 437 18 11-18 2v-13Z"/><path fill="#8dcf86" d="M719 437v13l-17-2 17-11Z"/><path fill="#3b7847" d="m719 437-17 11-5-3 22-8Z"/><path fill="none" stroke="#4c4c4c" stroke-width="5" d="m643 618 5-36"/><path fill="#065e7b" d="m647 578 24 8-6 3-18-11Z"/><path fill="#73b3ce" d="m647 578 18 11-17 2-1-13Z"/><path fill="#065e7b" d="m647 578 1 13-18-2 17-11Z"/><path fill="#73b3ce" d="m647 578-17 11-4-4 21-7Z"/><path fill="#f7db6b" d="M703 500c7 2 6 13 6 13l-7 33-18-3 7-33s4-11 12-10Z"/><path fill="#f88948" d="m703 500-10 45-9-2 7-33s4-11 12-10Z"/><path fill="#fff" d="M697 546c0-3-4-5-10-5s-10 2-10 4l20 1Zm-90 113c0-3-4-5-10-5-5 0-10 2-10 5h20Zm-87 33c0-3-4-5-10-5-5 0-10 2-10 5h20Zm-23-12c0-3-5-5-10-5-6 0-10 2-10 5h20Zm-205 30c0-3-5-5-10-5-6 0-10 2-10 5h20Zm-100-8c0-1-4-3-8-3s-7 2-7 3h15Zm84-2c0-3-4-5-10-5-5 0-10 2-10 5h20Zm143-29c0-3-4-5-10-5-5 0-10 2-10 5h20Z"/><path fill="#fff" d="M709 545c0-3-5-5-10-5-6 0-10 2-10 5h20Zm-83 81c0-1-3-3-7-3s-7 2-7 3h14Zm104-145c0-2-5-4-10-4-6 0-10 2-10 4h20Z"/><path fill="#fff" d="m707 546-6-2-6 2h12Zm-78 95c0-1-2-2-6-2l-6 2h12Zm-94 35c0-2-3-3-6-3-4 0-6 1-6 3h12Zm167-123c0-2-2-3-6-3-3 0-6 1-6 3h12Zm9-89c0-1-2-3-6-3-3 0-6 2-6 3h12Zm23-66c0-1-2-2-6-2l-6 2h12Zm-8-36c0-2-3-3-6-3-4 0-6 1-6 3h12Zm14 39c0-2-3-3-6-3-4 0-7 1-7 3h13Zm-91 220c0-2-3-3-7-3-3 0-6 1-6 3h13Z"/><path fill="#fff" d="M656 622c0-2-3-3-7-3-3 0-6 1-6 3h13Z"/><path fill="#589765" d="M448 145c138 11 42 55 101 88 69 38 180 76 163 162-11 58-115 270-168 276-103 11-110-26-172 0-115 48-248-116-176-225 29-44 28-157 76-226 38-56 120-79 176-75Z"/><path fill="#8c8c8c" d="m61 608-4-2 7-1 5 1-4 2-6 12c6 0 12-2 13-5h4c-2 4-9 7-18 8l-1 2h-4l1-2c-8-1-13-4-11-8h4c-1 3 3 5 8 5l6-12Zm3-2h2l-3 1-3-1h4Z"/><path fill="none" stroke="#061936" stroke-width="2" d="M116 640s-21-7-26-10-5-12-9-16c-3-3-16-7-16-7"/><path fill="#3b7847" d="M379 143c37-6 91 5 90 5-99 26-121 110-138 196-27 137-115 56-127 218-7 103 157 113 155 114-245 59-255-121-164-232 12-14 16-38 22-65l11-48c9-39 21-81 42-112 39-56 50-66 109-76Z"/><path fill="#8dcf86" d="M94 536c2 0 4 2 4 5v1h-2l1 1-3 2c-2 0-4-2-4-4 0-3 2-5 4-5Zm-29 11c2 2 6 2 9 0s4-6 2-8l-11 8Z"/><path fill="#8dcf86" d="M79 548c1 3 5 3 8 0 3-2 4-5 3-7l-11 7Z"/><ellipse cx="94.4" cy="539.3" fill="#589765" rx=".8" ry=".7"/><ellipse cx="71.3" cy="540" fill="#8dcf86" rx="2.1" ry=".7"/><path fill="#f88948" d="m92 537-2-2H73l-2 2v5l2 2h17l2-2v-5Z"/><path fill="#8dcf86" d="M181 328c-3 0-4 2-4 4v2h2l-1 1 3 1c2 0 4-1 4-4 0-2-2-4-4-4Zm28 10c-1 2-5 2-8 0s-4-5-3-7l11 7Z"/><path fill="#8dcf86" d="M196 340c-2 2-6 2-9 0s-4-5-2-8l11 8Z"/><ellipse cx="180.2" cy="330.9" fill="#589765" rx=".8" ry=".7"/><ellipse cx="203.3" cy="331.7" fill="#8dcf86" rx="2.1" ry=".7"/><path fill="#589765" d="m183 329 2-2h16l2 2v4c0 2-1 3-2 3h-16c-1 0-2-1-2-3v-4Z"/><path fill="#8dcf86" d="M445 166c45 1 66 25 71 45 2 9 4 17 3 21h-26c-6 0-12-3-22-2-16 0-22 5-34 6-11 0-21-3-28-2-10 2-40 1-44 0-30-3-45-13-44-16 4-14 16-30 39-41 18-8 58-12 85-11Z"/><path fill="#589765" d="M376 172c2 0-16 3-18 38l-1 24c-15-2-42-10-41-13 8-23 24-44 60-49Z"/><path fill="none" stroke="#2d5836" stroke-width="14" d="M514 245c11 19 6 46-28 47-146 5-247 11-247 11"/><path fill="#2d5836" d="m513 233-17-1a85 85 0 0 0 12 16l11-8s-2-5-6-7Z"/><path fill="#beed9a" d="M393 237h5a216 216 0 0 0-1 50h-5a391 391 0 0 1 1-50Zm13-1a225 225 0 0 0-1 51h-5a387 387 0 0 1 1-50l5-1Zm3 0a34 34 0 0 1 6 0 229 229 0 0 0-2 50l-5 1a382 382 0 0 1 1-51Zm8 0a70 70 0 0 0 6 1 226 226 0 0 0-2 49h-5a377 377 0 0 1 1-50Zm8 1 6 1a222 222 0 0 0-2 48h-5a373 373 0 0 1 1-49Zm14 1a224 224 0 0 0-2 48h-5a368 368 0 0 1 2-48h5Zm8-2a229 229 0 0 0-2 49l-5 1a364 364 0 0 1 1-49l6-1Zm1 46v3h9l16-2 10 1h6l9-3-25-3-25 4Zm0-7v5c5-1 18-5 25-5 8 0 17 4 29 4l6-6-6 1c-10 0-20-4-29-4-6 0-20 3-25 5Zm-1-8v3l1 2c4-1 18-5 25-5 8 0 17 4 29 4l7-1 1-5-8 1c-10 0-20-4-29-4-7 0-21 4-26 5Zm1-8v5c4-1 18-4 25-4 8 0 17 3 29 3l8-1v-5l-8 1c-10 0-20-3-29-4-6 0-20 4-25 5Zm0-8v6c5-2 18-5 25-5 8 0 17 4 29 4l7-1-2-5h-5c-10 0-20-3-29-3l-25 4Zm0-8v6c5-2 18-5 25-5 8 0 17 4 29 4l4-1-3-4h-1c-10 0-20-4-29-4l-25 4Zm1-8v6c5-2 18-5 24-5 8 0 16 4 28 4l-5-5c-8-1-15-4-23-4l-24 4Zm-59 47v5a597 597 0 0 1-45 0l2-5a304 304 0 0 0 43 0Zm0-7v5h-42l1-5h41Zm0-8v5h-40l2-5h38Zm0-8v6h-37l1-5 36-1Zm0-7v5h-35l1-1 1-2v-2h33Zm1-8-1 5h-32l1-2 1-2 31-1Zm0-8v6h-29l1-3 1-2 27-1Z"/><path fill="none" stroke="#4c4c4c" stroke-width="7" d="m495 381 8-55"/><g fill="#3b7847"><path d="M471 331c-1-4 7-8 17-9 10-2 19 1 19 5l-36 4Zm36-4c4-4 12-2 17 4 5 5 6 13 2 16l-19-20Z"/><path d="M486 310c3-3 9-2 15 3 6 4 8 10 6 13l-21-16Z"/><path d="M507 327c-2-7 3-14 12-18 10-3 19-1 22 6l-34 12Z"/></g><path fill="#4db343" d="M466 331c0-5 8-9 18-10s19 1 19 5l-37 5Zm37-5c4-3 11-2 17 4 5 6 6 13 2 17l-19-21Z"/><path fill="#4db343" d="M482 309c3-3 9-1 15 3 5 5 8 11 6 14l-21-17Z"/><path fill="#4db343" d="M503 326c-2-6 3-14 12-18 9-3 19 0 21 6l-33 12Z"/><path fill="none" stroke="#4c4c4c" stroke-width="7" d="m668 459 9-54"/><g fill="#3b7847"><path d="M644 410c0-4 8-9 18-10s19 1 19 5l-37 5Zm37-5c4-3 11-1 16 4 6 6 7 13 3 17l-19-21Z"/><path d="M660 389c3-3 9-2 15 2 5 5 8 11 5 14l-20-16Z"/><path d="M681 405c-3-6 3-14 12-17 9-4 19-1 21 5l-33 12Z"/></g><path fill="#4db343" d="M640 409c0-4 7-8 18-9 10-1 18 1 19 5l-37 4Zm37-4c4-4 11-2 16 4 5 5 7 13 3 16l-19-20Z"/><path fill="#4db343" d="M656 388c2-3 9-2 15 3 5 4 8 11 5 14l-20-17Z"/><path fill="#4db343" d="M677 405c-3-7 3-14 12-18 9-3 19-1 21 6l-33 12Z"/><path fill="#d9d9d9" d="m555 221 38-19h25l25 19 25 257H469l86-257Z"/><path fill="#b3b3b3" d="m555 221 38-19h25l-50 27-26 249h-73l86-257Z"/><path fill="#8c8c8c" d="m558 228 38-19h25l17 14-5 15-17-8s2 55 0 55c-3 0-18-55-18-55h-23l-17-2Z"/><path fill="#8dcf86" d="m507 365 10-3 20-37 5 31 13-3s27-57 38-50c10 6 19 84 25 89 6 4 7-58 12-64 4-7 9 25 13 25s11-25 11-25 7 87 11 112c3 24 10 38 10 38H469l38-113Z"/><path fill="#3b7847" d="M507 365s9-1 10-3c5-6 16-36 20-37 5-1 5 31 5 31 3-1 13-6 13-3 0 11-3 38-11 72-1 5 49-22 50-28 2-13 11 81 11 81s-63 42-88 50c-18 6-49 8-62 0-12-8 2-42-13-50s-80 8-76 0 77-31 100-50c21-17 41-63 41-63Z"/><path fill="#3b7847" d="M579 337c-4 2-11 38-15 50-1 3-11 24-8 23 4-1 21-9 24-19 4-12 3-55-1-54Z"/><path fill="#595959" d="m549 428 4 55 5-17 3 18 5-12 9 23-9 6-29 16-7 4 2-36 5-1-1-12 3-10 4 10v-24l6-20Z"/><path fill="#f88948" d="M617 271h-7l2 7 5 13v-20Z"/><path fill="red" d="M617 274c-2-2-4-1-7-1l1 3h6l-5 1v1h5v-4Zm0 8h-3v2c1 0 0-2 3 0l-2 1v2h2v-5Z"/><path fill="none" stroke="red" stroke-dasharray="16 16 0 0" stroke-dashoffset="4" stroke-width="4" d="M245 307c69 3 143-13 157 37 22 78-37 90-86 109-103 40-65 121-25 150 30 23 189 67 264-91"/><path fill="none" stroke="#4c4c4c" stroke-width="7" d="m369 673-11-44"/><g fill="#3b7847"><path d="M387 627c0-3-7-6-15-6-9 0-15 3-15 6h30Zm-30 0c-4-2-10 0-14 5-3 5-4 12 0 14l14-19Z"/><path d="M372 611c-2-2-7 0-12 4-4 5-5 10-3 12l15-16Z"/><path d="M357 627c1-5-4-11-12-13s-16 1-17 7l29 6Z"/></g><g fill="#4db343"><path d="M390 628c0-4-7-6-15-6-9 0-16 2-16 6h31Zm-31 0c-3-3-9-1-13 4-4 6-4 12 0 14l13-18Z"/><path d="M375 612c-2-2-8-1-12 3-4 5-5 10-3 12l15-15Z"/><path d="M359 628c2-6-3-12-11-14s-16 1-17 7l28 7Z"/></g><path fill="none" stroke="#4c4c4c" stroke-width="7" d="m658 526 12-45"/><g fill="#3b7847"><path d="M640 480c0-4 7-6 16-6 8 0 15 2 15 6h-31Zm31 0c4-3 10-1 13 4 4 6 4 12 1 14l-14-18Z"/><path d="M655 464c3-2 8-1 12 4 5 4 6 9 4 11l-16-15Z"/><path d="M671 480c-1-6 4-12 12-14s15 1 17 7l-29 7Z"/></g><g fill="#4db343"><path d="M637 480c0-3 7-6 16-6 8 0 15 3 15 6h-31Zm31 0c4-3 10 0 13 5 4 5 4 11 1 14l-14-19Z"/><path d="M653 464c2-2 7-1 11 4 5 4 6 9 4 12l-15-16Z"/><path d="M668 480c-1-6 4-11 12-13s16 1 17 6l-29 7Z"/></g><path fill="#3b7847" d="M669 530c0-3-5-5-10-5-6 0-10 2-10 5h20Z"/><path fill="none" stroke="#4c4c4c" stroke-width="7" d="m635 567 15-58"/><g fill="#3b7847"><path d="M611 507c0-4 9-8 20-8s20 4 20 8h-40Zm40 0c5-3 13 0 18 6 5 7 5 15 0 18l-18-24Z"/><path d="M631 486c3-3 10 0 15 5 6 6 8 13 5 16l-20-21Z"/><path d="M651 507c-1-7 5-15 16-17 10-3 20 1 22 8l-38 9Z"/></g><g fill="#4db343"><path d="M607 507c0-4 9-8 21-8 11 0 20 4 20 8h-41Zm41 0c4-3 12 0 17 7 5 6 5 15 1 18l-18-25Z"/><path d="M627 487c3-3 10-1 16 4 5 6 7 13 4 16l-20-20Z"/><path d="M648 507c-2-7 5-15 15-17 10-3 20 1 22 9l-37 8Z"/></g><path fill="#3b7847" d="M644 572c0-3-4-5-10-5s-10 2-10 5h20Z"/><path fill="none" stroke="#4c4c4c" stroke-width="7" d="m601 614 10-38"/><g fill="#3b7847"><path d="M586 575c0-3 6-5 13-5s13 2 13 5h-26Zm26 0c3-2 8 0 11 4 3 5 4 10 1 12l-12-16Z"/><path d="M599 562c2-2 6-1 10 3 3 3 5 8 3 10l-13-13Z"/><path d="M612 575c-1-5 3-10 10-11 7-2 13 1 14 5l-24 6Z"/></g><g fill="#4db343"><path d="M584 575c0-3 5-5 13-5 7 0 13 2 13 5h-26Zm26 0c3-2 8 0 11 4 3 5 3 10 0 12l-11-16Z"/><path d="M596 562c2-2 7-1 10 3 4 4 5 8 3 10l-13-13Z"/><path d="M610 575c-1-4 3-9 10-11 6-2 13 1 14 6l-24 5Z"/></g><path fill="none" stroke="#4c4c4c" stroke-width="7" d="m328 160-12-41"/><g fill="#3b7847"><path d="M345 119c0-3-7-6-15-6s-14 3-14 6h29Zm-29 0c-3-2-9 0-12 4-3 5-4 11 0 13l12-17Z"/><path d="M331 104c-3-2-8 0-11 4-4 4-6 9-3 11l14-15Z"/><path d="M316 119c1-5-3-11-11-12-7-2-14 1-15 6l26 6Z"/></g><g fill="#4db343"><path d="M347 119c0-4-7-6-14-6-8 0-15 2-15 6h29Zm-29 0c-3-3-8-1-12 4-3 5-3 10 0 13l12-17Z"/><path d="M333 104c-2-2-7-1-11 3s-5 9-3 11l14-14Z"/><path d="M318 119c2-6-3-11-10-13-8-2-15 1-16 6l26 7Z"/></g><path fill="none" stroke="#4c4c4c" stroke-width="7" d="m509 668 10-39"/><g fill="#3b7847"><path d="M492 628c0-3 6-5 14-5s14 2 14 5h-28Zm28 0c3-2 9 0 12 5 4 4 4 10 1 12l-13-17Z"/><path d="M506 614c2-2 7-1 11 3s5 9 3 11l-14-14Z"/><path d="M520 628c-1-5 4-10 11-12s14 1 15 6l-26 6Z"/></g><g fill="#4db343"><path d="M495 628c0-4 7-6 14-6 8 0 14 2 14 6h-28Zm28 0c3-3 9-1 12 4 4 5 4 10 1 13l-13-17Z"/><path d="M509 613c2-2 7 0 11 4 4 3 5 8 3 10l-14-14Z"/><path d="M523 628c-1-6 4-11 11-13 7-1 14 1 15 7l-26 6Z"/></g><path fill="none" stroke="#4c4c4c" stroke-linecap="butt" stroke-width="7" d="m500 671-12-47"/><g fill="#3b7847"><path d="M522 626c0-4-8-7-17-7-10 0-17 3-17 7h34Zm-34 0c-4-3-11 0-15 5-4 6-5 13-1 16l16-21Z"/><path d="M505 608c-2-2-8-1-13 4s-6 11-4 14l17-18Z"/><path d="M488 626c1-6-5-13-13-15-9-2-18 1-20 7l33 8Z"/></g><g fill="#4db343"><path d="M518 625c0-4-7-7-17-7s-17 3-17 7h34Zm-34 0c-4-3-11 0-15 6-4 5-5 12-1 15l16-21Z"/><path d="M501 607c-2-2-8 0-13 5-5 4-6 10-4 13l17-18Z"/><path d="M484 625c1-6-4-13-13-15s-18 1-19 8l32 7Z"/></g><path fill="none" stroke="#4c4c4c" stroke-width="7" d="m459 533 20-55"/><g fill="#4db343"><path d="M441 479c0-5 8-8 19-8 10 0 19 3 19 8h-38Zm38 0c4-4 12-1 17 6 4 6 5 14 0 17l-17-23Z"/><path d="M460 459c2-3 9-1 14 4 6 6 7 12 5 15l-19-19Z"/><path d="M479 479c-2-8 5-15 15-17 10-3 19 1 21 8l-36 9Z"/></g><path fill="none" stroke="#4c4c4c" stroke-width="7" d="m339 155-1-49"/><g fill="#3b7847"><path d="M366 114c1-3-6-8-15-10-8-2-16-1-17 2l32 8Zm-32-8c-3-3-10-2-15 2s-7 11-4 14l19-16Z"/><path d="M354 94c-2-3-8-3-13 1-5 3-8 8-7 11l20-12Z"/><path d="M334 106c3-5-1-12-9-16-7-5-16-3-19 2l28 14Z"/></g><path fill="#4db343" d="M369 114c1-3-5-8-14-10s-16-1-17 2l31 8Zm-31-8c-3-3-10-2-15 2s-7 11-4 14l19-16Z"/><path fill="#4db343" d="M358 94c-2-3-8-3-13 1-6 3-9 8-7 11l20-12Z"/><path fill="#4db343" d="M338 106c3-5-1-12-9-16-8-5-16-3-19 2l28 14Z"/><path fill="#589765" d="M451 528c4 5 6 20 6 20l29-4-7-16h-28Z"/><path fill="#3b7847" d="m405 82 6 1c5 3 8 12 8 21 0 10-4 20-10 22h-4c-7 0-13-10-13-22s6-22 13-22Z"/><ellipse cx="408.3" cy="104" fill="#4db343" rx="10.6" ry="21.7"/><path fill="none" stroke="#4c4c4c" stroke-width="5" d="m407 145-1-38"/><path fill="none" stroke="#4c4c4c" stroke-width="7" d="m694 331 14-49"/><g fill="#3b7847"><path d="M674 282c0-3 7-6 17-6 9 0 17 3 17 6h-34Zm34 0c4-2 10 0 14 6 5 5 5 12 1 15l-15-21Z"/><path d="M690 265c3-3 9-1 14 4 4 5 6 11 3 13l-17-17Z"/><path d="M708 282c-2-6 4-12 13-14 9-3 17 1 19 7l-32 7Z"/></g><g fill="#4db343"><path d="M678 284c0-4 8-7 17-7 10 0 17 3 17 7h-34Zm34 0c4-3 11-1 15 5s4 13 0 15l-15-20Z"/><path d="M695 266c2-3 8-1 13 4s6 11 4 13l-17-17Z"/><path d="M712 284c-1-7 4-13 13-15s17 1 19 7l-32 8Z"/></g><path fill="#589765" d="M671 331c4 9 25 34 25 34s13-10 12-16c-1-10-20-31-20-31l-17 13Z"/><path fill="#3b7847" d="m316 164 9 19 95-31 1-10c-22-2-76 1-105 22Zm180 509v-4c0-6 4-10 9-10h4c3 2 5 6 5 10v4h-18Z"/><path fill="#4db343" d="M514 673v-4c0-5-3-10-6-10h-1c-4 0-7 4-7 10v4h14Z"/><path fill="#3b7847" d="M508 673v-4c0-4 3-8 7-8h3c3 2 5 5 4 8l1 4h-15Z"/><path fill="#4db343" d="M523 673v-4c0-4-3-7-6-8-4 0-6 4-6 8v4h12Z"/><path fill="#3b7847" d="m518 673-1-5c0-6 4-10 9-10h4c4 2 6 6 6 10v4l-12 1h-6Z"/><path fill="#4db343" d="M536 672v-4c0-5-3-10-7-10s-8 4-8 10l1 5 8-1h6Z"/><path fill="#3b7847" d="m373 671-1-14c0-7 5-14 12-14l5 1c5 2 8 8 8 13v6l-14 4-10 4Z"/><path fill="#4db343" d="M397 663v-6c0-7-4-13-9-14h-1c-5 0-10 7-10 14v12l10-2 10-4Z"/><path fill="#3b7847" d="m335 154-1-6c0-5 3-10 7-10h3c2 2 4 6 4 10v2l-8 2-3 1-2 1Z"/><path fill="#4db343" d="M348 150v-2c0-5-2-9-5-10-3 0-6 5-6 10l1 5 10-3Z"/><path fill="#3b7847" d="M347 150v-7c0-7 3-14 8-14l4 1c4 2 6 8 6 13v2l-10 3-4 1-4 1Z"/><path fill="#4db343" d="M365 146v-3c0-7-3-13-7-14-4 0-8 7-8 14l1 5 14-2Z"/><path fill="#3b7847" d="M478 528v-8c0-11 5-19 11-19h6c4 3 7 11 7 19v8h-24Z"/><path fill="#4db343" d="M502 528v-8c0-10-4-13-8-14h-2c-5 0-9 3-9 14v8a1358 1358 0 0 0 19 0Zm-21 0v-6c0-6-3-9-6-10h-1c-4 0-7 3-7 10l1 6h13Z"/><path fill="#3b7847" d="m439 127 6 1c4 3 7 11 7 19s-3 18-9 19l-3 1c-7 0-13-9-13-20s6-20 12-20Z"/><ellipse cx="442.4" cy="146.9" fill="#4db343" rx="9.6" ry="19.7"/><path fill="none" stroke="#4c4c4c" stroke-width="5" d="M441 184v-34"/><g fill="#e2e1bf"><path d="M594 511h-51l13-9h25l13 9Z"/><path d="m568 502-1 9h-24l13-9h12Z"/></g><path fill="#e2e1bf" d="M574 513h-44l1-6 5-3h25l13 9Z"/><path fill="#f7db6b" d="m548 504-1 9h-17l1-6 5-3h12Z"/><path fill="#4c4c4c" d="M538 493h15v3h-15z"/><path fill="#e2e1bf" d="M539 495h14v10h-14z"/><path fill="#f7db6b" d="M538 495h5v10h-5zm8-5h-5c-3 0-3 2-3 3h8v-3Z"/><path fill="#e2e1bf" d="M553 495c0-2 0-3-4-4s-5 0-6 2l10 2Z"/><path fill="#4c4c4c" d="M554 500h11v2h-11z"/><path fill="#f7db6b" d="M554 502h11v8h-11z"/><path fill="#e2e1bf" d="M561 502h4v8h-4zm-2-3h4c2 0 3 1 2 2h-6v-2Z"/><path fill="#f7db6b" d="M554 502c-1-1 0-3 3-3 3-1 4 0 4 2l-7 1Z"/><path fill="none" stroke="#4c4c4c" stroke-width="7" d="m582 506-15-41"/><g fill="#4db343"><path d="M595 466c0-3-6-6-14-6-7 0-14 3-14 6h28Zm-28 0c-3-2-8-1-12 4-3 5-3 11 0 13l12-17Z"/><path d="M582 451c-3-2-7 0-11 4s-5 9-3 11l14-15Z"/><path d="M567 466c2-5-3-11-10-12-8-2-15 1-16 6l26 6Z"/></g><path fill="#3b7847" d="M575 513v-4c0-5 3-9 7-9h3c3 1 4 5 4 9v3l-8 1h-6Z"/><path fill="#4db343" d="M589 512v-3c0-5-2-9-5-9s-6 4-6 9v4h6l5-1Z"/><path fill="#3b7847" d="M582 512v-3c0-3 2-6 5-6h2c2 1 3 4 3 6v3h-10Z"/><path fill="#4db343" d="M592 512v-3c0-3-1-6-3-6h-1c-2 0-4 3-4 6v3h8Z"/><path fill="#8c8c8c" d="M447 165h18v23h-18z"/><path fill="#d9d9d9" d="m484 165-9-8-10 8v23h19v-23Z"/><path fill="#f7db6b" d="M477 157h-22l-13 11h23l12-11Z"/><path fill="#595959" d="M469 168h12v12h-12z"/><path fill="#f7db6b" d="m487 166-10-9-4 4 4-1 10 9v-3Z"/><path fill="#d9d9d9" d="M509 229h-13v3h13v-3Zm-3-5h-13v4h13v-4Zm-3-5h-13v4h13v-4Zm-3-4h-13v3h13v-3Zm-3-5h-14v3h14v-3Zm-3-5h-14v4h14v-4Zm-3-5h-14v4h14v-4Zm-3-4h-14v3h14v-3Zm-3-5h-14v3h14v-3Z"/><path fill="#3b7847" d="m520 169 6 1c6 4 9 13 9 23s-4 21-11 23h-4c-8 0-15-10-15-23s7-24 15-24Z"/><ellipse cx="523.1" cy="192.7" fill="#4db343" rx="11.4" ry="23.3"/><path fill="none" stroke="#4c4c4c" stroke-width="5" d="M521 237v-41"/><path fill="#3b7847" d="m426 183 5 1c3 3 5 9 5 15 0 7-2 15-7 16h-2c-6 0-10-7-10-16 0-8 4-15 9-16Z"/><ellipse cx="428.8" cy="199.3" fill="#4db343" rx="7.7" ry="15.7"/><path fill="none" stroke="#4c4c4c" stroke-width="5" d="m428 229-1-28"/><path fill="#3b7847" d="m375 138 7 1c5 4 9 14 9 24 0 11-4 23-12 25h-4c-9 0-16-11-16-25s7-25 16-25Z"/><ellipse cx="378.4" cy="163.1" fill="#4db343" rx="12.3" ry="25.1"/><path fill="none" stroke="#4c4c4c" stroke-width="5" d="M376 211v-45"/><path fill="#3b7847" d="m329 165 6 1c4 3 7 11 7 19s-3 18-9 19h-3c-7 0-13-8-13-19s6-20 12-20Z"/><ellipse cx="332.3" cy="184.8" fill="#4db343" rx="9.6" ry="19.7"/><path fill="none" stroke="#4c4c4c" stroke-width="5" d="M331 222v-35"/><path fill="#3b7847" d="m184 561 6 1c4 3 7 11 7 19s-3 18-9 19h-3c-7 0-13-8-13-19s5-20 12-20Z"/><ellipse cx="187.2" cy="580.7" fill="#4db343" rx="9.6" ry="19.7"/><path fill="none" stroke="#4c4c4c" stroke-width="5" d="M186 618v-35"/><path fill="#3b7847" d="M230 450c3 0 6 0 8 2 7 4 10 15 10 27 0 13-4 26-12 28l-5 1c-10 0-18-13-18-29s7-28 17-29Z"/><ellipse cx="234.3" cy="479.1" fill="#4db343" rx="13.9" ry="28.4"/><path fill="none" stroke="#4c4c4c" stroke-width="5" d="M232 533v-50"/><path fill="#3b7847" d="M277 585c3 0 5-1 7 1 5 3 8 13 8 22 0 11-3 22-10 24h-4c-8 0-15-11-15-24s6-23 14-23Z"/><ellipse cx="281" cy="608.3" fill="#4db343" rx="11.5" ry="23.4"/><path fill="none" stroke="#4c4c4c" stroke-width="5" d="M279 653v-42"/><path fill="#3b7847" d="m344 457 5 1c5 3 8 11 8 19s-4 18-9 19h-4c-6 0-12-8-12-19s5-20 12-20Z"/><ellipse cx="346.9" cy="476.7" fill="#4db343" rx="9.6" ry="19.7"/><path fill="none" stroke="#4c4c4c" stroke-width="5" d="M345 514v-35"/><path fill="#3b7847" d="m377 451 7 1c6 4 10 15 10 26 0 12-4 25-12 26l-5 1c-9 0-16-12-16-27s7-27 16-27Z"/><ellipse cx="380.9" cy="478" fill="#4db343" rx="13" ry="26.6"/><path fill="none" stroke="#4c4c4c" stroke-width="5" d="M379 528v-46"/><path fill="#3b7847" d="m450 361 7 1c6 4 10 15 10 26s-5 24-12 25l-4 1c-9 0-17-12-17-26 0-15 7-27 16-27Z"/><ellipse cx="454.1" cy="387.5" fill="#4db343" rx="12.7" ry="26"/><path fill="none" stroke="#4c4c4c" stroke-width="5" d="M452 437v-46"/><path fill="#3b7847" d="M419 280h5c5 3 7 11 7 19 0 9-3 19-9 20h-3c-7 0-12-9-12-20 0-10 5-19 12-19Z"/><ellipse cx="421.6" cy="299.5" fill="#4db343" rx="9.6" ry="19.7"/><path fill="none" stroke="#4c4c4c" stroke-width="5" d="M420 337v-35"/><path fill="#3b7847" d="m554 567 6 1c4 3 7 11 7 19 0 9-3 18-9 20h-3c-7 0-13-9-13-20s5-20 12-20Z"/><ellipse cx="557.3" cy="586.9" fill="#4db343" rx="9.6" ry="19.7"/><path fill="none" stroke="#4c4c4c" stroke-width="5" d="M556 624v-34"/><path fill="#4c4c4c" d="M385 349c0-16-3-19-19-19h-76c-16 0-19 3-19 19v28c0 10-10 10-19 10-14 0-19 3-19 13 0 14 4 15 19 15h76c10 0 19-3 19-13 0-11 6-15 24-15 12-1 14-5 14-15v-23Zm-95 231c0 12 3 14 21 14h85c18 0 22-2 22-14v-22c0-8 10-8 21-8 16 0 21-2 21-10 0-11-5-12-21-12h-85c-12 0-21 2-21 11-1 8-7 11-27 11-14 0-16 4-16 11v19Z"/><g fill="#4c4c4c"><path d="M134 700h-2l1-1 2 1h-1Z"/><path d="M130 691c7 0 14 4 16 9 1 4-3 8-9 8-7 0-14-4-16-8-2-5 2-9 9-9Zm1 2c5 0 10 3 11 7 2 3-1 6-6 6s-10-3-12-6c-1-4 2-7 7-7Z"/><path d="M149 699h-31v1h31v-1Z"/><path d="m139 710-8-21h-3l8 21h3Z"/><path d="m148 707-28-16-1 2 28 15 1-1Z"/><path d="m140 691-16 16 2 1 17-15-3-2Z"/></g><path fill="#8c8c8c" d="m161 651-78 51-36-4 1-28s37-26 47-30l9 5-2-4 9 3s-6-8-4-9c35-9 54 16 54 16Z"/><path fill="#b3b3b3" d="m161 651-78 51-2-30 43-25c24-13 37 4 37 4Z"/><path fill="none" stroke="#4c4c4c" stroke-linecap="butt" stroke-width="5" d="m115 679 51 10m7 0 19-28m-41 17 10-15"/><path fill="#d9d9d9" d="m82 673-34-3-1 28 36 4-2-29Z"/><path fill="#fff" d="M141 711c0-2-3-3-7-3s-7 1-7 3h14ZM96 610c0-2-3-3-7-3s-8 1-8 3h15Zm-21-43c0-2-2-3-6-3-3 0-6 1-6 3h12Zm17-6c0-2-3-3-6-3s-6 1-6 3h12Zm89 131c0-2-4-4-10-4-5 0-10 2-10 4h20Zm-45-101c0-2-4-4-10-4-5 0-10 2-10 4h20Zm9-69c0-2-5-4-10-4-6 0-10 2-10 4h20Z"/><path fill="#fff" d="M132 521c0-3-4-5-10-5-5 0-10 2-10 5h20Zm26-47c0-2-4-5-10-5-5 0-10 3-10 5h20Zm36-63c0-2-3-4-8-4-4 0-7 2-7 4h15Zm48-158c0-2-4-4-8-4s-8 2-8 4h16Zm-62 163c0-2-5-4-10-4-6 0-10 2-10 4h20Zm20 7c0-2-5-4-10-4-6 0-10 2-10 4h20Zm13-68c0-3-4-5-10-5-5 0-10 2-10 5h20Zm48-158c0-3-5-5-10-5-6 0-10 2-10 5h20Zm-45 144c0-1-4-3-8-3s-8 2-8 3h16Zm56-154c0-2-4-4-8-4s-8 2-8 4h16Zm38-26c0-2-4-3-8-3s-8 1-8 3h16Zm67-31c0-1-3-3-7-3s-8 2-8 3h15Zm20 5c0-2-3-4-8-4-4 0-7 2-7 4h15Zm73 4c0-2-4-3-8-3s-8 1-8 3h16Zm25-2c0-2-4-4-8-4s-8 2-8 4h16Zm-12-7c0-3-4-5-10-5s-11 2-11 5h21Zm49 21c0-2-4-4-8-4s-8 2-8 4h16Zm8 4c0-2-4-3-8-3s-8 1-8 3h16ZM109 551c0-2-4-4-9-4-4 0-8 2-8 4h17Z"/><path fill="#8c8c8c" d="m442 569-5-1-5-5-4 1-5-5-5 5-5-5-4 5-5-5-5 5-5-5-4 5-5-5-5 5-5-5-4 5-5-5h-3c-2 0-3 0-3 2v5h-15v6h97v-3Z"/><ellipse cx="363.9" cy="563.4" fill="#4c4c4c" rx="2.1" ry="2"/><path fill="#8c8c8c" d="m382 365-3-1-4-4-3 1-3-4-3 4-4-4-3 4-3-4-3 4-3-4-4 4-3-4-3 4-3-4-4 4-3-4h-2l-1 2v3h-11v5h66v-2Z"/><circle cx="328.9" cy="360.7" r="1.4" fill="#4c4c4c"/><path fill="#8dcf86" d="M382 380h-2l-3-3-2 1-2-3-3 3-2-3-2 3-3-3-2 3-2-3-3 3-2-3-2 3-3-3-2 3-2-3h-2l-1 2v2h-7v3h47v-2Z"/><circle cx="343.8" cy="377.6" r="1" fill="#4c4c4c"/><path fill="#8dcf86" d="m285 537 4-1 4-4h3l4-4 4 4 4-4 3 4 4-4 4 4 4-4 4 4 3-4 4 4 4-4 4 4 3-4h3c1 0 2 1 2 3v3h12v5h-77v-2Z"/><circle cx="347" cy="532.2" r="1.6" fill="#2d5836"/><path fill="#8dcf86" d="m227 405 4-1 3-4 4 1 4-4 4 4 4-4 3 4 4-4 4 4 4-4 3 4 4-4 4 4 4-4 3 4 4-4h2c2 0 3 0 3 2v4h12v4h-77v-2Z"/><circle cx="288.8" cy="400.5" r="1.6" fill="#2d5836"/><path fill="#8dcf86" d="m299 358-4 3-5-3-5 3-5-3-5 5h30l-6-5Z"/><path fill="none" stroke="#4c4c4c" stroke-width="7" d="m317 286-9-55"/><g fill="#3b7847"><path d="M341 236c0-4-7-8-18-9-10-2-18 1-19 5l37 4Zm-37-4c-4-4-11-2-16 4-6 5-7 13-3 16l19-20Z"/><path d="M325 215c-2-3-9-2-15 3-5 4-8 11-5 14l20-17Z"/><path d="M304 232c3-7-3-14-12-18-9-3-19-1-21 6l33 12Z"/></g><path fill="#4db343" d="M345 236c1-4-7-9-17-10-11-1-19 1-20 5l37 5Zm-37-5c-3-3-11-1-16 4-5 6-6 13-3 17l19-21Z"/><path fill="#4db343" d="M329 215c-2-3-9-2-14 2-6 5-9 11-6 14l20-16Z"/><path fill="#4db343" d="M308 231c3-6-2-14-12-17-9-4-18-1-21 5l33 12Z"/><path fill="none" stroke="#4c4c4c" stroke-width="7" d="m257 415-9-55"/><g fill="#3b7847"><path d="M281 366c1-5-7-9-17-10-11-1-19 1-20 5l37 5Zm-37-5c-4-3-11-2-16 4s-7 13-3 17l19-21Z"/><path d="M265 344c-2-3-9-1-14 3-6 5-9 11-6 14l20-17Z"/><path d="M244 361c3-6-2-14-12-17-9-4-18-1-21 5l33 12Z"/></g><path fill="#4db343" d="M285 365c1-4-7-8-17-10-10-1-19 2-20 6l37 4Zm-37-4c-3-4-11-2-16 3-5 6-6 13-3 17l19-20Z"/><path fill="#4db343" d="M269 344c-2-3-9-2-14 3-6 4-8 10-6 13l20-16Z"/><path fill="#4db343" d="M249 361c2-7-3-15-12-18-10-4-19-1-22 6l34 12Z"/><path fill="none" stroke="#4c4c4c" stroke-width="7" d="m361 411 8-55"/><g fill="#3b7847"><path d="M337 361c-1-4 7-8 17-9 10-2 19 1 20 5l-37 4Zm37-4c3-4 11-2 16 4 5 5 6 13 3 16l-19-20Z"/><path d="M353 340c2-3 9-2 14 3 6 4 8 10 6 13l-20-16Z"/><path d="M374 357c-3-7 2-14 12-18 9-3 18-1 21 6l-33 12Z"/></g><path fill="#4db343" d="M333 361c-1-5 7-9 17-10s19 1 19 5l-36 5Zm36-5c4-3 11-2 17 4 5 6 6 13 2 17l-19-21Z"/><path fill="#4db343" d="M348 339c3-3 9-1 15 3 6 5 8 11 6 14l-21-17Z"/><path fill="#4db343" d="M369 356c-2-6 3-14 12-18 10-3 19 0 22 6l-34 12Z"/><path fill="#d9d9d9" d="m522 468 1-1-1-2-3 3 2 1v-1l8 8-1 1 1 1 3-3-2-1v1l-8-7Z"/><path fill="#d9d9d9" d="M523 475v-1l-2 1 3 3 1-1-1-1 8-8v1l2-1-3-3-1 2 1 1-8 7Z"/><path fill="#d9d9d9" d="M526 463c2 0 3 1 3 3l-1 2c0 1 0 2-2 2l-2-2-1-2c0-2 1-3 3-3Z"/><path fill="#fff" d="M526 469h-1 1Zm0 0Zm1 0h-1 1Zm1 0h-1 1Zm-2-1h-1v1h1v-1Zm0 0v1-1Zm1 0h-1v1h1v-1Zm1 0h-1v1h1v-1Z"/><circle cx="524.8" cy="465" r=".7" fill="#4c4c4c"/><circle cx="525.9" cy="466.6" r=".3" fill="#4c4c4c"/><circle cx="526.7" cy="466.6" r=".3" fill="#4c4c4c"/><circle cx="527.8" cy="465" r=".7" fill="#4c4c4c"/><path fill="#3b7847" d="m434 511 8 1c7 5 10 16 10 28 0 13-5 27-13 29h-5c-10 0-18-13-18-29s8-29 18-29Z"/><ellipse cx="438" cy="540.2" fill="#4db343" rx="14.3" ry="29.1"/><path fill="none" stroke="#4c4c4c" stroke-width="5" d="M436 595v-51m-168-47 32-47m-30 26 25 9m-13-2 16 22m-81 73 25 11m28-118 47 3m-110 71 29 37m18-84 46-8M200 605l36-31m10-50 27-18m-67 125 15-29"/><path fill="#3b7847" d="M401 430c0-1-4-3-8-3s-8 2-8 3h16Zm22 0c0-2-3-3-7-3-5 0-8 1-8 3h15Zm45-91c0-2-3-4-7-4-5 0-8 2-8 4h15Zm227 13c0-2-3-4-8-4-4 0-7 2-7 4h15Zm-4-24c0-2-4-4-8-4s-8 2-8 4h16Zm-27-22c0-2-2-3-6-3-3 0-6 1-6 3h12Z"/><path fill="#8dcf86" d="M298 273c0-2-4-3-8-3s-8 1-8 3h16Zm13-67c0-2-3-4-7-4-5 0-8 2-8 4h15Z"/><path fill="#4c4c4c" d="M286 451c0-2-3-4-7-4-5 0-8 2-8 4h15Zm44-25c0-2-3-4-8-4-4 0-7 2-7 4h15Zm34-12c0-2-4-3-8-3s-8 1-8 3h16Zm-59 106c0-2-3-4-7-4-5 0-8 2-8 4h15Z"/><path fill="#3b7847" d="M324 503c0-2-3-3-8-3-4 0-7 1-7 3h15Zm-46 19c0-2-4-3-8-3s-8 1-8 3h16Zm-30 69c0-2-3-3-7-3-5 0-8 1-8 3h15Z"/><path fill="#8dcf86" d="M198 556c0-2-4-4-8-4s-8 2-8 4h16Zm81-132c0-2-4-4-8-4s-7 2-7 4h15Zm-79 85c0-3-4-5-9-5s-9 2-9 5h18Zm9-13c0-2-4-4-10-4-5 0-9 2-9 4h19Z"/><path fill="#3b7847" d="M308 652c0-2-4-4-8-4s-8 2-8 4h16Zm133-53c0-2-4-4-8-4s-8 2-8 4h16Zm-25 13c0-2-4-3-8-3s-8 1-8 3h16Zm-30-176c0-3-4-5-10-5-5 0-10 2-10 5h20Zm-10-21c0-2-4-4-10-4-5 0-10 2-10 4h20Zm33 21c0-3-5-5-10-5-6 0-10 2-10 5h20Z"/><path fill="#8dcf86" d="M439 463c0-2-4-4-8-4s-8 2-8 4h16Z"/><path fill="#3b7847" d="M454 344c0-2-4-4-10-4s-10 2-10 4h20Zm227 13c0-3-5-5-10-5-6 0-10 2-10 5h20Zm-12-26c0-1-3-3-6-3-4 0-7 2-7 3h13ZM409 227c0-2-3-4-7-4s-8 2-8 4h15Zm-27-12c0-2-3-4-7-4s-7 2-7 4h14Z"/><path fill="#3b7847" d="M391 213c0-2-3-3-7-3s-7 1-7 3h14Zm-45 14c0-2-3-4-7-4s-7 2-7 4h14Z"/><path fill="#3b7847" d="M341 225c0-2-3-4-7-4s-7 2-7 4h14Z"/><path fill="#8dcf86" d="M283 279c0-3-4-5-10-5-5 0-10 2-10 5h20Zm69-114c0-2-4-4-8-4s-7 2-7 4h15Zm57-16c0-2-4-4-8-4s-7 2-7 4h15Z"/><path fill="#3b7847" d="M272 456c0-3-5-5-10-5-6 0-10 2-10 5h20Z"/><path fill="#4c4c4c" d="M310 509c0-3-5-5-10-5-6 0-10 2-10 5h20Zm4 40c0-2-5-4-10-4-6 0-10 2-10 4h20Z"/><path fill="#3b7847" d="M263 528c0-3-4-5-10-5-5 0-10 2-10 5h20Zm-20 8c0-2-4-4-8-4s-8 2-8 4h16Z"/><path fill="#3b7847" d="M234 535c0-2-4-4-8-4-5 0-8 2-8 4h16Zm-3 61c0-3-4-5-10-5-5 0-10 2-10 5h20Z"/><path fill="#8dcf86" d="M182 551c0-2-5-4-10-4-6 0-10 2-10 4h20Zm9 71c0-3-5-5-10-5-6 0-10 2-10 5h20Z"/><path fill="#8dcf86" d="M200 624c0-2-3-4-7-4s-7 2-7 4h14Zm63-205c0-2-5-4-10-4-6 0-10 2-10 4h20Zm-72 87c0-4-6-6-12-6-7 0-12 2-12 6h24Z"/><path fill="#3b7847" d="M293 657c0-3-4-5-10-5-5 0-10 2-10 5h20Zm133-53c0-2-4-4-10-4-5 0-10 2-10 4h20Zm-25 14c0-3-4-5-10-5-5 0-10 2-10 5h20Zm5-175c0-3-4-5-10-5-5 0-10 2-10 5h20Z"/><path fill="#8dcf86" d="M422 469c0-2-4-4-8-4s-8 2-8 4h16Z"/><path fill="#3b7847" d="M429 442c0-2-5-4-10-4-6 0-10 2-10 4h20Z"/><path fill="#8dcf86" d="M537 522c0-3-3-4-8-4-4 0-7 1-7 4h15Z"/><path fill="#3b7847" d="M456 440c0-3-4-5-10-5-5 0-10 2-10 5h20Zm18-89c0-2-4-4-10-4s-10 2-10 4h20Zm28 35c0-3-4-5-10-5-5 0-10 2-10 5h20Zm-73-45c0-2-4-4-10-4-5 0-10 2-10 4h20Zm282 27c0-3-5-5-10-5-6 0-10 2-10 5h20Zm-15-28c0-2-4-5-10-5-5 0-10 3-10 5h20ZM434 234c0-3-4-5-10-5-5 0-10 2-10 5h20Zm42-16c0-2-5-4-10-4-6 0-10 2-10 4h20Zm-20-30c0-3-5-5-10-5-6 0-10 2-10 5h20Zm76 52c0-2-3-3-7-3s-6 1-6 3h13Zm8 4c0-2-3-3-7-3-3 0-6 1-6 3h13Zm-115-66c0-2-3-4-7-4-5 0-8 2-8 4h15Z"/><path fill="#8dcf86" d="M303 286c0-3-4-5-10-5-5 0-10 2-10 5h20Zm21 3c0-3-5-5-10-5-6 0-10 2-10 5h20Zm-1-85c0-3-4-5-10-5-5 0-10 2-10 5h20Z"/><path fill="#4c4c4c" d="M292 463c0-3-5-5-10-5-6 0-10 2-10 5h20Zm4 41c0-3-5-5-10-5-6 0-10 2-10 5h20Z"/><path fill="#3b7847" d="M330 516c0-3-5-5-10-5-6 0-10 2-10 5h20Z"/><path fill="#4c4c4c" d="M283 535c0-3-4-5-10-5-5 0-10 2-10 5h20Zm4 40c0-2-4-4-10-4-5 0-10 2-10 4h20Z"/><path fill="#3b7847" d="M251 603c0-3-4-5-10-5-5 0-10 2-10 5h20Zm62 61c0-3-4-5-10-5-5 0-10 2-10 5h20Zm133-53c0-2-4-4-10-4-5 0-10 2-10 4h20Zm49-55c0-2-5-4-10-4-6 0-10 2-10 4h20Zm42 34c0-3-5-5-10-5-6 0-10 2-10 5h20Zm25 38c0-3-4-5-10-5-5 0-10 2-10 5h20Zm3 7c0-2-3-3-6-3s-6 1-6 3h12Zm31-18c0-2-3-3-6-3-4 0-6 1-6 3h12Zm10 1c0-1-2-2-6-2l-6 2h12Zm19-73c0-3-4-5-10-5s-10 2-10 5h20Zm-171 58c0-3-4-5-10-5-5 0-10 2-10 5h20Zm49-55c0-3-5-5-10-5-6 0-10 2-10 5h20Zm43 20c0-2-4-5-10-5-5 0-10 3-10 5h20Zm38-45c0-2-4-4-10-4-5 0-10 2-10 4h20Z"/><path fill="none" stroke="red" stroke-width="4" d="m562 511-7 2-3-6 6 13-3-7-8 3"/><path fill="#fff" d="M382 678c0-2-5-4-10-4-6 0-10 2-10 4h20Z"/><path fill="#fff" d="M391 681c0-2-4-4-10-4-5 0-10 2-10 4h20Z"/><path fill="none" stroke="#065e7b" stroke-width="5" d="M620 510s-8-2-10 0 0 10 0 10 2 8 0 10-10 0-10 0-8-2-10 0 0 10 0 10 2 8 0 10-10 0-10 0-8-2-10 0 0 10 0 10"/><path fill="none" stroke="#f7db6b" stroke-width="5" d="M203 610s-3 3-3 5l6 3 5 3c1 1-2 5-2 5l-3 4c1 2 6 4 6 4s5 1 5 3c1 1-2 4-2 4l-3 5 6 3"/></svg>