<svg xmlns="http://www.w3.org/2000/svg" xml:space="preserve" fill-rule="evenodd" stroke-linecap="round" stroke-linejoin="round" stroke-miterlimit="1.5" clip-rule="evenodd" viewBox="0 0 800 800"><path fill="#f7db6b" d="M398 215a175 175 0 1 1 0 351 175 175 0 0 1 0-351Zm0 28a147 147 0 1 1 0 295 147 147 0 0 1 0-295Z"/><circle cx="398.4" cy="390.3" r="131.5" fill="#73b3ce"/><g stroke="#000" stroke-width="5"><path d="M398 390h43l57 101-100-101Z"/><path fill="#fff" d="m398 390 100 101-100-58v-43Z"/><path d="M398 390h-43l-57-100 100 100Z"/><path fill="#fff" d="M398 390 298 290l100 58v42Z"/><path d="M399 392v-43l100-58-100 101Z"/><path fill="#fff" d="m399 392 100-101-58 101h-42Z"/><path d="M400 390v43l-100 58 100-101Z"/><path fill="#fff" d="M400 390 300 491l58-101h42Z"/></g><g stroke="#000" stroke-width="5"><path d="m398 390 42 43-42 157V390Z"/><path fill="#fff" d="M398 390v200l-43-157 43-43Z"/><path d="m398 390-43-42 43-157v199Z"/><path fill="#fff" d="M398 390V191l42 157-42 42Z"/><path d="m397 392 43-42 157 42H397Z"/><path fill="#fff" d="M397 392h200l-157 43-43-43Z"/><path d="m400 392-43 43-157-43h200Z"/><path fill="#fff" d="M400 392H200l157-42 43 42Z"/></g><circle cx="398.4" cy="390.3" r="10" fill="#ebebeb"/></svg>